<svg xmlns="http://www.w3.org/2000/svg" xmlns:xlink="http://www.w3.org/1999/xlink" xmlns:ev="http://www.w3.org/2001/xml-events" xmlns:v="http://schemas.microsoft.com/visio/2003/SVGExtensions/" width="5.4238in" height="4.81552in" viewBox="0 0 390.514 346.717" xml:space="preserve" color-interpolation-filters="sRGB" class="st17">		<style type="text/css">	<![CDATA[		.st1 {fill:#dbede4;stroke:#000000;stroke-linecap:round;stroke-linejoin:round;stroke-width:1}		.st2 {fill:#66cfa4;stroke:none;stroke-linecap:round;stroke-linejoin:round;stroke-width:0.75}		.st3 {fill:#000000;font-family:Trebuchet MS;font-size:0.75em}		.st4 {font-size:1em}		.st5 {fill:none;stroke:none;stroke-linecap:round;stroke-linejoin:round;stroke-width:0.75}		.st6 {fill:#000000;font-family:Trebuchet MS;font-size:0.666664em}		.st7 {fill:#ffffff;stroke:#292929;stroke-linecap:round;stroke-linejoin:round;stroke-width:0.75}		.st8 {stroke:#292929;stroke-linecap:round;stroke-linejoin:round;stroke-width:0.75}		.st9 {fill:#000000;font-family:Trebuchet MS;font-size:1.16666em}		.st10 {fill:#00af66;stroke:#000000;stroke-linecap:round;stroke-linejoin:round;stroke-width:0.5}		.st11 {fill:#ffffff;font-family:Trebuchet MS;font-size:0.666664em;font-weight:bold}		.st12 {fill:#ffffff;font-family:Trebuchet MS;font-size:0.499992em;font-weight:bold}		.st13 {marker-end:url(#mrkr5-272);stroke:#000000;stroke-linecap:round;stroke-linejoin:round;stroke-width:0.75}		.st14 {fill:#000000;fill-opacity:1;stroke:#000000;stroke-opacity:1;stroke-width:0.22935779816514}		.st15 {stroke:#000000;stroke-linecap:round;stroke-linejoin:round;stroke-width:0.75}		.st16 {marker-end:url(#mrkr5-272);marker-start:url(#mrkr5-396);stroke:#000000;stroke-linecap:round;stroke-linejoin:round;stroke-width:0.75}		.st17 {fill:none;fill-rule:evenodd;font-size:12px;overflow:visible;stroke-linecap:square;stroke-miterlimit:3}	]]>	</style>	<defs id="Markers">		<g id="lend5">			<path d="M 2 1 L 0 0 L 1.98117 -0.993387 C 1.67173 -0.364515 1.67301 0.372641 1.98465 1.00043 " style="stroke:none"></path>		</g>		<marker id="mrkr5-272" class="st14" v:arrowType="5" v:arrowSize="2" v:setback="7.63" refX="-7.63" orient="auto" markerUnits="strokeWidth">			<use xlink:href="#lend5" transform="scale(-4.36,-4.36) "></use>		</marker>		<marker id="mrkr5-396" class="st14" v:arrowType="5" v:arrowSize="2" v:setback="7.15" refX="7.15" orient="auto" markerUnits="strokeWidth">			<use xlink:href="#lend5" transform="scale(4.36) "></use>		</marker>	</defs>	<g v:mID="0" v:index="1" v:groupContext="foregroundPage">		<title>Page-1</title>				<g id="shape1-1" v:mID="1" v:groupContext="shape" transform="translate(49.8315,-16.1386)">			<title>Sheet.1</title>			<rect x="0" y="66.0873" width="304.874" height="280.63" class="st1"></rect>		</g>		<g id="shape2088-3" v:mID="2088" v:groupContext="shape" transform="translate(219.351,-27.4772)">			<title>Sheet.2088</title>			<desc>Lightning Algorithm</desc>									<rect x="0" y="226.729" width="124.016" height="119.988" class="st2"></rect>			<text x="22.46" y="340.02" class="st3" v:langID="1033">Lightning Algorithm</text>		</g>		<g id="shape630-6" v:mID="630" v:groupContext="shape" transform="translate(72.6585,-33.1465)">			<title>Sheet.630</title>			<desc>Clock generators</desc>									<rect x="0" y="286.257" width="77.9528" height="60.4603" class="st2"></rect>			<text x="28.05" y="329.22" class="st3" v:langID="1033">Clock<tspan x="17.47" dy="1.2em" class="st4">generators</tspan></text>		</g>		<g id="shape32-10" v:mID="32" v:groupContext="shape" transform="translate(-254.216,41.3513) rotate(-90)">			<title>Sheet.32</title>			<desc>I2CL/SCL</desc>									<rect x="0" y="341.048" width="40.4421" height="5.66929" class="st5"></rect>			<text x="1" y="346.28" class="st6" v:langID="1033">I2CL/SCL</text>		</g>		<g id="shape112-13" v:mID="112" v:groupContext="shape" transform="translate(0.375,-171.999)">			<title>Sheet.112</title>			<desc>INP</desc>									<rect x="0" y="341.048" width="40.6238" height="5.66929" class="st5"></rect>			<text x="27.83" y="346.28" class="st6" v:langID="1033">IN<tspan class="st4" v:langID="1031">P</tspan></text>		</g>		<g id="shape113-17" v:mID="113" v:groupContext="shape" transform="translate(0.375,-157.826)">			<title>Sheet.113</title>			<desc>INN</desc>									<rect x="0" y="341.048" width="40.6238" height="5.66929" class="st5"></rect>			<text x="27.19" y="346.28" class="st6" v:langID="1033">IN<tspan class="st4" v:langID="1031">N</tspan></text>		</g>		<g id="shape156-21" v:mID="156" v:groupContext="shape" transform="translate(-211.697,42.3725) rotate(-90)">			<title>Sheet.156</title>			<desc>I2CD/MOSI</desc>									<rect x="0" y="341.048" width="41.9975" height="5.66929" class="st5"></rect>			<text x="1" y="346.28" class="st6" v:langID="1033">I2CD/MOSI</text>		</g>		<g id="shape170-24" v:mID="170" v:groupContext="shape" transform="translate(-275.655,41.3513) rotate(-90)">			<title>Sheet.170</title>			<desc>CS</desc>									<rect x="0" y="341.048" width="40.4421" height="5.66929" class="st5"></rect>			<text x="1" y="346.28" class="st6" v:langID="1033">CS</text>		</g>		<g id="group171-27" transform="translate(64.1545,-292.517)" v:mID="171" v:groupContext="group">						<title>pin</title>			<g id="shape172-28" v:mID="172" v:groupContext="shape">				<title>Sheet.172</title>				<rect x="0" y="338.213" width="8.50394" height="8.50394" class="st7"></rect>			</g>			<g id="shape173-30" v:mID="173" v:groupContext="shape" transform="translate(245.166,93.0472) rotate(45)">				<title>Sheet.173</title>				<path d="M0 346.72 L12.03 346.72" class="st8"></path>			</g>			<g id="shape174-33" v:mID="174" v:groupContext="shape" transform="translate(-245.166,101.551) rotate(-45)">				<title>Sheet.174</title>				<path d="M0 346.72 L12.03 346.72" class="st8"></path>			</g>		</g>		<g id="group175-36" transform="translate(85.4144,-292.517)" v:mID="175" v:groupContext="group">						<title>pin.346</title>			<g id="shape176-37" v:mID="176" v:groupContext="shape">				<title>Sheet.176</title>				<rect x="0" y="338.213" width="8.50394" height="8.50394" class="st7"></rect>			</g>			<g id="shape177-39" v:mID="177" v:groupContext="shape" transform="translate(245.166,93.0472) rotate(45)">				<title>Sheet.177</title>				<path d="M0 346.72 L12.03 346.72" class="st8"></path>			</g>			<g id="shape178-42" v:mID="178" v:groupContext="shape" transform="translate(-245.166,101.551) rotate(-45)">				<title>Sheet.178</title>				<path d="M0 346.72 L12.03 346.72" class="st8"></path>			</g>		</g>		<g id="group187-45" transform="translate(127.934,-292.517)" v:mID="187" v:groupContext="group">						<title>pin.370</title>			<g id="shape188-46" v:mID="188" v:groupContext="shape">				<title>Sheet.188</title>				<rect x="0" y="338.213" width="8.50394" height="8.50394" class="st7"></rect>			</g>			<g id="shape189-48" v:mID="189" v:groupContext="shape" transform="translate(245.166,93.0472) rotate(45)">				<title>Sheet.189</title>				<path d="M0 346.72 L12.03 346.72" class="st8"></path>			</g>			<g id="shape190-51" v:mID="190" v:groupContext="shape" transform="translate(-245.166,101.551) rotate(-45)">				<title>Sheet.190</title>				<path d="M0 346.72 L12.03 346.72" class="st8"></path>			</g>		</g>		<g id="group283-54" transform="translate(45.4298,-156.17)" v:mID="283" v:groupContext="group">						<title>pin.530</title>			<g id="shape284-55" v:mID="284" v:groupContext="shape">				<title>Sheet.284</title>				<rect x="0" y="338.213" width="8.50394" height="8.50394" class="st7"></rect>			</g>			<g id="shape285-57" v:mID="285" v:groupContext="shape" transform="translate(245.166,93.0472) rotate(45)">				<title>Sheet.285</title>				<path d="M0 346.72 L12.03 346.72" class="st8"></path>			</g>			<g id="shape286-60" v:mID="286" v:groupContext="shape" transform="translate(-245.166,101.551) rotate(-45)">				<title>Sheet.286</title>				<path d="M0 346.72 L12.03 346.72" class="st8"></path>			</g>		</g>		<g id="group287-63" transform="translate(45.4298,-170.627)" v:mID="287" v:groupContext="group">						<title>pin.534</title>			<g id="shape288-64" v:mID="288" v:groupContext="shape">				<title>Sheet.288</title>				<rect x="0" y="338.213" width="8.50394" height="8.50394" class="st7"></rect>			</g>			<g id="shape289-66" v:mID="289" v:groupContext="shape" transform="translate(245.166,93.0472) rotate(45)">				<title>Sheet.289</title>				<path d="M0 346.72 L12.03 346.72" class="st8"></path>			</g>			<g id="shape290-69" v:mID="290" v:groupContext="shape" transform="translate(-245.166,101.551) rotate(-45)">				<title>Sheet.290</title>				<path d="M0 346.72 L12.03 346.72" class="st8"></path>			</g>		</g>		<g id="shape306-72" v:mID="306" v:groupContext="shape" transform="translate(135.021,-65.7449)">			<title>Sheet.306</title>			<desc>AS3935</desc>									<rect x="0" y="309.867" width="92.126" height="36.8504" class="st5"></rect>			<text x="23.88" y="332.49" class="st9" v:langID="1033">AS3935</text>		</g>		<g id="shape312-75" v:mID="312" v:groupContext="shape" transform="translate(-232.956,41.3513) rotate(-90)">			<title>Sheet.312</title>			<desc>MISO</desc>									<rect x="0" y="341.048" width="40.4421" height="5.66929" class="st5"></rect>			<text x="1" y="346.28" class="st6" v:langID="1033">MISO</text>		</g>		<g id="group313-78" transform="translate(106.674,-292.517)" v:mID="313" v:groupContext="group">						<title>box.506</title>			<g id="shape314-79" v:mID="314" v:groupContext="shape">				<title>Sheet.314</title>				<rect x="0" y="338.213" width="8.50394" height="8.50394" class="st7"></rect>			</g>			<g id="shape315-81" v:mID="315" v:groupContext="shape" transform="translate(245.166,93.0472) rotate(45)">				<title>Sheet.315</title>				<path d="M0 346.72 L12.03 346.72" class="st8"></path>			</g>			<g id="shape316-84" v:mID="316" v:groupContext="shape" transform="translate(-245.166,101.551) rotate(-45)">				<title>Sheet.316</title>				<path d="M0 346.72 L12.03 346.72" class="st8"></path>			</g>		</g>		<g id="shape317-87" v:mID="317" v:groupContext="shape" transform="translate(-190.437,41.3513) rotate(-90)">			<title>Sheet.317</title>			<desc>SINT</desc>									<rect x="0" y="341.048" width="40.4421" height="5.66929" class="st5"></rect>			<text x="1" y="346.28" class="st6" v:langID="1033">SINT</text>		</g>		<g id="group318-90" transform="translate(149.194,-292.517)" v:mID="318" v:groupContext="group">						<title>pin.511</title>			<g id="shape319-91" v:mID="319" v:groupContext="shape">				<title>Sheet.319</title>				<rect x="0" y="338.213" width="8.50394" height="8.50394" class="st7"></rect>			</g>			<g id="shape320-93" v:mID="320" v:groupContext="shape" transform="translate(245.166,93.0472) rotate(45)">				<title>Sheet.320</title>				<path d="M0 346.72 L12.03 346.72" class="st8"></path>			</g>			<g id="shape321-96" v:mID="321" v:groupContext="shape" transform="translate(-245.166,101.551) rotate(-45)">				<title>Sheet.321</title>				<path d="M0 346.72 L12.03 346.72" class="st8"></path>			</g>		</g>		<g id="shape1444-99" v:mID="1444" v:groupContext="shape" transform="translate(363.87,-230.154)">			<title>Sheet.1444</title>			<desc>AGC</desc>									<rect x="0" y="341.048" width="26.2688" height="5.66929" class="st5"></rect>			<text x="1" y="346.28" class="st6" v:langID="1033">AGC</text>		</g>		<g id="group1445-102" transform="translate(697.171,109.476) rotate(90)" v:mID="1445" v:groupContext="group">						<title>pin.1445</title>			<g id="shape1446-103" v:mID="1446" v:groupContext="shape">				<title>Sheet.1446</title>				<rect x="0" y="338.213" width="8.50394" height="8.50394" class="st7"></rect>			</g>			<g id="shape1447-105" v:mID="1447" v:groupContext="shape" transform="translate(245.166,93.0472) rotate(45)">				<title>Sheet.1447</title>				<path d="M0 346.72 L12.03 346.72" class="st8"></path>			</g>			<g id="shape1448-108" v:mID="1448" v:groupContext="shape" transform="translate(-245.166,101.551) rotate(-45)">				<title>Sheet.1448</title>				<path d="M0 346.72 L12.03 346.72" class="st8"></path>			</g>		</g>		<g id="shape1744-111" v:mID="1744" v:groupContext="shape" transform="translate(64.1545,-249.997)">			<title>Sheet.1744</title>			<desc>SPI</desc>									<rect x="0" y="325.457" width="72.2835" height="21.2598" class="st10"></rect>			<text x="30.64" y="338.49" class="st11" v:langID="1033">SPI</text>		</g>		<g id="shape1772-114" v:mID="1772" v:groupContext="shape" transform="translate(-119.571,42.3725) rotate(-90)">			<title>Sheet.1772</title>			<desc>ADD0</desc>									<rect x="0" y="341.048" width="41.9975" height="5.66929" class="st5"></rect>			<text x="1" y="346.28" class="st6" v:langID="1033">ADD0</text>		</g>		<g id="group1773-117" transform="translate(220.06,-292.517)" v:mID="1773" v:groupContext="group">						<title>pin.1773</title>			<g id="shape1774-118" v:mID="1774" v:groupContext="shape">				<title>Sheet.1774</title>				<rect x="0" y="338.213" width="8.50394" height="8.50394" class="st7"></rect>			</g>			<g id="shape1775-120" v:mID="1775" v:groupContext="shape" transform="translate(245.166,93.0472) rotate(45)">				<title>Sheet.1775</title>				<path d="M0 346.72 L12.03 346.72" class="st8"></path>			</g>			<g id="shape1776-123" v:mID="1776" v:groupContext="shape" transform="translate(-245.166,101.551) rotate(-45)">				<title>Sheet.1776</title>				<path d="M0 346.72 L12.03 346.72" class="st8"></path>			</g>		</g>		<g id="shape1777-126" v:mID="1777" v:groupContext="shape" transform="translate(-98.3107,41.3513) rotate(-90)">			<title>Sheet.1777</title>			<desc>ADD1</desc>									<rect x="0" y="341.048" width="40.4421" height="5.66929" class="st5"></rect>			<text x="1" y="346.28" class="st6" v:langID="1033">ADD1</text>		</g>		<g id="group1778-129" transform="translate(241.32,-292.517)" v:mID="1778" v:groupContext="group">						<title>pin.1778</title>			<g id="shape1779-130" v:mID="1779" v:groupContext="shape">				<title>Sheet.1779</title>				<rect x="0" y="338.213" width="8.50394" height="8.50394" class="st7"></rect>			</g>			<g id="shape1780-132" v:mID="1780" v:groupContext="shape" transform="translate(245.166,93.0472) rotate(45)">				<title>Sheet.1780</title>				<path d="M0 346.72 L12.03 346.72" class="st8"></path>			</g>			<g id="shape1781-135" v:mID="1781" v:groupContext="shape" transform="translate(-245.166,101.551) rotate(-45)">				<title>Sheet.1781</title>				<path d="M0 346.72 L12.03 346.72" class="st8"></path>			</g>		</g>		<g id="shape1782-138" v:mID="1782" v:groupContext="shape" transform="translate(-41.6178,42.3725) rotate(-90)">			<title>Sheet.1782</title>			<desc>VREG</desc>									<rect x="0" y="341.048" width="41.9975" height="5.66929" class="st5"></rect>			<text x="1" y="346.28" class="st6" v:langID="1033">VREG</text>		</g>		<g id="group1783-141" transform="translate(298.013,-292.517)" v:mID="1783" v:groupContext="group">						<title>pin.1783</title>			<g id="shape1784-142" v:mID="1784" v:groupContext="shape">				<title>Sheet.1784</title>				<rect x="0" y="338.213" width="8.50394" height="8.50394" class="st7"></rect>			</g>			<g id="shape1785-144" v:mID="1785" v:groupContext="shape" transform="translate(245.166,93.0472) rotate(45)">				<title>Sheet.1785</title>				<path d="M0 346.72 L12.03 346.72" class="st8"></path>			</g>			<g id="shape1786-147" v:mID="1786" v:groupContext="shape" transform="translate(-245.166,101.551) rotate(-45)">				<title>Sheet.1786</title>				<path d="M0 346.72 L12.03 346.72" class="st8"></path>			</g>		</g>		<g id="shape1787-150" v:mID="1787" v:groupContext="shape" transform="translate(-62.8776,41.3513) rotate(-90)">			<title>Sheet.1787</title>			<desc>VDD</desc>									<rect x="0" y="341.048" width="40.4421" height="5.66929" class="st5"></rect>			<text x="1" y="346.28" class="st6" v:langID="1033">VDD</text>		</g>		<g id="group1788-153" transform="translate(276.753,-292.517)" v:mID="1788" v:groupContext="group">						<title>box.1788</title>			<g id="shape1789-154" v:mID="1789" v:groupContext="shape">				<title>Sheet.1789</title>				<rect x="0" y="338.213" width="8.50394" height="8.50394" class="st7"></rect>			</g>			<g id="shape1790-156" v:mID="1790" v:groupContext="shape" transform="translate(245.166,93.0472) rotate(45)">				<title>Sheet.1790</title>				<path d="M0 346.72 L12.03 346.72" class="st8"></path>			</g>			<g id="shape1791-159" v:mID="1791" v:groupContext="shape" transform="translate(-245.166,101.551) rotate(-45)">				<title>Sheet.1791</title>				<path d="M0 346.72 L12.03 346.72" class="st8"></path>			</g>		</g>		<g id="shape1792-162" v:mID="1792" v:groupContext="shape" transform="translate(-20.3579,41.3513) rotate(-90)">			<title>Sheet.1792</title>			<desc>EN_VREG</desc>									<rect x="0" y="341.048" width="40.4421" height="5.66929" class="st5"></rect>			<text x="1" y="346.28" class="st6" v:langID="1033">EN_VREG</text>		</g>		<g id="group1793-165" transform="translate(319.273,-292.517)" v:mID="1793" v:groupContext="group">						<title>pin.1793</title>			<g id="shape1794-166" v:mID="1794" v:groupContext="shape">				<title>Sheet.1794</title>				<rect x="0" y="338.213" width="8.50394" height="8.50394" class="st7"></rect>			</g>			<g id="shape1795-168" v:mID="1795" v:groupContext="shape" transform="translate(245.166,93.0472) rotate(45)">				<title>Sheet.1795</title>				<path d="M0 346.72 L12.03 346.72" class="st8"></path>			</g>			<g id="shape1796-171" v:mID="1796" v:groupContext="shape" transform="translate(-245.166,101.551) rotate(-45)">				<title>Sheet.1796</title>				<path d="M0 346.72 L12.03 346.72" class="st8"></path>			</g>		</g>		<g id="shape1797-174" v:mID="1797" v:groupContext="shape" transform="translate(170.454,-249.997)">			<title>Sheet.1797</title>			<desc>I2C</desc>									<rect x="0" y="325.457" width="35.4331" height="21.2598" class="st10"></rect>			<text x="11.81" y="338.49" class="st11" v:langID="1033">I2C</text>		</g>		<g id="shape1798-177" v:mID="1798" v:groupContext="shape" transform="translate(220.06,-249.997)">			<title>Sheet.1798</title>			<desc>I2C_ADD</desc>									<rect x="0" y="325.457" width="35.4331" height="21.2598" class="st10"></rect>			<text x="1.79" y="338.49" class="st11" v:langID="1033">I2C_ADD</text>		</g>		<g id="shape1799-180" v:mID="1799" v:groupContext="shape" transform="translate(276.753,-253.257)">			<title>Sheet.1799</title>			<desc>Voltage regulator</desc>									<rect x="0" y="321.631" width="49.6063" height="25.0866" class="st10"></rect>			<text x="10.85" y="331.77" class="st11" v:langID="1033">Voltage <tspan x="7.56" dy="1.2em" class="st4">regulator</tspan></text>		</g>		<g id="shape1800-184" v:mID="1800" v:groupContext="shape" transform="translate(363.87,-159.288)">			<title>Sheet.1800</title>			<desc>TEST</desc>									<rect x="0" y="341.048" width="26.2688" height="5.66929" class="st5"></rect>			<text x="1" y="346.28" class="st6" v:langID="1033">TEST</text>		</g>		<g id="group1801-187" transform="translate(697.171,180.342) rotate(90)" v:mID="1801" v:groupContext="group">						<title>pin.1801</title>			<g id="shape1802-188" v:mID="1802" v:groupContext="shape">				<title>Sheet.1802</title>				<rect x="0" y="338.213" width="8.50394" height="8.50394" class="st7"></rect>			</g>			<g id="shape1803-190" v:mID="1803" v:groupContext="shape" transform="translate(245.166,93.0472) rotate(45)">				<title>Sheet.1803</title>				<path d="M0 346.72 L12.03 346.72" class="st8"></path>			</g>			<g id="shape1804-193" v:mID="1804" v:groupContext="shape" transform="translate(-245.166,101.551) rotate(-45)">				<title>Sheet.1804</title>				<path d="M0 346.72 L12.03 346.72" class="st8"></path>			</g>		</g>		<g id="shape1805-196" v:mID="1805" v:groupContext="shape" transform="translate(363.87,-126.69)">			<title>Sheet.1805</title>			<desc>IRQ</desc>									<rect x="0" y="341.048" width="26.2688" height="5.66929" class="st5"></rect>			<text x="1" y="346.28" class="st6" v:langID="1033">IRQ</text>		</g>		<g id="group1806-199" transform="translate(697.171,212.941) rotate(90)" v:mID="1806" v:groupContext="group">						<title>pin.1806</title>			<g id="shape1807-200" v:mID="1807" v:groupContext="shape">				<title>Sheet.1807</title>				<rect x="0" y="338.213" width="8.50394" height="8.50394" class="st7"></rect>			</g>			<g id="shape1808-202" v:mID="1808" v:groupContext="shape" transform="translate(245.166,93.0472) rotate(45)">				<title>Sheet.1808</title>				<path d="M0 346.72 L12.03 346.72" class="st8"></path>			</g>			<g id="shape1809-205" v:mID="1809" v:groupContext="shape" transform="translate(-245.166,101.551) rotate(-45)">				<title>Sheet.1809</title>				<path d="M0 346.72 L12.03 346.72" class="st8"></path>			</g>		</g>		<g id="shape1810-208" v:mID="1810" v:groupContext="shape" transform="translate(220.06,-193.304)">			<title>Sheet.1810</title>			<desc>Noise Floor Level Measurement</desc>									<rect x="0" y="321.631" width="49.6063" height="25.0866" class="st10"></rect>			<text x="8.98" y="328.77" class="st12" v:langID="1033">Noise Floor <tspan x="17.23" dy="1.2em" class="st4">Level </tspan><tspan x="5.91" dy="1.2em" class="st4">Measurement</tspan></text>		</g>		<g id="shape1811-213" v:mID="1811" v:groupContext="shape" transform="translate(283.84,-193.304)">			<title>Sheet.1811</title>			<desc>Noise Floor Evaluation</desc>									<rect x="0" y="321.631" width="49.6063" height="25.0866" class="st10"></rect>			<text x="8.98" y="332.37" class="st12" v:langID="1033">Noise Floor <tspan x="10.11" dy="1.2em" class="st4">Evaluation</tspan></text>		</g>		<g id="shape1812-217" v:mID="1812" v:groupContext="shape" transform="translate(64.1545,-218.391)">			<title>Sheet.1812</title>			<desc>Register</desc>									<rect x="0" y="325.741" width="141.732" height="20.9764" class="st10"></rect>			<text x="55.61" y="338.63" class="st11" v:langID="1033">Register</text>		</g>		<g id="shape2077-220" v:mID="2077" v:groupContext="shape" transform="translate(64.1545,-193.304)">			<title>Sheet.2077</title>			<desc>POR</desc>									<rect x="0" y="332.26" width="35.4331" height="14.4567" class="st10"></rect>			<text x="10.11" y="341.89" class="st11" v:langID="1033">POR</text>		</g>		<g id="shape2078-223" v:mID="2078" v:groupContext="shape" transform="translate(81.8711,-150.784)">			<title>Sheet.2078</title>			<desc>AFE</desc>									<rect x="0" y="314.827" width="60.2362" height="31.8898" class="st10"></rect>			<text x="22.98" y="333.17" class="st11" v:langID="1033">AFE</text>		</g>		<g id="shape2079-226" v:mID="2079" v:groupContext="shape" transform="translate(82.5797,-125.698)">			<title>Sheet.2079</title>			<desc>LC-Oscillator</desc>									<rect x="0" y="332.26" width="60.2362" height="14.4567" class="st10"></rect>			<text x="6.17" y="341.89" class="st11" v:langID="1033">LC-Oscillator</text>		</g>		<g id="shape2080-229" v:mID="2080" v:groupContext="shape" transform="translate(83.6427,-101.178)">			<title>Sheet.2080</title>			<desc>Calibration</desc>									<rect x="0" y="332.26" width="60.2362" height="14.4567" class="st10"></rect>			<text x="9.6" y="341.89" class="st11" v:langID="1033">Calibration</text>		</g>		<g id="shape2081-232" v:mID="2081" v:groupContext="shape" transform="translate(76.2018,-65.7449)">			<title>Sheet.2081</title>			<desc>TRCO</desc>									<rect x="0" y="325.457" width="35.4331" height="21.2598" class="st10"></rect>			<text x="7.57" y="338.49" class="st11" v:langID="1033">TRCO</text>		</g>		<g id="shape2082-235" v:mID="2082" v:groupContext="shape" transform="translate(111.635,-65.7449)">			<title>Sheet.2082</title>			<desc>SRCO</desc>									<rect x="0" y="325.457" width="35.4331" height="21.2598" class="st10"></rect>			<text x="7.97" y="338.49" class="st11" v:langID="1033">SRCO</text>		</g>		<g id="shape2083-238" v:mID="2083" v:groupContext="shape" transform="translate(159.115,-115.351)">			<title>Sheet.2083</title>			<desc>Watchdog</desc>									<rect x="0" y="321.631" width="46.7717" height="25.0866" class="st10"></rect>			<text x="5.12" y="336.57" class="st11" v:langID="1033">Watchdog</text>		</g>		<g id="shape2084-241" v:mID="2084" v:groupContext="shape" transform="translate(166.202,-33.1465)">			<title>Sheet.2084</title>			<desc>Bias Block</desc>									<rect x="0" y="322.126" width="36.0669" height="24.591" class="st10"></rect>			<text x="10.61" y="332.02" class="st11" v:langID="1033">Bias <tspan x="7.97" dy="1.2em" class="st4">Block</tspan></text>		</g>		<g id="shape2085-245" v:mID="2085" v:groupContext="shape" transform="translate(222.186,-117.406)">			<title>Sheet.2085</title>			<desc>Signal Validation</desc>									<rect x="0" y="325.741" width="114.094" height="20.9764" class="st10"></rect>			<text x="26.08" y="338.63" class="st11" v:langID="1033">Signal Validation</text>		</g>		<g id="shape2086-248" v:mID="2086" v:groupContext="shape" transform="translate(222.895,-83.6032)">			<title>Sheet.2086</title>			<desc>Energy Calculation</desc>									<rect x="0" y="325.741" width="114.094" height="20.9764" class="st10"></rect>			<text x="22.17" y="338.63" class="st11" v:langID="1033">Energy Calculation</text>		</g>		<g id="shape2087-251" v:mID="2087" v:groupContext="shape" transform="translate(222.895,-48.737)">			<title>Sheet.2087</title>			<desc>Statistical Distance Estimation</desc>									<rect x="0" y="325.741" width="114.094" height="20.9764" class="st10"></rect>			<text x="21.53" y="333.83" class="st11" v:langID="1033">Statistical Distance <tspan x="37.3" dy="1.2em" class="st4">Estimation</tspan></text>		</g>		<g id="shape2089-255" v:mID="2089" v:groupContext="shape" transform="translate(178.579,-1.96538)">			<title>Sheet.2089</title>			<desc>GND</desc>									<rect x="0" y="341.048" width="26.2688" height="5.66929" class="st5"></rect>			<text x="1" y="346.28" class="st6" v:langID="1033">GND</text>		</g>		<g id="group2090-258" transform="translate(529.927,326.327) rotate(90)" v:mID="2090" v:groupContext="group">						<title>pin.2090</title>			<g id="shape2091-259" v:mID="2091" v:groupContext="shape">				<title>Sheet.2091</title>				<rect x="0" y="338.213" width="8.50394" height="8.50394" class="st7"></rect>			</g>			<g id="shape2092-261" v:mID="2092" v:groupContext="shape" transform="translate(245.166,93.0472) rotate(45)">				<title>Sheet.2092</title>				<path d="M0 346.72 L12.03 346.72" class="st8"></path>			</g>			<g id="shape2093-264" v:mID="2093" v:groupContext="shape" transform="translate(-245.166,101.551) rotate(-45)">				<title>Sheet.2093</title>				<path d="M0 346.72 L12.03 346.72" class="st8"></path>			</g>		</g>		<g id="shape2094-267" v:mID="2094" v:groupContext="shape" transform="translate(460.478,221.02) rotate(90)">			<title>Sheet.2094</title>			<path d="M0 346.72 L4.34 346.72" class="st13"></path>		</g>		<g id="shape2095-273" v:mID="2095" v:groupContext="shape" transform="translate(444.887,245.539) rotate(90)">			<title>Sheet.2095</title>			<path d="M0 346.72 L8.45 346.72" class="st13"></path>		</g>		<g id="shape2096-278" v:mID="2096" v:groupContext="shape" transform="translate(474.651,245.539) rotate(90)">			<title>Sheet.2096</title>			<path d="M0 346.72 L8.45 346.72" class="st13"></path>		</g>		<g id="shape2097-283" v:mID="2097" v:groupContext="shape" transform="translate(624.887,228.531) rotate(90)">			<title>Sheet.2097</title>			<path d="M0 346.72 L8.45 346.72" class="st13"></path>		</g>		<g id="shape2098-288" v:mID="2098" v:groupContext="shape" transform="translate(626.305,263.114) rotate(90)">			<title>Sheet.2098</title>			<path d="M0 346.72 L8.45 346.72" class="st13"></path>		</g>		<g id="shape2099-293" v:mID="2099" v:groupContext="shape" transform="translate(656.069,153.413) rotate(90)">			<title>Sheet.2099</title>			<path d="M0 346.72 L49.2 346.72" class="st13"></path>		</g>		<g id="shape2100-298" v:mID="2100" v:groupContext="shape" transform="translate(269.666,-207.477)">			<title>Sheet.2100</title>			<path d="M0 346.72 L8.45 346.72" class="st13"></path>		</g>		<g id="shape2101-303" v:mID="2101" v:groupContext="shape" transform="translate(205.887,-129.524)">			<title>Sheet.2101</title>			<path d="M0 346.72 L10.58 346.72" class="st13"></path>		</g>		<g id="shape2102-308" v:mID="2102" v:groupContext="shape" transform="translate(142.107,-138.383)">			<title>Sheet.2102</title>			<path d="M0 320.14 L106.3 320.14 L106.3 340.99" class="st13"></path>		</g>		<g id="shape2103-313" v:mID="2103" v:groupContext="shape" transform="translate(531.344,181.76) rotate(90)">			<title>Sheet.2103</title>			<path d="M0 346.72 L18.8 346.72" class="st13"></path>		</g>		<g id="shape2104-318" v:mID="2104" v:groupContext="shape" transform="translate(184.627,-164.958)">			<title>Sheet.2104</title>			<path d="M0 346.72 L0 304.2 L29.71 304.2" class="st13"></path>		</g>		<g id="shape2105-323" v:mID="2105" v:groupContext="shape" transform="translate(99.5876,-200.391)">			<title>Sheet.2105</title>			<path d="M0 346.72 L14.17 346.72 L14.17 334.44" class="st13"></path>		</g>		<g id="shape2106-328" v:mID="2106" v:groupContext="shape" transform="translate(54.1038,-174.879)">			<title>Sheet.2106</title>			<path d="M0 346.72 L27.77 346.72" class="st15"></path>		</g>		<g id="shape2107-331" v:mID="2107" v:groupContext="shape" transform="translate(54.1038,-160.422)">			<title>Sheet.2107</title>			<path d="M0 346.72 L27.77 346.72" class="st15"></path>		</g>		<g id="shape2108-334" v:mID="2108" v:groupContext="shape" transform="translate(350.454,563.91) rotate(180)">			<title>Sheet.2108</title>			<path d="M0 346.72 L14.17 346.72" class="st15"></path>		</g>		<g id="shape2109-337" v:mID="2109" v:groupContext="shape" transform="translate(245.572,-218.391)">			<title>Sheet.2109</title>			<path d="M104.88 332.12 L0 332.12 L0 346.72" class="st15"></path>		</g>		<g id="shape2110-340" v:mID="2110" v:groupContext="shape" transform="translate(627.722,54.2006) rotate(90)">			<title>Sheet.2110</title>			<path d="M0 346.72 L14.17 346.72" class="st15"></path>		</g>		<g id="shape2111-343" v:mID="2111" v:groupContext="shape" transform="translate(648.982,54.2006) rotate(90)">			<title>Sheet.2111</title>			<path d="M0 346.72 L14.17 346.72" class="st15"></path>		</g>		<g id="shape2112-346" v:mID="2112" v:groupContext="shape" transform="translate(670.242,54.2006) rotate(90)">			<title>Sheet.2112</title>			<path d="M0 346.72 L14.17 346.72" class="st15"></path>		</g>		<g id="shape2113-349" v:mID="2113" v:groupContext="shape" transform="translate(592.289,54.2006) rotate(90)">			<title>Sheet.2113</title>			<path d="M0 346.72 L21.26 346.72" class="st15"></path>		</g>		<g id="shape2114-352" v:mID="2114" v:groupContext="shape" transform="translate(571.029,54.2006) rotate(90)">			<title>Sheet.2114</title>			<path d="M0 346.72 L21.26 346.72" class="st15"></path>		</g>		<g id="shape2115-355" v:mID="2115" v:groupContext="shape" transform="translate(220.06,432.099) rotate(180)">			<title>Sheet.2115</title>			<path d="M0 346.72 L8.45 346.72" class="st13"></path>		</g>		<g id="shape2116-360" v:mID="2116" v:groupContext="shape" transform="translate(415.124,54.2006) rotate(90)">			<title>Sheet.2116</title>			<path d="M0 346.72 L15.54 346.72" class="st13"></path>		</g>		<g id="shape2117-365" v:mID="2117" v:groupContext="shape" transform="translate(436.384,54.2006) rotate(90)">			<title>Sheet.2117</title>			<path d="M0 346.72 L15.54 346.72" class="st13"></path>		</g>		<g id="shape2118-370" v:mID="2118" v:groupContext="shape" transform="translate(457.643,54.2006) rotate(90)">			<title>Sheet.2118</title>			<path d="M0 346.72 L15.54 346.72" class="st13"></path>		</g>		<g id="shape2119-375" v:mID="2119" v:groupContext="shape" transform="translate(478.903,54.2006) rotate(90)">			<title>Sheet.2119</title>			<path d="M0 346.72 L15.54 346.72" class="st13"></path>		</g>		<g id="shape2120-380" v:mID="2120" v:groupContext="shape" transform="translate(89.6663,-271.257)">			<title>Sheet.2120</title>			<path d="M0 332.54 L109.13 332.54 L109.13 340.99" class="st13"></path>		</g>		<g id="shape2121-385" v:mID="2121" v:groupContext="shape" transform="translate(132.186,-271.257)">			<title>Sheet.2121</title>			<path d="M0 339.63 L45.35 339.63 L45.35 340.99" class="st13"></path>		</g>		<g id="shape2122-390" v:mID="2122" v:groupContext="shape" transform="translate(136.438,-261.335)">			<title>Sheet.2122</title>			<path d="M5.36 346.72 L5.72 346.72 L28.29 346.72" class="st16"></path>		</g>		<g id="shape2123-398" v:mID="2123" v:groupContext="shape" transform="translate(500.163,54.2006) rotate(90)">			<title>Sheet.2123</title>			<path d="M0 346.72 L31.18 346.72" class="st15"></path>		</g>		<g id="shape2124-401" v:mID="2124" v:groupContext="shape" transform="translate(535.596,96.7203) rotate(90)">			<title>Sheet.2124</title>			<path d="M0 346.72 L4.91 346.72" class="st13"></path>		</g>		<g id="shape2125-406" v:mID="2125" v:groupContext="shape" transform="translate(446.305,96.7203) rotate(90)">			<title>Sheet.2125</title>			<path d="M0 346.72 L4.91 346.72" class="st13"></path>		</g>	</g></svg>