%FSLAX25Y25*%
%MOIN*%
G70*
G01*
G75*
G04 Layer_Color=8388736*
%ADD10R,0.03937X0.02362*%
%ADD11R,0.02200X0.02200*%
%ADD12R,0.09843X0.03937*%
%ADD13R,0.03200X0.03800*%
%ADD14R,0.02200X0.02200*%
%ADD15R,0.03937X0.06693*%
%ADD16O,0.02362X0.00984*%
%ADD17P,0.03111X4X360.0*%
%ADD18R,0.03800X0.03200*%
%ADD19R,0.16535X0.16535*%
%ADD20O,0.01378X0.03347*%
%ADD21O,0.03347X0.01378*%
%ADD22R,0.12000X0.07873*%
%ADD23R,0.06000X0.04600*%
%ADD24R,0.04000X0.04800*%
%ADD25R,0.01378X0.03150*%
%ADD26R,0.05512X0.04528*%
%ADD27O,0.07087X0.02756*%
%ADD28C,0.01181*%
%ADD29C,0.01969*%
%ADD30C,0.15748*%
%ADD31C,0.06299*%
%ADD32R,0.06000X0.06000*%
%ADD33C,0.06000*%
%ADD34C,0.05512*%
%ADD35C,0.05906*%
%ADD36C,0.02362*%
%ADD37C,0.02598*%
%ADD38C,0.00984*%
%ADD39C,0.00787*%
%ADD40C,0.01000*%
%ADD41C,0.02362*%
%ADD42C,0.01221*%
%ADD43C,0.00787*%
%ADD44C,0.00200*%
%ADD45C,0.00800*%
%ADD46C,0.00512*%
%ADD47R,0.04737X0.03162*%
%ADD48R,0.10642X0.04737*%
%ADD49R,0.04737X0.07493*%
%ADD50O,0.03162X0.01784*%
%ADD51R,0.17335X0.17335*%
%ADD52O,0.02178X0.04147*%
%ADD53O,0.04147X0.02178*%
%ADD54R,0.02178X0.03950*%
%ADD55R,0.06312X0.05328*%
%ADD56O,0.07887X0.03556*%
%ADD57C,0.16548*%
%ADD58C,0.07099*%
%ADD59C,0.06706*%
D11*
X-76805Y-33366D02*
D03*
X-72605D02*
D03*
X-38845Y-25886D02*
D03*
X-43045D02*
D03*
X30479Y-33268D02*
D03*
X34679D02*
D03*
X6857Y82480D02*
D03*
X11057D02*
D03*
X-4167Y984D02*
D03*
X33D02*
D03*
X-25558Y-11614D02*
D03*
X-29757D02*
D03*
D13*
X-48676Y-26575D02*
D03*
X-54276D02*
D03*
X-48381Y-42717D02*
D03*
X-53981D02*
D03*
X52613Y-33268D02*
D03*
X58213D02*
D03*
X-23283Y-35236D02*
D03*
X-28883D02*
D03*
X-29670Y-17126D02*
D03*
X-24070D02*
D03*
X-4867Y7283D02*
D03*
X733D02*
D03*
X-88332Y29724D02*
D03*
X-82731D02*
D03*
X-82338Y-16339D02*
D03*
X-87938D02*
D03*
D14*
X-41732Y-29888D02*
D03*
Y-34088D02*
D03*
Y-39632D02*
D03*
Y-43832D02*
D03*
X-7579Y-33530D02*
D03*
Y-37730D02*
D03*
X-83957Y-35991D02*
D03*
Y-40191D02*
D03*
X-12303Y459D02*
D03*
Y4659D02*
D03*
X-52461Y56234D02*
D03*
Y52034D02*
D03*
X-52461Y10171D02*
D03*
Y5971D02*
D03*
X-17028Y459D02*
D03*
Y4659D02*
D03*
X2264Y-33530D02*
D03*
Y-37730D02*
D03*
X10531Y-33924D02*
D03*
Y-38124D02*
D03*
X-15453Y-35892D02*
D03*
Y-40092D02*
D03*
D17*
X77944Y40041D02*
D03*
X80914Y43011D02*
D03*
X65740Y49241D02*
D03*
X68709Y52211D02*
D03*
X68594Y43889D02*
D03*
X71564Y46859D02*
D03*
D18*
X13681Y-19838D02*
D03*
Y-25438D02*
D03*
X-77264Y-45221D02*
D03*
Y-39621D02*
D03*
X46752Y13539D02*
D03*
Y19139D02*
D03*
X40453D02*
D03*
Y13539D02*
D03*
X44587Y-68755D02*
D03*
Y-74355D02*
D03*
X33366Y-68853D02*
D03*
Y-74454D02*
D03*
X-31398Y-69444D02*
D03*
Y-75044D02*
D03*
D22*
X-68997Y37403D02*
D03*
Y55116D02*
D03*
X-100491Y37403D02*
D03*
Y55116D02*
D03*
X-68997Y-8857D02*
D03*
Y8857D02*
D03*
X-100491Y-8857D02*
D03*
Y8857D02*
D03*
X86908Y-80904D02*
D03*
Y-63191D02*
D03*
X55415Y-80904D02*
D03*
Y-63191D02*
D03*
X23916Y-80904D02*
D03*
Y-63191D02*
D03*
X-7577Y-80904D02*
D03*
Y-63191D02*
D03*
X-40848Y-81101D02*
D03*
Y-63387D02*
D03*
X-72341Y-81101D02*
D03*
Y-63387D02*
D03*
D23*
X57776Y-5719D02*
D03*
Y1781D02*
D03*
X65650D02*
D03*
Y-5719D02*
D03*
X73524Y1781D02*
D03*
Y-5719D02*
D03*
X81398Y1781D02*
D03*
Y-5719D02*
D03*
D24*
X79803Y-24213D02*
D03*
X87303D02*
D03*
X83503Y-15213D02*
D03*
X52835Y-26181D02*
D03*
X60335D02*
D03*
X56535Y-17181D02*
D03*
X60945Y21063D02*
D03*
X53445D02*
D03*
X57245Y12063D02*
D03*
X84567Y22047D02*
D03*
X77067D02*
D03*
X80867Y13047D02*
D03*
D32*
X15256Y89961D02*
D03*
D33*
X5256D02*
D03*
X-4744D02*
D03*
X-14744D02*
D03*
X-24744D02*
D03*
X-34744D02*
D03*
D34*
X-91437Y-55709D02*
D03*
Y-45866D02*
D03*
Y-36024D02*
D03*
X-104429Y-55709D02*
D03*
Y-36024D02*
D03*
Y-45866D02*
D03*
D47*
X-71063Y-45472D02*
D03*
Y-37992D02*
D03*
X-61614D02*
D03*
Y-41732D02*
D03*
Y-45472D02*
D03*
D48*
X-63681Y-31594D02*
D03*
Y-26280D02*
D03*
D49*
X-51181Y-34843D02*
D03*
D50*
X-47047Y-31890D02*
D03*
Y-33858D02*
D03*
Y-35827D02*
D03*
Y-37795D02*
D03*
X-55315D02*
D03*
Y-35827D02*
D03*
Y-33858D02*
D03*
Y-31890D02*
D03*
D51*
X-4035Y-16339D02*
D03*
D52*
X-11713Y-4823D02*
D03*
X-9154D02*
D03*
X-6594D02*
D03*
X-4035D02*
D03*
X-1476D02*
D03*
X1083D02*
D03*
X3642D02*
D03*
X3642Y-27854D02*
D03*
X1083D02*
D03*
X-1476D02*
D03*
X-4035D02*
D03*
X-6594D02*
D03*
X-9154D02*
D03*
X-11713D02*
D03*
D53*
X7480Y-8661D02*
D03*
Y-11220D02*
D03*
Y-13780D02*
D03*
Y-16339D02*
D03*
Y-18898D02*
D03*
Y-21457D02*
D03*
Y-24016D02*
D03*
X-15551Y-24016D02*
D03*
Y-21457D02*
D03*
Y-18898D02*
D03*
Y-16339D02*
D03*
Y-13780D02*
D03*
Y-11220D02*
D03*
Y-8661D02*
D03*
D54*
X68209Y-33465D02*
D03*
X65650D02*
D03*
X63090D02*
D03*
Y-40945D02*
D03*
X65650D02*
D03*
X68209D02*
D03*
D55*
X-21752Y-29331D02*
D03*
Y-23031D02*
D03*
X-31201D02*
D03*
Y-29331D02*
D03*
D56*
X43799Y-28327D02*
D03*
Y-23327D02*
D03*
Y-18327D02*
D03*
Y-13327D02*
D03*
Y-8327D02*
D03*
Y-3327D02*
D03*
Y1673D02*
D03*
Y6673D02*
D03*
X21949Y-28327D02*
D03*
Y-23327D02*
D03*
Y-18327D02*
D03*
Y-13327D02*
D03*
Y-8327D02*
D03*
Y-3327D02*
D03*
Y1673D02*
D03*
Y6673D02*
D03*
D57*
X112106Y78543D02*
D03*
Y-80905D02*
D03*
X-92618D02*
D03*
Y80512D02*
D03*
D58*
X111319Y57677D02*
D03*
Y-60433D02*
D03*
D59*
X71752Y-12795D02*
D03*
X-52264Y-7795D02*
D03*
Y-17795D02*
D03*
M02*
