%FSLAX25Y25*%
%MOIN*%
G70*
G01*
G75*
G04 Layer_Color=16711935*
%ADD10R,0.03937X0.02362*%
%ADD11R,0.02200X0.02200*%
%ADD12R,0.09843X0.03937*%
%ADD13R,0.03200X0.03800*%
%ADD14R,0.02200X0.02200*%
%ADD15R,0.03937X0.06693*%
%ADD16O,0.02362X0.00984*%
%ADD17P,0.03111X4X360.0*%
%ADD18R,0.03800X0.03200*%
%ADD19R,0.16535X0.16535*%
%ADD20O,0.01378X0.03347*%
%ADD21O,0.03347X0.01378*%
%ADD22R,0.12000X0.07873*%
%ADD23R,0.06000X0.04600*%
%ADD24R,0.04000X0.04800*%
%ADD25R,0.01378X0.03150*%
%ADD26R,0.05512X0.04528*%
%ADD27O,0.07087X0.02756*%
%ADD28C,0.01181*%
%ADD29C,0.01969*%
%ADD30C,0.15748*%
%ADD31C,0.06299*%
%ADD32R,0.06000X0.06000*%
%ADD33C,0.06000*%
%ADD34C,0.05512*%
%ADD35C,0.05906*%
%ADD36C,0.02362*%
%ADD37C,0.02598*%
%ADD38C,0.00984*%
%ADD39C,0.00787*%
%ADD40C,0.01000*%
%ADD41C,0.02362*%
%ADD42C,0.01221*%
%ADD43C,0.00787*%
%ADD44C,0.00200*%
%ADD45C,0.00800*%
%ADD46C,0.00512*%
%ADD47R,0.04737X0.03162*%
%ADD48R,0.10642X0.04737*%
%ADD49R,0.04737X0.07493*%
%ADD50O,0.03162X0.01784*%
%ADD51R,0.17335X0.17335*%
%ADD52O,0.02178X0.04147*%
%ADD53O,0.04147X0.02178*%
%ADD54R,0.02178X0.03950*%
%ADD55R,0.06312X0.05328*%
%ADD56O,0.07887X0.03556*%
%ADD57C,0.16548*%
%ADD58C,0.07099*%
%ADD59C,0.06706*%
%ADD60C,0.03398*%
D32*
X15256Y89961D02*
D03*
D33*
X5256D02*
D03*
X-4744D02*
D03*
X-14744D02*
D03*
X-24744D02*
D03*
X-34744D02*
D03*
D34*
X-91437Y-55709D02*
D03*
Y-45866D02*
D03*
Y-36024D02*
D03*
X-104429Y-55709D02*
D03*
Y-36024D02*
D03*
Y-45866D02*
D03*
D57*
X112106Y78543D02*
D03*
Y-80905D02*
D03*
X-92618D02*
D03*
Y80512D02*
D03*
D58*
X111319Y57677D02*
D03*
Y-60433D02*
D03*
D59*
X71752Y-12795D02*
D03*
X-52264Y-7795D02*
D03*
Y-17795D02*
D03*
D60*
X689Y-21063D02*
D03*
X-4035D02*
D03*
X-8760D02*
D03*
X689Y-16339D02*
D03*
X-4035D02*
D03*
X-8760D02*
D03*
X689Y-11614D02*
D03*
X-4035D02*
D03*
X-8760D02*
D03*
M02*
