%FSLAX25Y25*%
%MOIN*%
G70*
G01*
G75*
G04 Layer_Physical_Order=1*
G04 Layer_Color=255*
%ADD10O,0.01378X0.03347*%
%ADD11O,0.03347X0.01378*%
%ADD12R,0.16535X0.16535*%
%ADD13R,0.03200X0.03800*%
%ADD14R,0.03800X0.03200*%
%ADD15R,0.15354X0.08268*%
%ADD16R,0.12000X0.07873*%
%ADD17O,0.03150X0.01378*%
%ADD18O,0.01378X0.03150*%
%ADD19R,0.09843X0.09843*%
%ADD20C,0.01181*%
%ADD21C,0.01000*%
%ADD22O,0.11417X0.05512*%
%ADD23O,0.04331X0.05512*%
%ADD24C,0.05906*%
%ADD25C,0.13780*%
%ADD26C,0.06299*%
%ADD27R,0.06299X0.06299*%
%ADD28R,0.06000X0.06000*%
%ADD29C,0.06000*%
%ADD30C,0.05512*%
%ADD31C,0.02362*%
%ADD32C,0.02598*%
%ADD33C,0.01969*%
G36*
X20445Y130088D02*
X20723Y129417D01*
X21164Y128842D01*
X21740Y128400D01*
X21926Y128323D01*
Y120965D01*
X21926Y120965D01*
X22017Y120504D01*
X22278Y120113D01*
X30489Y111903D01*
Y97976D01*
X30048Y97740D01*
X29748Y97940D01*
X29134Y98062D01*
X28519Y97940D01*
X28102Y97661D01*
X13462D01*
X13226Y98102D01*
X13295Y98204D01*
X13417Y98819D01*
X13295Y99433D01*
X13015Y99851D01*
Y118049D01*
X14370Y119404D01*
X14832Y119213D01*
Y118960D01*
X16823D01*
Y120650D01*
X16270D01*
X16078Y121112D01*
X16835Y121869D01*
X19813D01*
Y126250D01*
X18429D01*
Y128323D01*
X18614Y128400D01*
X19190Y128842D01*
X19632Y129417D01*
X19909Y130088D01*
X19927Y130223D01*
X20427D01*
X20445Y130088D01*
D02*
G37*
G36*
X19484Y95058D02*
X19616Y94811D01*
X19284Y94315D01*
X19162Y93701D01*
X19284Y93086D01*
X19632Y92565D01*
X20153Y92217D01*
X20252Y92198D01*
Y89772D01*
X20251Y89771D01*
X20152Y89272D01*
Y87303D01*
X20251Y86804D01*
X20534Y86381D01*
X20957Y86098D01*
X21457Y85999D01*
X21956Y86098D01*
X22379Y86381D01*
X22486Y86541D01*
X22986D01*
X23093Y86381D01*
X23517Y86098D01*
X24016Y85999D01*
X24515Y86098D01*
X24938Y86381D01*
X24984Y86450D01*
X25463Y86305D01*
Y79331D01*
X25463Y79331D01*
X25548Y78905D01*
X25789Y78544D01*
X27311Y77022D01*
Y76522D01*
X23623Y72834D01*
X23623Y72834D01*
X23230Y72440D01*
X22988Y72079D01*
X22904Y71654D01*
X22904Y71654D01*
Y67239D01*
X22425Y67094D01*
X22379Y67163D01*
X21956Y67445D01*
X21457Y67545D01*
X20958Y67445D01*
X20534Y67163D01*
X20394Y66952D01*
X19390D01*
X18929Y66861D01*
X18538Y66600D01*
X13871Y61933D01*
X12771D01*
X12626Y62411D01*
X12663Y62436D01*
X18017Y67790D01*
X18602D01*
X19102Y67889D01*
X19525Y68172D01*
X19808Y68595D01*
X19907Y69094D01*
X19808Y69594D01*
X19525Y70017D01*
X19365Y70124D01*
Y70624D01*
X19525Y70731D01*
X19808Y71154D01*
X19907Y71654D01*
X19808Y72153D01*
X19525Y72576D01*
X19365Y72683D01*
Y73183D01*
X19525Y73290D01*
X19808Y73713D01*
X19907Y74213D01*
X19808Y74712D01*
X19525Y75135D01*
X19365Y75242D01*
Y75742D01*
X19525Y75849D01*
X19808Y76272D01*
X19907Y76772D01*
X19808Y77271D01*
X19525Y77694D01*
X19365Y77801D01*
Y78301D01*
X19525Y78408D01*
X19808Y78831D01*
X19907Y79331D01*
X19808Y79830D01*
X19525Y80253D01*
X19365Y80360D01*
Y80860D01*
X19525Y80967D01*
X19808Y81391D01*
X19907Y81890D01*
X19808Y82389D01*
X19525Y82812D01*
X19365Y82919D01*
Y83419D01*
X19525Y83526D01*
X19808Y83950D01*
X19907Y84449D01*
X19808Y84948D01*
X19525Y85371D01*
X19102Y85654D01*
X18602Y85753D01*
X16836D01*
X15320Y87269D01*
X14929Y87530D01*
X14469Y87622D01*
X14469Y87622D01*
X6938D01*
X6520Y87901D01*
X5906Y88023D01*
X5291Y87901D01*
X4873Y87622D01*
X1378D01*
X917Y87530D01*
X526Y87269D01*
X526Y87269D01*
X-12113Y74629D01*
X-14788D01*
X-14933Y75108D01*
X-14601Y75330D01*
X5322Y95252D01*
X19354D01*
X19484Y95058D01*
D02*
G37*
G36*
X26351Y130088D02*
X26628Y129417D01*
X27070Y128842D01*
X27646Y128400D01*
X27831Y128323D01*
Y122146D01*
X27831Y122146D01*
X27923Y121685D01*
X28184Y121294D01*
X39445Y110033D01*
Y85710D01*
X39166Y85654D01*
X38743Y85371D01*
X38460Y84948D01*
X38361Y84449D01*
X38460Y83950D01*
X38743Y83526D01*
X38903Y83419D01*
Y82919D01*
X38743Y82812D01*
X38460Y82389D01*
X38361Y81890D01*
X38460Y81391D01*
X38743Y80967D01*
X38903Y80860D01*
Y80360D01*
X38743Y80253D01*
X38460Y79830D01*
X38361Y79331D01*
X38460Y78831D01*
X38743Y78408D01*
X38903Y78301D01*
Y77801D01*
X38743Y77694D01*
X38460Y77271D01*
X38361Y76772D01*
X38460Y76272D01*
X38743Y75849D01*
X38812Y75803D01*
X38667Y75325D01*
X32153D01*
X29920Y77558D01*
X29920Y77558D01*
X27687Y79791D01*
Y86305D01*
X28165Y86450D01*
X28211Y86381D01*
X28635Y86098D01*
X29134Y85999D01*
X29633Y86098D01*
X30056Y86381D01*
X30163Y86541D01*
X30663D01*
X30770Y86381D01*
X31194Y86098D01*
X31693Y85999D01*
X32192Y86098D01*
X32616Y86381D01*
X32722Y86541D01*
X33222D01*
X33329Y86381D01*
X33753Y86098D01*
X34252Y85999D01*
X34751Y86098D01*
X35175Y86381D01*
X35282Y86541D01*
X35781D01*
X35888Y86381D01*
X36312Y86098D01*
X36811Y85999D01*
X37310Y86098D01*
X37734Y86381D01*
X38016Y86804D01*
X38116Y87303D01*
Y89272D01*
X38016Y89771D01*
X38015Y89772D01*
Y105464D01*
X38294Y105882D01*
X38417Y106496D01*
X38294Y107111D01*
X37946Y107631D01*
X37426Y107980D01*
X36811Y108102D01*
X36197Y107980D01*
X35897Y107780D01*
X35587Y107945D01*
X35465Y108430D01*
X35735Y108834D01*
X35858Y109449D01*
X35735Y110063D01*
X35387Y110584D01*
X34866Y110932D01*
X34252Y111055D01*
X33637Y110932D01*
X33338Y110732D01*
X32897Y110968D01*
Y112401D01*
X32806Y112862D01*
X32701Y113019D01*
X32544Y113253D01*
X32544Y113253D01*
X24334Y121463D01*
Y128323D01*
X24520Y128400D01*
X25095Y128842D01*
X25537Y129417D01*
X25815Y130088D01*
X25833Y130223D01*
X26333D01*
X26351Y130088D01*
D02*
G37*
G36*
X32256D02*
X32534Y129417D01*
X32975Y128842D01*
X33551Y128400D01*
X33737Y128323D01*
Y122933D01*
X33737Y122933D01*
X33828Y122472D01*
X34089Y122081D01*
X42497Y113674D01*
Y85976D01*
X42306Y85819D01*
X41854Y86033D01*
Y110531D01*
X41854Y110531D01*
X41762Y110992D01*
X41501Y111383D01*
X41501Y111383D01*
X30240Y122644D01*
Y128323D01*
X30425Y128400D01*
X31001Y128842D01*
X31443Y129417D01*
X31720Y130088D01*
X31738Y130223D01*
X32238D01*
X32256Y130088D01*
D02*
G37*
G36*
X80841Y37928D02*
X84342Y34428D01*
X84141Y33944D01*
X84026Y33071D01*
X84141Y32197D01*
X84478Y31383D01*
X85015Y30684D01*
X85714Y30148D01*
X86528Y29811D01*
X87402Y29695D01*
X88275Y29811D01*
X88562Y29929D01*
X88978Y29652D01*
X88977Y26648D01*
X88561Y26370D01*
X88275Y26489D01*
X87402Y26604D01*
X86528Y26489D01*
X85714Y26151D01*
X85015Y25615D01*
X84478Y24916D01*
X84141Y24102D01*
X84026Y23228D01*
X84141Y22355D01*
X84478Y21541D01*
X85015Y20842D01*
X85714Y20305D01*
X86528Y19968D01*
X87402Y19853D01*
X88194Y19957D01*
X88536Y19592D01*
X88258Y18195D01*
X87313Y15409D01*
X86012Y12771D01*
X84377Y10325D01*
X82438Y8113D01*
X80226Y6174D01*
X77780Y4540D01*
X75142Y3238D01*
X72356Y2293D01*
X69471Y1719D01*
X66535Y1527D01*
X-56693Y1575D01*
Y2364D01*
X-46558D01*
Y5687D01*
X-28245D01*
Y2364D01*
X-15064D01*
Y5449D01*
X75059D01*
X75059Y5449D01*
X75520Y5541D01*
X75911Y5802D01*
X79789Y9680D01*
X80050Y10071D01*
X80141Y10531D01*
X80141Y10532D01*
Y38115D01*
X80620Y38260D01*
X80841Y37928D01*
D02*
G37*
G36*
X-50499Y69380D02*
X-50634Y69290D01*
X-50634Y69290D01*
X-52138Y67786D01*
X-52256D01*
Y66095D01*
X-50265D01*
Y66513D01*
X-49486Y67293D01*
X-49016Y67199D01*
X-48630D01*
Y68504D01*
X-47630D01*
Y67199D01*
X-47244D01*
X-46745Y67299D01*
X-46605Y67392D01*
X-45965D01*
Y66831D01*
X-45506D01*
X-45270Y66390D01*
X-45497Y66050D01*
X-45596Y65551D01*
Y65064D01*
X-47254Y63406D01*
X-47515Y63015D01*
X-47572Y62727D01*
X-48593D01*
Y61199D01*
X-50265D01*
Y62186D01*
X-55247D01*
Y57805D01*
X-50265D01*
Y58791D01*
X-48593D01*
Y57746D01*
X-47607D01*
Y55064D01*
X-47607Y55064D01*
X-47515Y54603D01*
X-47254Y54212D01*
X-45340Y52298D01*
X-45340Y52298D01*
X-44949Y52037D01*
X-44949Y52037D01*
X-44949Y52037D01*
D01*
X-44949Y52037D01*
X-44949Y52037D01*
X-44488Y51945D01*
X-44488Y51945D01*
X-33465D01*
X-33465Y51945D01*
X-33004Y52037D01*
X-32613Y52298D01*
X-29406Y55505D01*
X-28913Y55603D01*
X-28392Y55951D01*
X-28044Y56472D01*
X-27922Y57087D01*
X-28044Y57701D01*
X-28392Y58222D01*
X-28913Y58570D01*
X-29528Y58692D01*
X-30142Y58570D01*
X-30663Y58222D01*
X-31011Y57701D01*
X-31109Y57208D01*
X-33963Y54354D01*
X-43989D01*
X-45198Y55563D01*
Y57746D01*
X-44212D01*
Y62491D01*
X-43792Y62574D01*
X-43434Y62814D01*
X-42993Y62578D01*
Y60736D01*
X-38599D01*
X-38322Y61014D01*
X-38322Y61014D01*
X-38165Y61248D01*
X-38061Y61405D01*
X-37969Y61865D01*
Y62568D01*
X-37614Y62805D01*
X-37528Y62851D01*
X-37113Y62574D01*
X-36614Y62475D01*
X-36115Y62574D01*
X-35692Y62857D01*
X-35409Y63280D01*
X-35373Y63461D01*
X-32972D01*
X-32972Y63461D01*
X-32512Y63553D01*
X-32121Y63814D01*
X-31096Y64839D01*
X-10469D01*
X-10339Y64645D01*
X-10207Y64398D01*
X-10538Y63902D01*
X-10661Y63287D01*
X-10538Y62673D01*
X-10339Y62374D01*
X-10574Y61933D01*
X-12986D01*
X-13379Y62326D01*
X-13477Y62819D01*
X-13825Y63340D01*
X-14346Y63688D01*
X-14961Y63810D01*
X-15575Y63688D01*
X-16096Y63340D01*
X-16444Y62819D01*
X-16566Y62205D01*
X-16444Y61590D01*
X-16096Y61069D01*
X-15575Y60721D01*
X-15082Y60623D01*
X-14336Y59877D01*
X-14336Y59877D01*
X-13945Y59616D01*
X-13484Y59524D01*
X-11821D01*
X-11585Y59083D01*
X-11720Y58882D01*
X-11842Y58268D01*
X-11720Y57653D01*
X-11440Y57235D01*
Y19636D01*
X-11440Y19636D01*
X-11349Y19175D01*
X-11088Y18785D01*
X-7451Y15148D01*
X-7451D01*
X-7451Y15148D01*
X-7451Y15148D01*
Y15148D01*
X-7061Y14887D01*
X-6600Y14796D01*
X25268D01*
X25686Y14517D01*
X26300Y14394D01*
X26915Y14517D01*
X27435Y14865D01*
X27783Y15385D01*
X27906Y16000D01*
X27783Y16614D01*
X27435Y17135D01*
X26915Y17483D01*
X26300Y17606D01*
X25686Y17483D01*
X25268Y17204D01*
X-6101D01*
X-9032Y20135D01*
Y57235D01*
X-8753Y57653D01*
X-8631Y58268D01*
X-8753Y58882D01*
X-8887Y59083D01*
X-8651Y59524D01*
X13461D01*
Y58587D01*
X13330Y58390D01*
X13207Y57776D01*
X13330Y57161D01*
X13678Y56640D01*
X14198Y56292D01*
X14813Y56170D01*
X15428Y56292D01*
X15948Y56640D01*
X16296Y57161D01*
X16419Y57776D01*
X16296Y58390D01*
X15948Y58911D01*
X15870Y58964D01*
Y60525D01*
X19616Y64272D01*
X19925Y64272D01*
X20167Y64198D01*
X20252Y63772D01*
X20534Y63349D01*
X20958Y63066D01*
X21457Y62967D01*
X21757Y63027D01*
X21993Y62586D01*
X21346Y61939D01*
X20928D01*
Y59949D01*
X22619D01*
Y60067D01*
X23376Y60824D01*
X23838Y60632D01*
Y56958D01*
X27930D01*
Y46562D01*
X23123Y41755D01*
X1969D01*
X1508Y41664D01*
X1117Y41403D01*
X1117Y41403D01*
X-1442Y38844D01*
X-1703Y38453D01*
X-1795Y37992D01*
X-1795Y37992D01*
Y33316D01*
X-2074Y32898D01*
X-2196Y32283D01*
X-2074Y31669D01*
X-1726Y31148D01*
X-1205Y30800D01*
X-591Y30678D01*
X24Y30800D01*
X545Y31148D01*
X893Y31669D01*
X1015Y32283D01*
X893Y32898D01*
X614Y33316D01*
Y37493D01*
X1130Y38010D01*
X1609Y37865D01*
X1666Y37574D01*
X2014Y37054D01*
X2535Y36705D01*
X3150Y36583D01*
X3764Y36705D01*
X4182Y36985D01*
X24803D01*
X24803Y36985D01*
X25264Y37076D01*
X25655Y37337D01*
X32544Y44227D01*
X32544Y44227D01*
X32806Y44618D01*
X32897Y45079D01*
X32897Y45079D01*
Y57297D01*
X33376Y57442D01*
X33400Y57405D01*
X37772Y53033D01*
Y49580D01*
X37743Y49561D01*
X37394Y49040D01*
X37272Y48425D01*
X37394Y47811D01*
X37743Y47290D01*
X38263Y46942D01*
X38878Y46819D01*
X38947Y46833D01*
X38976Y46827D01*
X39437Y46919D01*
X39463Y46936D01*
X39492Y46942D01*
X40013Y47290D01*
X40361Y47811D01*
X40484Y48425D01*
X40361Y49040D01*
X40181Y49310D01*
Y52339D01*
X40945D01*
X40945Y52339D01*
X41406Y52431D01*
X41796Y52692D01*
X42742Y53638D01*
X43235Y53736D01*
X43756Y54084D01*
X44104Y54605D01*
X44227Y55219D01*
X44104Y55834D01*
X44002Y55987D01*
X43992Y56035D01*
X44085Y56499D01*
X44339Y56670D01*
X46722D01*
X47039Y56283D01*
X46918Y55676D01*
X47040Y55062D01*
X47388Y54541D01*
X47909Y54193D01*
X48524Y54071D01*
X49138Y54193D01*
X49442Y54396D01*
X74065D01*
X74300Y53955D01*
X74107Y53666D01*
X73985Y53051D01*
X74107Y52437D01*
X74455Y51916D01*
X74976Y51568D01*
X75469Y51470D01*
X77733Y49206D01*
Y44857D01*
X77259Y44697D01*
X76796Y45300D01*
X76097Y45836D01*
X75283Y46174D01*
X74409Y46289D01*
X73536Y46174D01*
X72722Y45836D01*
X72023Y45300D01*
X71486Y44601D01*
X71149Y43787D01*
X71034Y42913D01*
X71149Y42040D01*
X71486Y41226D01*
X72023Y40527D01*
X72722Y39990D01*
X73536Y39653D01*
X74409Y39538D01*
X75283Y39653D01*
X76097Y39990D01*
X76796Y40527D01*
X77259Y41130D01*
X77733Y40969D01*
Y35015D01*
X77259Y34854D01*
X76796Y35458D01*
X76097Y35994D01*
X75283Y36331D01*
X74409Y36446D01*
X73536Y36331D01*
X72722Y35994D01*
X72023Y35458D01*
X71486Y34758D01*
X71149Y33944D01*
X71034Y33071D01*
X71149Y32197D01*
X71486Y31383D01*
X72023Y30684D01*
X72722Y30148D01*
X73536Y29811D01*
X74409Y29695D01*
X75283Y29811D01*
X76097Y30148D01*
X76796Y30684D01*
X77259Y31288D01*
X77733Y31127D01*
Y25172D01*
X77259Y25012D01*
X76796Y25615D01*
X76097Y26151D01*
X75283Y26489D01*
X74409Y26604D01*
X73536Y26489D01*
X72722Y26151D01*
X72023Y25615D01*
X71486Y24916D01*
X71149Y24102D01*
X71034Y23228D01*
X71149Y22355D01*
X71486Y21541D01*
X72023Y20842D01*
X72722Y20305D01*
X73536Y19968D01*
X74409Y19853D01*
X75283Y19968D01*
X76097Y20305D01*
X76796Y20842D01*
X77259Y21445D01*
X77733Y21284D01*
Y11030D01*
X74560Y7858D01*
X42639D01*
X42478Y8331D01*
X42967Y8706D01*
X43377Y9241D01*
X43635Y9864D01*
X43723Y10531D01*
X43635Y11200D01*
X43377Y11822D01*
X42967Y12357D01*
X42432Y12767D01*
X41810Y13025D01*
X41142Y13113D01*
X40474Y13025D01*
X39851Y12767D01*
X39317Y12357D01*
X38906Y11822D01*
X38649Y11200D01*
X38561Y10531D01*
X38649Y9864D01*
X38906Y9241D01*
X39317Y8706D01*
X39805Y8331D01*
X39645Y7858D01*
X-15064D01*
Y11419D01*
X-28245D01*
Y8096D01*
X-46558D01*
Y11419D01*
X-51944D01*
Y11810D01*
X-52036Y12270D01*
X-52297Y12661D01*
X-53143Y13507D01*
X-53241Y14000D01*
X-53589Y14521D01*
X-54110Y14869D01*
X-54724Y14991D01*
X-55339Y14869D01*
X-55860Y14521D01*
X-56208Y14000D01*
X-56693Y14097D01*
Y20077D01*
X-53648D01*
Y24605D01*
Y29132D01*
X-56693D01*
Y69859D01*
X-50644D01*
X-50499Y69380D01*
D02*
G37*
G36*
X15405Y69472D02*
X15329Y69094D01*
X15427Y68606D01*
X11312Y64492D01*
X-161D01*
X-291Y64686D01*
X-423Y64933D01*
X-91Y65429D01*
X31Y66043D01*
X-91Y66658D01*
X-226Y66859D01*
X10Y67300D01*
X2511D01*
X2929Y67020D01*
X3543Y66898D01*
X4158Y67020D01*
X4679Y67369D01*
X5027Y67889D01*
X5149Y68504D01*
X5027Y69118D01*
X4827Y69418D01*
X5062Y69859D01*
X15087D01*
X15405Y69472D01*
D02*
G37*
G36*
X30907Y73426D02*
X30907Y73426D01*
X31123Y73282D01*
X31267Y73185D01*
X31693Y73101D01*
X38667D01*
X38812Y72622D01*
X38743Y72576D01*
X38460Y72153D01*
X38361Y71654D01*
X38460Y71154D01*
X38743Y70731D01*
X38903Y70624D01*
Y70124D01*
X38743Y70017D01*
X38460Y69594D01*
X38361Y69094D01*
X38460Y68595D01*
X38743Y68172D01*
X39166Y67889D01*
X39665Y67790D01*
X41634D01*
X42133Y67889D01*
D01*
X42444Y67890D01*
X42680Y67449D01*
X42613Y67350D01*
X42491Y66736D01*
X42551Y66434D01*
X42197Y66080D01*
X41732Y66173D01*
X41118Y66050D01*
X40597Y65702D01*
X40249Y65181D01*
X40127Y64567D01*
X40145Y64474D01*
X39792Y64120D01*
X39370Y64204D01*
X38756Y64082D01*
X38517Y63923D01*
X38101Y64200D01*
X38116Y64272D01*
Y66240D01*
X38016Y66739D01*
X37734Y67163D01*
X37310Y67445D01*
X36811Y67545D01*
X36312Y67445D01*
X35888Y67163D01*
X35781Y67002D01*
X35282D01*
X35175Y67163D01*
X34751Y67445D01*
X34252Y67545D01*
X33753Y67445D01*
X33329Y67163D01*
X33222Y67002D01*
X32722D01*
X32616Y67163D01*
X32192Y67445D01*
X31693Y67545D01*
X31194Y67445D01*
X30770Y67163D01*
X30663Y67002D01*
X30163D01*
X30056Y67163D01*
X29633Y67445D01*
X29134Y67545D01*
X28635Y67445D01*
X28211Y67163D01*
X28104Y67002D01*
X27604D01*
X27497Y67163D01*
X27074Y67445D01*
X26575Y67545D01*
X26076Y67445D01*
X25652Y67163D01*
X25606Y67094D01*
X25128Y67239D01*
Y71193D01*
X25196Y71261D01*
X25196Y71261D01*
X29134Y75199D01*
X30907Y73426D01*
D02*
G37*
G36*
X89020Y188814D02*
X89019Y184336D01*
X88545Y184176D01*
X88494Y184242D01*
X87713Y184842D01*
X86803Y185219D01*
X85827Y185347D01*
X84850Y185219D01*
X83941Y184842D01*
X83159Y184242D01*
X82560Y183461D01*
X82183Y182551D01*
X82054Y181575D01*
X82183Y180598D01*
X82465Y179917D01*
X78566Y176017D01*
X78104Y176209D01*
Y182149D01*
X84168Y188213D01*
X84850Y187931D01*
X85827Y187802D01*
X86803Y187931D01*
X87713Y188308D01*
X88494Y188907D01*
X88547Y188975D01*
X89020Y188814D01*
D02*
G37*
G36*
X89017Y178811D02*
X89016Y174340D01*
X88543Y174179D01*
X88494Y174242D01*
X87713Y174842D01*
X86803Y175219D01*
X86327Y175281D01*
Y171575D01*
Y167868D01*
X86803Y167931D01*
X87713Y168308D01*
X88494Y168907D01*
X88541Y168968D01*
X89015Y168808D01*
X89013Y164343D01*
X88540Y164183D01*
X88494Y164242D01*
X87713Y164842D01*
X86803Y165219D01*
X85827Y165347D01*
X84850Y165219D01*
X83941Y164842D01*
X83159Y164242D01*
X82560Y163461D01*
X82183Y162551D01*
X82054Y161575D01*
X82183Y160598D01*
X82560Y159689D01*
X83159Y158907D01*
X83941Y158308D01*
X84850Y157931D01*
X85827Y157802D01*
X86803Y157931D01*
X87713Y158308D01*
X88494Y158907D01*
X88538Y158965D01*
X89012Y158804D01*
X89011Y155315D01*
X82087D01*
Y147835D01*
X88656D01*
X89009Y147481D01*
X88982Y46331D01*
X88566Y46053D01*
X88275Y46174D01*
X87402Y46289D01*
X86528Y46174D01*
X85714Y45836D01*
X85015Y45300D01*
X84478Y44601D01*
X84141Y43787D01*
X84026Y42913D01*
X84141Y42040D01*
X84478Y41226D01*
X85015Y40527D01*
X85714Y39990D01*
X86528Y39653D01*
X87402Y39538D01*
X88275Y39653D01*
X88565Y39773D01*
X88981Y39495D01*
X88980Y36489D01*
X88564Y36212D01*
X88275Y36331D01*
X87402Y36446D01*
X86528Y36331D01*
X86045Y36131D01*
X82897Y39278D01*
Y50984D01*
X82806Y51445D01*
X82544Y51836D01*
X82544Y51836D01*
X77929Y56451D01*
X77538Y56713D01*
X77077Y56804D01*
X77077Y56804D01*
X65854D01*
X65662Y57266D01*
X68845Y60449D01*
X81096D01*
X81379Y59767D01*
X81978Y58986D01*
X82759Y58386D01*
X83669Y58010D01*
X84646Y57881D01*
X85622Y58010D01*
X86532Y58386D01*
X87313Y58986D01*
X87913Y59767D01*
X88289Y60677D01*
X88418Y61654D01*
X88289Y62630D01*
X87913Y63540D01*
X87313Y64321D01*
X86532Y64921D01*
X85622Y65297D01*
X84646Y65426D01*
X83669Y65297D01*
X82759Y64921D01*
X81978Y64321D01*
X81379Y63540D01*
X81096Y62858D01*
X68364D01*
X68331Y62938D01*
X68241Y63388D01*
X75302Y70449D01*
X81096D01*
X81379Y69767D01*
X81978Y68986D01*
X82759Y68387D01*
X83669Y68010D01*
X84646Y67881D01*
X85622Y68010D01*
X86532Y68387D01*
X87313Y68986D01*
X87913Y69767D01*
X88289Y70677D01*
X88418Y71653D01*
X88289Y72630D01*
X87913Y73540D01*
X87313Y74321D01*
X86532Y74921D01*
X85622Y75297D01*
X84646Y75426D01*
X83669Y75297D01*
X82759Y74921D01*
X81978Y74321D01*
X81379Y73540D01*
X81096Y72858D01*
X74820D01*
X74787Y72938D01*
X74698Y73388D01*
X80979Y79670D01*
X81478Y79637D01*
X81978Y78986D01*
X82759Y78386D01*
X83669Y78010D01*
X84646Y77881D01*
X85622Y78010D01*
X86532Y78386D01*
X87313Y78986D01*
X87913Y79767D01*
X88289Y80677D01*
X88418Y81653D01*
X88289Y82630D01*
X87913Y83540D01*
X87313Y84321D01*
X86532Y84921D01*
X85622Y85297D01*
X84646Y85426D01*
X83669Y85297D01*
X82759Y84921D01*
X82296Y84565D01*
X82103Y84526D01*
X81716Y84843D01*
Y87021D01*
X82987Y88292D01*
X83669Y88010D01*
X84646Y87881D01*
X85622Y88010D01*
X86532Y88386D01*
X87313Y88986D01*
X87913Y89767D01*
X88289Y90677D01*
X88418Y91654D01*
X88289Y92630D01*
X87913Y93540D01*
X87313Y94321D01*
X86532Y94921D01*
X85622Y95297D01*
X84646Y95426D01*
X83669Y95297D01*
X82759Y94921D01*
X81978Y94321D01*
X81379Y93540D01*
X81002Y92630D01*
X80873Y91654D01*
X81002Y90677D01*
X81284Y89995D01*
X79660Y88371D01*
X79636Y88334D01*
X79157Y88479D01*
Y94462D01*
X82987Y98292D01*
X83669Y98010D01*
X84646Y97881D01*
X85622Y98010D01*
X86532Y98387D01*
X87313Y98986D01*
X87913Y99767D01*
X88289Y100677D01*
X88418Y101654D01*
X88289Y102630D01*
X87913Y103540D01*
X87313Y104321D01*
X86532Y104921D01*
X85622Y105297D01*
X84646Y105426D01*
X83669Y105297D01*
X82759Y104921D01*
X81978Y104321D01*
X81379Y103540D01*
X81002Y102630D01*
X80873Y101654D01*
X81002Y100677D01*
X81284Y99995D01*
X77101Y95812D01*
X76840Y95421D01*
X76749Y94961D01*
X76749Y94961D01*
Y85932D01*
X65052Y74235D01*
X64590Y74427D01*
Y125295D01*
X64590Y125295D01*
X64498Y125756D01*
X64237Y126147D01*
X64237Y126147D01*
X63885Y126499D01*
X63787Y126992D01*
X63438Y127513D01*
X62918Y127861D01*
X62425Y127959D01*
X61504Y128880D01*
Y136919D01*
X61978Y137080D01*
X62279Y136688D01*
X62978Y136152D01*
X63792Y135814D01*
X64665Y135699D01*
X70571D01*
X71444Y135814D01*
X71877Y135994D01*
X72195Y135607D01*
X72116Y135489D01*
X72024Y135028D01*
X72024Y135028D01*
Y115066D01*
X67989Y111030D01*
X67496Y110932D01*
X66975Y110584D01*
X66627Y110063D01*
X66505Y109449D01*
X66627Y108834D01*
X66975Y108313D01*
X67496Y107965D01*
X67718Y107921D01*
X67909Y107459D01*
X67808Y107307D01*
X67686Y106693D01*
X67808Y106078D01*
X68156Y105558D01*
X68677Y105210D01*
X69291Y105087D01*
X69906Y105210D01*
X70427Y105558D01*
X70775Y106078D01*
X70873Y106571D01*
X76652Y112350D01*
X76652Y112350D01*
X76913Y112741D01*
X77004Y113202D01*
X77004Y113202D01*
Y129262D01*
X77445Y129498D01*
X77766Y129284D01*
X78642Y129110D01*
X79517Y129284D01*
X80260Y129780D01*
X80756Y130522D01*
X80930Y131398D01*
X80756Y132273D01*
X80260Y133016D01*
X79517Y133511D01*
X78642Y133686D01*
X78047Y133567D01*
X77811Y134008D01*
X80051Y136249D01*
X80051Y136249D01*
X80313Y136639D01*
X80404Y137100D01*
X80404Y137100D01*
Y174449D01*
X84168Y178213D01*
X84850Y177931D01*
X85827Y177802D01*
X86803Y177931D01*
X87713Y178308D01*
X88494Y178907D01*
X88544Y178972D01*
X89017Y178811D01*
D02*
G37*
G36*
X66535Y228740D02*
Y228740D01*
X66584Y228785D01*
X69471Y228596D01*
X72356Y228022D01*
X75142Y227076D01*
X77780Y225775D01*
X78742Y225133D01*
X78642Y224631D01*
X77766Y224456D01*
X77024Y223960D01*
X76528Y223218D01*
X76354Y222342D01*
X76528Y221467D01*
X77024Y220725D01*
X77766Y220229D01*
X78642Y220055D01*
X79517Y220229D01*
X80260Y220725D01*
X80756Y221467D01*
X80930Y222342D01*
X80797Y223010D01*
X81230Y223260D01*
X82438Y222201D01*
X84377Y219990D01*
X86012Y217544D01*
X87313Y214905D01*
X88258Y212120D01*
X88832Y209235D01*
X89025Y206299D01*
X89024Y204330D01*
X88551Y204169D01*
X88494Y204242D01*
X87713Y204842D01*
X86803Y205219D01*
X85827Y205347D01*
X84850Y205219D01*
X83941Y204842D01*
X83159Y204242D01*
X82560Y203461D01*
X82183Y202551D01*
X82054Y201575D01*
X82183Y200598D01*
X82465Y199917D01*
X59448Y176900D01*
X59187Y176509D01*
X59096Y176048D01*
X59096Y176048D01*
Y128381D01*
X59096Y128381D01*
X59187Y127920D01*
X59448Y127530D01*
X60722Y126256D01*
X60820Y125763D01*
X61168Y125243D01*
X61689Y124894D01*
X62182Y124796D01*
X62182Y124796D01*
Y74515D01*
X59216Y71549D01*
X58692Y71653D01*
X58570Y72268D01*
X58222Y72789D01*
X57701Y73137D01*
X57087Y73259D01*
X56472Y73137D01*
X56054Y72858D01*
X54695D01*
Y72858D01*
Y72903D01*
X54695Y73211D01*
X54695Y73211D01*
X54695D01*
Y74894D01*
X52505D01*
Y75894D01*
X54695D01*
Y77884D01*
X51840D01*
X51792Y77999D01*
X52070Y78415D01*
X54695D01*
Y83396D01*
X53709D01*
Y83716D01*
X53617Y84177D01*
X53513Y84333D01*
X53356Y84567D01*
X53356Y84567D01*
X51188Y86736D01*
X51090Y87229D01*
X50742Y87749D01*
X50281Y88058D01*
X50516Y88499D01*
X51043Y88280D01*
X51968Y88158D01*
X52894Y88280D01*
X53755Y88637D01*
X54496Y89205D01*
X55064Y89945D01*
X55421Y90807D01*
X55542Y91732D01*
X55421Y92657D01*
X55064Y93519D01*
X54496Y94259D01*
X53755Y94827D01*
X53370Y94987D01*
Y98435D01*
X53952Y98677D01*
X54693Y99245D01*
X55260Y99985D01*
X55617Y100847D01*
X55739Y101772D01*
X55617Y102697D01*
X55260Y103559D01*
X54693Y104299D01*
X53952Y104867D01*
X53090Y105224D01*
X52165Y105345D01*
X51240Y105224D01*
X50378Y104867D01*
X49638Y104299D01*
X49070Y103559D01*
X48713Y102697D01*
X48608Y101896D01*
X48109Y101929D01*
Y118205D01*
X48388Y118623D01*
X48510Y119237D01*
X48388Y119852D01*
X48040Y120372D01*
X47519Y120720D01*
X46905Y120843D01*
X46290Y120720D01*
X45769Y120372D01*
X45421Y119852D01*
X45299Y119237D01*
X45421Y118623D01*
X45700Y118205D01*
Y83396D01*
X44991D01*
X44905Y83501D01*
X44905Y83501D01*
Y114173D01*
X44905Y114173D01*
X44813Y114634D01*
X44552Y115025D01*
X38204Y121373D01*
X38349Y121851D01*
X38803Y121942D01*
X39221Y122221D01*
X42126D01*
X42126Y122221D01*
X42587Y122313D01*
X42977Y122574D01*
X47603Y127200D01*
X47864Y127590D01*
X47956Y128051D01*
X47956Y128051D01*
Y128323D01*
X48142Y128400D01*
X48717Y128842D01*
X49159Y129417D01*
X49437Y130088D01*
X49532Y130807D01*
Y131988D01*
X49437Y132708D01*
X49159Y133378D01*
X48717Y133954D01*
X48142Y134396D01*
X47471Y134673D01*
X46752Y134768D01*
X46033Y134673D01*
X45362Y134396D01*
X44786Y133954D01*
X44345Y133378D01*
X44067Y132708D01*
X44049Y132572D01*
X43549D01*
X43531Y132708D01*
X43254Y133378D01*
X42812Y133954D01*
X42236Y134396D01*
X41566Y134673D01*
X40846Y134768D01*
X40127Y134673D01*
X39457Y134396D01*
X38881Y133954D01*
X38439Y133378D01*
X38162Y132708D01*
X38144Y132572D01*
X37644D01*
X37626Y132708D01*
X37348Y133378D01*
X36906Y133954D01*
X36331Y134396D01*
X35660Y134673D01*
X34941Y134768D01*
X34222Y134673D01*
X33551Y134396D01*
X32975Y133954D01*
X32534Y133378D01*
X32256Y132708D01*
X32238Y132572D01*
X31738D01*
X31720Y132708D01*
X31443Y133378D01*
X31001Y133954D01*
X30425Y134396D01*
X29755Y134673D01*
X29035Y134768D01*
X28316Y134673D01*
X27646Y134396D01*
X27070Y133954D01*
X26628Y133378D01*
X26351Y132708D01*
X26333Y132572D01*
X25833D01*
X25815Y132708D01*
X25537Y133378D01*
X25095Y133954D01*
X24520Y134396D01*
X23849Y134673D01*
X23130Y134768D01*
X22411Y134673D01*
X21740Y134396D01*
X21164Y133954D01*
X20723Y133378D01*
X20445Y132708D01*
X20427Y132572D01*
X19927D01*
X19909Y132708D01*
X19632Y133378D01*
X19190Y133954D01*
X18614Y134396D01*
X17944Y134673D01*
X17224Y134768D01*
X16505Y134673D01*
X15902Y134423D01*
X10399Y139926D01*
X10008Y140187D01*
X9547Y140279D01*
X9547Y140279D01*
X-62526D01*
X-62726Y140762D01*
X-63263Y141462D01*
X-63962Y141998D01*
X-64776Y142335D01*
X-65650Y142450D01*
X-71555D01*
X-72429Y142335D01*
X-73243Y141998D01*
X-73942Y141462D01*
X-74478Y140762D01*
X-74678Y140279D01*
X-77854D01*
X-78315Y140187D01*
X-78706Y139926D01*
X-78706Y139926D01*
X-86678Y131954D01*
X-86939Y131563D01*
X-87031Y131102D01*
X-87031Y131102D01*
Y121307D01*
X-89417D01*
Y114126D01*
X-82236D01*
Y121307D01*
X-84623D01*
Y130604D01*
X-77355Y137871D01*
X-74678D01*
X-74478Y137387D01*
X-73942Y136688D01*
X-73243Y136152D01*
X-72429Y135814D01*
X-71555Y135699D01*
X-65650D01*
X-64776Y135814D01*
X-63962Y136152D01*
X-63263Y136688D01*
X-62726Y137387D01*
X-62526Y137871D01*
X9048D01*
X11727Y135192D01*
X11506Y134743D01*
X11319Y134768D01*
X10599Y134673D01*
X9929Y134396D01*
X9353Y133954D01*
X8912Y133378D01*
X8634Y132708D01*
X8616Y132572D01*
X8116D01*
X8098Y132708D01*
X7821Y133378D01*
X7379Y133954D01*
X6803Y134396D01*
X6133Y134673D01*
X5413Y134768D01*
X4694Y134673D01*
X4024Y134396D01*
X3448Y133954D01*
X3006Y133378D01*
X2728Y132708D01*
X2711Y132572D01*
X2211D01*
X2193Y132708D01*
X1915Y133378D01*
X1473Y133954D01*
X898Y134396D01*
X227Y134673D01*
X-492Y134768D01*
X-1212Y134673D01*
X-1882Y134396D01*
X-2458Y133954D01*
X-2899Y133378D01*
X-3177Y132708D01*
X-3195Y132572D01*
X-3695D01*
X-3713Y132708D01*
X-3990Y133378D01*
X-4432Y133954D01*
X-5008Y134396D01*
X-5678Y134673D01*
X-6398Y134768D01*
X-7117Y134673D01*
X-7788Y134396D01*
X-8363Y133954D01*
X-8805Y133378D01*
X-9083Y132708D01*
X-9100Y132572D01*
X-9600D01*
X-9618Y132708D01*
X-9896Y133378D01*
X-10338Y133954D01*
X-10913Y134396D01*
X-11584Y134673D01*
X-12303Y134768D01*
X-13023Y134673D01*
X-13693Y134396D01*
X-14269Y133954D01*
X-14710Y133378D01*
X-14988Y132708D01*
X-15006Y132572D01*
X-15506D01*
X-15524Y132708D01*
X-15801Y133378D01*
X-16243Y133954D01*
X-16819Y134396D01*
X-17489Y134673D01*
X-18209Y134768D01*
X-18928Y134673D01*
X-19599Y134396D01*
X-20174Y133954D01*
X-20616Y133378D01*
X-20894Y132708D01*
X-20911Y132572D01*
X-21411D01*
X-21429Y132708D01*
X-21707Y133378D01*
X-22149Y133954D01*
X-22724Y134396D01*
X-23395Y134673D01*
X-24114Y134768D01*
X-24834Y134673D01*
X-25504Y134396D01*
X-26080Y133954D01*
X-26521Y133378D01*
X-26799Y132708D01*
X-26817Y132572D01*
X-27317D01*
X-27335Y132708D01*
X-27612Y133378D01*
X-28054Y133954D01*
X-28630Y134396D01*
X-29300Y134673D01*
X-30020Y134768D01*
X-30739Y134673D01*
X-31409Y134396D01*
X-31985Y133954D01*
X-32427Y133378D01*
X-32705Y132708D01*
X-32722Y132572D01*
X-33222D01*
X-33240Y132708D01*
X-33518Y133378D01*
X-33960Y133954D01*
X-34535Y134396D01*
X-35206Y134673D01*
X-35925Y134768D01*
X-36645Y134673D01*
X-37315Y134396D01*
X-37891Y133954D01*
X-38333Y133378D01*
X-38610Y132708D01*
X-38628Y132572D01*
X-39128D01*
X-39146Y132708D01*
X-39423Y133378D01*
X-39865Y133954D01*
X-40441Y134396D01*
X-41111Y134673D01*
X-41831Y134768D01*
X-42550Y134673D01*
X-43220Y134396D01*
X-43796Y133954D01*
X-44238Y133378D01*
X-44516Y132708D01*
X-44534Y132572D01*
X-45033D01*
X-45051Y132708D01*
X-45329Y133378D01*
X-45771Y133954D01*
X-46346Y134396D01*
X-47017Y134673D01*
X-47736Y134768D01*
X-48456Y134673D01*
X-49126Y134396D01*
X-49702Y133954D01*
X-50143Y133378D01*
X-50421Y132708D01*
X-50516Y131988D01*
Y130807D01*
X-50421Y130088D01*
X-50143Y129417D01*
X-49702Y128842D01*
X-49126Y128400D01*
X-49039Y128364D01*
Y126152D01*
X-50325D01*
Y121771D01*
X-45344D01*
Y126152D01*
X-46630D01*
Y128282D01*
X-46346Y128400D01*
X-45771Y128842D01*
X-45329Y129417D01*
X-45051Y130088D01*
X-45033Y130223D01*
X-44534D01*
X-44516Y130088D01*
X-44238Y129417D01*
X-43796Y128842D01*
X-43220Y128400D01*
X-42740Y128201D01*
Y126152D01*
X-44026D01*
Y121771D01*
X-39045D01*
Y126152D01*
X-40331D01*
Y128484D01*
X-39865Y128842D01*
X-39423Y129417D01*
X-39146Y130088D01*
X-39128Y130223D01*
X-38628D01*
X-38610Y130088D01*
X-38333Y129417D01*
X-37891Y128842D01*
X-37315Y128400D01*
X-36645Y128122D01*
X-36441Y128095D01*
Y126152D01*
X-37727D01*
Y121771D01*
X-32746D01*
Y126152D01*
X-34032D01*
Y128786D01*
X-33960Y128842D01*
X-33518Y129417D01*
X-33240Y130088D01*
X-33222Y130223D01*
X-32722D01*
X-32705Y130088D01*
X-32427Y129417D01*
X-31985Y128842D01*
X-31409Y128400D01*
X-30739Y128122D01*
X-30141Y128043D01*
Y126152D01*
X-31428D01*
Y121771D01*
X-26447D01*
Y126152D01*
X-27733D01*
Y129260D01*
X-27612Y129417D01*
X-27335Y130088D01*
X-27317Y130223D01*
X-26817D01*
X-26799Y130088D01*
X-26521Y129417D01*
X-26080Y128842D01*
X-25504Y128400D01*
X-24834Y128122D01*
X-24114Y128027D01*
X-23842Y127789D01*
Y126152D01*
X-25128D01*
Y121771D01*
X-20147D01*
Y126152D01*
X-21433D01*
Y129921D01*
D01*
X-21411Y130223D01*
D01*
X-20911D01*
X-20894Y130088D01*
X-20616Y129417D01*
X-20174Y128842D01*
X-19599Y128400D01*
X-19413Y128323D01*
Y125831D01*
X-19413Y125831D01*
X-19321Y125371D01*
X-19060Y124980D01*
X-18829Y124749D01*
Y121771D01*
X-15285D01*
X-15094Y121309D01*
X-15851Y120552D01*
X-18829D01*
Y116171D01*
X-13848D01*
Y119149D01*
X-11452Y121545D01*
X-11191Y121936D01*
X-11099Y122397D01*
X-11099Y122397D01*
Y128323D01*
X-10913Y128400D01*
X-10338Y128842D01*
X-9896Y129417D01*
X-9618Y130088D01*
X-9600Y130223D01*
X-9100D01*
X-9083Y130088D01*
X-8805Y129417D01*
X-8363Y128842D01*
X-7788Y128400D01*
X-7602Y128323D01*
Y125438D01*
X-7602Y125438D01*
X-7510Y124977D01*
X-7412Y124830D01*
Y121771D01*
X-3868D01*
X-3677Y121309D01*
X-4434Y120552D01*
X-7412D01*
Y116171D01*
X-2431D01*
Y119149D01*
X359Y121939D01*
X359Y121939D01*
X620Y122330D01*
X620Y122330D01*
X620Y122330D01*
X712Y122791D01*
X712Y122791D01*
Y128323D01*
X898Y128400D01*
X1473Y128842D01*
X1915Y129417D01*
X2193Y130088D01*
X2211Y130223D01*
X2711D01*
X2728Y130088D01*
X3006Y129417D01*
X3448Y128842D01*
X4024Y128400D01*
X4209Y128323D01*
Y126152D01*
X4005D01*
Y121771D01*
X7680D01*
X7871Y121309D01*
X7114Y120552D01*
X6996D01*
Y118861D01*
X8987D01*
Y119280D01*
X12105Y122398D01*
X12346Y122759D01*
X12431Y123184D01*
X12431Y123184D01*
X12431Y123184D01*
Y123184D01*
Y128285D01*
X12709Y128400D01*
X13284Y128842D01*
X13726Y129417D01*
X14004Y130088D01*
X14022Y130223D01*
X14522D01*
X14539Y130088D01*
X14817Y129417D01*
X15259Y128842D01*
X15835Y128400D01*
X16020Y128323D01*
Y126250D01*
X14832D01*
Y123272D01*
X10960Y119400D01*
X10698Y119009D01*
X10607Y118548D01*
X10607Y118548D01*
Y99851D01*
X10328Y99433D01*
X10205Y98819D01*
X10328Y98204D01*
X10396Y98102D01*
X10160Y97661D01*
X4823D01*
X4823Y97661D01*
X4362Y97569D01*
X3971Y97308D01*
X-12990Y80347D01*
X-13468Y80492D01*
X-13477Y80536D01*
X-13825Y81057D01*
X-14346Y81405D01*
X-14961Y81527D01*
X-15575Y81405D01*
X-15846Y81224D01*
X-28074D01*
X-28310Y81665D01*
X-28044Y82063D01*
X-27922Y82677D01*
X-28044Y83292D01*
X-28392Y83812D01*
X-28913Y84161D01*
X-29406Y84259D01*
X-33400Y88253D01*
X-33791Y88514D01*
X-34252Y88606D01*
X-34252Y88606D01*
X-39265D01*
X-42890Y92231D01*
Y104724D01*
X-42982Y105185D01*
X-43243Y105576D01*
X-46235Y108568D01*
X-46626Y108829D01*
X-47087Y108921D01*
X-47087Y108921D01*
X-82439D01*
X-82690Y109527D01*
X-83266Y110277D01*
X-84016Y110853D01*
X-84889Y111215D01*
X-85827Y111338D01*
X-86764Y111215D01*
X-87638Y110853D01*
X-88388Y110277D01*
X-88963Y109527D01*
X-89325Y108654D01*
X-89448Y107717D01*
X-89325Y106779D01*
X-88963Y105906D01*
X-88388Y105156D01*
X-87638Y104580D01*
X-86764Y104218D01*
X-85827Y104095D01*
X-84889Y104218D01*
X-84016Y104580D01*
X-83266Y105156D01*
X-82690Y105906D01*
X-82439Y106512D01*
X-47585D01*
X-45299Y104226D01*
Y91732D01*
X-45299Y91732D01*
X-45207Y91271D01*
X-44946Y90881D01*
X-40615Y86550D01*
X-40225Y86289D01*
X-39764Y86197D01*
X-39764Y86197D01*
X-34751D01*
X-31109Y82556D01*
X-31011Y82063D01*
X-30745Y81665D01*
X-30981Y81224D01*
X-35373D01*
X-35409Y81405D01*
X-35692Y81828D01*
X-36115Y82111D01*
X-36614Y82210D01*
X-37113Y82111D01*
X-37537Y81828D01*
X-37644Y81668D01*
X-38144D01*
X-38251Y81828D01*
X-38674Y82111D01*
X-39173Y82210D01*
X-39672Y82111D01*
X-40096Y81828D01*
X-40203Y81668D01*
X-40703D01*
X-40810Y81828D01*
X-41232Y82110D01*
Y80020D01*
X-42232D01*
Y82110D01*
X-42655Y81828D01*
X-42762Y81668D01*
X-43262D01*
X-43369Y81828D01*
X-43791Y82110D01*
Y80020D01*
X-44291D01*
Y79520D01*
X-45596D01*
Y79134D01*
X-45497Y78635D01*
X-45270Y78295D01*
X-45506Y77854D01*
X-45965D01*
Y77395D01*
X-46406Y77160D01*
X-46745Y77386D01*
X-46926Y77422D01*
Y78051D01*
X-46926Y78051D01*
X-47017Y78512D01*
X-47278Y78903D01*
X-47278Y78903D01*
X-49685Y81309D01*
X-50075Y81570D01*
X-50167Y81588D01*
Y82648D01*
X-55148D01*
Y78267D01*
X-50167D01*
X-50167Y78267D01*
Y78267D01*
X-50083Y78302D01*
X-49601Y77819D01*
X-49590Y77763D01*
X-49635Y77306D01*
X-49938Y77104D01*
X-50008Y77000D01*
X-50167Y77048D01*
Y77048D01*
X-50167Y77048D01*
X-52157D01*
Y74857D01*
X-53158D01*
Y77048D01*
X-55148D01*
Y76062D01*
X-56693D01*
Y94416D01*
X-56219Y94577D01*
X-55874Y94126D01*
X-55133Y93559D01*
X-54272Y93202D01*
X-53847Y93146D01*
Y96653D01*
Y100162D01*
X-54272Y100106D01*
X-55133Y99749D01*
X-55874Y99181D01*
X-56219Y98730D01*
X-56693Y98891D01*
Y102362D01*
X-90551D01*
Y205906D01*
Y206299D01*
X-90551D01*
X-90596Y206347D01*
X-90407Y209235D01*
X-89833Y212120D01*
X-88888Y214905D01*
X-87586Y217544D01*
X-85952Y219990D01*
X-84012Y222201D01*
X-81801Y224141D01*
X-81642Y224247D01*
X-81289Y223893D01*
X-81740Y223218D01*
X-81914Y222342D01*
X-81740Y221467D01*
X-81244Y220725D01*
X-80502Y220229D01*
X-79626Y220055D01*
X-78750Y220229D01*
X-78008Y220725D01*
X-77512Y221467D01*
X-77338Y222342D01*
X-77512Y223218D01*
X-78008Y223960D01*
X-78750Y224456D01*
X-79626Y224631D01*
X-80423Y224472D01*
X-80614Y224934D01*
X-79355Y225775D01*
X-76716Y227076D01*
X-73931Y228022D01*
X-71046Y228596D01*
X-68110Y228788D01*
X66535Y228740D01*
D02*
G37*
G36*
X89023Y198818D02*
X89021Y194333D01*
X88548Y194172D01*
X88494Y194242D01*
X87713Y194842D01*
X86803Y195219D01*
X85827Y195347D01*
X84850Y195219D01*
X83941Y194842D01*
X83159Y194242D01*
X82560Y193461D01*
X82183Y192551D01*
X82054Y191575D01*
X82183Y190598D01*
X82465Y189917D01*
X76048Y183500D01*
X75787Y183109D01*
X75696Y182648D01*
X75696Y182648D01*
Y139199D01*
X74124Y137627D01*
X73709Y137905D01*
X73831Y138201D01*
X73946Y139075D01*
X73831Y139948D01*
X73494Y140762D01*
X72958Y141462D01*
X72259Y141998D01*
X71444Y142335D01*
X70571Y142450D01*
X64665D01*
X63792Y142335D01*
X62978Y141998D01*
X62279Y141462D01*
X61978Y141069D01*
X61504Y141230D01*
Y175549D01*
X84168Y198213D01*
X84850Y197931D01*
X85827Y197802D01*
X86803Y197931D01*
X87713Y198308D01*
X88494Y198907D01*
X88549Y198979D01*
X89023Y198818D01*
D02*
G37*
G36*
X38162Y130088D02*
X38439Y129417D01*
X38881Y128842D01*
X39457Y128400D01*
X40127Y128122D01*
X40846Y128027D01*
X41566Y128122D01*
X42236Y128400D01*
X42812Y128842D01*
X43254Y129417D01*
X43531Y130088D01*
X43549Y130223D01*
X44049D01*
X44067Y130088D01*
X44345Y129417D01*
X44786Y128842D01*
X45081Y128615D01*
X45114Y128116D01*
X41627Y124629D01*
X39221D01*
X38803Y124909D01*
X38189Y125031D01*
X37574Y124909D01*
X37054Y124561D01*
X36705Y124040D01*
X36694Y123980D01*
X36607Y123894D01*
X36145Y124085D01*
Y128323D01*
X36331Y128400D01*
X36906Y128842D01*
X37348Y129417D01*
X37626Y130088D01*
X37644Y130223D01*
X38144D01*
X38162Y130088D01*
D02*
G37*
%LPC*%
G36*
X19928Y61939D02*
X18238D01*
Y59949D01*
X19928D01*
Y61939D01*
D02*
G37*
G36*
X-53256Y65095D02*
X-55247D01*
Y63405D01*
X-53256D01*
Y65095D01*
D02*
G37*
G36*
X-38612Y59736D02*
X-40302D01*
Y57746D01*
X-38612D01*
Y59736D01*
D02*
G37*
G36*
X-41302D02*
X-42993D01*
Y57746D01*
X-41302D01*
Y59736D01*
D02*
G37*
G36*
X-49838Y96153D02*
X-52846D01*
Y93146D01*
X-52421Y93202D01*
X-51560Y93559D01*
X-50819Y94126D01*
X-50251Y94867D01*
X-49894Y95729D01*
X-49838Y96153D01*
D02*
G37*
G36*
X-52846Y100162D02*
Y97154D01*
X-49838D01*
X-49894Y97579D01*
X-50251Y98440D01*
X-50819Y99181D01*
X-51560Y99749D01*
X-52421Y100106D01*
X-52846Y100162D01*
D02*
G37*
G36*
X84646Y115426D02*
X83669Y115297D01*
X82759Y114921D01*
X81978Y114321D01*
X81379Y113540D01*
X81002Y112630D01*
X80873Y111653D01*
X81002Y110677D01*
X81379Y109767D01*
X81683Y109371D01*
X71589Y99277D01*
X71589Y99277D01*
X70351Y98038D01*
X69858Y97940D01*
X69337Y97592D01*
X68989Y97071D01*
X68867Y96457D01*
X68989Y95842D01*
X69337Y95321D01*
X69858Y94973D01*
X70472Y94851D01*
X71087Y94973D01*
X71608Y95321D01*
X71956Y95842D01*
X72054Y96335D01*
X73292Y97574D01*
X73292Y97574D01*
X83722Y108003D01*
X84646Y107881D01*
X85622Y108010D01*
X86532Y108387D01*
X87313Y108986D01*
X87913Y109767D01*
X88289Y110677D01*
X88418Y111653D01*
X88289Y112630D01*
X87913Y113540D01*
X87313Y114321D01*
X86532Y114921D01*
X85622Y115297D01*
X84646Y115426D01*
D02*
G37*
G36*
X-53256Y67786D02*
X-55247D01*
Y66095D01*
X-53256D01*
Y67786D01*
D02*
G37*
G36*
X-50265Y65095D02*
X-52256D01*
Y63405D01*
X-50265D01*
Y65095D01*
D02*
G37*
G36*
X-44791Y82110D02*
X-45214Y81828D01*
X-45497Y81405D01*
X-45596Y80905D01*
Y80520D01*
X-44791D01*
Y82110D01*
D02*
G37*
G36*
X22619Y58949D02*
X20928D01*
Y56958D01*
X22619D01*
Y58949D01*
D02*
G37*
G36*
X-22155Y24105D02*
X-28245D01*
Y20077D01*
X-22155D01*
Y24105D01*
D02*
G37*
G36*
X-15064D02*
X-21155D01*
Y20077D01*
X-15064D01*
Y24105D01*
D02*
G37*
G36*
X-46558Y29132D02*
X-52648D01*
Y25105D01*
X-46558D01*
Y29132D01*
D02*
G37*
G36*
Y24105D02*
X-52648D01*
Y20077D01*
X-46558D01*
Y24105D01*
D02*
G37*
G36*
X31299Y32812D02*
X29833Y32667D01*
X28423Y32240D01*
X27123Y31545D01*
X25984Y30610D01*
X25049Y29471D01*
X24355Y28172D01*
X23927Y26762D01*
X23783Y25295D01*
X23927Y23829D01*
X24355Y22419D01*
X25049Y21119D01*
X25984Y19980D01*
X27123Y19046D01*
X28423Y18351D01*
X29833Y17923D01*
X31299Y17779D01*
X32766Y17923D01*
X34176Y18351D01*
X35475Y19046D01*
X36614Y19980D01*
X37549Y21119D01*
X38243Y22419D01*
X38671Y23829D01*
X38816Y25295D01*
X38671Y26762D01*
X38243Y28172D01*
X37549Y29471D01*
X36614Y30610D01*
X35475Y31545D01*
X34176Y32240D01*
X32766Y32667D01*
X31299Y32812D01*
D02*
G37*
G36*
X50484Y24795D02*
X43517D01*
X43612Y23829D01*
X44040Y22419D01*
X44734Y21119D01*
X45669Y19980D01*
X46808Y19046D01*
X48108Y18351D01*
X49518Y17923D01*
X50484Y17828D01*
Y24795D01*
D02*
G37*
G36*
X58451D02*
X51484D01*
Y17828D01*
X52451Y17923D01*
X53861Y18351D01*
X55160Y19046D01*
X56299Y19980D01*
X57234Y21119D01*
X57929Y22419D01*
X58356Y23829D01*
X58451Y24795D01*
D02*
G37*
G36*
X-22155Y29132D02*
X-28245D01*
Y25105D01*
X-22155D01*
Y29132D01*
D02*
G37*
G36*
X41142Y42640D02*
X40474Y42552D01*
X39851Y42294D01*
X39317Y41884D01*
X38906Y41350D01*
X38649Y40727D01*
X38561Y40059D01*
X38649Y39391D01*
X38906Y38769D01*
X39317Y38234D01*
X39851Y37824D01*
X40474Y37566D01*
X41142Y37478D01*
X41810Y37566D01*
X42432Y37824D01*
X42967Y38234D01*
X43377Y38769D01*
X43635Y39391D01*
X43723Y40059D01*
X43635Y40727D01*
X43377Y41350D01*
X42967Y41884D01*
X42432Y42294D01*
X41810Y42552D01*
X41142Y42640D01*
D02*
G37*
G36*
X-5906Y58299D02*
X-6520Y58176D01*
X-7041Y57828D01*
X-7389Y57307D01*
X-7511Y56693D01*
X-7389Y56078D01*
X-7041Y55558D01*
X-6520Y55209D01*
X-6027Y55111D01*
X2692Y46393D01*
X2692Y46393D01*
X2926Y46236D01*
X3083Y46132D01*
X3543Y46040D01*
X4479D01*
X4897Y45761D01*
X5512Y45638D01*
X6126Y45761D01*
X6647Y46109D01*
X6995Y46630D01*
X7118Y47244D01*
X6995Y47859D01*
X6647Y48379D01*
X6126Y48728D01*
X5512Y48850D01*
X4897Y48728D01*
X4479Y48448D01*
X4042D01*
X-4324Y56814D01*
X-4422Y57307D01*
X-4770Y57828D01*
X-5291Y58176D01*
X-5906Y58299D01*
D02*
G37*
G36*
X19928Y58949D02*
X18238D01*
Y56958D01*
X19928D01*
Y58949D01*
D02*
G37*
G36*
X27400Y35706D02*
X26785Y35583D01*
X26368Y35304D01*
X14010D01*
X13549Y35213D01*
X13159Y34951D01*
X11678Y33471D01*
X11186Y33373D01*
X10665Y33025D01*
X10317Y32504D01*
X10194Y31890D01*
X10317Y31275D01*
X10665Y30754D01*
X11186Y30406D01*
X11800Y30284D01*
X12415Y30406D01*
X12935Y30754D01*
X13283Y31275D01*
X13382Y31768D01*
X14509Y32896D01*
X26368D01*
X26785Y32617D01*
X27400Y32494D01*
X28014Y32617D01*
X28535Y32965D01*
X28883Y33485D01*
X29006Y34100D01*
X28883Y34714D01*
X28535Y35235D01*
X28014Y35583D01*
X27400Y35706D01*
D02*
G37*
G36*
X-15064Y29132D02*
X-21155D01*
Y25105D01*
X-15064D01*
Y29132D01*
D02*
G37*
G36*
X50484Y32763D02*
X49518Y32667D01*
X48108Y32240D01*
X46808Y31545D01*
X45669Y30610D01*
X44734Y29471D01*
X44040Y28172D01*
X43612Y26762D01*
X43517Y25795D01*
X50484D01*
Y32763D01*
D02*
G37*
G36*
X51484D02*
Y25795D01*
X58451D01*
X58356Y26762D01*
X57929Y28172D01*
X57234Y29471D01*
X56299Y30610D01*
X55160Y31545D01*
X53861Y32240D01*
X52451Y32667D01*
X51484Y32763D01*
D02*
G37*
G36*
X-29437Y120552D02*
X-31428D01*
Y118861D01*
X-29437D01*
Y120552D01*
D02*
G37*
G36*
X-32746D02*
X-34736D01*
Y118861D01*
X-32746D01*
Y120552D01*
D02*
G37*
G36*
X-23138D02*
X-25128D01*
Y118861D01*
X-23138D01*
Y120552D01*
D02*
G37*
G36*
X-26447D02*
X-28437D01*
Y118861D01*
X-26447D01*
Y120552D01*
D02*
G37*
G36*
X-42035D02*
X-44026D01*
Y118861D01*
X-42035D01*
Y120552D01*
D02*
G37*
G36*
X-45344D02*
X-47335D01*
Y118861D01*
X-45344D01*
Y120552D01*
D02*
G37*
G36*
X-35736D02*
X-37727D01*
Y118861D01*
X-35736D01*
Y120552D01*
D02*
G37*
G36*
X-39045D02*
X-41035D01*
Y118861D01*
X-39045D01*
Y120552D01*
D02*
G37*
G36*
X-79626Y133686D02*
X-80502Y133511D01*
X-81244Y133016D01*
X-81740Y132273D01*
X-81914Y131398D01*
X-81740Y130522D01*
X-81244Y129780D01*
X-80502Y129284D01*
X-79626Y129110D01*
X-78750Y129284D01*
X-78008Y129780D01*
X-77512Y130522D01*
X-77338Y131398D01*
X-77512Y132273D01*
X-78008Y133016D01*
X-78750Y133511D01*
X-79626Y133686D01*
D02*
G37*
G36*
X88386Y125394D02*
X85146D01*
Y122153D01*
X88386D01*
Y125394D01*
D02*
G37*
G36*
X85327Y175281D02*
X84850Y175219D01*
X83941Y174842D01*
X83159Y174242D01*
X82560Y173461D01*
X82183Y172551D01*
X82120Y172075D01*
X85327D01*
Y175281D01*
D02*
G37*
G36*
Y171075D02*
X82120D01*
X82183Y170598D01*
X82560Y169689D01*
X83159Y168907D01*
X83941Y168308D01*
X84850Y167931D01*
X85327Y167868D01*
Y171075D01*
D02*
G37*
G36*
X5996Y120552D02*
X4005D01*
Y118861D01*
X5996D01*
Y120552D01*
D02*
G37*
G36*
X-20147D02*
X-22138D01*
Y118861D01*
X-20147D01*
Y120552D01*
D02*
G37*
G36*
X84146Y125394D02*
X80905D01*
Y122153D01*
X84146D01*
Y125394D01*
D02*
G37*
G36*
X19813Y120650D02*
X17823D01*
Y118960D01*
X19813D01*
Y120650D01*
D02*
G37*
G36*
X-48335Y120552D02*
X-50325D01*
Y118861D01*
X-48335D01*
Y120552D01*
D02*
G37*
G36*
X-32746Y117861D02*
X-34736D01*
Y116171D01*
X-32746D01*
Y117861D01*
D02*
G37*
G36*
X-35736D02*
X-37727D01*
Y116171D01*
X-35736D01*
Y117861D01*
D02*
G37*
G36*
X-26447D02*
X-28437D01*
Y116171D01*
X-26447D01*
Y117861D01*
D02*
G37*
G36*
X-29437D02*
X-31428D01*
Y116171D01*
X-29437D01*
Y117861D01*
D02*
G37*
G36*
X-45344D02*
X-47335D01*
Y116171D01*
X-45344D01*
Y117861D01*
D02*
G37*
G36*
X-48335D02*
X-50325D01*
Y116171D01*
X-48335D01*
Y117861D01*
D02*
G37*
G36*
X-39045D02*
X-41035D01*
Y116171D01*
X-39045D01*
Y117861D01*
D02*
G37*
G36*
X-42035D02*
X-44026D01*
Y116171D01*
X-42035D01*
Y117861D01*
D02*
G37*
G36*
X19813Y117960D02*
X17823D01*
Y116269D01*
X19813D01*
Y117960D01*
D02*
G37*
G36*
X16823D02*
X14832D01*
Y116269D01*
X16823D01*
Y117960D01*
D02*
G37*
G36*
X88386Y121153D02*
X85146D01*
Y117913D01*
X88386D01*
Y121153D01*
D02*
G37*
G36*
X84146D02*
X80905D01*
Y117913D01*
X84146D01*
Y121153D01*
D02*
G37*
G36*
X-20147Y117861D02*
X-22138D01*
Y116171D01*
X-20147D01*
Y117861D01*
D02*
G37*
G36*
X-23138D02*
X-25128D01*
Y116171D01*
X-23138D01*
Y117861D01*
D02*
G37*
G36*
X8987D02*
X6996D01*
Y116171D01*
X8987D01*
Y117861D01*
D02*
G37*
G36*
X5996D02*
X4005D01*
Y116171D01*
X5996D01*
Y117861D01*
D02*
G37*
%LPD*%
D10*
X36811Y88287D02*
D03*
X34252D02*
D03*
X31693D02*
D03*
X29134D02*
D03*
X26575D02*
D03*
X24016D02*
D03*
X21457D02*
D03*
X21457Y65256D02*
D03*
X24016D02*
D03*
X26575D02*
D03*
X29134D02*
D03*
X31693D02*
D03*
X34252D02*
D03*
X36811D02*
D03*
D11*
X17618Y84449D02*
D03*
Y81890D02*
D03*
Y79331D02*
D03*
Y76772D02*
D03*
Y74213D02*
D03*
Y71654D02*
D03*
Y69094D02*
D03*
X40650D02*
D03*
Y71654D02*
D03*
Y74213D02*
D03*
Y76772D02*
D03*
Y79331D02*
D03*
Y81890D02*
D03*
Y84449D02*
D03*
D12*
X29134Y76772D02*
D03*
D13*
X52505Y80905D02*
D03*
X46905D02*
D03*
X6058Y79331D02*
D03*
X11658D02*
D03*
X26028Y59449D02*
D03*
X20428D02*
D03*
X46905Y75394D02*
D03*
X52505D02*
D03*
X-40802Y60236D02*
D03*
X-46402D02*
D03*
D14*
X17323Y124060D02*
D03*
Y118460D02*
D03*
X6496Y123961D02*
D03*
Y118361D02*
D03*
X-16339Y123961D02*
D03*
Y118361D02*
D03*
X-4921Y123961D02*
D03*
Y118361D02*
D03*
X-22638D02*
D03*
Y123961D02*
D03*
X-28937Y118361D02*
D03*
Y123961D02*
D03*
X-35236Y118361D02*
D03*
Y123961D02*
D03*
X-41535Y118361D02*
D03*
Y123961D02*
D03*
X-47835Y118361D02*
D03*
Y123961D02*
D03*
X-52658Y80458D02*
D03*
Y74857D02*
D03*
X-52756Y65595D02*
D03*
Y59995D02*
D03*
X-59744Y75733D02*
D03*
Y70133D02*
D03*
X-65551Y75733D02*
D03*
Y70133D02*
D03*
X-71161Y75733D02*
D03*
Y70133D02*
D03*
D15*
X-83200Y33028D02*
D03*
Y73972D02*
D03*
D16*
X-53148Y24605D02*
D03*
Y6891D02*
D03*
X-21655Y24605D02*
D03*
Y6891D02*
D03*
D17*
X-48130Y76181D02*
D03*
Y73622D02*
D03*
Y71063D02*
D03*
Y68504D02*
D03*
X-32776D02*
D03*
Y71063D02*
D03*
Y73622D02*
D03*
Y76181D02*
D03*
D18*
X-44291Y64665D02*
D03*
X-41732D02*
D03*
X-39173D02*
D03*
X-36614D02*
D03*
Y80020D02*
D03*
X-39173D02*
D03*
X-41732D02*
D03*
X-44291D02*
D03*
D19*
X-40453Y72342D02*
D03*
D20*
X14665Y57776D02*
Y61024D01*
X-70231Y71063D02*
X-48130D01*
Y73622D02*
X-41732D01*
X-70286Y74857D02*
X-52756D01*
X-39173Y64665D02*
Y71063D01*
X-32776D02*
X15748D01*
X44094Y66535D02*
X59055D01*
X40650Y76772D02*
X45527D01*
X38976Y48031D02*
Y53543D01*
X17224Y125044D02*
X18307Y123961D01*
X77077Y55600D02*
X81693Y50984D01*
Y38780D02*
Y50984D01*
Y38780D02*
X87402Y33071D01*
X40650Y71654D02*
X40650Y71653D01*
X57087D01*
X75590Y53051D02*
X78937Y49705D01*
Y10531D02*
Y49705D01*
X75059Y6654D02*
X78937Y10531D01*
X-21417Y6654D02*
X75059D01*
X40945Y53543D02*
X42621Y55219D01*
X38976Y53543D02*
X40945D01*
X-21655Y6891D02*
X-21417Y6654D01*
X46752Y128051D02*
Y131398D01*
X42126Y123425D02*
X46752Y128051D01*
X38189Y123425D02*
X42126D01*
X20768Y93701D02*
X21457Y93012D01*
Y88287D02*
Y93012D01*
X-5807Y74213D02*
X17618D01*
X-5906Y74114D02*
X-5807Y74213D01*
X11811Y63287D02*
X17618Y69094D01*
X-9055Y63287D02*
X11811D01*
X14665Y61024D02*
X19390Y65748D01*
X-13484Y60728D02*
X14370D01*
X19390Y65748D02*
X20965D01*
X-14961Y62205D02*
X-13484Y60728D01*
X-31594Y66043D02*
X-1575D01*
X-32972Y64665D02*
X-31594Y66043D01*
X-36614Y64665D02*
X-32972D01*
X14873Y81890D02*
X17618D01*
X3598Y84208D02*
X12555D01*
X-3347Y77264D02*
X3598Y84208D01*
X12555D02*
X14873Y81890D01*
X62303Y126378D02*
X63386Y125295D01*
Y74016D02*
Y125295D01*
X58464Y69094D02*
X63386Y74016D01*
X16437Y84449D02*
X17618D01*
X36811Y58760D02*
X39764Y55807D01*
X36811Y58760D02*
Y65256D01*
X4823Y96457D02*
X29134D01*
X-15453Y76181D02*
X4823Y96457D01*
X-32776Y76181D02*
X-15453D01*
X16043Y76772D02*
X17618D01*
X15372Y76100D02*
X16043Y76772D01*
X3821Y76100D02*
X15372D01*
X16339Y71654D02*
X17618D01*
X15748Y71063D02*
X16339Y71654D01*
X34252Y58257D02*
Y65256D01*
Y58257D02*
X38965Y53543D01*
X38976D01*
X62008Y62402D02*
X81260Y81653D01*
X39567Y62402D02*
X62008D01*
X39370Y62598D02*
X39567Y62402D01*
X44097Y66538D02*
Y66736D01*
X44094Y66535D02*
X44097Y66538D01*
X3051Y76378D02*
X3543D01*
X-32579Y73425D02*
X-11614D01*
X-32776Y73622D02*
X-32579Y73425D01*
X14665Y57776D02*
X14813D01*
X38878Y48130D02*
Y48425D01*
Y48130D02*
X38976Y48031D01*
X48524Y55676D02*
X48600Y55600D01*
X43307Y57874D02*
X64567D01*
X41732Y64567D02*
X60630D01*
X40650Y69094D02*
X58464D01*
X40945Y60236D02*
X63386D01*
X74803Y71653D01*
X60300Y176048D02*
X85827Y201575D01*
X60300Y128381D02*
Y176048D01*
Y128381D02*
X62303Y126378D01*
X76900Y138700D02*
Y182648D01*
X85827Y191575D01*
X73228Y135028D02*
X76900Y138700D01*
X73228Y114567D02*
Y135028D01*
X79200Y174948D02*
X85827Y181575D01*
X79200Y137100D02*
Y174948D01*
X75800Y133700D02*
X79200Y137100D01*
X75800Y113202D02*
Y133700D01*
X69291Y106693D02*
X75800Y113202D01*
X-83200Y73972D02*
X-81439Y75733D01*
X-71161D01*
Y35439D02*
Y70133D01*
X-83200Y33028D02*
X-73572D01*
X-71161Y35439D01*
X-10236Y19636D02*
X-6600Y16000D01*
X-10236Y19636D02*
Y58268D01*
X-6600Y16000D02*
X26300D01*
X-21655Y6891D02*
Y10045D01*
X48600Y55600D02*
X77077D01*
X64567Y57874D02*
X68347Y61654D01*
X14010Y34100D02*
X27400D01*
X11800Y31890D02*
X14010Y34100D01*
X43701Y83501D02*
Y114173D01*
X42090Y81890D02*
X43701Y83501D01*
X40650Y81890D02*
X42090D01*
X3543Y76378D02*
X3821Y76100D01*
X-44094Y91732D02*
Y104724D01*
X-47087Y107717D02*
X-44094Y104724D01*
X-85827Y107717D02*
X-47087D01*
X-32776Y68504D02*
X3543D01*
X-34252Y87402D02*
X-29528Y82677D01*
X-39764Y87402D02*
X-34252D01*
X-44094Y91732D02*
X-39764Y87402D01*
X-46402Y55064D02*
Y60236D01*
Y55064D02*
X-44488Y53150D01*
X-33465D01*
X-29528Y57087D01*
Y82677D02*
Y83071D01*
X-85827Y117717D02*
Y131102D01*
X-77854Y139075D01*
X-68602D01*
X9547D01*
X17224Y131398D01*
X11811Y118548D02*
X17323Y124060D01*
X11811Y98819D02*
Y118548D01*
X11658Y79331D02*
Y82042D01*
X3543Y47244D02*
X5512D01*
X-53148Y6891D02*
Y11810D01*
X-54724Y13386D02*
X-53148Y11810D01*
X72441Y98425D02*
X84646Y110630D01*
X72441Y98425D02*
Y98425D01*
X70472Y96457D02*
X72441Y98425D01*
X84646Y110630D02*
Y111653D01*
X24016Y93701D02*
X24016Y93701D01*
Y88287D02*
Y93701D01*
X77953Y94961D02*
X84646Y101654D01*
X80512Y87520D02*
X84646Y91654D01*
X-53148Y6891D02*
X-21655D01*
X46905Y75394D02*
X46993D01*
X52505Y80905D01*
X45527Y76772D02*
X46905Y75394D01*
X44291Y80905D02*
X46905D01*
X42717Y79331D02*
X44291Y80905D01*
X40650Y79331D02*
X42717D01*
X17618Y79331D02*
X17618Y79331D01*
X11658Y79331D02*
X17618D01*
X23622Y40551D02*
X29134Y46063D01*
Y65256D01*
X31693Y45079D02*
Y65256D01*
X24803Y38189D02*
X31693Y45079D01*
X26028Y59449D02*
X26575Y59995D01*
Y65256D01*
X17224Y125044D02*
Y131398D01*
X5413Y125044D02*
X6496Y123961D01*
X5413Y125044D02*
Y131398D01*
X-492Y122791D02*
Y131398D01*
X-4921Y118361D02*
X-492Y122791D01*
X-6398Y125438D02*
X-4921Y123961D01*
X-6398Y125438D02*
Y131398D01*
X-12303Y122397D02*
Y131398D01*
X-16339Y118361D02*
X-12303Y122397D01*
X-18209Y125831D02*
X-16339Y123961D01*
X-18209Y125831D02*
Y131398D01*
X-24114D02*
X-22638Y129921D01*
Y123961D02*
Y129921D01*
X-30020Y131398D02*
X-28937Y130315D01*
Y123961D02*
Y130315D01*
X-35925Y131398D02*
X-35236Y130709D01*
Y123961D02*
Y130709D01*
X-41831Y131398D02*
X-41535Y131102D01*
Y123961D02*
Y131102D01*
X-47835Y131299D02*
X-47736Y131398D01*
X-47835Y123961D02*
Y131299D01*
X20965Y65748D02*
X21457Y65256D01*
X-15059Y80020D02*
X-14961Y79921D01*
X-36614Y80020D02*
X-15059D01*
X29134Y88287D02*
Y96457D01*
X-40453Y72342D02*
X-39173Y71063D01*
X-40802Y60236D02*
X-39173Y61865D01*
Y64665D01*
X-44291D02*
X-41732D01*
X-52756Y59995D02*
X-46643D01*
X-46402Y60236D01*
Y62554D01*
X-44291Y64665D01*
X-52658Y80458D02*
X-50536D01*
X-48130Y78051D01*
Y76181D02*
Y78051D01*
X-52658Y74857D02*
X-51422Y73622D01*
X-48130D01*
X-71161Y75733D02*
X-70286Y74857D01*
X-71161Y70133D02*
X-70231Y71063D01*
X-48130D02*
X-47244D01*
X34941Y122933D02*
Y131398D01*
Y122933D02*
X43701Y114173D01*
X23130Y120965D02*
Y131398D01*
Y120965D02*
X31693Y112401D01*
Y88287D02*
Y112401D01*
X29035Y122146D02*
Y131398D01*
Y122146D02*
X40650Y110531D01*
Y84449D02*
Y110531D01*
X46905Y80905D02*
Y119237D01*
X52505Y80905D02*
Y83716D01*
X49606Y86614D02*
X52505Y83716D01*
X34252Y109449D02*
X34252Y109449D01*
Y88287D02*
Y101181D01*
Y101181D02*
Y109449D01*
X68110Y109449D02*
X73228Y114567D01*
X36811Y88287D02*
Y106496D01*
X52165Y91929D02*
Y101772D01*
X51968Y91732D02*
X52165Y91929D01*
X2165Y79331D02*
X6058D01*
X0Y77165D02*
X2165Y79331D01*
X60630Y64567D02*
X80512Y84449D01*
Y87520D01*
X59055Y66535D02*
X77953Y85433D01*
Y94961D01*
X81260Y81653D02*
X84646D01*
X74803Y71653D02*
X84646D01*
X68347Y61654D02*
X84646D01*
X-5906Y56693D02*
Y56693D01*
X3543Y47244D01*
X-11614Y73425D02*
X1378Y86417D01*
X14469D02*
X16437Y84449D01*
X1969Y40551D02*
X23622D01*
X-591Y32283D02*
Y37992D01*
X1969Y40551D01*
X3150Y38189D02*
X24803D01*
X1378Y86417D02*
X5906D01*
X14469D01*
D21*
X-41732Y73622D02*
Y80020D01*
X-44291Y68504D02*
X-40453Y72342D01*
X24409Y72047D02*
X29134Y76772D01*
X24016Y71654D02*
X24409Y72047D01*
X24016Y65256D02*
Y71654D01*
X20428Y59449D02*
X24016Y63036D01*
Y65256D01*
X26575Y79331D02*
X29134Y76772D01*
X26575Y79331D02*
Y88287D01*
X29134Y76772D02*
X31693Y74213D01*
X40650D01*
X11319Y123184D02*
Y131398D01*
X6496Y118361D02*
X11319Y123184D01*
X-41732Y73622D02*
X-40453Y72342D01*
X-48130Y68504D02*
X-44291D01*
X-53139Y75339D02*
X-52658Y74857D01*
X-52756Y65595D02*
X-49847Y68504D01*
X-48130D01*
D22*
X-68602Y139075D02*
D03*
X67618D02*
D03*
D23*
X46752Y131398D02*
D03*
X-47736D02*
D03*
X-41831D02*
D03*
X-30020D02*
D03*
X-35925D02*
D03*
X-18209D02*
D03*
X-24114D02*
D03*
X11319D02*
D03*
X17224D02*
D03*
X-492D02*
D03*
X5413D02*
D03*
X-6398D02*
D03*
X-12303D02*
D03*
X34941D02*
D03*
X40846D02*
D03*
X29035D02*
D03*
X23130D02*
D03*
D24*
X-53347Y96653D02*
D03*
X52165Y101772D02*
D03*
X51968Y91732D02*
D03*
D25*
X50984Y25295D02*
D03*
X31299D02*
D03*
D26*
X84646Y61654D02*
D03*
Y81653D02*
D03*
Y91654D02*
D03*
Y101654D02*
D03*
Y111653D02*
D03*
Y71653D02*
D03*
X85827Y191575D02*
D03*
Y181575D02*
D03*
Y171575D02*
D03*
Y161575D02*
D03*
Y201575D02*
D03*
D27*
X84646Y121653D02*
D03*
X85827Y151575D02*
D03*
D28*
X-85827Y117717D02*
D03*
D29*
Y107717D02*
D03*
D30*
X87402Y33071D02*
D03*
Y23228D02*
D03*
Y42913D02*
D03*
X74409Y23228D02*
D03*
Y33071D02*
D03*
Y42913D02*
D03*
D31*
X33858Y81496D02*
D03*
Y76772D02*
D03*
Y72047D02*
D03*
X29134Y81496D02*
D03*
Y76772D02*
D03*
Y72047D02*
D03*
X24409Y81496D02*
D03*
Y76772D02*
D03*
Y72047D02*
D03*
D32*
X49213Y45669D02*
D03*
Y50394D02*
D03*
D33*
X57087Y71653D02*
D03*
X75590Y53051D02*
D03*
X-22539Y35433D02*
D03*
X11811Y27756D02*
D03*
X13091Y9449D02*
D03*
X-12303Y13681D02*
D03*
X38189Y123425D02*
D03*
X20768Y93701D02*
D03*
X-5906Y74114D02*
D03*
X-9055Y63287D02*
D03*
X-1575Y66043D02*
D03*
X-3347Y77264D02*
D03*
X-14961Y62205D02*
D03*
X42621Y55219D02*
D03*
X39764Y55807D02*
D03*
X44097Y66736D02*
D03*
X39370Y62598D02*
D03*
X3051Y76378D02*
D03*
X787Y71161D02*
D03*
X14813Y57776D02*
D03*
X38878Y48425D02*
D03*
X48524Y55676D02*
D03*
X40945Y60236D02*
D03*
X41732Y64567D02*
D03*
X46905Y119237D02*
D03*
X26378Y9449D02*
D03*
X26300Y16000D02*
D03*
X13091Y13287D02*
D03*
Y3051D02*
D03*
X44094Y76772D02*
D03*
X27400Y34100D02*
D03*
X-29528Y57087D02*
D03*
Y82677D02*
D03*
X11811Y98819D02*
D03*
X11658Y82042D02*
D03*
X5512Y47244D02*
D03*
X3543Y68504D02*
D03*
X-10236Y58268D02*
D03*
X-54724Y13386D02*
D03*
X62303Y126378D02*
D03*
X70472Y96457D02*
D03*
X29134D02*
D03*
X24016Y93701D02*
D03*
X43307Y57874D02*
D03*
X-14961Y79921D02*
D03*
X49606Y86614D02*
D03*
X34252Y109449D02*
D03*
X68110D02*
D03*
X36811Y106496D02*
D03*
X69291Y106693D02*
D03*
X0Y77165D02*
D03*
X19685Y50394D02*
D03*
X-1969Y57087D02*
D03*
X-6600Y49200D02*
D03*
X-19390Y35433D02*
D03*
X-12303Y9744D02*
D03*
Y17717D02*
D03*
X-15945Y35433D02*
D03*
X-5906Y39370D02*
D03*
Y44291D02*
D03*
X6693Y57087D02*
D03*
X2362D02*
D03*
X26476Y3150D02*
D03*
X-5906Y32480D02*
D03*
X11811Y24705D02*
D03*
Y21358D02*
D03*
X19685Y44685D02*
D03*
X58071Y41831D02*
D03*
X58465Y51279D02*
D03*
X-44587Y23130D02*
D03*
X8858Y68898D02*
D03*
X12008D02*
D03*
X56693Y77953D02*
D03*
X19685Y55118D02*
D03*
X-30217Y26870D02*
D03*
X66043Y41831D02*
D03*
X17618Y93701D02*
D03*
X61713Y22441D02*
D03*
X60138Y78051D02*
D03*
X-44685Y26772D02*
D03*
X58071Y38583D02*
D03*
X-30118Y22933D02*
D03*
X8760Y90945D02*
D03*
X5906D02*
D03*
X57874Y102756D02*
D03*
X20866Y118110D02*
D03*
X2756Y118504D02*
D03*
X-787D02*
D03*
X56693Y80709D02*
D03*
X60138D02*
D03*
X-38583Y70472D02*
D03*
X-12697Y118504D02*
D03*
X-25984D02*
D03*
X57874Y99213D02*
D03*
X8661Y93701D02*
D03*
X5906D02*
D03*
X-52362Y84646D02*
D03*
X-44094D02*
D03*
X-48031D02*
D03*
X33661Y41437D02*
D03*
X-31890Y118504D02*
D03*
X-51181D02*
D03*
X14567Y93701D02*
D03*
X26772D02*
D03*
X61811Y27165D02*
D03*
X-20472Y83858D02*
D03*
X-24803D02*
D03*
X66043Y44587D02*
D03*
X-24409Y60236D02*
D03*
X-38189Y118504D02*
D03*
X-44882D02*
D03*
X9547D02*
D03*
X60138Y83957D02*
D03*
X15256Y110335D02*
D03*
X60138Y75098D02*
D03*
X58465Y48819D02*
D03*
X36122Y41437D02*
D03*
X-19685Y60236D02*
D03*
X-37402Y57874D02*
D03*
X-9449Y118504D02*
D03*
X-37402Y60236D02*
D03*
X-38583Y74410D02*
D03*
X-42520Y70472D02*
D03*
Y74410D02*
D03*
X-5906Y56693D02*
D03*
X5906Y86417D02*
D03*
X11800Y31890D02*
D03*
X-591Y32283D02*
D03*
X3150Y38189D02*
D03*
M02*
