%FSLAX25Y25*%
%MOIN*%
G70*
G01*
G75*
G04 Layer_Physical_Order=2*
G04 Layer_Color=16711680*
%ADD10O,0.01378X0.03347*%
%ADD11O,0.03347X0.01378*%
%ADD12R,0.16535X0.16535*%
%ADD13R,0.03200X0.03800*%
%ADD14R,0.03800X0.03200*%
%ADD15R,0.15354X0.08268*%
%ADD16R,0.12000X0.07873*%
%ADD17O,0.03150X0.01378*%
%ADD18O,0.01378X0.03150*%
%ADD19R,0.09843X0.09843*%
%ADD20C,0.01181*%
%ADD21C,0.01000*%
%ADD22O,0.11417X0.05512*%
%ADD23O,0.04331X0.05512*%
%ADD24C,0.05906*%
%ADD25C,0.13780*%
%ADD26C,0.06299*%
%ADD27R,0.06299X0.06299*%
%ADD28R,0.06000X0.06000*%
%ADD29C,0.06000*%
%ADD30C,0.05512*%
%ADD31C,0.02362*%
%ADD32C,0.02598*%
%ADD33C,0.01969*%
%ADD34O,0.02559X0.00984*%
%ADD35R,0.07087X0.07874*%
%ADD36R,0.01969X0.08858*%
%ADD37R,0.08071X0.13780*%
%ADD38R,0.08071X0.15748*%
%ADD39R,0.04800X0.02000*%
%ADD40R,0.05118X0.03347*%
%ADD41C,0.01969*%
G36*
X82560Y159689D02*
X83159Y158907D01*
X83941Y158308D01*
X84850Y157931D01*
X85827Y157802D01*
X86803Y157931D01*
X87713Y158308D01*
X88494Y158907D01*
X88538Y158965D01*
X89012Y158804D01*
X89011Y155315D01*
X82087D01*
Y152779D01*
X66975D01*
X66975Y152779D01*
X66514Y152687D01*
X66123Y152426D01*
X57548Y143851D01*
X57287Y143461D01*
X57196Y143000D01*
X57196Y143000D01*
Y131231D01*
X46783Y120818D01*
X46290Y120720D01*
X45769Y120372D01*
X45421Y119852D01*
X45299Y119237D01*
X45421Y118623D01*
X45769Y118102D01*
X46290Y117754D01*
X46905Y117631D01*
X47519Y117754D01*
X48040Y118102D01*
X48388Y118623D01*
X48486Y119115D01*
X59251Y129881D01*
X59513Y130271D01*
X59604Y130732D01*
X59604Y130732D01*
X59604Y130732D01*
Y130732D01*
Y142501D01*
X67474Y150371D01*
X82087D01*
Y147835D01*
X88656D01*
X89009Y147481D01*
X88982Y46331D01*
X88566Y46053D01*
X88275Y46174D01*
X87402Y46289D01*
X86528Y46174D01*
X85714Y45836D01*
X85015Y45300D01*
X84478Y44601D01*
X84141Y43787D01*
X84026Y42913D01*
X84141Y42040D01*
X84478Y41226D01*
X85015Y40527D01*
X85714Y39990D01*
X86528Y39653D01*
X87402Y39538D01*
X88275Y39653D01*
X88565Y39773D01*
X88981Y39495D01*
X88980Y36489D01*
X88564Y36212D01*
X88275Y36331D01*
X87402Y36446D01*
X86528Y36331D01*
X85714Y35994D01*
X85015Y35458D01*
X84478Y34758D01*
X84141Y33944D01*
X84026Y33071D01*
X84141Y32197D01*
X84478Y31383D01*
X85015Y30684D01*
X85714Y30148D01*
X86528Y29811D01*
X87402Y29695D01*
X88275Y29811D01*
X88562Y29929D01*
X88978Y29652D01*
X88977Y26648D01*
X88561Y26370D01*
X88275Y26489D01*
X87402Y26604D01*
X86528Y26489D01*
X86045Y26288D01*
X79748Y32585D01*
Y37894D01*
X79747Y37894D01*
Y82284D01*
X79656Y82744D01*
X79551Y82901D01*
X79395Y83135D01*
X79395Y83135D01*
X69946Y92584D01*
X69555Y92845D01*
X69095Y92936D01*
X69094Y92936D01*
X55305D01*
X55064Y93519D01*
X54496Y94259D01*
X53819Y94779D01*
X53979Y95252D01*
X69440D01*
X69858Y94973D01*
X70472Y94851D01*
X71087Y94973D01*
X71608Y95321D01*
X71956Y95842D01*
X72078Y96457D01*
X71956Y97071D01*
X71608Y97592D01*
X71087Y97940D01*
X70472Y98062D01*
X69858Y97940D01*
X69440Y97661D01*
X30166D01*
X29748Y97940D01*
X29134Y98062D01*
X28519Y97940D01*
X27998Y97592D01*
X27650Y97071D01*
X27528Y96457D01*
X27650Y95842D01*
X27998Y95321D01*
X28519Y94973D01*
X29134Y94851D01*
X29748Y94973D01*
X30166Y95252D01*
X49958D01*
X50118Y94779D01*
X49441Y94259D01*
X48873Y93519D01*
X48516Y92657D01*
X48395Y91732D01*
X48516Y90807D01*
X48873Y89945D01*
X49029Y89743D01*
X48653Y89413D01*
X45733Y92333D01*
X45343Y92594D01*
X44882Y92685D01*
X44882Y92685D01*
X25714D01*
X25499Y93086D01*
X25621Y93701D01*
X25499Y94315D01*
X25220Y94733D01*
Y105013D01*
X41698Y121491D01*
X41698Y121491D01*
X41855Y121725D01*
X41959Y121882D01*
X42051Y122343D01*
X42051Y122343D01*
X42051Y122343D01*
Y122343D01*
Y128323D01*
X42236Y128400D01*
X42812Y128842D01*
X43254Y129417D01*
X43531Y130088D01*
X43549Y130223D01*
X44049D01*
X44067Y130088D01*
X44345Y129417D01*
X44786Y128842D01*
X45362Y128400D01*
X46033Y128122D01*
X46752Y128027D01*
X47471Y128122D01*
X48142Y128400D01*
X48717Y128842D01*
X49159Y129417D01*
X49437Y130088D01*
X49532Y130807D01*
Y131988D01*
X49437Y132708D01*
X49159Y133378D01*
X48717Y133954D01*
X48142Y134396D01*
X47471Y134673D01*
X46752Y134768D01*
X46033Y134673D01*
X45362Y134396D01*
X44786Y133954D01*
X44345Y133378D01*
X44067Y132708D01*
X44049Y132572D01*
X43549D01*
X43531Y132708D01*
X43254Y133378D01*
X42812Y133954D01*
X42236Y134396D01*
X41566Y134673D01*
X40846Y134768D01*
X40127Y134673D01*
X39457Y134396D01*
X38881Y133954D01*
X38439Y133378D01*
X38162Y132708D01*
X38144Y132572D01*
X37644D01*
X37626Y132708D01*
X37348Y133378D01*
X36906Y133954D01*
X36331Y134396D01*
X35660Y134673D01*
X34941Y134768D01*
X34222Y134673D01*
X33551Y134396D01*
X32975Y133954D01*
X32534Y133378D01*
X32256Y132708D01*
X32238Y132572D01*
X31738D01*
X31720Y132708D01*
X31443Y133378D01*
X31001Y133954D01*
X30425Y134396D01*
X29755Y134673D01*
X29035Y134768D01*
X28316Y134673D01*
X27646Y134396D01*
X27070Y133954D01*
X26628Y133378D01*
X26351Y132708D01*
X26333Y132572D01*
X25833D01*
X25815Y132708D01*
X25537Y133378D01*
X25095Y133954D01*
X24520Y134396D01*
X23849Y134673D01*
X23130Y134768D01*
X22943Y134743D01*
X22722Y135192D01*
X47900Y160371D01*
X82277D01*
X82560Y159689D01*
D02*
G37*
G36*
X41392Y44472D02*
X41317Y44094D01*
X41401Y43672D01*
X41641Y43314D01*
X41999Y43075D01*
X42421Y42991D01*
X42610D01*
X46781Y38819D01*
Y36289D01*
X49759D01*
X51016Y35032D01*
X50824Y34570D01*
X38688D01*
X35989Y37269D01*
X35599Y37530D01*
X35138Y37622D01*
X35138Y37622D01*
X32156D01*
Y42254D01*
X31170D01*
Y43041D01*
X32018D01*
Y44027D01*
X32549D01*
Y43041D01*
X37530D01*
Y44859D01*
X41075D01*
X41392Y44472D01*
D02*
G37*
G36*
X38280Y56422D02*
X38158Y55807D01*
X38280Y55193D01*
X38461Y54922D01*
Y52036D01*
X37530D01*
Y53022D01*
X34552D01*
X32372Y55202D01*
X31981Y55463D01*
X31521Y55555D01*
X31520Y55555D01*
X26951D01*
Y55941D01*
X20970D01*
Y52760D01*
X26951D01*
D01*
X26951D01*
X27037Y52674D01*
Y52191D01*
X26951D01*
Y52191D01*
X20970D01*
Y49010D01*
X26951D01*
D01*
X26951D01*
X27037Y48924D01*
Y48641D01*
X32018D01*
Y51496D01*
X32133Y51544D01*
X32549Y51266D01*
Y48641D01*
X37095D01*
X37272Y48425D01*
X37394Y47811D01*
D01*
D01*
D01*
X36813Y47422D01*
X32549D01*
Y46436D01*
X32018D01*
Y47422D01*
X27037D01*
D01*
X27037D01*
X26951Y47508D01*
Y48441D01*
X20970D01*
Y45260D01*
X23848D01*
X24728Y44380D01*
X25119Y44119D01*
X25580Y44027D01*
X25580Y44027D01*
X27037D01*
Y43041D01*
X28761D01*
Y42254D01*
X27775D01*
Y37622D01*
X26556D01*
Y39264D01*
X24365D01*
Y39764D01*
X23865D01*
Y42254D01*
X22175D01*
D01*
X22175D01*
X22047Y42382D01*
Y43602D01*
X19398D01*
Y41339D01*
X18398D01*
Y43602D01*
X16165D01*
Y45260D01*
X17951D01*
Y48441D01*
X11970D01*
Y48441D01*
X11708D01*
X11546Y48603D01*
Y48603D01*
X11546D01*
Y48641D01*
X11899Y48995D01*
X14461D01*
Y50600D01*
Y52206D01*
X11546D01*
Y52760D01*
X11970D01*
Y52760D01*
X17951D01*
Y55941D01*
X15763D01*
X15618Y56419D01*
X15948Y56640D01*
X16096Y56861D01*
X38045D01*
X38280Y56422D01*
D02*
G37*
G36*
X66535Y228740D02*
Y228740D01*
X66584Y228785D01*
X69471Y228596D01*
X72356Y228022D01*
X75142Y227076D01*
X77780Y225775D01*
X78742Y225133D01*
X78642Y224631D01*
X77766Y224456D01*
X77024Y223960D01*
X76528Y223218D01*
X76354Y222342D01*
X76528Y221467D01*
X77024Y220725D01*
X77766Y220229D01*
X78642Y220055D01*
X79517Y220229D01*
X80260Y220725D01*
X80756Y221467D01*
X80930Y222342D01*
X80797Y223010D01*
X81230Y223260D01*
X82438Y222201D01*
X84377Y219990D01*
X86012Y217544D01*
X87313Y214905D01*
X88258Y212120D01*
X88832Y209235D01*
X89025Y206299D01*
X89024Y204330D01*
X88551Y204169D01*
X88494Y204242D01*
X87713Y204842D01*
X86803Y205219D01*
X85827Y205347D01*
X84850Y205219D01*
X83941Y204842D01*
X83159Y204242D01*
X82560Y203461D01*
X82183Y202551D01*
X82054Y201575D01*
X82183Y200598D01*
X82560Y199689D01*
X83159Y198907D01*
X83941Y198308D01*
X84850Y197931D01*
X85827Y197802D01*
X86803Y197931D01*
X87713Y198308D01*
X88494Y198907D01*
X88549Y198979D01*
X89023Y198818D01*
X89021Y194333D01*
X88548Y194172D01*
X88494Y194242D01*
X87713Y194842D01*
X86803Y195219D01*
X85827Y195347D01*
X84850Y195219D01*
X83941Y194842D01*
X83159Y194242D01*
X82560Y193461D01*
X82183Y192551D01*
X82054Y191575D01*
X82183Y190598D01*
X82560Y189689D01*
X83159Y188907D01*
X83941Y188308D01*
X84850Y187931D01*
X85827Y187802D01*
X86803Y187931D01*
X87713Y188308D01*
X88494Y188907D01*
X88547Y188975D01*
X89020Y188814D01*
X89019Y184336D01*
X88545Y184176D01*
X88494Y184242D01*
X87713Y184842D01*
X86803Y185219D01*
X85827Y185347D01*
X84850Y185219D01*
X83941Y184842D01*
X83159Y184242D01*
X82560Y183461D01*
X82183Y182551D01*
X82054Y181575D01*
X82183Y180598D01*
X82560Y179689D01*
X83159Y178907D01*
X83941Y178308D01*
X84850Y177931D01*
X85827Y177802D01*
X86803Y177931D01*
X87713Y178308D01*
X88494Y178907D01*
X88544Y178972D01*
X89017Y178811D01*
X89016Y174340D01*
X88543Y174179D01*
X88494Y174242D01*
X87713Y174842D01*
X86803Y175219D01*
X86327Y175281D01*
Y171575D01*
Y167868D01*
X86803Y167931D01*
X87713Y168308D01*
X88494Y168907D01*
X88541Y168968D01*
X89015Y168808D01*
X89013Y164343D01*
X88540Y164183D01*
X88494Y164242D01*
X87713Y164842D01*
X86803Y165219D01*
X85827Y165347D01*
X84850Y165219D01*
X83941Y164842D01*
X83159Y164242D01*
X82560Y163461D01*
X82277Y162779D01*
X47402D01*
X46941Y162687D01*
X46550Y162426D01*
X46550Y162426D01*
X18547Y134423D01*
X17944Y134673D01*
X17224Y134768D01*
X16505Y134673D01*
X15835Y134396D01*
X15259Y133954D01*
X14817Y133378D01*
X14539Y132708D01*
X14522Y132572D01*
X14022D01*
X14004Y132708D01*
X13726Y133378D01*
X13284Y133954D01*
X12709Y134396D01*
X12038Y134673D01*
X11819Y134702D01*
Y131398D01*
Y128093D01*
X12038Y128122D01*
X12709Y128400D01*
X13284Y128842D01*
X13726Y129417D01*
X14004Y130088D01*
X14022Y130223D01*
X14522D01*
X14539Y130088D01*
X14817Y129417D01*
X15259Y128842D01*
X15835Y128400D01*
X16505Y128122D01*
X17224Y128027D01*
X17944Y128122D01*
X18614Y128400D01*
X19190Y128842D01*
X19632Y129417D01*
X19909Y130088D01*
X19927Y130223D01*
X20427D01*
X20445Y130088D01*
X20723Y129417D01*
X21164Y128842D01*
X21740Y128400D01*
X22411Y128122D01*
X23130Y128027D01*
X23849Y128122D01*
X24520Y128400D01*
X25095Y128842D01*
X25537Y129417D01*
X25815Y130088D01*
X25833Y130223D01*
X26333D01*
X26351Y130088D01*
X26628Y129417D01*
X27070Y128842D01*
X27646Y128400D01*
X28316Y128122D01*
X29035Y128027D01*
X29755Y128122D01*
X30425Y128400D01*
X31001Y128842D01*
X31443Y129417D01*
X31720Y130088D01*
X31738Y130223D01*
X32238D01*
X32256Y130088D01*
X32534Y129417D01*
X32975Y128842D01*
X33551Y128400D01*
X34222Y128122D01*
X34941Y128027D01*
X35660Y128122D01*
X36331Y128400D01*
X36906Y128842D01*
X37348Y129417D01*
X37626Y130088D01*
X37644Y130223D01*
X38144D01*
X38162Y130088D01*
X38439Y129417D01*
X38881Y128842D01*
X39457Y128400D01*
X39642Y128323D01*
Y124879D01*
X39201Y124643D01*
X38803Y124909D01*
X38189Y125031D01*
X37574Y124909D01*
X37054Y124561D01*
X36705Y124040D01*
X36608Y123547D01*
X19916Y106855D01*
X19655Y106465D01*
X19564Y106004D01*
X19564Y106004D01*
Y94733D01*
X19284Y94315D01*
X19162Y93701D01*
X19284Y93086D01*
X19070Y92685D01*
X12863D01*
Y97628D01*
X12946Y97684D01*
X13295Y98204D01*
X13417Y98819D01*
X13295Y99433D01*
X12946Y99954D01*
X12426Y100302D01*
X11811Y100425D01*
X11197Y100302D01*
X10676Y99954D01*
X10328Y99433D01*
X10205Y98819D01*
X10328Y98204D01*
X10454Y98015D01*
Y91732D01*
X10454Y91732D01*
X10454Y91732D01*
Y83075D01*
X10175Y82657D01*
X10053Y82042D01*
X10175Y81428D01*
X10523Y80907D01*
X11044Y80559D01*
X11658Y80437D01*
X12273Y80559D01*
X12794Y80907D01*
X13142Y81428D01*
X13264Y82042D01*
X13142Y82657D01*
X12863Y83075D01*
Y90277D01*
X44383D01*
X48008Y86652D01*
X48001Y86614D01*
X48123Y86000D01*
X48471Y85479D01*
X48992Y85131D01*
X49606Y85009D01*
X50221Y85131D01*
X50742Y85479D01*
X51090Y86000D01*
X51212Y86614D01*
X51090Y87229D01*
X50742Y87749D01*
X50281Y88058D01*
X50516Y88499D01*
X51043Y88280D01*
X51968Y88158D01*
X52894Y88280D01*
X53755Y88637D01*
X54496Y89205D01*
X55064Y89945D01*
X55305Y90528D01*
X68596D01*
X77339Y81785D01*
Y54130D01*
X76861Y53985D01*
X76726Y54187D01*
X76205Y54535D01*
X75712Y54633D01*
X58692Y71653D01*
X58692Y71653D01*
X58570Y72268D01*
X58222Y72789D01*
X57701Y73137D01*
X57087Y73259D01*
X56472Y73137D01*
X55951Y72789D01*
X55603Y72268D01*
X55481Y71653D01*
X55603Y71039D01*
X55951Y70518D01*
X56472Y70170D01*
X56842Y70096D01*
X74009Y52930D01*
X74107Y52437D01*
X74455Y51916D01*
X74976Y51568D01*
X75590Y51446D01*
X76205Y51568D01*
X76726Y51916D01*
X76861Y52117D01*
X77339Y51972D01*
Y45370D01*
X76866Y45210D01*
X76796Y45300D01*
X76097Y45836D01*
X75283Y46174D01*
X74409Y46289D01*
X73536Y46174D01*
X72722Y45836D01*
X72023Y45300D01*
X71486Y44601D01*
X71149Y43787D01*
X71034Y42913D01*
X71149Y42040D01*
X71486Y41226D01*
X72023Y40527D01*
X72722Y39990D01*
X73536Y39653D01*
X73963Y39597D01*
X73930Y39098D01*
X71161D01*
X70701Y39006D01*
X70310Y38745D01*
X70310Y38745D01*
X68103Y36539D01*
X64597D01*
Y40532D01*
X59616D01*
Y36539D01*
X56762D01*
Y38280D01*
X52381D01*
Y37726D01*
X51919Y37535D01*
X51162Y38292D01*
Y41270D01*
X47736D01*
X45964Y43042D01*
X46156Y43504D01*
X48713D01*
Y48031D01*
Y52559D01*
X47462D01*
X47317Y53038D01*
X47388Y53086D01*
X48399Y54096D01*
X48524Y54071D01*
X49138Y54193D01*
X49659Y54541D01*
X50007Y55062D01*
X50129Y55676D01*
X50007Y56291D01*
X49659Y56812D01*
X49138Y57160D01*
X48524Y57282D01*
X47909Y57160D01*
X47880Y57140D01*
X47464Y57418D01*
X47504Y57619D01*
Y74566D01*
X47413Y75027D01*
X47151Y75418D01*
X47151Y75418D01*
X45676Y76893D01*
X45578Y77386D01*
X45230Y77907D01*
X44709Y78255D01*
X44094Y78377D01*
X43480Y78255D01*
X42959Y77907D01*
X42611Y77386D01*
X42489Y76772D01*
X42611Y76157D01*
X42959Y75636D01*
X43480Y75288D01*
X43973Y75190D01*
X45096Y74067D01*
Y68537D01*
X44709Y68219D01*
X44097Y68341D01*
X43482Y68219D01*
X43060Y67936D01*
X7782D01*
X7110Y68609D01*
Y85385D01*
X7389Y85803D01*
X7511Y86417D01*
X7389Y87032D01*
X7041Y87553D01*
X6520Y87901D01*
X5906Y88023D01*
X5291Y87901D01*
X4770Y87553D01*
X4422Y87032D01*
X4300Y86417D01*
X4422Y85803D01*
X4701Y85385D01*
Y77761D01*
X4624Y77646D01*
X4134Y77548D01*
X3666Y77861D01*
X3051Y77984D01*
X2437Y77861D01*
X1916Y77513D01*
X1568Y76992D01*
X1445Y76378D01*
X1568Y75763D01*
X1916Y75243D01*
X2339Y74960D01*
Y72575D01*
X2145Y72445D01*
X1898Y72313D01*
X1402Y72645D01*
X787Y72767D01*
X173Y72645D01*
X-348Y72297D01*
X-696Y71776D01*
X-818Y71161D01*
X-696Y70547D01*
X-417Y70129D01*
Y67694D01*
X-858Y67458D01*
X-960Y67527D01*
X-1453Y67625D01*
X-2142Y68314D01*
Y76231D01*
X-1863Y76649D01*
X-1741Y77264D01*
X-1863Y77878D01*
X-2211Y78399D01*
X-2732Y78747D01*
X-3347Y78869D01*
X-3961Y78747D01*
X-4482Y78399D01*
X-4830Y77878D01*
X-4952Y77264D01*
X-4830Y76649D01*
X-4551Y76231D01*
Y75633D01*
X-4992Y75398D01*
X-5291Y75598D01*
X-5906Y75720D01*
X-6520Y75598D01*
X-7041Y75249D01*
X-7389Y74729D01*
X-7511Y74114D01*
X-7389Y73500D01*
X-7110Y73082D01*
Y64072D01*
X-7588Y63927D01*
X-7920Y64423D01*
X-8441Y64771D01*
X-9055Y64893D01*
X-9670Y64771D01*
X-10191Y64423D01*
X-10538Y63902D01*
X-10637Y63409D01*
X-11088Y62958D01*
X-11349Y62567D01*
X-11440Y62106D01*
X-11440Y62106D01*
Y59300D01*
X-11720Y58882D01*
X-11842Y58268D01*
X-11720Y57653D01*
X-11372Y57132D01*
X-10851Y56784D01*
X-10236Y56662D01*
X-9622Y56784D01*
X-9101Y57132D01*
X-8753Y57653D01*
X-8631Y58268D01*
X-8753Y58882D01*
X-9032Y59300D01*
Y61607D01*
X-8934Y61706D01*
X-8441Y61804D01*
X-7920Y62152D01*
X-7588Y62648D01*
X-7110Y62503D01*
Y57725D01*
X-7389Y57307D01*
X-7511Y56693D01*
X-7389Y56078D01*
X-7041Y55558D01*
X-6520Y55209D01*
X-5906Y55087D01*
X-5291Y55209D01*
X-5038Y55379D01*
X-4597Y55143D01*
Y55143D01*
X-4597D01*
Y53256D01*
X-2906D01*
Y55247D01*
X-4448D01*
X-4683Y55687D01*
X-4422Y56078D01*
X-4300Y56693D01*
X-4422Y57307D01*
X-4701Y57725D01*
Y66855D01*
X-4223Y67001D01*
X-4198Y66963D01*
X-3156Y65922D01*
X-3058Y65429D01*
X-2710Y64908D01*
X-2189Y64560D01*
X-1696Y64462D01*
X3381Y59385D01*
X3381Y59385D01*
X3771Y59124D01*
X3771Y59124D01*
X3771Y59124D01*
D01*
X3771Y59124D01*
X3771Y59124D01*
X4232Y59032D01*
X4232Y59032D01*
X13228D01*
X13464Y58591D01*
X13330Y58390D01*
X13207Y57776D01*
X13330Y57161D01*
X13678Y56640D01*
X14008Y56419D01*
X13863Y55941D01*
X11970D01*
Y55912D01*
X5238D01*
X5238Y55912D01*
X4812Y55827D01*
X4451Y55586D01*
X4112Y55247D01*
X1003D01*
Y50265D01*
X3929D01*
X4391Y49803D01*
X4200Y49341D01*
X1003D01*
Y44360D01*
X1003Y44360D01*
X1003Y44026D01*
X1003D01*
Y39045D01*
D01*
Y39045D01*
X749Y38791D01*
X-216D01*
Y38791D01*
Y39045D01*
X-216Y39144D01*
X-216Y39144D01*
X-216D01*
Y41035D01*
X-4597D01*
Y39144D01*
X-4597Y39144D01*
X-4597D01*
X-4597Y39045D01*
X-4851Y38791D01*
X-5500D01*
Y36800D01*
X-3809D01*
Y38691D01*
X-3809Y38691D01*
D01*
D01*
X-3809Y38791D01*
D01*
X-3555Y39045D01*
X-2845D01*
X-2591Y38791D01*
X-2591Y38691D01*
X-2591Y38691D01*
X-2591D01*
Y33809D01*
X-1795D01*
Y33316D01*
X-2074Y32898D01*
X-2196Y32283D01*
X-2074Y31669D01*
X-1795Y31251D01*
Y29684D01*
X-2148Y29331D01*
X-2165D01*
X-2165D01*
D01*
X-2519Y29331D01*
X-2519Y29331D01*
Y29331D01*
X-3240D01*
Y24311D01*
Y19291D01*
X-2519D01*
X-2519Y19291D01*
Y19291D01*
X-2165Y19291D01*
X-2165D01*
D01*
X-1812Y19291D01*
X-1812Y19291D01*
Y19291D01*
X984D01*
D01*
X984Y19291D01*
X984Y19291D01*
X984D01*
Y19291D01*
Y19291D01*
X7283D01*
Y29331D01*
X6913D01*
Y30685D01*
X10768D01*
X11186Y30406D01*
X11800Y30284D01*
X12415Y30406D01*
X12935Y30754D01*
X13283Y31275D01*
X13406Y31890D01*
X13283Y32504D01*
X12935Y33025D01*
X12597Y33251D01*
X12742Y33730D01*
X14439D01*
Y35721D01*
X12249D01*
Y36720D01*
X14439D01*
Y36748D01*
X14901Y36939D01*
X16274Y35566D01*
X16274Y35566D01*
X16665Y35305D01*
X16665Y35305D01*
X16665Y35305D01*
D01*
X16665Y35305D01*
X16665Y35305D01*
X17126Y35213D01*
X17126Y35213D01*
X25719D01*
X25955Y34772D01*
X25917Y34714D01*
X25794Y34100D01*
X25917Y33485D01*
X26265Y32965D01*
X26785Y32617D01*
X27400Y32494D01*
X28014Y32617D01*
X28535Y32965D01*
X28591Y33048D01*
X29383D01*
X29456Y32553D01*
X28423Y32240D01*
X27123Y31545D01*
X25984Y30610D01*
X25049Y29471D01*
X24355Y28172D01*
X23927Y26762D01*
X23925Y26736D01*
X23425Y26760D01*
Y31791D01*
X19299D01*
Y24311D01*
Y16831D01*
X23425D01*
Y23830D01*
X23925Y23855D01*
X23927Y23829D01*
X24355Y22419D01*
X25049Y21119D01*
X25984Y19980D01*
X27123Y19046D01*
X28377Y18376D01*
X28255Y17890D01*
X27609D01*
Y17549D01*
X27169Y17314D01*
X26915Y17483D01*
X26300Y17606D01*
X25686Y17483D01*
X25165Y17135D01*
X24817Y16614D01*
X24694Y16000D01*
X24817Y15385D01*
X25165Y14865D01*
X25686Y14517D01*
X26300Y14394D01*
X26915Y14517D01*
X27169Y14686D01*
X27609Y14451D01*
Y12910D01*
X31991D01*
Y17847D01*
X32766Y17923D01*
X32766Y17923D01*
X32766Y17923D01*
X32827Y17922D01*
X33209Y17638D01*
Y12910D01*
X37591D01*
Y17890D01*
X36604D01*
Y19972D01*
X36614Y19980D01*
X37549Y21119D01*
X38243Y22419D01*
X38671Y23829D01*
X38816Y25295D01*
X38671Y26762D01*
X38374Y27741D01*
X38803Y27998D01*
X40331Y26470D01*
Y21457D01*
X40331Y21457D01*
X40423Y20996D01*
X40684Y20605D01*
X45802Y15487D01*
X46193Y15226D01*
X46654Y15134D01*
X67520D01*
X67520Y15134D01*
X67980Y15226D01*
X68371Y15487D01*
X73052Y20168D01*
X73536Y19968D01*
X74409Y19853D01*
X75283Y19968D01*
X76097Y20305D01*
X76796Y20842D01*
X77333Y21541D01*
X77670Y22355D01*
X77785Y23228D01*
X77670Y24102D01*
X77333Y24916D01*
X76796Y25615D01*
X76097Y26151D01*
X75283Y26489D01*
X74409Y26604D01*
X73536Y26489D01*
X72722Y26151D01*
X72023Y25615D01*
X71486Y24916D01*
X71149Y24102D01*
X71034Y23228D01*
X71149Y22355D01*
X71349Y21871D01*
X67021Y17543D01*
X52900D01*
X52827Y18037D01*
X53861Y18351D01*
X55160Y19046D01*
X56299Y19980D01*
X57234Y21119D01*
X57929Y22419D01*
X58356Y23829D01*
X58451Y24795D01*
X43517D01*
X43612Y23829D01*
X44040Y22419D01*
X44734Y21119D01*
X45669Y19980D01*
X46808Y19046D01*
X48108Y18351D01*
X49141Y18037D01*
X49068Y17543D01*
X47152D01*
X42740Y21956D01*
Y26969D01*
X42648Y27429D01*
X42387Y27820D01*
X42387Y27820D01*
X38507Y31700D01*
X38698Y32162D01*
X46933D01*
X47055Y31677D01*
X46808Y31545D01*
X45669Y30610D01*
X44734Y29471D01*
X44040Y28172D01*
X43612Y26762D01*
X43517Y25795D01*
X58451D01*
X58356Y26762D01*
X57929Y28172D01*
X57234Y29471D01*
X56299Y30610D01*
X55160Y31545D01*
X54914Y31677D01*
X55035Y32162D01*
X71164D01*
X71486Y31383D01*
X72023Y30684D01*
X72722Y30148D01*
X73536Y29811D01*
X74409Y29695D01*
X75283Y29811D01*
X76097Y30148D01*
X76796Y30684D01*
X77193Y31202D01*
X77692Y31235D01*
Y31235D01*
X77692Y31235D01*
X84342Y24585D01*
X84141Y24102D01*
X84026Y23228D01*
X84141Y22355D01*
X84478Y21541D01*
X85015Y20842D01*
X85714Y20305D01*
X86528Y19968D01*
X87402Y19853D01*
X88194Y19957D01*
X88536Y19592D01*
X88258Y18195D01*
X87313Y15409D01*
X86012Y12771D01*
X84377Y10325D01*
X82438Y8113D01*
X80226Y6174D01*
X77780Y4540D01*
X75142Y3238D01*
X72356Y2293D01*
X69471Y1719D01*
X66535Y1527D01*
X23425Y1543D01*
Y7079D01*
X14173D01*
Y1901D01*
X13820Y1547D01*
X-15354Y1559D01*
Y7079D01*
X-24606D01*
Y1916D01*
X-24960Y1562D01*
X-56693Y1575D01*
Y12675D01*
X-56208Y12771D01*
X-55860Y12251D01*
X-55339Y11902D01*
X-54724Y11780D01*
X-54110Y11902D01*
X-53589Y12251D01*
X-53241Y12771D01*
X-53119Y13386D01*
X-53224Y13914D01*
X-52907Y14301D01*
X-52234D01*
Y18682D01*
X-56693D01*
Y19901D01*
X-55224D01*
Y22091D01*
Y24282D01*
X-56693D01*
Y94416D01*
X-56219Y94577D01*
X-55874Y94126D01*
X-55133Y93559D01*
X-54272Y93202D01*
X-53847Y93146D01*
Y96653D01*
Y100162D01*
X-54272Y100106D01*
X-55133Y99749D01*
X-55874Y99181D01*
X-56219Y98730D01*
X-56693Y98891D01*
Y102362D01*
X-90551D01*
Y205906D01*
Y206299D01*
X-90551D01*
X-90596Y206347D01*
X-90407Y209235D01*
X-89833Y212120D01*
X-88888Y214905D01*
X-87586Y217544D01*
X-85952Y219990D01*
X-84012Y222201D01*
X-81801Y224141D01*
X-81642Y224247D01*
X-81289Y223893D01*
X-81740Y223218D01*
X-81914Y222342D01*
X-81740Y221467D01*
X-81244Y220725D01*
X-80502Y220229D01*
X-79626Y220055D01*
X-78750Y220229D01*
X-78008Y220725D01*
X-77512Y221467D01*
X-77338Y222342D01*
X-77512Y223218D01*
X-78008Y223960D01*
X-78750Y224456D01*
X-79626Y224631D01*
X-80423Y224472D01*
X-80614Y224934D01*
X-79355Y225775D01*
X-76716Y227076D01*
X-73931Y228022D01*
X-71046Y228596D01*
X-68110Y228788D01*
X66535Y228740D01*
D02*
G37*
%LPC*%
G36*
X54072Y41270D02*
X52381D01*
Y39279D01*
X54072D01*
Y41270D01*
D02*
G37*
G36*
X56762D02*
X55072D01*
Y39279D01*
X56762D01*
Y41270D01*
D02*
G37*
G36*
X26556Y42254D02*
X24865D01*
Y40264D01*
X26556D01*
Y42254D01*
D02*
G37*
G36*
X41142Y42640D02*
X40474Y42552D01*
X39851Y42294D01*
X39317Y41884D01*
X38906Y41350D01*
X38649Y40727D01*
X38561Y40059D01*
X38649Y39391D01*
X38906Y38769D01*
X39317Y38234D01*
X39851Y37824D01*
X40474Y37566D01*
X41142Y37478D01*
X41810Y37566D01*
X42432Y37824D01*
X42967Y38234D01*
X43377Y38769D01*
X43635Y39391D01*
X43723Y40059D01*
X43635Y40727D01*
X43377Y41350D01*
X42967Y41884D01*
X42432Y42294D01*
X41810Y42552D01*
X41142Y42640D01*
D02*
G37*
G36*
X-6500Y38791D02*
X-8191D01*
Y36800D01*
X-6500D01*
Y38791D01*
D02*
G37*
G36*
Y35800D02*
X-8191D01*
Y33809D01*
X-6500D01*
Y35800D01*
D02*
G37*
G36*
X-3809D02*
X-5500D01*
Y33809D01*
X-3809D01*
Y35800D01*
D02*
G37*
G36*
X61606Y46132D02*
X59616D01*
Y44442D01*
X61606D01*
Y46132D01*
D02*
G37*
G36*
X64597D02*
X62606D01*
Y44442D01*
X64597D01*
Y46132D01*
D02*
G37*
G36*
X-2906Y49341D02*
X-4597D01*
Y47350D01*
X-2906D01*
Y49341D01*
D02*
G37*
G36*
X54716Y53080D02*
X53150D01*
X52724Y52996D01*
X52580Y52899D01*
X52363Y52755D01*
X52363Y52755D01*
X52168Y52559D01*
X49713D01*
Y48031D01*
Y43504D01*
X53346D01*
Y43504D01*
X53522Y43504D01*
X53649Y43314D01*
X54007Y43075D01*
X54429Y42991D01*
X56004D01*
X56426Y43075D01*
X56784Y43314D01*
X57024Y43672D01*
X57108Y44094D01*
X57024Y44517D01*
X56784Y44875D01*
Y45282D01*
X57024Y45641D01*
X57108Y46063D01*
X57024Y46485D01*
X56784Y46843D01*
Y47251D01*
X57024Y47609D01*
X57108Y48031D01*
X57024Y48454D01*
X56784Y48812D01*
Y49220D01*
X57024Y49578D01*
X57108Y50000D01*
X57024Y50422D01*
X56784Y50780D01*
Y51188D01*
X56972Y51468D01*
X55216D01*
Y51968D01*
X54716D01*
Y53080D01*
D02*
G37*
G36*
X61606Y43442D02*
X59616D01*
Y41751D01*
X61606D01*
Y43442D01*
D02*
G37*
G36*
X64597D02*
X62606D01*
Y41751D01*
X64597D01*
Y43442D01*
D02*
G37*
G36*
X-216Y46350D02*
X-4597D01*
Y44380D01*
X-4597Y44380D01*
X-4597D01*
X-4597Y44360D01*
Y44193D01*
Y44026D01*
X-4597Y44006D01*
X-4597Y44006D01*
X-4597D01*
Y42035D01*
X-216D01*
Y44006D01*
X-216Y44006D01*
D01*
D01*
X-216Y44026D01*
Y44105D01*
Y44193D01*
Y44247D01*
Y44360D01*
X-216Y44374D01*
X-216Y44380D01*
X-216Y44380D01*
X-216D01*
Y46350D01*
D02*
G37*
G36*
X-20480Y23811D02*
X-24606D01*
Y16831D01*
X-20480D01*
Y23811D01*
D02*
G37*
G36*
X23425Y16043D02*
X19299D01*
Y8079D01*
X23425D01*
Y16043D01*
D02*
G37*
G36*
X18299Y23811D02*
X14173D01*
Y16831D01*
X18299D01*
Y23811D01*
D02*
G37*
G36*
X-15354D02*
X-19480D01*
Y16831D01*
X-15354D01*
Y23811D01*
D02*
G37*
G36*
X-20480Y16043D02*
X-24606D01*
Y8079D01*
X-20480D01*
Y16043D01*
D02*
G37*
G36*
X41142Y13113D02*
X40474Y13025D01*
X39851Y12767D01*
X39317Y12357D01*
X38906Y11822D01*
X38649Y11200D01*
X38561Y10531D01*
X38649Y9864D01*
X38906Y9241D01*
X39317Y8706D01*
X39851Y8296D01*
X40474Y8038D01*
X41142Y7950D01*
X41810Y8038D01*
X42432Y8296D01*
X42967Y8706D01*
X43377Y9241D01*
X43635Y9864D01*
X43723Y10531D01*
X43635Y11200D01*
X43377Y11822D01*
X42967Y12357D01*
X42432Y12767D01*
X41810Y13025D01*
X41142Y13113D01*
D02*
G37*
G36*
X18299Y16043D02*
X14173D01*
Y8079D01*
X18299D01*
Y16043D01*
D02*
G37*
G36*
X-15354D02*
X-19480D01*
Y8079D01*
X-15354D01*
Y16043D01*
D02*
G37*
G36*
Y31791D02*
X-19480D01*
Y24811D01*
X-15354D01*
Y31791D01*
D02*
G37*
G36*
X-20480D02*
X-24606D01*
Y24811D01*
X-20480D01*
Y31791D01*
D02*
G37*
G36*
X18299D02*
X14173D01*
Y24811D01*
X18299D01*
Y31791D01*
D02*
G37*
G36*
X-7390Y29331D02*
X-8465D01*
Y24811D01*
X-7390D01*
Y29331D01*
D02*
G37*
G36*
X-4240D02*
X-6390D01*
Y24311D01*
Y19291D01*
X-4240D01*
Y24311D01*
Y29331D01*
D02*
G37*
G36*
X-7390Y23811D02*
X-8465D01*
Y19291D01*
X-7390D01*
Y23811D01*
D02*
G37*
G36*
X-52234Y24282D02*
X-54224D01*
Y22591D01*
X-52234D01*
Y24282D01*
D02*
G37*
G36*
Y21591D02*
X-54224D01*
Y19901D01*
X-52234D01*
Y21591D01*
D02*
G37*
G36*
X-216Y49341D02*
X-1906D01*
Y47350D01*
X-216D01*
Y49341D01*
D02*
G37*
G36*
X88386Y121153D02*
X85146D01*
Y117913D01*
X88386D01*
Y121153D01*
D02*
G37*
G36*
X84146Y125394D02*
X80905D01*
Y122153D01*
X84146D01*
Y125394D01*
D02*
G37*
G36*
X88386D02*
X85146D01*
Y122153D01*
X88386D01*
Y125394D01*
D02*
G37*
G36*
X84146Y121153D02*
X80905D01*
Y117913D01*
X84146D01*
Y121153D01*
D02*
G37*
G36*
X84646Y115426D02*
X83669Y115297D01*
X82759Y114921D01*
X81978Y114321D01*
X81379Y113540D01*
X81002Y112630D01*
X80873Y111653D01*
X81002Y110677D01*
X81379Y109767D01*
X81978Y108986D01*
X82759Y108387D01*
X83669Y108010D01*
X84646Y107881D01*
X85622Y108010D01*
X86532Y108387D01*
X87313Y108986D01*
X87913Y109767D01*
X88289Y110677D01*
X88418Y111653D01*
X88289Y112630D01*
X87913Y113540D01*
X87313Y114321D01*
X86532Y114921D01*
X85622Y115297D01*
X84646Y115426D01*
D02*
G37*
G36*
X68110Y111055D02*
X67496Y110932D01*
X67078Y110653D01*
X35284D01*
X34866Y110932D01*
X34252Y111055D01*
X33637Y110932D01*
X33117Y110584D01*
X32768Y110063D01*
X32646Y109449D01*
X32768Y108834D01*
X33117Y108313D01*
X33637Y107965D01*
X34252Y107843D01*
X34866Y107965D01*
X35284Y108245D01*
X35732D01*
X35877Y107766D01*
X35676Y107631D01*
X35328Y107111D01*
X35205Y106496D01*
X35328Y105882D01*
X35676Y105361D01*
X36197Y105013D01*
X36811Y104890D01*
X37426Y105013D01*
X37843Y105292D01*
X50155D01*
X50315Y104818D01*
X49638Y104299D01*
X49070Y103559D01*
X48713Y102697D01*
X48592Y101772D01*
X48713Y100847D01*
X49070Y99985D01*
X49638Y99245D01*
X50378Y98677D01*
X51240Y98320D01*
X52165Y98198D01*
X53090Y98320D01*
X53952Y98677D01*
X54693Y99245D01*
X55260Y99985D01*
X55617Y100847D01*
X55739Y101772D01*
X55617Y102697D01*
X55260Y103559D01*
X54693Y104299D01*
X54015Y104818D01*
X54176Y105292D01*
X68554D01*
X68677Y105210D01*
X69291Y105087D01*
X69906Y105210D01*
X70427Y105558D01*
X70775Y106078D01*
X70897Y106693D01*
X70775Y107307D01*
X70427Y107828D01*
X69906Y108176D01*
X69683Y108221D01*
X69492Y108683D01*
X69594Y108834D01*
X69716Y109449D01*
X69594Y110063D01*
X69246Y110584D01*
X68725Y110932D01*
X68110Y111055D01*
D02*
G37*
G36*
X-82236Y121307D02*
X-89417D01*
Y114126D01*
X-82236D01*
Y121307D01*
D02*
G37*
G36*
X69813Y128918D02*
X64832D01*
Y127582D01*
X63336D01*
X62918Y127861D01*
X62303Y127984D01*
X61689Y127861D01*
X61168Y127513D01*
X60820Y126992D01*
X60698Y126378D01*
X60820Y125763D01*
X61168Y125243D01*
X61689Y124894D01*
X62303Y124772D01*
X62918Y124894D01*
X63336Y125174D01*
X64832D01*
Y124537D01*
X69813D01*
Y128918D01*
D02*
G37*
G36*
X-65650Y142450D02*
X-71555D01*
X-72429Y142335D01*
X-73243Y141998D01*
X-73942Y141462D01*
X-74478Y140762D01*
X-74815Y139948D01*
X-74930Y139075D01*
X-74815Y138201D01*
X-74478Y137387D01*
X-73942Y136688D01*
X-73243Y136152D01*
X-72429Y135814D01*
X-71555Y135699D01*
X-65650D01*
X-64776Y135814D01*
X-63962Y136152D01*
X-63263Y136688D01*
X-62726Y137387D01*
X-62389Y138201D01*
X-62274Y139075D01*
X-62389Y139948D01*
X-62726Y140762D01*
X-63263Y141462D01*
X-63962Y141998D01*
X-64776Y142335D01*
X-65650Y142450D01*
D02*
G37*
G36*
X85327Y171075D02*
X82120D01*
X82183Y170598D01*
X82560Y169689D01*
X83159Y168907D01*
X83941Y168308D01*
X84850Y167931D01*
X85327Y167868D01*
Y171075D01*
D02*
G37*
G36*
Y175281D02*
X84850Y175219D01*
X83941Y174842D01*
X83159Y174242D01*
X82560Y173461D01*
X82183Y172551D01*
X82120Y172075D01*
X85327D01*
Y175281D01*
D02*
G37*
G36*
X5413Y134768D02*
X4694Y134673D01*
X4024Y134396D01*
X3448Y133954D01*
X3006Y133378D01*
X2728Y132708D01*
X2711Y132572D01*
X2211D01*
X2193Y132708D01*
X1915Y133378D01*
X1473Y133954D01*
X898Y134396D01*
X227Y134673D01*
X-492Y134768D01*
X-1212Y134673D01*
X-1882Y134396D01*
X-2458Y133954D01*
X-2899Y133378D01*
X-3177Y132708D01*
X-3195Y132572D01*
X-3695D01*
X-3713Y132708D01*
X-3990Y133378D01*
X-4432Y133954D01*
X-5008Y134396D01*
X-5678Y134673D01*
X-6398Y134768D01*
X-7117Y134673D01*
X-7788Y134396D01*
X-8363Y133954D01*
X-8805Y133378D01*
X-9083Y132708D01*
X-9100Y132572D01*
X-9600D01*
X-9618Y132708D01*
X-9896Y133378D01*
X-10338Y133954D01*
X-10913Y134396D01*
X-11584Y134673D01*
X-12303Y134768D01*
X-13023Y134673D01*
X-13693Y134396D01*
X-14269Y133954D01*
X-14710Y133378D01*
X-14988Y132708D01*
X-15006Y132572D01*
X-15506D01*
X-15524Y132708D01*
X-15801Y133378D01*
X-16243Y133954D01*
X-16819Y134396D01*
X-17489Y134673D01*
X-18209Y134768D01*
X-18928Y134673D01*
X-19599Y134396D01*
X-20174Y133954D01*
X-20616Y133378D01*
X-20894Y132708D01*
X-20911Y132572D01*
X-21411D01*
X-21429Y132708D01*
X-21707Y133378D01*
X-22149Y133954D01*
X-22724Y134396D01*
X-23395Y134673D01*
X-24114Y134768D01*
X-24834Y134673D01*
X-25504Y134396D01*
X-26080Y133954D01*
X-26521Y133378D01*
X-26799Y132708D01*
X-26817Y132572D01*
X-27317D01*
X-27335Y132708D01*
X-27612Y133378D01*
X-28054Y133954D01*
X-28630Y134396D01*
X-29300Y134673D01*
X-30020Y134768D01*
X-30739Y134673D01*
X-31409Y134396D01*
X-31985Y133954D01*
X-32427Y133378D01*
X-32705Y132708D01*
X-32722Y132572D01*
X-33222D01*
X-33240Y132708D01*
X-33518Y133378D01*
X-33960Y133954D01*
X-34535Y134396D01*
X-35206Y134673D01*
X-35925Y134768D01*
X-36645Y134673D01*
X-37315Y134396D01*
X-37891Y133954D01*
X-38333Y133378D01*
X-38610Y132708D01*
X-38628Y132572D01*
X-39128D01*
X-39146Y132708D01*
X-39423Y133378D01*
X-39865Y133954D01*
X-40441Y134396D01*
X-41111Y134673D01*
X-41831Y134768D01*
X-42550Y134673D01*
X-43220Y134396D01*
X-43796Y133954D01*
X-44238Y133378D01*
X-44516Y132708D01*
X-44534Y132572D01*
X-45033D01*
X-45051Y132708D01*
X-45329Y133378D01*
X-45771Y133954D01*
X-46346Y134396D01*
X-47017Y134673D01*
X-47736Y134768D01*
X-48456Y134673D01*
X-49126Y134396D01*
X-49702Y133954D01*
X-50143Y133378D01*
X-50421Y132708D01*
X-50516Y131988D01*
Y130807D01*
X-50421Y130088D01*
X-50143Y129417D01*
X-49702Y128842D01*
X-49126Y128400D01*
X-48456Y128122D01*
X-47736Y128027D01*
X-47017Y128122D01*
X-46346Y128400D01*
X-45771Y128842D01*
X-45329Y129417D01*
X-45051Y130088D01*
X-45033Y130223D01*
X-44534D01*
X-44516Y130088D01*
X-44238Y129417D01*
X-43796Y128842D01*
X-43220Y128400D01*
X-42550Y128122D01*
X-41831Y128027D01*
X-41111Y128122D01*
X-40441Y128400D01*
X-39865Y128842D01*
X-39423Y129417D01*
X-39146Y130088D01*
X-39128Y130223D01*
X-38628D01*
X-38610Y130088D01*
X-38333Y129417D01*
X-37891Y128842D01*
X-37315Y128400D01*
X-36645Y128122D01*
X-35925Y128027D01*
X-35206Y128122D01*
X-34535Y128400D01*
X-33960Y128842D01*
X-33518Y129417D01*
X-33240Y130088D01*
X-33222Y130223D01*
X-32722D01*
X-32705Y130088D01*
X-32427Y129417D01*
X-31985Y128842D01*
X-31409Y128400D01*
X-30739Y128122D01*
X-30020Y128027D01*
X-29300Y128122D01*
X-28630Y128400D01*
X-28054Y128842D01*
X-27612Y129417D01*
X-27335Y130088D01*
X-27317Y130223D01*
X-26817D01*
X-26799Y130088D01*
X-26521Y129417D01*
X-26080Y128842D01*
X-25504Y128400D01*
X-24834Y128122D01*
X-24114Y128027D01*
X-23395Y128122D01*
X-22724Y128400D01*
X-22149Y128842D01*
X-21707Y129417D01*
X-21429Y130088D01*
X-21411Y130223D01*
X-20911D01*
X-20894Y130088D01*
X-20616Y129417D01*
X-20174Y128842D01*
X-19599Y128400D01*
X-18928Y128122D01*
X-18209Y128027D01*
X-17489Y128122D01*
X-16819Y128400D01*
X-16243Y128842D01*
X-15801Y129417D01*
X-15524Y130088D01*
X-15506Y130223D01*
X-15006D01*
X-14988Y130088D01*
X-14710Y129417D01*
X-14269Y128842D01*
X-13693Y128400D01*
X-13023Y128122D01*
X-12303Y128027D01*
X-11584Y128122D01*
X-10913Y128400D01*
X-10338Y128842D01*
X-9896Y129417D01*
X-9618Y130088D01*
X-9600Y130223D01*
X-9100D01*
X-9083Y130088D01*
X-8805Y129417D01*
X-8363Y128842D01*
X-7788Y128400D01*
X-7117Y128122D01*
X-6398Y128027D01*
X-5678Y128122D01*
X-5008Y128400D01*
X-4432Y128842D01*
X-3990Y129417D01*
X-3713Y130088D01*
X-3695Y130223D01*
X-3195D01*
X-3177Y130088D01*
X-2899Y129417D01*
X-2458Y128842D01*
X-1882Y128400D01*
X-1212Y128122D01*
X-492Y128027D01*
X227Y128122D01*
X898Y128400D01*
X1473Y128842D01*
X1915Y129417D01*
X2193Y130088D01*
X2211Y130223D01*
X2711D01*
X2728Y130088D01*
X3006Y129417D01*
X3448Y128842D01*
X4024Y128400D01*
X4694Y128122D01*
X5413Y128027D01*
X6133Y128122D01*
X6803Y128400D01*
X7379Y128842D01*
X7821Y129417D01*
X8098Y130088D01*
X8116Y130223D01*
X8616D01*
X8634Y130088D01*
X8912Y129417D01*
X9353Y128842D01*
X9929Y128400D01*
X10599Y128122D01*
X10819Y128093D01*
Y131398D01*
Y134702D01*
X10599Y134673D01*
X9929Y134396D01*
X9353Y133954D01*
X8912Y133378D01*
X8634Y132708D01*
X8616Y132572D01*
X8116D01*
X8098Y132708D01*
X7821Y133378D01*
X7379Y133954D01*
X6803Y134396D01*
X6133Y134673D01*
X5413Y134768D01*
D02*
G37*
G36*
X-79626Y133686D02*
X-80502Y133511D01*
X-81244Y133016D01*
X-81740Y132273D01*
X-81914Y131398D01*
X-81740Y130522D01*
X-81244Y129780D01*
X-80502Y129284D01*
X-79626Y129110D01*
X-78750Y129284D01*
X-78008Y129780D01*
X-77512Y130522D01*
X-77338Y131398D01*
X-77512Y132273D01*
X-78008Y133016D01*
X-78750Y133511D01*
X-79626Y133686D01*
D02*
G37*
G36*
X78642D02*
X77766Y133511D01*
X77024Y133016D01*
X76528Y132273D01*
X76354Y131398D01*
X76528Y130522D01*
X77024Y129780D01*
X77766Y129284D01*
X78642Y129110D01*
X79517Y129284D01*
X80260Y129780D01*
X80756Y130522D01*
X80930Y131398D01*
X80756Y132273D01*
X80260Y133016D01*
X79517Y133511D01*
X78642Y133686D01*
D02*
G37*
G36*
X70571Y142450D02*
X64665D01*
X63792Y142335D01*
X62978Y141998D01*
X62279Y141462D01*
X61742Y140762D01*
X61405Y139948D01*
X61290Y139075D01*
X61405Y138201D01*
X61742Y137387D01*
X62279Y136688D01*
X62978Y136152D01*
X63792Y135814D01*
X64665Y135699D01*
X66119D01*
Y134518D01*
X64832D01*
Y130137D01*
X69813D01*
Y134518D01*
X68527D01*
Y135699D01*
X70571D01*
X71444Y135814D01*
X72259Y136152D01*
X72958Y136688D01*
X73494Y137387D01*
X73831Y138201D01*
X73946Y139075D01*
X73831Y139948D01*
X73494Y140762D01*
X72958Y141462D01*
X72259Y141998D01*
X71444Y142335D01*
X70571Y142450D01*
D02*
G37*
G36*
X-85827Y111338D02*
X-86764Y111215D01*
X-87638Y110853D01*
X-88388Y110277D01*
X-88963Y109527D01*
X-89325Y108654D01*
X-89448Y107717D01*
X-89325Y106779D01*
X-88963Y105906D01*
X-88388Y105156D01*
X-87638Y104580D01*
X-86764Y104218D01*
X-85827Y104095D01*
X-84889Y104218D01*
X-84016Y104580D01*
X-83266Y105156D01*
X-82690Y105906D01*
X-82329Y106779D01*
X-82205Y107717D01*
X-82329Y108654D01*
X-82690Y109527D01*
X-83266Y110277D01*
X-84016Y110853D01*
X-84889Y111215D01*
X-85827Y111338D01*
D02*
G37*
G36*
X56004Y53072D02*
X55717D01*
Y52469D01*
X56972D01*
X56784Y52749D01*
X56426Y52988D01*
X56004Y53072D01*
D02*
G37*
G36*
X-216Y55247D02*
X-1906D01*
Y53256D01*
X-216D01*
Y55247D01*
D02*
G37*
G36*
X-29528Y84283D02*
X-30142Y84161D01*
X-30663Y83812D01*
X-31011Y83292D01*
X-31133Y82677D01*
X-31011Y82063D01*
X-30732Y81645D01*
Y58119D01*
X-31011Y57701D01*
X-31133Y57087D01*
X-31011Y56472D01*
X-30663Y55951D01*
X-30142Y55603D01*
X-29528Y55481D01*
X-28913Y55603D01*
X-28392Y55951D01*
X-28044Y56472D01*
X-27922Y57087D01*
X-28044Y57701D01*
X-28323Y58119D01*
Y81645D01*
X-28044Y82063D01*
X-27922Y82677D01*
X-28044Y83292D01*
X-28392Y83812D01*
X-28913Y84161D01*
X-29528Y84283D01*
D02*
G37*
G36*
X17951Y52191D02*
X15461D01*
Y51100D01*
X17951D01*
Y52191D01*
D02*
G37*
G36*
Y50100D02*
X15461D01*
Y49010D01*
X17951D01*
Y50100D01*
D02*
G37*
G36*
X-2906Y52256D02*
X-4597D01*
Y50265D01*
X-2906D01*
Y52256D01*
D02*
G37*
G36*
X-216D02*
X-1906D01*
Y50265D01*
X-216D01*
Y52256D01*
D02*
G37*
G36*
X84646Y65426D02*
X83669Y65297D01*
X82759Y64921D01*
X81978Y64321D01*
X81379Y63540D01*
X81002Y62630D01*
X80873Y61654D01*
X81002Y60677D01*
X81379Y59767D01*
X81978Y58986D01*
X82759Y58386D01*
X83669Y58010D01*
X84646Y57881D01*
X85622Y58010D01*
X86532Y58386D01*
X87313Y58986D01*
X87913Y59767D01*
X88289Y60677D01*
X88418Y61654D01*
X88289Y62630D01*
X87913Y63540D01*
X87313Y64321D01*
X86532Y64921D01*
X85622Y65297D01*
X84646Y65426D01*
D02*
G37*
G36*
X-49838Y96153D02*
X-52846D01*
Y93146D01*
X-52421Y93202D01*
X-51560Y93559D01*
X-50819Y94126D01*
X-50251Y94867D01*
X-49894Y95729D01*
X-49838Y96153D01*
D02*
G37*
G36*
X-52846Y100162D02*
Y97154D01*
X-49838D01*
X-49894Y97579D01*
X-50251Y98440D01*
X-50819Y99181D01*
X-51560Y99749D01*
X-52421Y100106D01*
X-52846Y100162D01*
D02*
G37*
G36*
X84646Y105426D02*
X83669Y105297D01*
X82759Y104921D01*
X81978Y104321D01*
X81379Y103540D01*
X81002Y102630D01*
X80873Y101654D01*
X81002Y100677D01*
X81379Y99767D01*
X81978Y98986D01*
X82759Y98387D01*
X83669Y98010D01*
X84646Y97881D01*
X85622Y98010D01*
X86532Y98387D01*
X87313Y98986D01*
X87913Y99767D01*
X88289Y100677D01*
X88418Y101654D01*
X88289Y102630D01*
X87913Y103540D01*
X87313Y104321D01*
X86532Y104921D01*
X85622Y105297D01*
X84646Y105426D01*
D02*
G37*
G36*
Y95426D02*
X83669Y95297D01*
X82759Y94921D01*
X81978Y94321D01*
X81379Y93540D01*
X81002Y92630D01*
X80873Y91654D01*
X81002Y90677D01*
X81379Y89767D01*
X81978Y88986D01*
X82759Y88386D01*
X83669Y88010D01*
X84646Y87881D01*
X85622Y88010D01*
X86532Y88386D01*
X87313Y88986D01*
X87913Y89767D01*
X88289Y90677D01*
X88418Y91654D01*
X88289Y92630D01*
X87913Y93540D01*
X87313Y94321D01*
X86532Y94921D01*
X85622Y95297D01*
X84646Y95426D01*
D02*
G37*
G36*
X-14961Y81527D02*
X-15575Y81405D01*
X-16096Y81057D01*
X-16444Y80536D01*
X-16566Y79921D01*
X-16444Y79307D01*
X-16165Y78889D01*
Y63237D01*
X-16444Y62819D01*
X-16566Y62205D01*
X-16444Y61590D01*
X-16096Y61069D01*
X-15575Y60721D01*
X-14961Y60599D01*
X-14346Y60721D01*
X-13825Y61069D01*
X-13477Y61590D01*
X-13355Y62205D01*
X-13477Y62819D01*
X-13756Y63237D01*
Y78889D01*
X-13477Y79307D01*
X-13355Y79921D01*
X-13477Y80536D01*
X-13825Y81057D01*
X-14346Y81405D01*
X-14961Y81527D01*
D02*
G37*
G36*
X84646Y75426D02*
X83669Y75297D01*
X82759Y74921D01*
X81978Y74321D01*
X81379Y73540D01*
X81002Y72630D01*
X80873Y71653D01*
X81002Y70677D01*
X81379Y69767D01*
X81978Y68986D01*
X82759Y68387D01*
X83669Y68010D01*
X84646Y67881D01*
X85622Y68010D01*
X86532Y68387D01*
X87313Y68986D01*
X87913Y69767D01*
X88289Y70677D01*
X88418Y71653D01*
X88289Y72630D01*
X87913Y73540D01*
X87313Y74321D01*
X86532Y74921D01*
X85622Y75297D01*
X84646Y75426D01*
D02*
G37*
G36*
Y85426D02*
X83669Y85297D01*
X82759Y84921D01*
X81978Y84321D01*
X81379Y83540D01*
X81002Y82630D01*
X80873Y81653D01*
X81002Y80677D01*
X81379Y79767D01*
X81978Y78986D01*
X82759Y78386D01*
X83669Y78010D01*
X84646Y77881D01*
X85622Y78010D01*
X86532Y78386D01*
X87313Y78986D01*
X87913Y79767D01*
X88289Y80677D01*
X88418Y81653D01*
X88289Y82630D01*
X87913Y83540D01*
X87313Y84321D01*
X86532Y84921D01*
X85622Y85297D01*
X84646Y85426D01*
D02*
G37*
%LPD*%
D13*
X29800Y15400D02*
D03*
X35400D02*
D03*
X-6000Y36300D02*
D03*
X-400D02*
D03*
X12249Y36220D02*
D03*
X6649D02*
D03*
X-2406Y41535D02*
D03*
X3194D02*
D03*
X48972Y38780D02*
D03*
X54572D02*
D03*
X24365Y39764D02*
D03*
X29965D02*
D03*
X-2406Y52756D02*
D03*
X3194D02*
D03*
Y46850D02*
D03*
X-2406D02*
D03*
D14*
X67323Y132328D02*
D03*
Y126728D02*
D03*
X35039Y50832D02*
D03*
Y45232D02*
D03*
X9055Y52013D02*
D03*
Y46413D02*
D03*
X62106Y38342D02*
D03*
Y43942D02*
D03*
X-54724Y22091D02*
D03*
Y16491D02*
D03*
X29528Y45232D02*
D03*
Y50832D02*
D03*
D20*
X3543Y68504D02*
Y76378D01*
X6255Y35531D02*
X7087Y36363D01*
X14758Y58065D02*
X43116D01*
X14567Y57874D02*
X14758Y58065D01*
X3194Y24946D02*
Y41535D01*
X43898Y66732D02*
X44094Y66535D01*
X46537Y53937D02*
X48400Y55800D01*
X57087Y71555D02*
Y71653D01*
Y71555D02*
X75590Y53051D01*
X31299Y25295D02*
X35400Y21194D01*
Y15400D02*
Y21194D01*
X78543Y32087D02*
Y37894D01*
X68602Y35335D02*
X71161Y37894D01*
X78543Y32087D02*
X87402Y23228D01*
X62008Y35335D02*
X62106Y35433D01*
X62008Y35335D02*
X68602D01*
X52416D02*
X62008D01*
X62106Y35433D02*
Y38342D01*
X48972Y38780D02*
X52416Y35335D01*
X74114Y33366D02*
X74409Y33071D01*
X38189Y33366D02*
X74114D01*
X35138Y36417D02*
X38189Y33366D01*
X34252Y34252D02*
X41535Y26969D01*
X67520Y16339D02*
X74409Y23228D01*
X46654Y16339D02*
X67520D01*
X41535Y21457D02*
X46654Y16339D01*
X41535Y21457D02*
Y26969D01*
X48524Y38780D02*
X48972D01*
X43209Y44094D02*
X48524Y38780D01*
X27552Y34252D02*
X34252D01*
X17126Y36417D02*
X35138D01*
X20768Y106004D02*
X38189Y123425D01*
X20768Y93701D02*
Y106004D01*
X-3347Y67815D02*
X-1575Y66043D01*
X-3347Y67815D02*
Y77264D01*
X-5906Y56693D02*
Y74114D01*
X-10236Y62106D02*
X-9055Y63287D01*
X5020Y62598D02*
X39370D01*
X787Y66831D02*
X5020Y62598D01*
X787Y66831D02*
Y71161D01*
X5709Y64764D02*
X41535D01*
X3543Y66929D02*
X5709Y64764D01*
X3543Y66929D02*
Y68504D01*
X4232Y60236D02*
X40945D01*
X-1575Y66043D02*
X4232Y60236D01*
X-14961Y62205D02*
Y79921D01*
X-10236Y58268D02*
Y62106D01*
X3194Y52704D02*
Y52756D01*
Y52704D02*
X9055Y46842D01*
Y46413D02*
Y46842D01*
X45177Y53937D02*
X46537D01*
X48400Y55800D02*
X48524Y55676D01*
X43209Y51968D02*
X45177Y53937D01*
X46300Y57619D02*
Y74566D01*
X44291Y55610D02*
X46300Y57619D01*
X43012Y55610D02*
X44291D01*
X42621Y55219D02*
X43012Y55610D01*
X40497Y50000D02*
X43209D01*
X39665Y50832D02*
X40497Y50000D01*
X39665Y50832D02*
Y55709D01*
X35039Y50832D02*
X39665D01*
Y55709D02*
X39764Y55807D01*
X7283Y66732D02*
X43898D01*
X5906Y68110D02*
X7283Y66732D01*
X41535Y64764D02*
X41732Y64567D01*
X44097Y66538D02*
Y66736D01*
X44094Y66535D02*
X44097Y66538D01*
X3051Y76378D02*
X3543D01*
X14665Y57776D02*
X14813D01*
X14567Y57874D02*
X14665Y57776D01*
X38878Y48130D02*
Y48425D01*
Y48130D02*
X38976Y48031D01*
X43116Y58065D02*
X43307Y57874D01*
X66975Y151575D02*
X85827D01*
X58400Y130732D02*
Y143000D01*
X66975Y151575D01*
X46905Y119237D02*
X58400Y130732D01*
X29200Y16000D02*
X29800Y15400D01*
X26300Y16000D02*
X29200D01*
X44094Y76772D02*
X46300Y74566D01*
X27400Y34100D02*
X27552Y34252D01*
X6299Y31890D02*
X11800D01*
X14961Y38583D02*
Y46850D01*
X-54724Y13386D02*
Y16491D01*
X-29528Y57087D02*
Y82677D01*
X11658Y91732D02*
X11909Y91481D01*
X11658Y91732D02*
Y98666D01*
Y82042D02*
Y91732D01*
Y98666D02*
X11811Y98819D01*
X17224Y131398D02*
X47402Y161575D01*
X85827D01*
X3194Y46850D02*
X3587Y47244D01*
X5512D01*
X-54877Y13539D02*
X-54724Y13386D01*
X6299Y31890D02*
Y35487D01*
X67323Y138779D02*
X67618Y139075D01*
X67323Y132328D02*
Y138779D01*
X66973Y126378D02*
X67323Y126728D01*
X62303Y126378D02*
X66973D01*
X29134Y96457D02*
X70472D01*
X40846Y122343D02*
Y131398D01*
X24016Y105512D02*
X40846Y122343D01*
X24016Y93701D02*
Y105512D01*
X38976Y48031D02*
X43209D01*
X35039Y45232D02*
X35871Y46063D01*
X43209D01*
X31521Y54350D02*
X35039Y50832D01*
X23961Y54350D02*
X31521D01*
X29296Y50600D02*
X29528Y50832D01*
X23961Y50600D02*
X29296D01*
X29528Y45232D02*
X35039D01*
X29528D02*
X29965Y44794D01*
Y39764D02*
Y44794D01*
X23961Y46850D02*
X25580Y45232D01*
X29528D01*
X3194Y46806D02*
Y46850D01*
Y46806D02*
X8661Y41339D01*
X9055Y46413D02*
X9493Y46850D01*
X14961D01*
X7087Y39764D02*
X8661Y41339D01*
X7087Y36363D02*
Y39764D01*
X-251Y35531D02*
X0Y35280D01*
X6255Y35531D02*
X6299Y35487D01*
X49606Y86614D02*
Y86757D01*
X11909Y91481D02*
X44882D01*
X49606Y86757D01*
X51968Y91732D02*
X69095D01*
X78543Y82284D01*
X34252Y109449D02*
X68110D01*
X36811Y106496D02*
X69095D01*
X69291Y106693D01*
X5906Y68110D02*
Y86417D01*
X14961Y38583D02*
X17126Y36417D01*
X-591Y24311D02*
Y32283D01*
Y36109D01*
X5709Y24311D02*
Y31299D01*
X6299Y31890D01*
X71161Y37894D02*
X78543D01*
X78543D01*
X78543Y37500D02*
Y37894D01*
Y82284D01*
X2559Y24311D02*
X3194Y24946D01*
D21*
X49213Y48031D02*
X53150Y51968D01*
X14511Y54800D02*
X14961Y54350D01*
X5238Y54800D02*
X14511D01*
X3194Y52756D02*
X5238Y54800D01*
X53150Y51968D02*
X55216D01*
D22*
X-68602Y139075D02*
D03*
X67618D02*
D03*
D23*
X46752Y131398D02*
D03*
X-47736D02*
D03*
X-41831D02*
D03*
X-30020D02*
D03*
X-35925D02*
D03*
X-18209D02*
D03*
X-24114D02*
D03*
X11319D02*
D03*
X17224D02*
D03*
X-492D02*
D03*
X5413D02*
D03*
X-6398D02*
D03*
X-12303D02*
D03*
X34941D02*
D03*
X40846D02*
D03*
X29035D02*
D03*
X23130D02*
D03*
D24*
X-53347Y96653D02*
D03*
X52165Y101772D02*
D03*
X51968Y91732D02*
D03*
D25*
X50984Y25295D02*
D03*
X31299D02*
D03*
D26*
X84646Y61654D02*
D03*
Y81653D02*
D03*
Y91654D02*
D03*
Y101654D02*
D03*
Y111653D02*
D03*
Y71653D02*
D03*
X85827Y191575D02*
D03*
Y181575D02*
D03*
Y171575D02*
D03*
Y161575D02*
D03*
Y201575D02*
D03*
D27*
X84646Y121653D02*
D03*
X85827Y151575D02*
D03*
D28*
X-85827Y117717D02*
D03*
D29*
Y107717D02*
D03*
D30*
X87402Y33071D02*
D03*
Y23228D02*
D03*
Y42913D02*
D03*
X74409Y23228D02*
D03*
Y33071D02*
D03*
Y42913D02*
D03*
D31*
X33858Y81496D02*
D03*
Y76772D02*
D03*
Y72047D02*
D03*
X29134Y81496D02*
D03*
Y76772D02*
D03*
Y72047D02*
D03*
X24409Y81496D02*
D03*
Y76772D02*
D03*
Y72047D02*
D03*
D32*
X49213Y45669D02*
D03*
Y50394D02*
D03*
D33*
X57087Y71653D02*
D03*
X75590Y53051D02*
D03*
X-22539Y35433D02*
D03*
X11811Y27756D02*
D03*
X13091Y9449D02*
D03*
X-12303Y13681D02*
D03*
X38189Y123425D02*
D03*
X20768Y93701D02*
D03*
X-5906Y74114D02*
D03*
X-9055Y63287D02*
D03*
X-1575Y66043D02*
D03*
X-3347Y77264D02*
D03*
X-14961Y62205D02*
D03*
X42621Y55219D02*
D03*
X39764Y55807D02*
D03*
X44097Y66736D02*
D03*
X39370Y62598D02*
D03*
X3051Y76378D02*
D03*
X787Y71161D02*
D03*
X14813Y57776D02*
D03*
X38878Y48425D02*
D03*
X48524Y55676D02*
D03*
X40945Y60236D02*
D03*
X41732Y64567D02*
D03*
X46905Y119237D02*
D03*
X26378Y9449D02*
D03*
X26300Y16000D02*
D03*
X13091Y13287D02*
D03*
Y3051D02*
D03*
X44094Y76772D02*
D03*
X27400Y34100D02*
D03*
X-29528Y57087D02*
D03*
Y82677D02*
D03*
X11811Y98819D02*
D03*
X11658Y82042D02*
D03*
X5512Y47244D02*
D03*
X3543Y68504D02*
D03*
X-10236Y58268D02*
D03*
X-54724Y13386D02*
D03*
X62303Y126378D02*
D03*
X70472Y96457D02*
D03*
X29134D02*
D03*
X24016Y93701D02*
D03*
X43307Y57874D02*
D03*
X-14961Y79921D02*
D03*
X49606Y86614D02*
D03*
X34252Y109449D02*
D03*
X68110D02*
D03*
X36811Y106496D02*
D03*
X69291Y106693D02*
D03*
X0Y77165D02*
D03*
X19685Y50394D02*
D03*
X-1969Y57087D02*
D03*
X-6600Y49200D02*
D03*
X-19390Y35433D02*
D03*
X-12303Y9744D02*
D03*
Y17717D02*
D03*
X-15945Y35433D02*
D03*
X-5906Y39370D02*
D03*
Y44291D02*
D03*
X6693Y57087D02*
D03*
X2362D02*
D03*
X26476Y3150D02*
D03*
X-5906Y32480D02*
D03*
X11811Y24705D02*
D03*
Y21358D02*
D03*
X19685Y44685D02*
D03*
X58071Y41831D02*
D03*
X58465Y51279D02*
D03*
X-44587Y23130D02*
D03*
X8858Y68898D02*
D03*
X12008D02*
D03*
X56693Y77953D02*
D03*
X19685Y55118D02*
D03*
X-30217Y26870D02*
D03*
X66043Y41831D02*
D03*
X17618Y93701D02*
D03*
X61713Y22441D02*
D03*
X60138Y78051D02*
D03*
X-44685Y26772D02*
D03*
X58071Y38583D02*
D03*
X-30118Y22933D02*
D03*
X8760Y90945D02*
D03*
X5906D02*
D03*
X57874Y102756D02*
D03*
X20866Y118110D02*
D03*
X2756Y118504D02*
D03*
X-787D02*
D03*
X56693Y80709D02*
D03*
X60138D02*
D03*
X-38583Y70472D02*
D03*
X-12697Y118504D02*
D03*
X-25984D02*
D03*
X57874Y99213D02*
D03*
X8661Y93701D02*
D03*
X5906D02*
D03*
X-52362Y84646D02*
D03*
X-44094D02*
D03*
X-48031D02*
D03*
X33661Y41437D02*
D03*
X-31890Y118504D02*
D03*
X-51181D02*
D03*
X14567Y93701D02*
D03*
X26772D02*
D03*
X61811Y27165D02*
D03*
X-20472Y83858D02*
D03*
X-24803D02*
D03*
X66043Y44587D02*
D03*
X-24409Y60236D02*
D03*
X-38189Y118504D02*
D03*
X-44882D02*
D03*
X9547D02*
D03*
X60138Y83957D02*
D03*
X15256Y110335D02*
D03*
X60138Y75098D02*
D03*
X58465Y48819D02*
D03*
X36122Y41437D02*
D03*
X-19685Y60236D02*
D03*
X-37402Y57874D02*
D03*
X-9449Y118504D02*
D03*
X-37402Y60236D02*
D03*
X-38583Y74410D02*
D03*
X-42520Y70472D02*
D03*
Y74410D02*
D03*
X-5906Y56693D02*
D03*
X5906Y86417D02*
D03*
X11800Y31890D02*
D03*
X-591Y32283D02*
D03*
X3150Y38189D02*
D03*
D34*
X43209Y44094D02*
D03*
Y46063D02*
D03*
Y48031D02*
D03*
Y50000D02*
D03*
Y51968D02*
D03*
X55216D02*
D03*
Y50000D02*
D03*
Y48031D02*
D03*
Y46063D02*
D03*
Y44094D02*
D03*
D35*
X49213Y48031D02*
D03*
D36*
X5709Y24311D02*
D03*
X2559D02*
D03*
X-591D02*
D03*
X-3740D02*
D03*
X-6890D02*
D03*
D37*
X18799D02*
D03*
X-19980D02*
D03*
D38*
Y7579D02*
D03*
X18799D02*
D03*
D39*
X14961Y46850D02*
D03*
Y54350D02*
D03*
X23961D02*
D03*
X14961Y50600D02*
D03*
X23961Y46850D02*
D03*
Y50600D02*
D03*
D40*
X18898Y41339D02*
D03*
X8661D02*
D03*
D41*
X9055Y52013D02*
X10467Y50600D01*
X14961D01*
M02*
