%FSLAX25Y25*%
%MOIN*%
G70*
G01*
G75*
G04 Layer_Color=16711935*
%ADD10O,0.01378X0.03347*%
%ADD11O,0.03347X0.01378*%
%ADD12R,0.16535X0.16535*%
%ADD13R,0.03200X0.03800*%
%ADD14R,0.03800X0.03200*%
%ADD15R,0.15354X0.08268*%
%ADD16R,0.12000X0.07873*%
%ADD17O,0.03150X0.01378*%
%ADD18O,0.01378X0.03150*%
%ADD19R,0.09843X0.09843*%
%ADD20C,0.01181*%
%ADD21C,0.01000*%
%ADD22O,0.11417X0.05512*%
%ADD23O,0.04331X0.05512*%
%ADD24C,0.05906*%
%ADD25C,0.13780*%
%ADD26C,0.06299*%
%ADD27R,0.06299X0.06299*%
%ADD28R,0.06000X0.06000*%
%ADD29C,0.06000*%
%ADD30C,0.05512*%
%ADD31C,0.02362*%
%ADD32C,0.02598*%
%ADD33C,0.01969*%
%ADD34O,0.02559X0.00984*%
%ADD35R,0.07087X0.07874*%
%ADD36R,0.01969X0.08858*%
%ADD37R,0.08071X0.13780*%
%ADD38R,0.08071X0.15748*%
%ADD39R,0.04800X0.02000*%
%ADD40R,0.05118X0.03347*%
%ADD41C,0.01969*%
%ADD42C,0.00984*%
%ADD43C,0.00787*%
%ADD44C,0.01221*%
%ADD45C,0.00787*%
%ADD46C,0.00800*%
%ADD47C,0.00100*%
%ADD48C,0.00492*%
%ADD49O,0.02178X0.04147*%
%ADD50O,0.04147X0.02178*%
%ADD51R,0.17335X0.17335*%
%ADD52R,0.16154X0.09068*%
%ADD53C,0.06706*%
%ADD54C,0.00800*%
%ADD55C,0.14579*%
%ADD56C,0.03162*%
%ADD57C,0.03398*%
%ADD58O,0.03359X0.01784*%
%ADD59R,0.07887X0.08674*%
%ADD60R,0.05918X0.04147*%
%ADD61C,0.00394*%
D43*
X-29468Y15748D02*
G03*
X-29468Y15748I-7934J0D01*
G01*
X-24608Y2955D02*
Y28541D01*
X-50195D02*
X-24608D01*
X-50195Y2955D02*
Y28541D01*
Y2955D02*
X-24608D01*
D46*
X-81988Y224705D02*
X81004D01*
Y129035D02*
Y224705D01*
X-81988Y129035D02*
X81004D01*
X-81988D02*
Y224705D01*
X55455Y77756D02*
Y84055D01*
X43955Y77756D02*
X55455D01*
X43955D02*
Y84055D01*
X55455D01*
X3108Y76181D02*
Y82480D01*
X14608D01*
Y76181D02*
Y82480D01*
X3108Y76181D02*
X14608D01*
X14173Y127010D02*
X20472D01*
Y115510D02*
Y127010D01*
X14173Y115510D02*
X20472D01*
X14173D02*
Y127010D01*
X3347Y126911D02*
X9646D01*
Y115411D02*
Y126911D01*
X3347Y115411D02*
X9646D01*
X3347D02*
Y126911D01*
X-19488D02*
X-13189D01*
Y115411D02*
Y126911D01*
X-19488Y115411D02*
X-13189D01*
X-19488D02*
Y126911D01*
X-8071D02*
X-1772D01*
Y115411D02*
Y126911D01*
X-8071Y115411D02*
X-1772D01*
X-8071D02*
Y126911D01*
X-25787Y115411D02*
X-19488D01*
X-25787D02*
Y126911D01*
X-19488D01*
Y115411D02*
Y126911D01*
X-32087Y115411D02*
X-25787D01*
X-32087D02*
Y126911D01*
X-25787D01*
Y115411D02*
Y126911D01*
X-38386Y115411D02*
X-32087D01*
X-38386D02*
Y126911D01*
X-32087D01*
Y115411D02*
Y126911D01*
X28978Y56299D02*
Y62598D01*
X17478Y56299D02*
X28978D01*
X17478D02*
Y62598D01*
X28978D01*
X-44685Y115411D02*
X-38386D01*
X-44685D02*
Y126911D01*
X-38386D01*
Y115411D02*
Y126911D01*
X-50984Y115411D02*
X-44685D01*
X-50984D02*
Y126911D01*
X-44685D01*
Y115411D02*
Y126911D01*
X43955Y72244D02*
Y78543D01*
X55455D01*
Y72244D02*
Y78543D01*
X43955Y72244D02*
X55455D01*
X79646Y56653D02*
X89646D01*
X79646Y126654D02*
X89646D01*
X79646Y56653D02*
Y126654D01*
X89646Y56653D02*
Y126654D01*
X-49508Y71908D02*
Y83407D01*
X-55807D02*
X-49508D01*
X-55807Y71908D02*
Y83407D01*
Y71908D02*
X-49508D01*
X-49352Y57087D02*
X-37852D01*
Y63386D01*
X-49352D02*
X-37852D01*
X-49352Y57087D02*
Y63386D01*
X-49606Y57045D02*
Y68545D01*
X-55905D02*
X-49606D01*
X-55905Y57045D02*
Y68545D01*
Y57045D02*
X-49606D01*
X-56595Y67183D02*
Y78683D01*
X-62894D02*
X-56595D01*
X-62894Y67183D02*
Y78683D01*
Y67183D02*
X-56595D01*
X-62402D02*
Y78683D01*
X-68701D02*
X-62402D01*
X-68701Y67183D02*
Y78683D01*
Y67183D02*
X-62402D01*
X-68012D02*
Y78683D01*
X-74311D02*
X-68012D01*
X-74311Y67183D02*
Y78683D01*
Y67183D02*
X-68012D01*
X-80827Y102717D02*
Y122716D01*
X-90827Y102717D02*
X-80827D01*
X-90827D02*
Y122716D01*
X-80827D01*
X80827Y206575D02*
X90827D01*
X80827Y146575D02*
X90827D01*
Y206575D01*
X80827Y146575D02*
Y206575D01*
D48*
X-52461Y130217D02*
X-51805D01*
X-52133D01*
Y132184D01*
X-52461Y131856D01*
X-87590Y126205D02*
Y125549D01*
Y125877D01*
X-85622D01*
X-85950Y126205D01*
X82882Y130142D02*
Y129486D01*
Y129814D01*
X84850D01*
X84522Y130142D01*
X87590Y143087D02*
Y143742D01*
Y143414D01*
X85622D01*
X85950Y143087D01*
D61*
X39173Y84842D02*
G03*
X39173Y84842I-1969J0D01*
G01*
X-42618Y76476D02*
G03*
X-42618Y76476I-1969J0D01*
G01*
X17323Y88583D02*
X40945D01*
X17323Y64961D02*
X40945D01*
Y88583D01*
X17323Y64961D02*
Y88583D01*
X-90287Y30272D02*
Y76728D01*
X-76113Y30272D02*
Y76728D01*
X-90287Y30272D02*
X-76113D01*
X-90287Y76728D02*
X-76113D01*
X-48327Y64468D02*
Y80216D01*
X-32579Y64468D02*
Y80216D01*
X-48327D02*
X-32579D01*
X-48327Y64468D02*
X-32579D01*
M02*
