%FSLAX25Y25*%
%MOIN*%
G70*
G01*
G75*
G04 Layer_Color=16711935*
%ADD10O,0.01378X0.03347*%
%ADD11O,0.03347X0.01378*%
%ADD12R,0.16535X0.16535*%
%ADD13R,0.03200X0.03800*%
%ADD14R,0.03800X0.03200*%
%ADD15R,0.15354X0.08268*%
%ADD16R,0.12000X0.07873*%
%ADD17O,0.03150X0.01378*%
%ADD18O,0.01378X0.03150*%
%ADD19R,0.09843X0.09843*%
%ADD20C,0.01181*%
%ADD21C,0.01000*%
%ADD22O,0.11417X0.05512*%
%ADD23O,0.04331X0.05512*%
%ADD24C,0.05906*%
%ADD25C,0.13780*%
%ADD26C,0.06299*%
%ADD27R,0.06299X0.06299*%
%ADD28R,0.06000X0.06000*%
%ADD29C,0.06000*%
%ADD30C,0.05512*%
%ADD31C,0.02362*%
%ADD32C,0.02598*%
%ADD33C,0.01969*%
%ADD34O,0.02559X0.00984*%
%ADD35R,0.07087X0.07874*%
%ADD36R,0.01969X0.08858*%
%ADD37R,0.08071X0.13780*%
%ADD38R,0.08071X0.15748*%
%ADD39R,0.04800X0.02000*%
%ADD40R,0.05118X0.03347*%
%ADD41C,0.01969*%
%ADD42C,0.00984*%
%ADD43C,0.00787*%
%ADD44C,0.01221*%
%ADD45C,0.00787*%
%ADD46C,0.00800*%
%ADD47C,0.00100*%
%ADD48C,0.00492*%
%ADD49O,0.02178X0.04147*%
%ADD50O,0.04147X0.02178*%
%ADD51R,0.17335X0.17335*%
%ADD52R,0.16154X0.09068*%
%ADD53C,0.06706*%
%ADD54C,0.00800*%
%ADD55C,0.14579*%
%ADD56C,0.03162*%
%ADD57C,0.03398*%
%ADD58O,0.03359X0.01784*%
%ADD59R,0.07887X0.08674*%
%ADD60R,0.05918X0.04147*%
D13*
X29800Y15400D02*
D03*
X35400D02*
D03*
X-6000Y36300D02*
D03*
X-400D02*
D03*
X12249Y36220D02*
D03*
X6649D02*
D03*
X-2406Y41535D02*
D03*
X3194D02*
D03*
X48972Y38780D02*
D03*
X54572D02*
D03*
X24365Y39764D02*
D03*
X29965D02*
D03*
X-2406Y52756D02*
D03*
X3194D02*
D03*
Y46850D02*
D03*
X-2406D02*
D03*
D14*
X67323Y132328D02*
D03*
Y126728D02*
D03*
X35039Y50832D02*
D03*
Y45232D02*
D03*
X9055Y52013D02*
D03*
Y46413D02*
D03*
X62106Y38342D02*
D03*
Y43942D02*
D03*
X-54724Y22091D02*
D03*
Y16491D02*
D03*
X29528Y45232D02*
D03*
Y50832D02*
D03*
D22*
X-68602Y139075D02*
D03*
X67618D02*
D03*
D23*
X46752Y131398D02*
D03*
X-47736D02*
D03*
X-41831D02*
D03*
X-30020D02*
D03*
X-35925D02*
D03*
X-18209D02*
D03*
X-24114D02*
D03*
X11319D02*
D03*
X17224D02*
D03*
X-492D02*
D03*
X5413D02*
D03*
X-6398D02*
D03*
X-12303D02*
D03*
X34941D02*
D03*
X40846D02*
D03*
X29035D02*
D03*
X23130D02*
D03*
D26*
X84646Y61654D02*
D03*
Y81653D02*
D03*
Y91654D02*
D03*
Y101654D02*
D03*
Y111653D02*
D03*
Y71653D02*
D03*
X85827Y191575D02*
D03*
Y181575D02*
D03*
Y171575D02*
D03*
Y161575D02*
D03*
Y201575D02*
D03*
D27*
X84646Y121653D02*
D03*
X85827Y151575D02*
D03*
D28*
X-85827Y117717D02*
D03*
D29*
Y107717D02*
D03*
D30*
X87402Y33071D02*
D03*
Y23228D02*
D03*
Y42913D02*
D03*
X74409Y23228D02*
D03*
Y33071D02*
D03*
Y42913D02*
D03*
D36*
X5709Y24311D02*
D03*
X2559D02*
D03*
X-591D02*
D03*
X-3740D02*
D03*
X-6890D02*
D03*
D37*
X18799D02*
D03*
X-19980D02*
D03*
D38*
Y7579D02*
D03*
X18799D02*
D03*
D39*
X14961Y46850D02*
D03*
Y54350D02*
D03*
X23961D02*
D03*
X14961Y50600D02*
D03*
X23961Y46850D02*
D03*
Y50600D02*
D03*
D53*
X-53347Y96653D02*
D03*
X52165Y101772D02*
D03*
X51968Y91732D02*
D03*
D54*
X41142Y40059D02*
D03*
Y10531D02*
D03*
D55*
X50984Y25295D02*
D03*
X31299D02*
D03*
D56*
X33858Y81496D02*
D03*
Y76772D02*
D03*
Y72047D02*
D03*
X29134Y81496D02*
D03*
Y76772D02*
D03*
Y72047D02*
D03*
X24409Y81496D02*
D03*
Y76772D02*
D03*
Y72047D02*
D03*
D57*
X49213Y45669D02*
D03*
Y50394D02*
D03*
D58*
X43209Y44094D02*
D03*
Y46063D02*
D03*
Y48031D02*
D03*
Y50000D02*
D03*
Y51968D02*
D03*
X55216D02*
D03*
Y50000D02*
D03*
Y48031D02*
D03*
Y46063D02*
D03*
Y44094D02*
D03*
D59*
X49213Y48031D02*
D03*
D60*
X18898Y41339D02*
D03*
X8661D02*
D03*
M02*
