%FSLAX25Y25*%
%MOIN*%
G70*
G01*
G75*
%ADD10O,0.01378X0.03347*%
%ADD11O,0.03347X0.01378*%
%ADD12R,0.16535X0.16535*%
%ADD13R,0.03200X0.03800*%
%ADD14R,0.03800X0.03200*%
%ADD15R,0.15354X0.08268*%
%ADD16R,0.12000X0.07873*%
%ADD17O,0.03150X0.01378*%
%ADD18O,0.01378X0.03150*%
%ADD19R,0.09843X0.09843*%
%ADD20C,0.01181*%
%ADD21C,0.01000*%
%ADD22O,0.11417X0.05512*%
%ADD23O,0.04331X0.05512*%
%ADD24C,0.05906*%
%ADD25C,0.13780*%
%ADD26C,0.06299*%
%ADD27R,0.06299X0.06299*%
%ADD28R,0.06000X0.06000*%
%ADD29C,0.06000*%
%ADD30C,0.05512*%
%ADD31C,0.02362*%
%ADD32C,0.02598*%
%ADD33C,0.01969*%
%ADD34O,0.02559X0.00984*%
%ADD35R,0.07087X0.07874*%
%ADD36R,0.01969X0.08858*%
%ADD37R,0.08071X0.13780*%
%ADD38R,0.08071X0.15748*%
%ADD39R,0.04800X0.02000*%
%ADD40R,0.05118X0.03347*%
%ADD41C,0.01969*%
%ADD42C,0.00984*%
%ADD43C,0.00787*%
%ADD44C,0.01221*%
%ADD45C,0.00787*%
%ADD46C,0.00800*%
%ADD47C,0.00100*%
%ADD48C,0.00492*%
G36*
X77084Y59449D02*
X76218D01*
Y63736D01*
X77084D01*
Y59449D01*
D02*
G37*
G36*
X69580Y63800D02*
X69650D01*
X69727Y63787D01*
X69822Y63774D01*
X69924Y63755D01*
X70032Y63730D01*
X70153Y63698D01*
X70274Y63659D01*
X70402Y63615D01*
X70523Y63557D01*
X70650Y63487D01*
X70771Y63411D01*
X70892Y63315D01*
X71000Y63213D01*
X71007Y63207D01*
X71026Y63188D01*
X71051Y63150D01*
X71090Y63105D01*
X71134Y63048D01*
X71185Y62971D01*
X71236Y62889D01*
X71287Y62793D01*
X71338Y62678D01*
X71395Y62557D01*
X71440Y62424D01*
X71485Y62277D01*
X71523Y62124D01*
X71548Y61952D01*
X71567Y61774D01*
X71574Y61583D01*
Y61570D01*
Y61538D01*
X71567Y61481D01*
Y61411D01*
X71555Y61322D01*
X71542Y61226D01*
X71529Y61111D01*
X71504Y60990D01*
X71472Y60863D01*
X71434Y60729D01*
X71389Y60595D01*
X71332Y60462D01*
X71268Y60328D01*
X71192Y60194D01*
X71109Y60073D01*
X71007Y59958D01*
X71000Y59952D01*
X70981Y59933D01*
X70950Y59908D01*
X70905Y59869D01*
X70848Y59825D01*
X70777Y59774D01*
X70701Y59723D01*
X70605Y59672D01*
X70504Y59614D01*
X70389Y59563D01*
X70268Y59513D01*
X70134Y59468D01*
X69988Y59430D01*
X69835Y59404D01*
X69669Y59385D01*
X69497Y59379D01*
X69453D01*
X69408Y59385D01*
X69338D01*
X69261Y59398D01*
X69166Y59411D01*
X69064Y59430D01*
X68949Y59449D01*
X68828Y59481D01*
X68707Y59519D01*
X68580Y59570D01*
X68453Y59621D01*
X68331Y59691D01*
X68210Y59767D01*
X68089Y59856D01*
X67981Y59958D01*
X67975Y59965D01*
X67956Y59984D01*
X67930Y60016D01*
X67892Y60067D01*
X67854Y60124D01*
X67803Y60194D01*
X67752Y60283D01*
X67701Y60379D01*
X67650Y60487D01*
X67599Y60608D01*
X67548Y60736D01*
X67510Y60882D01*
X67471Y61035D01*
X67446Y61201D01*
X67427Y61379D01*
X67421Y61564D01*
Y61570D01*
Y61595D01*
Y61627D01*
X67427Y61672D01*
Y61729D01*
X67433Y61793D01*
X67440Y61869D01*
X67446Y61946D01*
X67465Y62118D01*
X67503Y62303D01*
X67548Y62487D01*
X67612Y62659D01*
Y62666D01*
X67618Y62672D01*
X67624Y62691D01*
X67637Y62717D01*
X67669Y62780D01*
X67713Y62857D01*
X67771Y62946D01*
X67841Y63048D01*
X67917Y63150D01*
X68007Y63245D01*
X68019Y63258D01*
X68051Y63290D01*
X68102Y63335D01*
X68172Y63392D01*
X68255Y63456D01*
X68350Y63519D01*
X68453Y63583D01*
X68567Y63634D01*
X68573D01*
X68586Y63640D01*
X68605Y63653D01*
X68637Y63659D01*
X68675Y63672D01*
X68720Y63691D01*
X68777Y63704D01*
X68835Y63723D01*
X68968Y63749D01*
X69128Y63780D01*
X69300Y63800D01*
X69491Y63806D01*
X69535D01*
X69580Y63800D01*
D02*
G37*
G36*
X73880D02*
X73943Y63793D01*
X74020Y63787D01*
X74109Y63774D01*
X74198Y63761D01*
X74396Y63717D01*
X74593Y63653D01*
X74695Y63615D01*
X74784Y63570D01*
X74873Y63513D01*
X74956Y63449D01*
X74963Y63443D01*
X74975Y63430D01*
X74994Y63411D01*
X75020Y63385D01*
X75052Y63347D01*
X75084Y63303D01*
X75122Y63258D01*
X75166Y63201D01*
X75205Y63131D01*
X75243Y63061D01*
X75275Y62984D01*
X75313Y62901D01*
X75338Y62812D01*
X75364Y62717D01*
X75383Y62615D01*
X75389Y62506D01*
X74523Y62475D01*
Y62481D01*
Y62487D01*
X74510Y62525D01*
X74498Y62583D01*
X74472Y62653D01*
X74440Y62736D01*
X74396Y62812D01*
X74345Y62882D01*
X74281Y62946D01*
X74275Y62952D01*
X74249Y62971D01*
X74205Y62990D01*
X74147Y63022D01*
X74071Y63048D01*
X73975Y63067D01*
X73861Y63086D01*
X73733Y63092D01*
X73669D01*
X73606Y63086D01*
X73517Y63073D01*
X73427Y63054D01*
X73326Y63022D01*
X73230Y62984D01*
X73147Y62933D01*
X73141Y62927D01*
X73128Y62914D01*
X73103Y62895D01*
X73084Y62863D01*
X73058Y62825D01*
X73032Y62780D01*
X73020Y62729D01*
X73013Y62666D01*
Y62659D01*
Y62640D01*
X73020Y62615D01*
X73032Y62577D01*
X73045Y62538D01*
X73064Y62494D01*
X73096Y62455D01*
X73141Y62411D01*
X73147Y62405D01*
X73173Y62385D01*
X73198Y62373D01*
X73224Y62360D01*
X73255Y62341D01*
X73300Y62322D01*
X73345Y62303D01*
X73402Y62277D01*
X73466Y62252D01*
X73542Y62226D01*
X73625Y62201D01*
X73714Y62175D01*
X73816Y62150D01*
X73931Y62118D01*
X73937D01*
X73956Y62112D01*
X73988Y62105D01*
X74033Y62092D01*
X74084Y62080D01*
X74147Y62060D01*
X74281Y62022D01*
X74434Y61978D01*
X74587Y61927D01*
X74733Y61869D01*
X74803Y61844D01*
X74861Y61812D01*
X74867D01*
X74873Y61806D01*
X74912Y61780D01*
X74969Y61748D01*
X75033Y61697D01*
X75109Y61634D01*
X75192Y61557D01*
X75268Y61475D01*
X75338Y61373D01*
X75345Y61360D01*
X75364Y61322D01*
X75396Y61264D01*
X75428Y61188D01*
X75453Y61086D01*
X75485Y60971D01*
X75504Y60838D01*
X75510Y60691D01*
Y60685D01*
Y60672D01*
Y60653D01*
Y60627D01*
X75498Y60557D01*
X75485Y60468D01*
X75459Y60360D01*
X75421Y60245D01*
X75370Y60118D01*
X75300Y59997D01*
Y59990D01*
X75294Y59984D01*
X75262Y59946D01*
X75217Y59888D01*
X75154Y59818D01*
X75071Y59742D01*
X74969Y59659D01*
X74854Y59583D01*
X74721Y59519D01*
X74714D01*
X74701Y59513D01*
X74682Y59506D01*
X74657Y59493D01*
X74619Y59481D01*
X74574Y59468D01*
X74523Y59455D01*
X74466Y59442D01*
X74402Y59430D01*
X74332Y59417D01*
X74173Y59391D01*
X73994Y59372D01*
X73791Y59366D01*
X73714D01*
X73657Y59372D01*
X73587Y59379D01*
X73510Y59385D01*
X73427Y59398D01*
X73332Y59411D01*
X73128Y59455D01*
X73026Y59487D01*
X72924Y59525D01*
X72822Y59570D01*
X72720Y59621D01*
X72631Y59678D01*
X72542Y59742D01*
X72536Y59748D01*
X72523Y59761D01*
X72504Y59780D01*
X72472Y59812D01*
X72440Y59850D01*
X72402Y59901D01*
X72357Y59952D01*
X72313Y60022D01*
X72268Y60092D01*
X72224Y60175D01*
X72185Y60264D01*
X72141Y60360D01*
X72102Y60468D01*
X72071Y60583D01*
X72045Y60704D01*
X72026Y60838D01*
X72867Y60920D01*
Y60914D01*
X72873Y60901D01*
Y60882D01*
X72880Y60850D01*
X72899Y60774D01*
X72931Y60685D01*
X72969Y60583D01*
X73026Y60474D01*
X73090Y60379D01*
X73166Y60296D01*
X73179Y60290D01*
X73211Y60264D01*
X73262Y60232D01*
X73332Y60201D01*
X73421Y60162D01*
X73529Y60130D01*
X73657Y60105D01*
X73797Y60099D01*
X73867D01*
X73943Y60105D01*
X74033Y60118D01*
X74134Y60143D01*
X74243Y60169D01*
X74338Y60213D01*
X74427Y60271D01*
X74434Y60277D01*
X74459Y60302D01*
X74498Y60341D01*
X74536Y60392D01*
X74574Y60449D01*
X74612Y60519D01*
X74638Y60602D01*
X74644Y60685D01*
Y60691D01*
Y60710D01*
X74638Y60742D01*
X74631Y60774D01*
X74606Y60857D01*
X74587Y60901D01*
X74555Y60946D01*
X74549Y60952D01*
X74536Y60965D01*
X74517Y60984D01*
X74485Y61010D01*
X74440Y61041D01*
X74383Y61067D01*
X74319Y61099D01*
X74243Y61130D01*
X74236D01*
X74211Y61143D01*
X74166Y61156D01*
X74096Y61175D01*
X74058Y61188D01*
X74007Y61201D01*
X73950Y61213D01*
X73886Y61232D01*
X73816Y61251D01*
X73733Y61271D01*
X73644Y61296D01*
X73549Y61322D01*
X73542D01*
X73517Y61328D01*
X73485Y61341D01*
X73434Y61353D01*
X73377Y61366D01*
X73313Y61392D01*
X73243Y61411D01*
X73166Y61436D01*
X73007Y61500D01*
X72848Y61570D01*
X72765Y61608D01*
X72695Y61653D01*
X72631Y61697D01*
X72574Y61742D01*
X72567Y61748D01*
X72555Y61761D01*
X72536Y61780D01*
X72517Y61806D01*
X72485Y61838D01*
X72453Y61882D01*
X72415Y61933D01*
X72383Y61984D01*
X72306Y62112D01*
X72249Y62258D01*
X72224Y62341D01*
X72204Y62424D01*
X72192Y62513D01*
X72185Y62608D01*
Y62615D01*
Y62621D01*
Y62640D01*
Y62666D01*
X72198Y62729D01*
X72211Y62806D01*
X72230Y62901D01*
X72262Y63003D01*
X72306Y63112D01*
X72370Y63220D01*
Y63226D01*
X72376Y63233D01*
X72402Y63264D01*
X72447Y63315D01*
X72504Y63379D01*
X72580Y63449D01*
X72669Y63526D01*
X72778Y63596D01*
X72899Y63653D01*
X72905D01*
X72918Y63659D01*
X72937Y63666D01*
X72962Y63678D01*
X72994Y63691D01*
X73039Y63704D01*
X73084Y63717D01*
X73134Y63730D01*
X73262Y63755D01*
X73402Y63780D01*
X73568Y63800D01*
X73746Y63806D01*
X73822D01*
X73880Y63800D01*
D02*
G37*
G36*
X66739Y59449D02*
X65936D01*
X65930Y62819D01*
X65076Y59449D01*
X64248D01*
X63401Y62819D01*
Y59449D01*
X62598D01*
Y63736D01*
X63892D01*
X64669Y60806D01*
X65433Y63736D01*
X66739D01*
Y59449D01*
D02*
G37*
G36*
X-76378Y117474D02*
X-76320D01*
X-76263Y117467D01*
X-76199Y117461D01*
X-76053Y117448D01*
X-75900Y117423D01*
X-75741Y117391D01*
X-75594Y117346D01*
X-75588D01*
X-75575Y117340D01*
X-75550Y117327D01*
X-75518Y117314D01*
X-75480Y117302D01*
X-75435Y117282D01*
X-75327Y117232D01*
X-75206Y117162D01*
X-75078Y117085D01*
X-74951Y116996D01*
X-74836Y116888D01*
X-74830Y116875D01*
X-74798Y116849D01*
X-74760Y116798D01*
X-74715Y116728D01*
X-74658Y116639D01*
X-74600Y116537D01*
X-74550Y116416D01*
X-74499Y116282D01*
X-74492Y116270D01*
Y116251D01*
X-74486Y116232D01*
X-74473Y116168D01*
X-74454Y116079D01*
X-74435Y115970D01*
X-74422Y115837D01*
X-74416Y115690D01*
X-74410Y115518D01*
Y113894D01*
X-78697D01*
Y115467D01*
Y115473D01*
Y115492D01*
Y115518D01*
Y115556D01*
Y115601D01*
X-78690Y115652D01*
X-78684Y115773D01*
X-78677Y115900D01*
X-78665Y116034D01*
X-78639Y116168D01*
X-78614Y116282D01*
Y116289D01*
X-78607Y116302D01*
X-78601Y116321D01*
X-78594Y116346D01*
X-78563Y116416D01*
X-78518Y116505D01*
X-78467Y116607D01*
X-78397Y116716D01*
X-78314Y116824D01*
X-78212Y116926D01*
Y116932D01*
X-78200Y116938D01*
X-78161Y116970D01*
X-78104Y117021D01*
X-78021Y117079D01*
X-77919Y117149D01*
X-77798Y117219D01*
X-77665Y117282D01*
X-77518Y117340D01*
X-77512D01*
X-77499Y117346D01*
X-77480Y117353D01*
X-77448Y117359D01*
X-77403Y117372D01*
X-77359Y117384D01*
X-77301Y117397D01*
X-77238Y117410D01*
X-77168Y117423D01*
X-77091Y117435D01*
X-77008Y117448D01*
X-76919Y117461D01*
X-76728Y117474D01*
X-76512Y117480D01*
X-76422D01*
X-76378Y117474D01*
D02*
G37*
G36*
X86221Y145113D02*
X84403D01*
X84407Y145109D01*
X84414Y145101D01*
X84425Y145087D01*
X84444Y145064D01*
X84463Y145042D01*
X84485Y145012D01*
X84511Y144974D01*
X84541Y144937D01*
X84571Y144892D01*
X84601Y144843D01*
X84661Y144739D01*
X84717Y144619D01*
X84766Y144488D01*
X84328D01*
Y144492D01*
X84324Y144496D01*
X84321Y144507D01*
X84317Y144522D01*
X84298Y144559D01*
X84276Y144608D01*
X84246Y144671D01*
X84205Y144739D01*
X84156Y144814D01*
X84096Y144896D01*
X84092Y144900D01*
X84089Y144907D01*
X84077Y144918D01*
X84066Y144933D01*
X84029Y144971D01*
X83980Y145019D01*
X83920Y145068D01*
X83853Y145120D01*
X83775Y145165D01*
X83692Y145203D01*
Y145595D01*
X86221D01*
Y145113D01*
D02*
G37*
G36*
X83324Y177954D02*
X83361Y177951D01*
X83410Y177947D01*
X83459Y177943D01*
X83515Y177932D01*
X83631Y177910D01*
X83754Y177876D01*
X83814Y177853D01*
X83874Y177827D01*
X83926Y177794D01*
X83978Y177760D01*
X83982Y177756D01*
X83990Y177752D01*
X84005Y177741D01*
X84020Y177723D01*
X84042Y177704D01*
X84065Y177678D01*
X84091Y177652D01*
X84121Y177618D01*
X84147Y177580D01*
X84177Y177539D01*
X84207Y177494D01*
X84233Y177450D01*
X84281Y177341D01*
X84304Y177281D01*
X84319Y177218D01*
X83814Y177124D01*
Y177128D01*
X83810Y177132D01*
X83803Y177154D01*
X83788Y177188D01*
X83769Y177229D01*
X83739Y177278D01*
X83705Y177326D01*
X83664Y177371D01*
X83612Y177416D01*
X83605Y177420D01*
X83586Y177435D01*
X83556Y177450D01*
X83511Y177472D01*
X83459Y177491D01*
X83395Y177509D01*
X83324Y177521D01*
X83245Y177524D01*
X83212D01*
X83189Y177521D01*
X83163Y177517D01*
X83130Y177513D01*
X83055Y177498D01*
X82969Y177472D01*
X82928Y177457D01*
X82883Y177435D01*
X82838Y177408D01*
X82797Y177382D01*
X82756Y177348D01*
X82718Y177311D01*
X82714Y177307D01*
X82711Y177300D01*
X82699Y177289D01*
X82688Y177274D01*
X82673Y177251D01*
X82658Y177221D01*
X82639Y177191D01*
X82621Y177154D01*
X82602Y177113D01*
X82583Y177068D01*
X82569Y177016D01*
X82553Y176960D01*
X82542Y176900D01*
X82531Y176832D01*
X82527Y176761D01*
X82524Y176687D01*
Y176683D01*
Y176668D01*
Y176645D01*
X82527Y176612D01*
X82531Y176574D01*
X82535Y176533D01*
X82539Y176485D01*
X82550Y176436D01*
X82572Y176324D01*
X82606Y176212D01*
X82628Y176159D01*
X82658Y176107D01*
X82688Y176058D01*
X82722Y176013D01*
X82726Y176010D01*
X82729Y176002D01*
X82740Y175995D01*
X82759Y175980D01*
X82778Y175961D01*
X82800Y175942D01*
X82830Y175924D01*
X82860Y175905D01*
X82898Y175882D01*
X82935Y175864D01*
X83025Y175826D01*
X83073Y175811D01*
X83126Y175804D01*
X83182Y175796D01*
X83242Y175793D01*
X83268D01*
X83302Y175796D01*
X83343Y175800D01*
X83391Y175808D01*
X83444Y175819D01*
X83504Y175834D01*
X83563Y175853D01*
X83567D01*
X83571Y175856D01*
X83590Y175864D01*
X83619Y175879D01*
X83657Y175897D01*
X83702Y175920D01*
X83747Y175946D01*
X83795Y175972D01*
X83840Y176006D01*
Y176324D01*
X83257D01*
Y176750D01*
X84352D01*
Y175748D01*
X84345Y175740D01*
X84323Y175722D01*
X84285Y175692D01*
X84233Y175654D01*
X84169Y175613D01*
X84091Y175568D01*
X83997Y175520D01*
X83889Y175475D01*
X83885D01*
X83874Y175471D01*
X83859Y175464D01*
X83836Y175456D01*
X83810Y175449D01*
X83776Y175437D01*
X83739Y175426D01*
X83698Y175419D01*
X83605Y175396D01*
X83504Y175378D01*
X83391Y175363D01*
X83275Y175359D01*
X83238D01*
X83208Y175363D01*
X83174D01*
X83133Y175366D01*
X83088Y175374D01*
X83040Y175381D01*
X82931Y175400D01*
X82815Y175430D01*
X82699Y175471D01*
X82639Y175494D01*
X82583Y175523D01*
X82580Y175527D01*
X82572Y175531D01*
X82557Y175542D01*
X82535Y175553D01*
X82512Y175572D01*
X82482Y175591D01*
X82419Y175643D01*
X82348Y175710D01*
X82277Y175793D01*
X82206Y175886D01*
X82146Y175995D01*
Y175998D01*
X82138Y176010D01*
X82131Y176025D01*
X82123Y176051D01*
X82112Y176077D01*
X82101Y176111D01*
X82086Y176152D01*
X82075Y176197D01*
X82060Y176242D01*
X82045Y176294D01*
X82022Y176410D01*
X82007Y176533D01*
X82000Y176664D01*
Y176668D01*
Y176683D01*
Y176701D01*
X82004Y176731D01*
Y176765D01*
X82007Y176806D01*
X82015Y176851D01*
X82022Y176900D01*
X82041Y177008D01*
X82071Y177124D01*
X82112Y177244D01*
X82135Y177304D01*
X82165Y177360D01*
X82168Y177364D01*
X82172Y177375D01*
X82183Y177390D01*
X82195Y177412D01*
X82213Y177435D01*
X82232Y177464D01*
X82288Y177535D01*
X82355Y177610D01*
X82438Y177689D01*
X82531Y177764D01*
X82643Y177831D01*
X82647D01*
X82655Y177835D01*
X82670Y177842D01*
X82688Y177850D01*
X82711Y177861D01*
X82740Y177872D01*
X82774Y177883D01*
X82812Y177895D01*
X82853Y177906D01*
X82898Y177917D01*
X82946Y177928D01*
X82999Y177939D01*
X83118Y177954D01*
X83245Y177958D01*
X83290D01*
X83324Y177954D01*
D02*
G37*
G36*
X-76378Y113148D02*
X-76320D01*
X-76263Y113142D01*
X-76199Y113136D01*
X-76053Y113123D01*
X-75900Y113097D01*
X-75741Y113066D01*
X-75594Y113021D01*
X-75588D01*
X-75575Y113015D01*
X-75550Y113002D01*
X-75518Y112989D01*
X-75480Y112976D01*
X-75435Y112957D01*
X-75327Y112906D01*
X-75206Y112836D01*
X-75078Y112760D01*
X-74951Y112671D01*
X-74836Y112562D01*
X-74830Y112550D01*
X-74798Y112524D01*
X-74760Y112473D01*
X-74715Y112403D01*
X-74658Y112314D01*
X-74600Y112212D01*
X-74550Y112091D01*
X-74499Y111957D01*
X-74492Y111944D01*
Y111925D01*
X-74486Y111906D01*
X-74473Y111843D01*
X-74454Y111753D01*
X-74435Y111645D01*
X-74422Y111511D01*
X-74416Y111365D01*
X-74410Y111193D01*
Y109568D01*
X-78697D01*
Y111142D01*
Y111148D01*
Y111167D01*
Y111193D01*
Y111231D01*
Y111276D01*
X-78690Y111327D01*
X-78684Y111448D01*
X-78677Y111575D01*
X-78665Y111709D01*
X-78639Y111843D01*
X-78614Y111957D01*
Y111964D01*
X-78607Y111976D01*
X-78601Y111995D01*
X-78594Y112021D01*
X-78563Y112091D01*
X-78518Y112180D01*
X-78467Y112282D01*
X-78397Y112390D01*
X-78314Y112499D01*
X-78212Y112601D01*
Y112607D01*
X-78200Y112613D01*
X-78161Y112645D01*
X-78104Y112696D01*
X-78021Y112753D01*
X-77919Y112823D01*
X-77798Y112894D01*
X-77665Y112957D01*
X-77518Y113015D01*
X-77512D01*
X-77499Y113021D01*
X-77480Y113027D01*
X-77448Y113034D01*
X-77403Y113047D01*
X-77359Y113059D01*
X-77301Y113072D01*
X-77238Y113085D01*
X-77168Y113097D01*
X-77091Y113110D01*
X-77008Y113123D01*
X-76919Y113136D01*
X-76728Y113148D01*
X-76512Y113155D01*
X-76422D01*
X-76378Y113148D01*
D02*
G37*
G36*
X-74410Y107874D02*
X-78697D01*
Y108740D01*
X-74410D01*
Y107874D01*
D02*
G37*
G36*
X71032Y73642D02*
X71095Y73636D01*
X71172Y73623D01*
X71261Y73610D01*
X71356Y73591D01*
X71452Y73566D01*
X71560Y73534D01*
X71662Y73496D01*
X71771Y73451D01*
X71879Y73394D01*
X71981Y73330D01*
X72083Y73260D01*
X72178Y73177D01*
X72185D01*
X72191Y73164D01*
X72229Y73126D01*
X72280Y73062D01*
X72344Y72980D01*
X72414Y72865D01*
X72490Y72731D01*
X72554Y72572D01*
X72618Y72394D01*
X71764Y72190D01*
Y72196D01*
X71758Y72202D01*
Y72221D01*
X71751Y72247D01*
X71726Y72304D01*
X71694Y72381D01*
X71656Y72464D01*
X71599Y72553D01*
X71528Y72636D01*
X71446Y72712D01*
X71433Y72718D01*
X71401Y72744D01*
X71350Y72776D01*
X71280Y72814D01*
X71197Y72846D01*
X71095Y72878D01*
X70981Y72903D01*
X70860Y72909D01*
X70815D01*
X70783Y72903D01*
X70739Y72897D01*
X70694Y72890D01*
X70586Y72865D01*
X70458Y72827D01*
X70331Y72763D01*
X70267Y72725D01*
X70204Y72680D01*
X70140Y72629D01*
X70082Y72566D01*
Y72559D01*
X70070Y72546D01*
X70057Y72527D01*
X70038Y72502D01*
X70012Y72464D01*
X69987Y72419D01*
X69961Y72362D01*
X69936Y72298D01*
X69911Y72228D01*
X69885Y72145D01*
X69859Y72056D01*
X69834Y71954D01*
X69815Y71846D01*
X69802Y71725D01*
X69796Y71597D01*
X69789Y71457D01*
Y71451D01*
Y71419D01*
Y71381D01*
X69796Y71323D01*
Y71260D01*
X69802Y71183D01*
X69815Y71100D01*
X69828Y71011D01*
X69859Y70820D01*
X69911Y70629D01*
X69942Y70540D01*
X69981Y70451D01*
X70025Y70374D01*
X70076Y70304D01*
X70082Y70298D01*
X70089Y70291D01*
X70108Y70272D01*
X70127Y70253D01*
X70191Y70196D01*
X70280Y70132D01*
X70395Y70069D01*
X70522Y70011D01*
X70675Y69973D01*
X70751Y69967D01*
X70841Y69960D01*
X70872D01*
X70898Y69967D01*
X70961Y69973D01*
X71044Y69986D01*
X71134Y70011D01*
X71235Y70049D01*
X71337Y70107D01*
X71433Y70177D01*
X71446Y70189D01*
X71471Y70221D01*
X71516Y70272D01*
X71573Y70342D01*
X71630Y70444D01*
X71688Y70559D01*
X71745Y70705D01*
X71790Y70871D01*
X72631Y70610D01*
Y70604D01*
X72624Y70578D01*
X72611Y70540D01*
X72592Y70495D01*
X72573Y70438D01*
X72541Y70368D01*
X72509Y70291D01*
X72478Y70215D01*
X72388Y70043D01*
X72274Y69871D01*
X72140Y69705D01*
X72063Y69629D01*
X71981Y69559D01*
X71974Y69552D01*
X71962Y69546D01*
X71936Y69527D01*
X71898Y69508D01*
X71860Y69482D01*
X71802Y69451D01*
X71745Y69419D01*
X71675Y69393D01*
X71592Y69361D01*
X71509Y69330D01*
X71414Y69298D01*
X71312Y69272D01*
X71210Y69253D01*
X71095Y69234D01*
X70974Y69228D01*
X70847Y69221D01*
X70809D01*
X70764Y69228D01*
X70707D01*
X70630Y69240D01*
X70547Y69253D01*
X70452Y69272D01*
X70350Y69291D01*
X70242Y69323D01*
X70127Y69361D01*
X70012Y69412D01*
X69898Y69463D01*
X69777Y69533D01*
X69662Y69610D01*
X69554Y69699D01*
X69446Y69801D01*
X69439Y69807D01*
X69420Y69826D01*
X69394Y69858D01*
X69363Y69909D01*
X69318Y69967D01*
X69274Y70037D01*
X69222Y70119D01*
X69172Y70215D01*
X69121Y70323D01*
X69070Y70444D01*
X69025Y70578D01*
X68980Y70718D01*
X68949Y70871D01*
X68923Y71037D01*
X68904Y71209D01*
X68898Y71393D01*
Y71406D01*
Y71438D01*
X68904Y71495D01*
Y71572D01*
X68917Y71661D01*
X68929Y71763D01*
X68942Y71878D01*
X68968Y72005D01*
X68993Y72132D01*
X69031Y72272D01*
X69076Y72406D01*
X69127Y72546D01*
X69191Y72680D01*
X69267Y72814D01*
X69350Y72941D01*
X69446Y73056D01*
X69452Y73062D01*
X69471Y73081D01*
X69503Y73113D01*
X69547Y73152D01*
X69605Y73196D01*
X69668Y73241D01*
X69745Y73298D01*
X69834Y73355D01*
X69936Y73406D01*
X70044Y73464D01*
X70165Y73508D01*
X70293Y73559D01*
X70433Y73591D01*
X70579Y73623D01*
X70732Y73642D01*
X70898Y73648D01*
X70974D01*
X71032Y73642D01*
D02*
G37*
G36*
X71245Y99939D02*
X73398D01*
Y99213D01*
X70379D01*
Y103461D01*
X71245D01*
Y99939D01*
D02*
G37*
G36*
X73114Y93721D02*
X73177Y93714D01*
X73254Y93708D01*
X73343Y93695D01*
X73432Y93683D01*
X73629Y93638D01*
X73827Y93574D01*
X73929Y93536D01*
X74018Y93492D01*
X74107Y93434D01*
X74190Y93370D01*
X74196Y93364D01*
X74209Y93351D01*
X74228Y93332D01*
X74254Y93307D01*
X74286Y93269D01*
X74317Y93224D01*
X74356Y93179D01*
X74400Y93122D01*
X74439Y93052D01*
X74477Y92982D01*
X74509Y92905D01*
X74547Y92823D01*
X74572Y92733D01*
X74598Y92638D01*
X74617Y92536D01*
X74623Y92428D01*
X73757Y92396D01*
Y92402D01*
Y92409D01*
X73744Y92447D01*
X73731Y92504D01*
X73706Y92574D01*
X73674Y92657D01*
X73629Y92733D01*
X73579Y92804D01*
X73515Y92867D01*
X73509Y92874D01*
X73483Y92893D01*
X73438Y92912D01*
X73381Y92944D01*
X73305Y92969D01*
X73209Y92988D01*
X73094Y93007D01*
X72967Y93014D01*
X72903D01*
X72840Y93007D01*
X72750Y92995D01*
X72661Y92975D01*
X72559Y92944D01*
X72464Y92905D01*
X72381Y92854D01*
X72375Y92848D01*
X72362Y92835D01*
X72336Y92816D01*
X72317Y92784D01*
X72292Y92746D01*
X72266Y92702D01*
X72254Y92651D01*
X72247Y92587D01*
Y92581D01*
Y92562D01*
X72254Y92536D01*
X72266Y92498D01*
X72279Y92459D01*
X72298Y92415D01*
X72330Y92377D01*
X72375Y92332D01*
X72381Y92326D01*
X72406Y92307D01*
X72432Y92294D01*
X72457Y92281D01*
X72489Y92262D01*
X72534Y92243D01*
X72578Y92224D01*
X72636Y92198D01*
X72699Y92173D01*
X72776Y92147D01*
X72859Y92122D01*
X72948Y92096D01*
X73050Y92071D01*
X73164Y92039D01*
X73171D01*
X73190Y92033D01*
X73222Y92026D01*
X73266Y92014D01*
X73317Y92001D01*
X73381Y91982D01*
X73515Y91944D01*
X73668Y91899D01*
X73821Y91848D01*
X73967Y91791D01*
X74037Y91765D01*
X74094Y91733D01*
X74101D01*
X74107Y91727D01*
X74146Y91702D01*
X74203Y91670D01*
X74266Y91619D01*
X74343Y91555D01*
X74426Y91479D01*
X74502Y91396D01*
X74572Y91294D01*
X74579Y91281D01*
X74598Y91243D01*
X74630Y91185D01*
X74661Y91109D01*
X74687Y91007D01*
X74719Y90892D01*
X74738Y90759D01*
X74744Y90612D01*
Y90606D01*
Y90593D01*
Y90574D01*
Y90548D01*
X74731Y90478D01*
X74719Y90389D01*
X74693Y90281D01*
X74655Y90166D01*
X74604Y90039D01*
X74534Y89918D01*
Y89912D01*
X74528Y89905D01*
X74496Y89867D01*
X74451Y89810D01*
X74388Y89740D01*
X74305Y89663D01*
X74203Y89580D01*
X74088Y89504D01*
X73954Y89440D01*
X73948D01*
X73935Y89434D01*
X73916Y89427D01*
X73891Y89415D01*
X73852Y89402D01*
X73808Y89389D01*
X73757Y89376D01*
X73699Y89364D01*
X73636Y89351D01*
X73566Y89338D01*
X73406Y89313D01*
X73228Y89294D01*
X73024Y89287D01*
X72948D01*
X72891Y89294D01*
X72821Y89300D01*
X72744Y89306D01*
X72661Y89319D01*
X72566Y89332D01*
X72362Y89376D01*
X72260Y89408D01*
X72158Y89447D01*
X72056Y89491D01*
X71954Y89542D01*
X71865Y89599D01*
X71776Y89663D01*
X71769Y89670D01*
X71757Y89682D01*
X71738Y89701D01*
X71706Y89733D01*
X71674Y89771D01*
X71636Y89822D01*
X71591Y89873D01*
X71547Y89943D01*
X71502Y90013D01*
X71457Y90096D01*
X71419Y90185D01*
X71374Y90281D01*
X71336Y90389D01*
X71304Y90504D01*
X71279Y90625D01*
X71260Y90759D01*
X72101Y90842D01*
Y90835D01*
X72107Y90822D01*
Y90803D01*
X72113Y90772D01*
X72132Y90695D01*
X72164Y90606D01*
X72203Y90504D01*
X72260Y90396D01*
X72324Y90300D01*
X72400Y90217D01*
X72413Y90211D01*
X72445Y90185D01*
X72496Y90154D01*
X72566Y90122D01*
X72655Y90083D01*
X72763Y90052D01*
X72891Y90026D01*
X73031Y90020D01*
X73101D01*
X73177Y90026D01*
X73266Y90039D01*
X73368Y90064D01*
X73477Y90090D01*
X73572Y90135D01*
X73661Y90192D01*
X73668Y90198D01*
X73693Y90224D01*
X73731Y90262D01*
X73770Y90313D01*
X73808Y90370D01*
X73846Y90440D01*
X73871Y90523D01*
X73878Y90606D01*
Y90612D01*
Y90631D01*
X73871Y90663D01*
X73865Y90695D01*
X73840Y90778D01*
X73821Y90822D01*
X73789Y90867D01*
X73782Y90873D01*
X73770Y90886D01*
X73751Y90905D01*
X73719Y90931D01*
X73674Y90963D01*
X73617Y90988D01*
X73553Y91020D01*
X73477Y91052D01*
X73470D01*
X73445Y91065D01*
X73400Y91077D01*
X73330Y91096D01*
X73292Y91109D01*
X73241Y91122D01*
X73184Y91135D01*
X73120Y91154D01*
X73050Y91173D01*
X72967Y91192D01*
X72878Y91217D01*
X72782Y91243D01*
X72776D01*
X72750Y91249D01*
X72719Y91262D01*
X72668Y91275D01*
X72610Y91287D01*
X72547Y91313D01*
X72477Y91332D01*
X72400Y91357D01*
X72241Y91421D01*
X72082Y91491D01*
X71999Y91530D01*
X71929Y91574D01*
X71865Y91619D01*
X71808Y91663D01*
X71801Y91670D01*
X71789Y91682D01*
X71769Y91702D01*
X71750Y91727D01*
X71719Y91759D01*
X71687Y91803D01*
X71648Y91854D01*
X71617Y91905D01*
X71540Y92033D01*
X71483Y92179D01*
X71457Y92262D01*
X71438Y92345D01*
X71425Y92434D01*
X71419Y92530D01*
Y92536D01*
Y92542D01*
Y92562D01*
Y92587D01*
X71432Y92651D01*
X71445Y92727D01*
X71464Y92823D01*
X71495Y92924D01*
X71540Y93033D01*
X71604Y93141D01*
Y93147D01*
X71610Y93154D01*
X71636Y93186D01*
X71680Y93237D01*
X71738Y93300D01*
X71814Y93370D01*
X71903Y93447D01*
X72012Y93517D01*
X72132Y93574D01*
X72139D01*
X72152Y93581D01*
X72171Y93587D01*
X72196Y93600D01*
X72228Y93612D01*
X72273Y93625D01*
X72317Y93638D01*
X72368Y93651D01*
X72496Y93676D01*
X72636Y93702D01*
X72801Y93721D01*
X72980Y93727D01*
X73056D01*
X73114Y93721D01*
D02*
G37*
G36*
X68015Y103563D02*
X68079Y103557D01*
X68155Y103544D01*
X68245Y103532D01*
X68340Y103512D01*
X68436Y103487D01*
X68544Y103455D01*
X68646Y103417D01*
X68754Y103372D01*
X68863Y103315D01*
X68964Y103251D01*
X69066Y103181D01*
X69162Y103098D01*
X69168D01*
X69175Y103086D01*
X69213Y103047D01*
X69264Y102984D01*
X69328Y102901D01*
X69398Y102786D01*
X69474Y102652D01*
X69538Y102493D01*
X69602Y102315D01*
X68748Y102111D01*
Y102117D01*
X68742Y102124D01*
Y102143D01*
X68735Y102168D01*
X68710Y102226D01*
X68678Y102302D01*
X68640Y102385D01*
X68582Y102474D01*
X68512Y102557D01*
X68429Y102633D01*
X68417Y102640D01*
X68385Y102665D01*
X68334Y102697D01*
X68264Y102735D01*
X68181Y102767D01*
X68079Y102799D01*
X67964Y102824D01*
X67843Y102831D01*
X67799D01*
X67767Y102824D01*
X67722Y102818D01*
X67678Y102812D01*
X67570Y102786D01*
X67442Y102748D01*
X67315Y102684D01*
X67251Y102646D01*
X67187Y102601D01*
X67124Y102550D01*
X67066Y102487D01*
Y102480D01*
X67054Y102468D01*
X67041Y102449D01*
X67022Y102423D01*
X66996Y102385D01*
X66971Y102340D01*
X66945Y102283D01*
X66920Y102219D01*
X66894Y102149D01*
X66869Y102066D01*
X66843Y101977D01*
X66818Y101875D01*
X66799Y101767D01*
X66786Y101646D01*
X66780Y101518D01*
X66773Y101378D01*
Y101372D01*
Y101340D01*
Y101302D01*
X66780Y101245D01*
Y101181D01*
X66786Y101104D01*
X66799Y101022D01*
X66812Y100933D01*
X66843Y100741D01*
X66894Y100550D01*
X66926Y100461D01*
X66964Y100372D01*
X67009Y100295D01*
X67060Y100225D01*
X67066Y100219D01*
X67073Y100213D01*
X67092Y100194D01*
X67111Y100174D01*
X67175Y100117D01*
X67264Y100053D01*
X67378Y99990D01*
X67506Y99932D01*
X67659Y99894D01*
X67735Y99888D01*
X67824Y99881D01*
X67856D01*
X67882Y99888D01*
X67945Y99894D01*
X68028Y99907D01*
X68117Y99932D01*
X68219Y99971D01*
X68321Y100028D01*
X68417Y100098D01*
X68429Y100111D01*
X68455Y100143D01*
X68499Y100194D01*
X68557Y100264D01*
X68614Y100366D01*
X68672Y100480D01*
X68729Y100627D01*
X68773Y100792D01*
X69614Y100531D01*
Y100525D01*
X69608Y100499D01*
X69595Y100461D01*
X69576Y100417D01*
X69557Y100359D01*
X69525Y100289D01*
X69493Y100213D01*
X69461Y100136D01*
X69372Y99964D01*
X69258Y99792D01*
X69124Y99627D01*
X69047Y99550D01*
X68964Y99480D01*
X68958Y99474D01*
X68945Y99467D01*
X68920Y99448D01*
X68882Y99429D01*
X68844Y99404D01*
X68786Y99372D01*
X68729Y99340D01*
X68659Y99314D01*
X68576Y99283D01*
X68493Y99251D01*
X68398Y99219D01*
X68296Y99194D01*
X68194Y99174D01*
X68079Y99155D01*
X67958Y99149D01*
X67831Y99142D01*
X67792D01*
X67748Y99149D01*
X67690D01*
X67614Y99162D01*
X67531Y99174D01*
X67436Y99194D01*
X67334Y99213D01*
X67225Y99244D01*
X67111Y99283D01*
X66996Y99334D01*
X66882Y99385D01*
X66760Y99455D01*
X66646Y99531D01*
X66538Y99620D01*
X66429Y99722D01*
X66423Y99729D01*
X66404Y99748D01*
X66378Y99779D01*
X66347Y99831D01*
X66302Y99888D01*
X66257Y99958D01*
X66206Y100041D01*
X66155Y100136D01*
X66104Y100244D01*
X66053Y100366D01*
X66009Y100499D01*
X65964Y100639D01*
X65932Y100792D01*
X65907Y100958D01*
X65888Y101130D01*
X65881Y101315D01*
Y101327D01*
Y101359D01*
X65888Y101417D01*
Y101493D01*
X65901Y101582D01*
X65913Y101684D01*
X65926Y101799D01*
X65952Y101926D01*
X65977Y102054D01*
X66015Y102194D01*
X66060Y102328D01*
X66111Y102468D01*
X66175Y102601D01*
X66251Y102735D01*
X66334Y102863D01*
X66429Y102977D01*
X66436Y102984D01*
X66455Y103003D01*
X66487Y103035D01*
X66531Y103073D01*
X66588Y103117D01*
X66652Y103162D01*
X66729Y103219D01*
X66818Y103277D01*
X66920Y103328D01*
X67028Y103385D01*
X67149Y103429D01*
X67277Y103481D01*
X67417Y103512D01*
X67563Y103544D01*
X67716Y103563D01*
X67882Y103570D01*
X67958D01*
X68015Y103563D01*
D02*
G37*
G36*
X76182Y101824D02*
X77889Y99213D01*
X76768D01*
X75577Y101219D01*
X74882Y100506D01*
Y99213D01*
X74016D01*
Y103500D01*
X74882D01*
Y101595D01*
X76640Y103500D01*
X77806D01*
X76182Y101824D01*
D02*
G37*
G36*
X76318Y89370D02*
X75451D01*
Y93657D01*
X76318D01*
Y89370D01*
D02*
G37*
G36*
X74943Y83878D02*
X75013D01*
X75089Y83865D01*
X75185Y83853D01*
X75287Y83834D01*
X75401Y83815D01*
X75516Y83783D01*
X75637Y83745D01*
X75764Y83693D01*
X75892Y83636D01*
X76013Y83573D01*
X76140Y83490D01*
X76255Y83400D01*
X76363Y83299D01*
X76370Y83292D01*
X76389Y83273D01*
X76414Y83241D01*
X76452Y83190D01*
X76490Y83133D01*
X76542Y83063D01*
X76592Y82974D01*
X76643Y82878D01*
X76694Y82770D01*
X76745Y82649D01*
X76796Y82515D01*
X76834Y82369D01*
X76873Y82209D01*
X76898Y82044D01*
X76917Y81865D01*
X76924Y81674D01*
Y81668D01*
Y81649D01*
Y81623D01*
Y81579D01*
X76917Y81534D01*
Y81477D01*
X76911Y81413D01*
X76904Y81343D01*
X76885Y81190D01*
X76854Y81031D01*
X76815Y80865D01*
X76764Y80700D01*
Y80693D01*
X76758Y80687D01*
X76752Y80668D01*
X76745Y80642D01*
X76714Y80579D01*
X76675Y80502D01*
X76624Y80407D01*
X76561Y80298D01*
X76478Y80190D01*
X76389Y80075D01*
X76395D01*
X76401Y80063D01*
X76420Y80056D01*
X76446Y80037D01*
X76510Y79999D01*
X76592Y79948D01*
X76701Y79891D01*
X76815Y79833D01*
X76943Y79770D01*
X77083Y79719D01*
X76764Y79101D01*
X76758D01*
X76733Y79114D01*
X76694Y79126D01*
X76643Y79145D01*
X76586Y79171D01*
X76522Y79196D01*
X76382Y79266D01*
X76370Y79273D01*
X76338Y79292D01*
X76293Y79317D01*
X76261Y79343D01*
X76223Y79368D01*
X76178Y79394D01*
X76121Y79432D01*
X76057Y79470D01*
X75987Y79521D01*
X75905Y79572D01*
X75809Y79636D01*
X75802D01*
X75790Y79629D01*
X75764Y79617D01*
X75732Y79610D01*
X75694Y79598D01*
X75650Y79579D01*
X75592Y79566D01*
X75535Y79547D01*
X75395Y79515D01*
X75236Y79483D01*
X75057Y79464D01*
X74872Y79457D01*
X74828D01*
X74777Y79464D01*
X74707D01*
X74624Y79477D01*
X74528Y79489D01*
X74427Y79509D01*
X74312Y79528D01*
X74185Y79559D01*
X74063Y79598D01*
X73930Y79649D01*
X73802Y79699D01*
X73675Y79770D01*
X73554Y79846D01*
X73433Y79935D01*
X73325Y80037D01*
X73318Y80044D01*
X73299Y80063D01*
X73274Y80101D01*
X73235Y80146D01*
X73197Y80203D01*
X73153Y80279D01*
X73102Y80362D01*
X73051Y80458D01*
X72993Y80566D01*
X72949Y80693D01*
X72898Y80827D01*
X72860Y80967D01*
X72821Y81126D01*
X72796Y81298D01*
X72777Y81477D01*
X72770Y81668D01*
Y81681D01*
Y81713D01*
X72777Y81770D01*
Y81840D01*
X72790Y81929D01*
X72802Y82031D01*
X72815Y82146D01*
X72840Y82267D01*
X72872Y82394D01*
X72911Y82528D01*
X72955Y82662D01*
X73006Y82802D01*
X73070Y82936D01*
X73146Y83063D01*
X73235Y83184D01*
X73331Y83299D01*
X73337Y83305D01*
X73356Y83324D01*
X73388Y83356D01*
X73433Y83388D01*
X73490Y83432D01*
X73560Y83483D01*
X73637Y83534D01*
X73732Y83592D01*
X73834Y83649D01*
X73949Y83700D01*
X74076Y83751D01*
X74210Y83795D01*
X74357Y83834D01*
X74509Y83859D01*
X74675Y83878D01*
X74853Y83885D01*
X74898D01*
X74943Y83878D01*
D02*
G37*
G36*
X75000Y73642D02*
X75064Y73636D01*
X75140Y73629D01*
X75229Y73617D01*
X75319Y73604D01*
X75516Y73559D01*
X75713Y73496D01*
X75815Y73457D01*
X75905Y73413D01*
X75994Y73355D01*
X76077Y73292D01*
X76083Y73285D01*
X76096Y73273D01*
X76115Y73254D01*
X76140Y73228D01*
X76172Y73190D01*
X76204Y73145D01*
X76242Y73101D01*
X76287Y73043D01*
X76325Y72973D01*
X76363Y72903D01*
X76395Y72827D01*
X76433Y72744D01*
X76459Y72655D01*
X76484Y72559D01*
X76503Y72457D01*
X76510Y72349D01*
X75643Y72317D01*
Y72324D01*
Y72330D01*
X75631Y72368D01*
X75618Y72425D01*
X75592Y72496D01*
X75561Y72578D01*
X75516Y72655D01*
X75465Y72725D01*
X75401Y72789D01*
X75395Y72795D01*
X75370Y72814D01*
X75325Y72833D01*
X75268Y72865D01*
X75191Y72890D01*
X75096Y72909D01*
X74981Y72929D01*
X74854Y72935D01*
X74790D01*
X74726Y72929D01*
X74637Y72916D01*
X74548Y72897D01*
X74446Y72865D01*
X74350Y72827D01*
X74268Y72776D01*
X74261Y72769D01*
X74248Y72757D01*
X74223Y72737D01*
X74204Y72706D01*
X74178Y72667D01*
X74153Y72623D01*
X74140Y72572D01*
X74134Y72508D01*
Y72502D01*
Y72483D01*
X74140Y72457D01*
X74153Y72419D01*
X74166Y72381D01*
X74185Y72336D01*
X74217Y72298D01*
X74261Y72253D01*
X74268Y72247D01*
X74293Y72228D01*
X74318Y72215D01*
X74344Y72202D01*
X74376Y72183D01*
X74420Y72164D01*
X74465Y72145D01*
X74522Y72120D01*
X74586Y72094D01*
X74663Y72069D01*
X74745Y72043D01*
X74835Y72018D01*
X74936Y71992D01*
X75051Y71960D01*
X75057D01*
X75077Y71954D01*
X75108Y71948D01*
X75153Y71935D01*
X75204Y71922D01*
X75268Y71903D01*
X75401Y71865D01*
X75554Y71820D01*
X75707Y71769D01*
X75854Y71712D01*
X75924Y71687D01*
X75981Y71655D01*
X75987D01*
X75994Y71648D01*
X76032Y71623D01*
X76089Y71591D01*
X76153Y71540D01*
X76230Y71476D01*
X76312Y71400D01*
X76389Y71317D01*
X76459Y71215D01*
X76465Y71202D01*
X76484Y71164D01*
X76516Y71107D01*
X76548Y71030D01*
X76573Y70928D01*
X76605Y70814D01*
X76625Y70680D01*
X76631Y70534D01*
Y70527D01*
Y70514D01*
Y70495D01*
Y70470D01*
X76618Y70400D01*
X76605Y70310D01*
X76580Y70202D01*
X76542Y70088D01*
X76491Y69960D01*
X76421Y69839D01*
Y69833D01*
X76414Y69826D01*
X76382Y69788D01*
X76338Y69731D01*
X76274Y69661D01*
X76191Y69584D01*
X76089Y69502D01*
X75975Y69425D01*
X75841Y69361D01*
X75835D01*
X75822Y69355D01*
X75803Y69349D01*
X75777Y69336D01*
X75739Y69323D01*
X75694Y69310D01*
X75643Y69298D01*
X75586Y69285D01*
X75522Y69272D01*
X75452Y69260D01*
X75293Y69234D01*
X75115Y69215D01*
X74911Y69209D01*
X74835D01*
X74777Y69215D01*
X74707Y69221D01*
X74631Y69228D01*
X74548Y69240D01*
X74452Y69253D01*
X74248Y69298D01*
X74146Y69330D01*
X74045Y69368D01*
X73943Y69412D01*
X73841Y69463D01*
X73752Y69521D01*
X73662Y69584D01*
X73656Y69591D01*
X73643Y69604D01*
X73624Y69623D01*
X73592Y69654D01*
X73561Y69693D01*
X73522Y69744D01*
X73478Y69795D01*
X73433Y69865D01*
X73388Y69935D01*
X73344Y70017D01*
X73306Y70107D01*
X73261Y70202D01*
X73223Y70310D01*
X73191Y70425D01*
X73166Y70546D01*
X73146Y70680D01*
X73987Y70763D01*
Y70756D01*
X73994Y70744D01*
Y70725D01*
X74000Y70693D01*
X74019Y70616D01*
X74051Y70527D01*
X74089Y70425D01*
X74146Y70317D01*
X74210Y70221D01*
X74287Y70139D01*
X74299Y70132D01*
X74331Y70107D01*
X74382Y70075D01*
X74452Y70043D01*
X74541Y70005D01*
X74650Y69973D01*
X74777Y69947D01*
X74917Y69941D01*
X74987D01*
X75064Y69947D01*
X75153Y69960D01*
X75255Y69986D01*
X75363Y70011D01*
X75459Y70056D01*
X75548Y70113D01*
X75554Y70119D01*
X75580Y70145D01*
X75618Y70183D01*
X75656Y70234D01*
X75694Y70291D01*
X75733Y70362D01*
X75758Y70444D01*
X75765Y70527D01*
Y70534D01*
Y70553D01*
X75758Y70584D01*
X75752Y70616D01*
X75726Y70699D01*
X75707Y70744D01*
X75675Y70788D01*
X75669Y70795D01*
X75656Y70807D01*
X75637Y70827D01*
X75605Y70852D01*
X75561Y70884D01*
X75503Y70909D01*
X75440Y70941D01*
X75363Y70973D01*
X75357D01*
X75331Y70986D01*
X75287Y70999D01*
X75217Y71018D01*
X75178Y71030D01*
X75128Y71043D01*
X75070Y71056D01*
X75007Y71075D01*
X74936Y71094D01*
X74854Y71113D01*
X74764Y71139D01*
X74669Y71164D01*
X74663D01*
X74637Y71171D01*
X74605Y71183D01*
X74554Y71196D01*
X74497Y71209D01*
X74433Y71234D01*
X74363Y71253D01*
X74287Y71279D01*
X74127Y71342D01*
X73968Y71412D01*
X73885Y71451D01*
X73815Y71495D01*
X73752Y71540D01*
X73694Y71584D01*
X73688Y71591D01*
X73675Y71604D01*
X73656Y71623D01*
X73637Y71648D01*
X73605Y71680D01*
X73573Y71725D01*
X73535Y71776D01*
X73503Y71827D01*
X73427Y71954D01*
X73369Y72101D01*
X73344Y72183D01*
X73325Y72266D01*
X73312Y72355D01*
X73306Y72451D01*
Y72457D01*
Y72464D01*
Y72483D01*
Y72508D01*
X73318Y72572D01*
X73331Y72648D01*
X73350Y72744D01*
X73382Y72846D01*
X73427Y72954D01*
X73490Y73062D01*
Y73069D01*
X73497Y73075D01*
X73522Y73107D01*
X73567Y73158D01*
X73624Y73222D01*
X73701Y73292D01*
X73790Y73368D01*
X73898Y73438D01*
X74019Y73496D01*
X74025D01*
X74038Y73502D01*
X74057Y73508D01*
X74083Y73521D01*
X74115Y73534D01*
X74159Y73546D01*
X74204Y73559D01*
X74255Y73572D01*
X74382Y73598D01*
X74522Y73623D01*
X74688Y73642D01*
X74866Y73648D01*
X74943D01*
X75000Y73642D01*
D02*
G37*
G36*
X70611Y83808D02*
X70675D01*
X70745Y83802D01*
X70821D01*
X70987Y83783D01*
X71152Y83764D01*
X71305Y83732D01*
X71375Y83713D01*
X71439Y83693D01*
X71446D01*
X71452Y83687D01*
X71490Y83674D01*
X71547Y83643D01*
X71617Y83598D01*
X71700Y83541D01*
X71783Y83471D01*
X71860Y83388D01*
X71936Y83286D01*
X71942Y83273D01*
X71968Y83235D01*
X72000Y83171D01*
X72031Y83095D01*
X72070Y82993D01*
X72095Y82878D01*
X72121Y82751D01*
X72127Y82611D01*
Y82604D01*
Y82591D01*
Y82566D01*
X72121Y82528D01*
Y82490D01*
X72114Y82439D01*
X72089Y82330D01*
X72057Y82203D01*
X72006Y82069D01*
X71936Y81935D01*
X71891Y81872D01*
X71840Y81808D01*
Y81802D01*
X71828Y81795D01*
X71809Y81776D01*
X71789Y81757D01*
X71758Y81732D01*
X71719Y81706D01*
X71681Y81674D01*
X71630Y81642D01*
X71573Y81611D01*
X71509Y81579D01*
X71446Y81541D01*
X71369Y81515D01*
X71286Y81483D01*
X71197Y81458D01*
X71101Y81439D01*
X71000Y81419D01*
X71006D01*
X71012Y81413D01*
X71044Y81388D01*
X71095Y81356D01*
X71165Y81311D01*
X71235Y81260D01*
X71312Y81196D01*
X71388Y81126D01*
X71458Y81056D01*
X71465Y81050D01*
X71490Y81018D01*
X71535Y80967D01*
X71592Y80897D01*
X71662Y80802D01*
X71700Y80744D01*
X71745Y80681D01*
X71789Y80611D01*
X71840Y80534D01*
X71891Y80451D01*
X71949Y80362D01*
X72477Y79528D01*
X71439D01*
X70815Y80458D01*
X70809Y80464D01*
X70802Y80477D01*
X70783Y80502D01*
X70764Y80540D01*
X70732Y80579D01*
X70706Y80623D01*
X70636Y80725D01*
X70560Y80833D01*
X70484Y80935D01*
X70414Y81024D01*
X70382Y81063D01*
X70356Y81088D01*
X70350Y81095D01*
X70337Y81107D01*
X70312Y81133D01*
X70280Y81158D01*
X70241Y81190D01*
X70197Y81216D01*
X70146Y81248D01*
X70095Y81267D01*
X70089D01*
X70069Y81273D01*
X70038Y81286D01*
X69993Y81292D01*
X69929Y81305D01*
X69853Y81311D01*
X69764Y81318D01*
X69490D01*
Y79528D01*
X68624D01*
Y83815D01*
X70554D01*
X70611Y83808D01*
D02*
G37*
G36*
X67795Y79528D02*
X66929D01*
Y83815D01*
X67795D01*
Y79528D01*
D02*
G37*
G36*
X-42551Y40157D02*
X-43630D01*
X-42790Y44179D01*
X-41710D01*
X-42551Y40157D01*
D02*
G37*
G36*
X-47000Y41080D02*
X-44174D01*
X-44363Y40157D01*
X-48327D01*
X-47173Y45703D01*
X-46036D01*
X-47000Y41080D01*
D02*
G37*
G36*
X-23631Y40157D02*
X-24711D01*
X-23870Y44179D01*
X-22791D01*
X-23631Y40157D01*
D02*
G37*
G36*
X-34912Y43725D02*
X-34904D01*
X-34896Y43742D01*
X-34846Y43775D01*
X-34780Y43824D01*
X-34690Y43890D01*
X-34582Y43956D01*
X-34467Y44022D01*
X-34343Y44088D01*
X-34220Y44146D01*
X-34203Y44154D01*
X-34162Y44170D01*
X-34096Y44187D01*
X-34014Y44212D01*
X-33915Y44236D01*
X-33791Y44261D01*
X-33668Y44269D01*
X-33536Y44278D01*
X-33487D01*
X-33454Y44269D01*
X-33363Y44261D01*
X-33256Y44245D01*
X-33124Y44203D01*
X-33000Y44154D01*
X-32868Y44088D01*
X-32753Y43989D01*
X-32737Y43973D01*
X-32704Y43940D01*
X-32662Y43874D01*
X-32605Y43791D01*
X-32555Y43684D01*
X-32506Y43561D01*
X-32473Y43412D01*
X-32465Y43248D01*
Y43239D01*
Y43206D01*
X-32473Y43149D01*
X-32481Y43066D01*
X-32498Y42959D01*
X-32514Y42827D01*
X-32547Y42679D01*
X-32580Y42498D01*
X-33091Y40157D01*
X-34170D01*
X-33660Y42547D01*
Y42555D01*
Y42564D01*
X-33643Y42613D01*
X-33635Y42679D01*
X-33618Y42753D01*
X-33602Y42844D01*
X-33585Y42926D01*
X-33577Y42992D01*
X-33569Y43050D01*
Y43058D01*
Y43083D01*
X-33577Y43116D01*
X-33585Y43165D01*
X-33602Y43214D01*
X-33627Y43272D01*
X-33660Y43322D01*
X-33701Y43371D01*
X-33709Y43379D01*
X-33726Y43396D01*
X-33750Y43412D01*
X-33791Y43437D01*
X-33841Y43462D01*
X-33898Y43486D01*
X-33964Y43495D01*
X-34039Y43503D01*
X-34088D01*
X-34137Y43495D01*
X-34212Y43478D01*
X-34294Y43453D01*
X-34385Y43420D01*
X-34475Y43371D01*
X-34574Y43305D01*
X-34591Y43297D01*
X-34632Y43264D01*
X-34690Y43206D01*
X-34764Y43140D01*
X-34838Y43050D01*
X-34929Y42943D01*
X-35003Y42827D01*
X-35077Y42695D01*
Y42687D01*
X-35093Y42654D01*
X-35110Y42588D01*
X-35126Y42547D01*
X-35143Y42498D01*
X-35159Y42440D01*
X-35176Y42374D01*
X-35201Y42300D01*
X-35217Y42209D01*
X-35242Y42110D01*
X-35266Y42003D01*
X-35299Y41880D01*
X-35324Y41748D01*
X-35662Y40157D01*
X-36741D01*
X-35588Y45703D01*
X-34500D01*
X-34912Y43725D01*
D02*
G37*
G36*
X10153Y44269D02*
X10227Y44261D01*
X10309Y44253D01*
X10408Y44236D01*
X10507Y44220D01*
X10729Y44154D01*
X10845Y44121D01*
X10960Y44071D01*
X11075Y44014D01*
X11182Y43948D01*
X11290Y43874D01*
X11389Y43783D01*
X11397Y43775D01*
X11413Y43758D01*
X11438Y43734D01*
X11471Y43692D01*
X11504Y43643D01*
X11545Y43585D01*
X11594Y43511D01*
X11644Y43429D01*
X11685Y43338D01*
X11735Y43239D01*
X11776Y43132D01*
X11817Y43017D01*
X11842Y42885D01*
X11866Y42753D01*
X11883Y42605D01*
X11891Y42456D01*
Y42448D01*
Y42415D01*
Y42366D01*
X11883Y42292D01*
X11875Y42209D01*
X11858Y42110D01*
X11842Y42003D01*
X11817Y41880D01*
X11784Y41756D01*
X11735Y41616D01*
X11685Y41476D01*
X11627Y41336D01*
X11553Y41188D01*
X11471Y41047D01*
X11372Y40907D01*
X11265Y40767D01*
X11257Y40759D01*
X11240Y40734D01*
X11199Y40701D01*
X11150Y40660D01*
X11092Y40602D01*
X11010Y40545D01*
X10919Y40479D01*
X10820Y40413D01*
X10705Y40347D01*
X10581Y40281D01*
X10441Y40223D01*
X10293Y40166D01*
X10136Y40124D01*
X9963Y40092D01*
X9782Y40067D01*
X9592Y40059D01*
X9493D01*
X9444Y40067D01*
X9386D01*
X9254Y40083D01*
X9098Y40116D01*
X8925Y40149D01*
X8752Y40207D01*
X8587Y40281D01*
X8579D01*
X8570Y40289D01*
X8546Y40306D01*
X8513Y40322D01*
X8439Y40380D01*
X8340Y40446D01*
X8233Y40536D01*
X8125Y40652D01*
X8027Y40775D01*
X7936Y40924D01*
Y40932D01*
X7928Y40940D01*
X7920Y40965D01*
X7903Y40998D01*
X7870Y41080D01*
X7829Y41196D01*
X7788Y41328D01*
X7755Y41484D01*
X7730Y41649D01*
X7722Y41822D01*
Y41838D01*
Y41871D01*
X7730Y41929D01*
Y42011D01*
X7738Y42102D01*
X7755Y42209D01*
X7771Y42333D01*
X7804Y42465D01*
X7837Y42605D01*
X7878Y42753D01*
X7928Y42901D01*
X7985Y43050D01*
X8060Y43198D01*
X8142Y43338D01*
X8241Y43478D01*
X8348Y43610D01*
X8356Y43618D01*
X8381Y43643D01*
X8414Y43676D01*
X8463Y43717D01*
X8521Y43767D01*
X8603Y43824D01*
X8686Y43882D01*
X8793Y43948D01*
X8900Y44006D01*
X9032Y44063D01*
X9164Y44121D01*
X9312Y44170D01*
X9469Y44220D01*
X9642Y44253D01*
X9815Y44269D01*
X10004Y44278D01*
X10087D01*
X10153Y44269D01*
D02*
G37*
G36*
X-15606D02*
X-15507Y44253D01*
X-15392Y44228D01*
X-15276Y44187D01*
X-15144Y44137D01*
X-15021Y44063D01*
X-15004Y44055D01*
X-14963Y44022D01*
X-14905Y43973D01*
X-14831Y43907D01*
X-14749Y43824D01*
X-14666Y43717D01*
X-14576Y43602D01*
X-14502Y43462D01*
X-14362Y44179D01*
X-13348D01*
X-13983Y40817D01*
Y40808D01*
X-13991Y40784D01*
X-13999Y40742D01*
X-14007Y40685D01*
X-14024Y40619D01*
X-14040Y40545D01*
X-14081Y40372D01*
X-14131Y40190D01*
X-14180Y40001D01*
X-14230Y39828D01*
X-14254Y39746D01*
X-14279Y39680D01*
X-14287Y39663D01*
X-14296Y39622D01*
X-14320Y39556D01*
X-14353Y39482D01*
X-14394Y39391D01*
X-14444Y39301D01*
X-14493Y39218D01*
X-14551Y39136D01*
X-14559Y39127D01*
X-14576Y39103D01*
X-14609Y39062D01*
X-14658Y39012D01*
X-14708Y38963D01*
X-14773Y38905D01*
X-14856Y38847D01*
X-14938Y38790D01*
X-14946Y38781D01*
X-14979Y38765D01*
X-15029Y38740D01*
X-15095Y38715D01*
X-15177Y38682D01*
X-15268Y38650D01*
X-15375Y38617D01*
X-15490Y38592D01*
X-15507D01*
X-15548Y38584D01*
X-15614Y38575D01*
X-15696Y38559D01*
X-15803Y38551D01*
X-15919Y38534D01*
X-16042Y38526D01*
X-16265D01*
X-16323Y38534D01*
X-16397D01*
X-16479Y38542D01*
X-16570Y38551D01*
X-16669Y38567D01*
X-16875Y38600D01*
X-17089Y38650D01*
X-17295Y38724D01*
X-17386Y38773D01*
X-17476Y38823D01*
X-17484D01*
X-17493Y38839D01*
X-17542Y38880D01*
X-17616Y38946D01*
X-17691Y39053D01*
X-17773Y39185D01*
X-17814Y39268D01*
X-17847Y39350D01*
X-17872Y39449D01*
X-17896Y39548D01*
X-17905Y39663D01*
X-17913Y39787D01*
Y39803D01*
Y39836D01*
Y39886D01*
X-17905Y39943D01*
X-16751Y39778D01*
Y39770D01*
Y39754D01*
Y39721D01*
X-16743Y39680D01*
X-16726Y39597D01*
X-16718Y39556D01*
X-16702Y39523D01*
X-16693Y39507D01*
X-16652Y39474D01*
X-16594Y39416D01*
X-16512Y39366D01*
X-16504D01*
X-16487Y39358D01*
X-16463Y39350D01*
X-16421Y39334D01*
X-16372Y39325D01*
X-16306Y39309D01*
X-16240Y39301D01*
X-16108D01*
X-16042Y39309D01*
X-15960Y39317D01*
X-15861Y39334D01*
X-15762Y39358D01*
X-15672Y39391D01*
X-15581Y39441D01*
X-15573Y39449D01*
X-15556Y39465D01*
X-15523Y39490D01*
X-15482Y39523D01*
X-15441Y39572D01*
X-15400Y39630D01*
X-15359Y39696D01*
X-15317Y39778D01*
Y39787D01*
X-15309Y39811D01*
X-15293Y39853D01*
X-15268Y39919D01*
X-15251Y40001D01*
X-15218Y40116D01*
X-15186Y40248D01*
X-15153Y40421D01*
X-15111Y40602D01*
X-15120Y40594D01*
X-15136Y40586D01*
X-15169Y40561D01*
X-15210Y40528D01*
X-15268Y40495D01*
X-15326Y40454D01*
X-15400Y40413D01*
X-15482Y40372D01*
X-15663Y40289D01*
X-15869Y40215D01*
X-16100Y40157D01*
X-16216Y40149D01*
X-16331Y40141D01*
X-16388D01*
X-16430Y40149D01*
X-16479Y40157D01*
X-16537Y40166D01*
X-16677Y40190D01*
X-16825Y40240D01*
X-16990Y40314D01*
X-17073Y40363D01*
X-17155Y40421D01*
X-17229Y40479D01*
X-17303Y40553D01*
Y40561D01*
X-17320Y40569D01*
X-17336Y40594D01*
X-17361Y40635D01*
X-17386Y40677D01*
X-17418Y40726D01*
X-17451Y40792D01*
X-17484Y40866D01*
X-17526Y40949D01*
X-17559Y41039D01*
X-17592Y41138D01*
X-17616Y41245D01*
X-17641Y41361D01*
X-17658Y41492D01*
X-17666Y41624D01*
X-17674Y41772D01*
Y41781D01*
Y41805D01*
Y41838D01*
X-17666Y41896D01*
Y41954D01*
X-17658Y42028D01*
X-17649Y42110D01*
X-17641Y42201D01*
X-17608Y42399D01*
X-17567Y42621D01*
X-17501Y42852D01*
X-17418Y43074D01*
Y43083D01*
X-17410Y43099D01*
X-17394Y43132D01*
X-17369Y43173D01*
X-17344Y43223D01*
X-17311Y43280D01*
X-17229Y43412D01*
X-17130Y43552D01*
X-17007Y43701D01*
X-16867Y43849D01*
X-16702Y43973D01*
X-16693D01*
X-16677Y43989D01*
X-16652Y43997D01*
X-16619Y44022D01*
X-16578Y44047D01*
X-16529Y44071D01*
X-16405Y44129D01*
X-16265Y44179D01*
X-16100Y44228D01*
X-15927Y44261D01*
X-15746Y44278D01*
X-15680D01*
X-15606Y44269D01*
D02*
G37*
G36*
X-39255D02*
X-39156Y44253D01*
X-39040Y44228D01*
X-38925Y44187D01*
X-38793Y44137D01*
X-38669Y44063D01*
X-38653Y44055D01*
X-38612Y44022D01*
X-38554Y43973D01*
X-38480Y43907D01*
X-38398Y43824D01*
X-38315Y43717D01*
X-38225Y43602D01*
X-38150Y43462D01*
X-38010Y44179D01*
X-36997D01*
X-37631Y40817D01*
Y40808D01*
X-37639Y40784D01*
X-37648Y40742D01*
X-37656Y40685D01*
X-37672Y40619D01*
X-37689Y40545D01*
X-37730Y40372D01*
X-37780Y40190D01*
X-37829Y40001D01*
X-37878Y39828D01*
X-37903Y39746D01*
X-37928Y39680D01*
X-37936Y39663D01*
X-37944Y39622D01*
X-37969Y39556D01*
X-38002Y39482D01*
X-38043Y39391D01*
X-38093Y39301D01*
X-38142Y39218D01*
X-38200Y39136D01*
X-38208Y39127D01*
X-38225Y39103D01*
X-38258Y39062D01*
X-38307Y39012D01*
X-38356Y38963D01*
X-38422Y38905D01*
X-38505Y38847D01*
X-38587Y38790D01*
X-38595Y38781D01*
X-38628Y38765D01*
X-38678Y38740D01*
X-38744Y38715D01*
X-38826Y38682D01*
X-38917Y38650D01*
X-39024Y38617D01*
X-39139Y38592D01*
X-39156D01*
X-39197Y38584D01*
X-39263Y38575D01*
X-39345Y38559D01*
X-39452Y38551D01*
X-39568Y38534D01*
X-39691Y38526D01*
X-39914D01*
X-39971Y38534D01*
X-40046D01*
X-40128Y38542D01*
X-40219Y38551D01*
X-40317Y38567D01*
X-40523Y38600D01*
X-40738Y38650D01*
X-40944Y38724D01*
X-41034Y38773D01*
X-41125Y38823D01*
X-41133D01*
X-41142Y38839D01*
X-41191Y38880D01*
X-41265Y38946D01*
X-41339Y39053D01*
X-41422Y39185D01*
X-41463Y39268D01*
X-41496Y39350D01*
X-41521Y39449D01*
X-41545Y39548D01*
X-41554Y39663D01*
X-41562Y39787D01*
Y39803D01*
Y39836D01*
Y39886D01*
X-41554Y39943D01*
X-40400Y39778D01*
Y39770D01*
Y39754D01*
Y39721D01*
X-40392Y39680D01*
X-40375Y39597D01*
X-40367Y39556D01*
X-40350Y39523D01*
X-40342Y39507D01*
X-40301Y39474D01*
X-40243Y39416D01*
X-40161Y39366D01*
X-40153D01*
X-40136Y39358D01*
X-40112Y39350D01*
X-40070Y39334D01*
X-40021Y39325D01*
X-39955Y39309D01*
X-39889Y39301D01*
X-39757D01*
X-39691Y39309D01*
X-39609Y39317D01*
X-39510Y39334D01*
X-39411Y39358D01*
X-39320Y39391D01*
X-39230Y39441D01*
X-39222Y39449D01*
X-39205Y39465D01*
X-39172Y39490D01*
X-39131Y39523D01*
X-39090Y39572D01*
X-39048Y39630D01*
X-39007Y39696D01*
X-38966Y39778D01*
Y39787D01*
X-38958Y39811D01*
X-38941Y39853D01*
X-38917Y39919D01*
X-38900Y40001D01*
X-38867Y40116D01*
X-38834Y40248D01*
X-38801Y40421D01*
X-38760Y40602D01*
X-38768Y40594D01*
X-38785Y40586D01*
X-38818Y40561D01*
X-38859Y40528D01*
X-38917Y40495D01*
X-38974Y40454D01*
X-39048Y40413D01*
X-39131Y40372D01*
X-39312Y40289D01*
X-39518Y40215D01*
X-39749Y40157D01*
X-39864Y40149D01*
X-39980Y40141D01*
X-40037D01*
X-40078Y40149D01*
X-40128Y40157D01*
X-40186Y40166D01*
X-40326Y40190D01*
X-40474Y40240D01*
X-40639Y40314D01*
X-40721Y40363D01*
X-40804Y40421D01*
X-40878Y40479D01*
X-40952Y40553D01*
Y40561D01*
X-40968Y40569D01*
X-40985Y40594D01*
X-41010Y40635D01*
X-41034Y40677D01*
X-41067Y40726D01*
X-41100Y40792D01*
X-41133Y40866D01*
X-41175Y40949D01*
X-41207Y41039D01*
X-41240Y41138D01*
X-41265Y41245D01*
X-41290Y41361D01*
X-41306Y41492D01*
X-41315Y41624D01*
X-41323Y41772D01*
Y41781D01*
Y41805D01*
Y41838D01*
X-41315Y41896D01*
Y41954D01*
X-41306Y42028D01*
X-41298Y42110D01*
X-41290Y42201D01*
X-41257Y42399D01*
X-41216Y42621D01*
X-41150Y42852D01*
X-41067Y43074D01*
Y43083D01*
X-41059Y43099D01*
X-41043Y43132D01*
X-41018Y43173D01*
X-40993Y43223D01*
X-40960Y43280D01*
X-40878Y43412D01*
X-40779Y43552D01*
X-40655Y43701D01*
X-40515Y43849D01*
X-40350Y43973D01*
X-40342D01*
X-40326Y43989D01*
X-40301Y43997D01*
X-40268Y44022D01*
X-40227Y44047D01*
X-40177Y44071D01*
X-40054Y44129D01*
X-39914Y44179D01*
X-39749Y44228D01*
X-39576Y44261D01*
X-39395Y44278D01*
X-39329D01*
X-39255Y44269D01*
D02*
G37*
G36*
X-3287D02*
X-3221Y44261D01*
X-3155Y44253D01*
X-2982Y44220D01*
X-2801Y44162D01*
X-2603Y44080D01*
X-2504Y44030D01*
X-2405Y43973D01*
X-2315Y43898D01*
X-2232Y43816D01*
X-2224Y43808D01*
X-2216Y43791D01*
X-2191Y43767D01*
X-2166Y43734D01*
X-2133Y43684D01*
X-2092Y43626D01*
X-2051Y43561D01*
X-2010Y43486D01*
X-1977Y43404D01*
X-1936Y43305D01*
X-1894Y43198D01*
X-1861Y43083D01*
X-1837Y42959D01*
X-1812Y42827D01*
X-1804Y42687D01*
X-1795Y42539D01*
Y42531D01*
Y42522D01*
Y42473D01*
Y42399D01*
X-1804Y42300D01*
X-1812Y42193D01*
X-1829Y42077D01*
X-1878Y41830D01*
X-4597D01*
Y41822D01*
Y41797D01*
X-4605Y41764D01*
Y41731D01*
Y41723D01*
Y41715D01*
Y41665D01*
X-4589Y41591D01*
X-4572Y41501D01*
X-4548Y41394D01*
X-4507Y41286D01*
X-4449Y41179D01*
X-4375Y41080D01*
X-4366Y41072D01*
X-4333Y41039D01*
X-4284Y41006D01*
X-4218Y40957D01*
X-4136Y40916D01*
X-4037Y40874D01*
X-3930Y40841D01*
X-3814Y40833D01*
X-3765D01*
X-3724Y40841D01*
X-3625Y40866D01*
X-3501Y40907D01*
X-3369Y40973D01*
X-3295Y41014D01*
X-3229Y41072D01*
X-3155Y41138D01*
X-3089Y41212D01*
X-3023Y41295D01*
X-2966Y41394D01*
X-1993Y41229D01*
Y41220D01*
X-2010Y41204D01*
X-2026Y41171D01*
X-2043Y41130D01*
X-2076Y41080D01*
X-2109Y41031D01*
X-2199Y40899D01*
X-2306Y40759D01*
X-2438Y40611D01*
X-2586Y40471D01*
X-2760Y40347D01*
X-2768D01*
X-2784Y40339D01*
X-2809Y40322D01*
X-2842Y40306D01*
X-2883Y40281D01*
X-2941Y40256D01*
X-3064Y40207D01*
X-3229Y40149D01*
X-3402Y40108D01*
X-3608Y40075D01*
X-3822Y40059D01*
X-3897D01*
X-3954Y40067D01*
X-4028Y40075D01*
X-4103Y40083D01*
X-4193Y40100D01*
X-4292Y40124D01*
X-4498Y40182D01*
X-4605Y40223D01*
X-4721Y40273D01*
X-4828Y40330D01*
X-4935Y40405D01*
X-5042Y40479D01*
X-5141Y40569D01*
X-5149Y40578D01*
X-5166Y40594D01*
X-5190Y40619D01*
X-5215Y40660D01*
X-5256Y40718D01*
X-5297Y40775D01*
X-5347Y40850D01*
X-5388Y40932D01*
X-5438Y41023D01*
X-5487Y41130D01*
X-5528Y41237D01*
X-5561Y41361D01*
X-5594Y41492D01*
X-5619Y41624D01*
X-5635Y41772D01*
X-5644Y41929D01*
Y41937D01*
Y41962D01*
Y42011D01*
X-5635Y42069D01*
X-5627Y42143D01*
X-5619Y42226D01*
X-5602Y42316D01*
X-5586Y42423D01*
X-5536Y42654D01*
X-5454Y42901D01*
X-5396Y43025D01*
X-5339Y43157D01*
X-5273Y43280D01*
X-5190Y43404D01*
X-5182Y43412D01*
X-5157Y43445D01*
X-5125Y43486D01*
X-5075Y43544D01*
X-5009Y43610D01*
X-4935Y43684D01*
X-4836Y43758D01*
X-4729Y43841D01*
X-4614Y43923D01*
X-4482Y43997D01*
X-4333Y44071D01*
X-4177Y44137D01*
X-4004Y44195D01*
X-3814Y44236D01*
X-3616Y44269D01*
X-3410Y44278D01*
X-3336D01*
X-3287Y44269D01*
D02*
G37*
G36*
X-29976Y44179D02*
X-29309D01*
X-29474Y43371D01*
X-30141D01*
X-30487Y41682D01*
Y41674D01*
Y41665D01*
X-30495Y41641D01*
X-30504Y41608D01*
X-30520Y41534D01*
X-30537Y41443D01*
X-30553Y41352D01*
X-30570Y41262D01*
X-30578Y41196D01*
X-30586Y41171D01*
Y41155D01*
Y41146D01*
Y41138D01*
X-30578Y41080D01*
X-30553Y41023D01*
X-30512Y40957D01*
X-30504D01*
X-30495Y40949D01*
X-30471Y40940D01*
X-30446Y40924D01*
X-30405Y40916D01*
X-30355Y40899D01*
X-30298Y40891D01*
X-30182D01*
X-30149Y40899D01*
X-30100D01*
X-30042Y40907D01*
X-29960Y40916D01*
X-29861Y40924D01*
X-30034Y40116D01*
X-30042D01*
X-30083Y40108D01*
X-30141Y40100D01*
X-30207Y40092D01*
X-30298Y40075D01*
X-30397Y40067D01*
X-30611Y40059D01*
X-30701D01*
X-30800Y40067D01*
X-30924Y40083D01*
X-31064Y40108D01*
X-31204Y40149D01*
X-31328Y40199D01*
X-31443Y40273D01*
X-31451Y40281D01*
X-31484Y40314D01*
X-31525Y40363D01*
X-31567Y40438D01*
X-31616Y40520D01*
X-31657Y40627D01*
X-31690Y40751D01*
X-31699Y40891D01*
Y40899D01*
Y40932D01*
X-31690Y40990D01*
X-31682Y41072D01*
X-31674Y41122D01*
X-31666Y41188D01*
X-31649Y41253D01*
X-31641Y41336D01*
X-31624Y41418D01*
X-31608Y41517D01*
X-31583Y41632D01*
X-31558Y41748D01*
X-31212Y43371D01*
X-31748D01*
X-31583Y44179D01*
X-31056D01*
X-30924Y44813D01*
X-29688Y45563D01*
X-29976Y44179D01*
D02*
G37*
G36*
X5662Y44269D02*
X5728D01*
X5802Y44261D01*
X5975Y44245D01*
X6164Y44203D01*
X6362Y44154D01*
X6543Y44088D01*
X6634Y44039D01*
X6708Y43989D01*
X6716D01*
X6725Y43973D01*
X6774Y43940D01*
X6840Y43874D01*
X6922Y43791D01*
X7013Y43676D01*
X7096Y43544D01*
X7170Y43396D01*
X7219Y43223D01*
X6214Y43050D01*
Y43058D01*
X6197Y43083D01*
X6181Y43124D01*
X6148Y43173D01*
X6115Y43223D01*
X6066Y43280D01*
X6016Y43330D01*
X5950Y43379D01*
X5942Y43388D01*
X5909Y43404D01*
X5860Y43429D01*
X5785Y43453D01*
X5703Y43478D01*
X5604Y43503D01*
X5497Y43519D01*
X5373Y43528D01*
X5316D01*
X5258Y43519D01*
X5184Y43511D01*
X5027Y43478D01*
X4953Y43453D01*
X4887Y43412D01*
X4879Y43404D01*
X4862Y43396D01*
X4838Y43371D01*
X4813Y43338D01*
X4764Y43256D01*
X4747Y43206D01*
X4739Y43149D01*
Y43140D01*
Y43124D01*
X4747Y43091D01*
X4755Y43058D01*
X4772Y43017D01*
X4805Y42976D01*
X4838Y42934D01*
X4887Y42893D01*
X4895D01*
X4912Y42885D01*
X4945Y42868D01*
X4994Y42844D01*
X5077Y42819D01*
X5184Y42786D01*
X5250Y42761D01*
X5324Y42737D01*
X5406Y42712D01*
X5497Y42687D01*
X5505D01*
X5530Y42679D01*
X5571Y42662D01*
X5629Y42646D01*
X5686Y42630D01*
X5761Y42605D01*
X5925Y42547D01*
X6107Y42473D01*
X6280Y42399D01*
X6362Y42358D01*
X6436Y42308D01*
X6502Y42267D01*
X6560Y42226D01*
X6568D01*
X6576Y42209D01*
X6617Y42168D01*
X6684Y42102D01*
X6749Y42011D01*
X6815Y41904D01*
X6881Y41772D01*
X6922Y41624D01*
X6939Y41550D01*
Y41468D01*
Y41459D01*
Y41443D01*
Y41410D01*
X6931Y41369D01*
X6922Y41319D01*
X6914Y41270D01*
X6881Y41130D01*
X6824Y40973D01*
X6782Y40891D01*
X6733Y40808D01*
X6675Y40726D01*
X6617Y40644D01*
X6535Y40561D01*
X6453Y40479D01*
X6444Y40471D01*
X6428Y40462D01*
X6403Y40438D01*
X6362Y40413D01*
X6313Y40380D01*
X6255Y40347D01*
X6189Y40306D01*
X6107Y40273D01*
X6016Y40232D01*
X5917Y40190D01*
X5802Y40157D01*
X5678Y40124D01*
X5555Y40100D01*
X5415Y40075D01*
X5258Y40067D01*
X5101Y40059D01*
X5019D01*
X4961Y40067D01*
X4887D01*
X4797Y40075D01*
X4706Y40083D01*
X4607Y40100D01*
X4385Y40133D01*
X4162Y40190D01*
X3948Y40265D01*
X3841Y40314D01*
X3750Y40372D01*
X3742D01*
X3734Y40388D01*
X3709Y40405D01*
X3676Y40429D01*
X3593Y40504D01*
X3495Y40602D01*
X3387Y40734D01*
X3289Y40883D01*
X3190Y41064D01*
X3115Y41270D01*
X4170Y41443D01*
X4179Y41426D01*
X4195Y41385D01*
X4220Y41328D01*
X4261Y41253D01*
X4310Y41179D01*
X4368Y41097D01*
X4434Y41023D01*
X4508Y40965D01*
X4516Y40957D01*
X4549Y40949D01*
X4599Y40924D01*
X4665Y40899D01*
X4747Y40874D01*
X4846Y40858D01*
X4953Y40841D01*
X5085Y40833D01*
X5143D01*
X5217Y40841D01*
X5299Y40858D01*
X5390Y40874D01*
X5489Y40899D01*
X5588Y40940D01*
X5678Y40998D01*
X5686Y41006D01*
X5703Y41023D01*
X5728Y41047D01*
X5761Y41080D01*
X5810Y41163D01*
X5827Y41220D01*
X5835Y41278D01*
Y41286D01*
Y41295D01*
X5827Y41344D01*
X5802Y41410D01*
X5752Y41476D01*
X5736Y41492D01*
X5703Y41509D01*
X5662Y41534D01*
X5604Y41567D01*
X5530Y41600D01*
X5423Y41641D01*
X5299Y41682D01*
X5291D01*
X5258Y41698D01*
X5209Y41715D01*
X5143Y41731D01*
X5068Y41764D01*
X4978Y41797D01*
X4780Y41863D01*
X4574Y41946D01*
X4368Y42036D01*
X4277Y42077D01*
X4203Y42119D01*
X4129Y42160D01*
X4080Y42193D01*
X4063Y42209D01*
X4022Y42250D01*
X3964Y42308D01*
X3898Y42399D01*
X3832Y42514D01*
X3775Y42646D01*
X3734Y42794D01*
X3725Y42877D01*
X3717Y42967D01*
Y42976D01*
Y42992D01*
Y43017D01*
X3725Y43050D01*
X3734Y43140D01*
X3758Y43248D01*
X3808Y43379D01*
X3865Y43519D01*
X3956Y43659D01*
X4005Y43725D01*
X4071Y43791D01*
X4080Y43800D01*
X4096Y43816D01*
X4121Y43832D01*
X4162Y43865D01*
X4220Y43907D01*
X4277Y43948D01*
X4352Y43989D01*
X4442Y44039D01*
X4541Y44080D01*
X4648Y44121D01*
X4764Y44162D01*
X4895Y44203D01*
X5044Y44236D01*
X5200Y44253D01*
X5365Y44269D01*
X5538Y44278D01*
X5612D01*
X5662Y44269D01*
D02*
G37*
G36*
X-22676Y44722D02*
X-23755D01*
X-23557Y45703D01*
X-22470D01*
X-22676Y44722D01*
D02*
G37*
G36*
X-41595D02*
X-42674D01*
X-42476Y45703D01*
X-41389D01*
X-41595Y44722D01*
D02*
G37*
G36*
X86825Y175400D02*
X86312D01*
X85295Y177053D01*
Y175400D01*
X84824D01*
Y177917D01*
X85317D01*
X86353Y176230D01*
Y177917D01*
X86825D01*
Y175400D01*
D02*
G37*
G36*
X88395Y177913D02*
X88467Y177910D01*
X88541Y177906D01*
X88620Y177898D01*
X88698Y177883D01*
X88766Y177868D01*
X88769D01*
X88777Y177865D01*
X88788Y177861D01*
X88803Y177857D01*
X88844Y177839D01*
X88897Y177812D01*
X88956Y177782D01*
X89020Y177741D01*
X89084Y177693D01*
X89143Y177633D01*
X89147D01*
X89151Y177625D01*
X89170Y177603D01*
X89200Y177569D01*
X89233Y177521D01*
X89274Y177461D01*
X89315Y177390D01*
X89353Y177311D01*
X89386Y177225D01*
Y177221D01*
X89390Y177214D01*
X89394Y177203D01*
X89398Y177184D01*
X89405Y177158D01*
X89413Y177132D01*
X89420Y177098D01*
X89428Y177061D01*
X89435Y177019D01*
X89443Y176974D01*
X89450Y176926D01*
X89458Y176874D01*
X89465Y176761D01*
X89469Y176634D01*
Y176630D01*
Y176619D01*
Y176604D01*
Y176582D01*
X89465Y176556D01*
Y176522D01*
X89461Y176488D01*
X89458Y176451D01*
X89450Y176365D01*
X89435Y176275D01*
X89416Y176182D01*
X89390Y176096D01*
Y176092D01*
X89386Y176084D01*
X89379Y176069D01*
X89372Y176051D01*
X89364Y176028D01*
X89353Y176002D01*
X89323Y175939D01*
X89282Y175867D01*
X89237Y175793D01*
X89184Y175718D01*
X89121Y175651D01*
X89113Y175647D01*
X89099Y175628D01*
X89069Y175606D01*
X89028Y175580D01*
X88975Y175546D01*
X88915Y175512D01*
X88844Y175482D01*
X88766Y175452D01*
X88758Y175449D01*
X88747D01*
X88736Y175445D01*
X88698Y175437D01*
X88646Y175426D01*
X88582Y175415D01*
X88504Y175408D01*
X88418Y175404D01*
X88317Y175400D01*
X87363D01*
Y177917D01*
X88366D01*
X88395Y177913D01*
D02*
G37*
G36*
X-7967Y45794D02*
X-7885Y45785D01*
X-7786Y45777D01*
X-7687Y45761D01*
X-7572Y45744D01*
X-7324Y45687D01*
X-7077Y45604D01*
X-6954Y45555D01*
X-6830Y45497D01*
X-6723Y45423D01*
X-6616Y45340D01*
X-6608Y45332D01*
X-6591Y45316D01*
X-6566Y45291D01*
X-6533Y45258D01*
X-6492Y45209D01*
X-6443Y45151D01*
X-6393Y45085D01*
X-6344Y45011D01*
X-6286Y44928D01*
X-6237Y44838D01*
X-6187Y44739D01*
X-6138Y44632D01*
X-6064Y44385D01*
X-6039Y44253D01*
X-6023Y44113D01*
X-7119Y44071D01*
Y44080D01*
Y44088D01*
X-7127Y44137D01*
X-7143Y44212D01*
X-7176Y44294D01*
X-7209Y44393D01*
X-7267Y44500D01*
X-7333Y44591D01*
X-7415Y44681D01*
X-7423Y44690D01*
X-7456Y44714D01*
X-7514Y44747D01*
X-7597Y44788D01*
X-7695Y44830D01*
X-7819Y44862D01*
X-7967Y44887D01*
X-8132Y44895D01*
X-8206D01*
X-8289Y44887D01*
X-8396Y44871D01*
X-8503Y44854D01*
X-8618Y44821D01*
X-8717Y44780D01*
X-8808Y44722D01*
X-8816Y44714D01*
X-8841Y44690D01*
X-8874Y44657D01*
X-8907Y44607D01*
X-8940Y44549D01*
X-8973Y44475D01*
X-8997Y44393D01*
X-9005Y44302D01*
Y44294D01*
Y44261D01*
X-8997Y44220D01*
X-8981Y44162D01*
X-8964Y44104D01*
X-8931Y44039D01*
X-8882Y43973D01*
X-8824Y43907D01*
X-8816Y43898D01*
X-8783Y43882D01*
X-8734Y43841D01*
X-8651Y43791D01*
X-8602Y43767D01*
X-8544Y43734D01*
X-8478Y43701D01*
X-8396Y43659D01*
X-8313Y43618D01*
X-8223Y43577D01*
X-8116Y43528D01*
X-8000Y43478D01*
X-7992Y43470D01*
X-7959Y43462D01*
X-7910Y43437D01*
X-7844Y43412D01*
X-7769Y43371D01*
X-7687Y43330D01*
X-7489Y43239D01*
X-7283Y43132D01*
X-7086Y43017D01*
X-6995Y42959D01*
X-6912Y42901D01*
X-6847Y42852D01*
X-6789Y42803D01*
X-6781Y42794D01*
X-6773Y42786D01*
X-6756Y42761D01*
X-6723Y42737D01*
X-6665Y42654D01*
X-6591Y42539D01*
X-6517Y42399D01*
X-6451Y42234D01*
X-6410Y42044D01*
X-6402Y41937D01*
X-6393Y41830D01*
Y41822D01*
Y41797D01*
Y41756D01*
X-6402Y41707D01*
X-6410Y41641D01*
X-6426Y41575D01*
X-6443Y41492D01*
X-6468Y41402D01*
X-6500Y41303D01*
X-6533Y41204D01*
X-6583Y41097D01*
X-6641Y40990D01*
X-6707Y40883D01*
X-6789Y40784D01*
X-6871Y40677D01*
X-6978Y40578D01*
X-6987Y40569D01*
X-7003Y40553D01*
X-7036Y40528D01*
X-7086Y40495D01*
X-7143Y40454D01*
X-7217Y40413D01*
X-7300Y40363D01*
X-7399Y40322D01*
X-7506Y40273D01*
X-7629Y40223D01*
X-7761Y40182D01*
X-7901Y40141D01*
X-8058Y40108D01*
X-8223Y40083D01*
X-8404Y40067D01*
X-8593Y40059D01*
X-8717D01*
X-8775Y40067D01*
X-8849Y40075D01*
X-8931D01*
X-9014Y40092D01*
X-9211Y40116D01*
X-9418Y40157D01*
X-9632Y40215D01*
X-9838Y40298D01*
X-9846D01*
X-9862Y40306D01*
X-9887Y40322D01*
X-9920Y40339D01*
X-10011Y40396D01*
X-10126Y40471D01*
X-10242Y40569D01*
X-10365Y40677D01*
X-10481Y40817D01*
X-10571Y40965D01*
Y40973D01*
X-10579Y40982D01*
X-10588Y41006D01*
X-10604Y41039D01*
X-10621Y41080D01*
X-10637Y41130D01*
X-10678Y41253D01*
X-10711Y41394D01*
X-10744Y41567D01*
X-10769Y41748D01*
Y41954D01*
X-9681Y42011D01*
Y42003D01*
Y41987D01*
Y41962D01*
X-9673Y41929D01*
X-9665Y41838D01*
X-9656Y41723D01*
X-9632Y41608D01*
X-9599Y41492D01*
X-9558Y41385D01*
X-9508Y41303D01*
X-9500Y41295D01*
X-9459Y41262D01*
X-9393Y41212D01*
X-9302Y41163D01*
X-9245Y41130D01*
X-9170Y41105D01*
X-9096Y41080D01*
X-9014Y41064D01*
X-8923Y41039D01*
X-8816Y41031D01*
X-8709Y41014D01*
X-8495D01*
X-8396Y41023D01*
X-8272Y41039D01*
X-8140Y41064D01*
X-8009Y41097D01*
X-7885Y41146D01*
X-7778Y41212D01*
X-7769Y41220D01*
X-7737Y41245D01*
X-7695Y41286D01*
X-7646Y41344D01*
X-7605Y41418D01*
X-7564Y41501D01*
X-7530Y41591D01*
X-7522Y41698D01*
Y41707D01*
Y41740D01*
X-7530Y41789D01*
X-7547Y41847D01*
X-7572Y41904D01*
X-7613Y41978D01*
X-7662Y42044D01*
X-7728Y42110D01*
X-7737Y42119D01*
X-7761Y42135D01*
X-7811Y42168D01*
X-7885Y42209D01*
X-7934Y42234D01*
X-7984Y42267D01*
X-8050Y42300D01*
X-8124Y42333D01*
X-8206Y42374D01*
X-8297Y42415D01*
X-8404Y42465D01*
X-8519Y42514D01*
X-8528D01*
X-8544Y42531D01*
X-8577Y42539D01*
X-8626Y42564D01*
X-8676Y42588D01*
X-8742Y42613D01*
X-8874Y42679D01*
X-9030Y42753D01*
X-9187Y42827D01*
X-9335Y42910D01*
X-9459Y42984D01*
X-9475Y42992D01*
X-9508Y43017D01*
X-9558Y43058D01*
X-9632Y43116D01*
X-9706Y43190D01*
X-9780Y43272D01*
X-9854Y43363D01*
X-9928Y43470D01*
X-9937Y43486D01*
X-9953Y43528D01*
X-9978Y43585D01*
X-10011Y43676D01*
X-10044Y43775D01*
X-10068Y43898D01*
X-10085Y44030D01*
X-10093Y44170D01*
Y44179D01*
Y44203D01*
Y44236D01*
X-10085Y44286D01*
X-10077Y44343D01*
X-10068Y44418D01*
X-10027Y44582D01*
X-9970Y44764D01*
X-9928Y44862D01*
X-9879Y44953D01*
X-9821Y45052D01*
X-9755Y45151D01*
X-9681Y45242D01*
X-9590Y45332D01*
X-9582Y45340D01*
X-9566Y45349D01*
X-9541Y45373D01*
X-9500Y45406D01*
X-9442Y45439D01*
X-9376Y45480D01*
X-9302Y45522D01*
X-9220Y45571D01*
X-9121Y45612D01*
X-9014Y45654D01*
X-8890Y45695D01*
X-8758Y45728D01*
X-8618Y45761D01*
X-8462Y45785D01*
X-8297Y45794D01*
X-8124Y45802D01*
X-8033D01*
X-7967Y45794D01*
D02*
G37*
G36*
X-26145Y44269D02*
X-26054Y44261D01*
X-25947Y44245D01*
X-25815Y44203D01*
X-25692Y44154D01*
X-25560Y44088D01*
X-25444Y43989D01*
X-25428Y43973D01*
X-25395Y43940D01*
X-25354Y43874D01*
X-25296Y43783D01*
X-25247Y43676D01*
X-25197Y43544D01*
X-25164Y43396D01*
X-25156Y43223D01*
Y43214D01*
Y43182D01*
X-25164Y43124D01*
X-25172Y43042D01*
X-25189Y42934D01*
X-25214Y42794D01*
X-25247Y42630D01*
X-25263Y42531D01*
X-25288Y42423D01*
X-25782Y40157D01*
X-26862D01*
X-26375Y42432D01*
Y42440D01*
X-26367Y42456D01*
Y42481D01*
X-26359Y42514D01*
X-26342Y42597D01*
X-26318Y42704D01*
X-26301Y42803D01*
X-26285Y42901D01*
X-26268Y42984D01*
X-26260Y43017D01*
Y43042D01*
Y43050D01*
Y43074D01*
X-26268Y43116D01*
X-26276Y43165D01*
X-26293Y43214D01*
X-26309Y43272D01*
X-26342Y43330D01*
X-26384Y43379D01*
X-26392Y43388D01*
X-26408Y43396D01*
X-26433Y43420D01*
X-26474Y43445D01*
X-26524Y43462D01*
X-26581Y43486D01*
X-26647Y43495D01*
X-26730Y43503D01*
X-26771D01*
X-26820Y43495D01*
X-26886Y43478D01*
X-26969Y43453D01*
X-27059Y43412D01*
X-27158Y43363D01*
X-27265Y43297D01*
X-27282Y43289D01*
X-27315Y43264D01*
X-27364Y43214D01*
X-27430Y43157D01*
X-27504Y43083D01*
X-27587Y42984D01*
X-27661Y42885D01*
X-27727Y42761D01*
X-27735Y42753D01*
X-27751Y42712D01*
X-27776Y42654D01*
X-27793Y42605D01*
X-27809Y42555D01*
X-27826Y42498D01*
X-27850Y42423D01*
X-27875Y42349D01*
X-27900Y42259D01*
X-27924Y42160D01*
X-27949Y42053D01*
X-27974Y41937D01*
X-28007Y41805D01*
X-28353Y40157D01*
X-29432D01*
X-28592Y44179D01*
X-27562D01*
X-27661Y43643D01*
X-27653Y43651D01*
X-27644Y43659D01*
X-27595Y43701D01*
X-27521Y43758D01*
X-27422Y43832D01*
X-27315Y43915D01*
X-27191Y43997D01*
X-27068Y44071D01*
X-26936Y44129D01*
X-26919Y44137D01*
X-26878Y44154D01*
X-26812Y44179D01*
X-26722Y44203D01*
X-26614Y44228D01*
X-26491Y44253D01*
X-26367Y44269D01*
X-26227Y44278D01*
X-26178D01*
X-26145Y44269D01*
D02*
G37*
G36*
X15237D02*
X15294Y44261D01*
X15368Y44245D01*
X15459Y44228D01*
X15550Y44195D01*
X15649Y44154D01*
X15237Y43264D01*
X15228D01*
X15212Y43272D01*
X15179Y43280D01*
X15138Y43297D01*
X15039Y43313D01*
X14915Y43322D01*
X14866D01*
X14808Y43313D01*
X14742Y43297D01*
X14652Y43272D01*
X14561Y43231D01*
X14454Y43182D01*
X14347Y43107D01*
X14330Y43099D01*
X14297Y43066D01*
X14248Y43025D01*
X14182Y42959D01*
X14108Y42877D01*
X14033Y42778D01*
X13959Y42662D01*
X13893Y42539D01*
X13885Y42522D01*
X13877Y42498D01*
X13869Y42473D01*
X13852Y42432D01*
X13836Y42390D01*
X13811Y42333D01*
X13795Y42267D01*
X13770Y42193D01*
X13745Y42110D01*
X13712Y42020D01*
X13688Y41921D01*
X13663Y41805D01*
X13630Y41690D01*
X13605Y41558D01*
X13572Y41418D01*
X13308Y40157D01*
X12229D01*
X13070Y44179D01*
X14083D01*
X13926Y43412D01*
X13935Y43420D01*
X13951Y43453D01*
X13984Y43495D01*
X14025Y43544D01*
X14075Y43610D01*
X14141Y43684D01*
X14215Y43767D01*
X14289Y43849D01*
X14470Y44006D01*
X14577Y44080D01*
X14684Y44146D01*
X14792Y44195D01*
X14907Y44245D01*
X15022Y44269D01*
X15146Y44278D01*
X15187D01*
X15237Y44269D01*
D02*
G37*
G36*
X1822D02*
X1912Y44261D01*
X2020Y44245D01*
X2152Y44203D01*
X2275Y44154D01*
X2407Y44088D01*
X2522Y43989D01*
X2539Y43973D01*
X2572Y43940D01*
X2613Y43874D01*
X2671Y43783D01*
X2720Y43676D01*
X2770Y43544D01*
X2802Y43396D01*
X2811Y43223D01*
Y43214D01*
Y43182D01*
X2802Y43124D01*
X2794Y43042D01*
X2778Y42934D01*
X2753Y42794D01*
X2720Y42630D01*
X2703Y42531D01*
X2679Y42423D01*
X2184Y40157D01*
X1105D01*
X1591Y42432D01*
Y42440D01*
X1599Y42456D01*
Y42481D01*
X1608Y42514D01*
X1624Y42597D01*
X1649Y42704D01*
X1665Y42803D01*
X1682Y42901D01*
X1698Y42984D01*
X1706Y43017D01*
Y43042D01*
Y43050D01*
Y43074D01*
X1698Y43116D01*
X1690Y43165D01*
X1674Y43214D01*
X1657Y43272D01*
X1624Y43330D01*
X1583Y43379D01*
X1575Y43388D01*
X1558Y43396D01*
X1534Y43420D01*
X1492Y43445D01*
X1443Y43462D01*
X1385Y43486D01*
X1319Y43495D01*
X1237Y43503D01*
X1196D01*
X1146Y43495D01*
X1080Y43478D01*
X998Y43453D01*
X907Y43412D01*
X808Y43363D01*
X701Y43297D01*
X685Y43289D01*
X652Y43264D01*
X602Y43214D01*
X536Y43157D01*
X462Y43083D01*
X380Y42984D01*
X306Y42885D01*
X240Y42761D01*
X232Y42753D01*
X215Y42712D01*
X190Y42654D01*
X174Y42605D01*
X157Y42555D01*
X141Y42498D01*
X116Y42423D01*
X91Y42349D01*
X67Y42259D01*
X42Y42160D01*
X17Y42053D01*
X-7Y41937D01*
X-40Y41805D01*
X-387Y40157D01*
X-1466D01*
X-625Y44179D01*
X405D01*
X306Y43643D01*
X314Y43651D01*
X322Y43659D01*
X372Y43701D01*
X446Y43758D01*
X545Y43832D01*
X652Y43915D01*
X775Y43997D01*
X899Y44071D01*
X1031Y44129D01*
X1047Y44137D01*
X1089Y44154D01*
X1154Y44179D01*
X1245Y44203D01*
X1352Y44228D01*
X1476Y44253D01*
X1599Y44269D01*
X1740Y44278D01*
X1789D01*
X1822Y44269D01*
D02*
G37*
G36*
X-19264D02*
X-19174Y44261D01*
X-19067Y44245D01*
X-18935Y44203D01*
X-18811Y44154D01*
X-18679Y44088D01*
X-18564Y43989D01*
X-18547Y43973D01*
X-18514Y43940D01*
X-18473Y43874D01*
X-18416Y43783D01*
X-18366Y43676D01*
X-18317Y43544D01*
X-18284Y43396D01*
X-18275Y43223D01*
Y43214D01*
Y43182D01*
X-18284Y43124D01*
X-18292Y43042D01*
X-18308Y42934D01*
X-18333Y42794D01*
X-18366Y42630D01*
X-18383Y42531D01*
X-18407Y42423D01*
X-18902Y40157D01*
X-19981D01*
X-19495Y42432D01*
Y42440D01*
X-19487Y42456D01*
Y42481D01*
X-19478Y42514D01*
X-19462Y42597D01*
X-19437Y42704D01*
X-19421Y42803D01*
X-19404Y42901D01*
X-19388Y42984D01*
X-19380Y43017D01*
Y43042D01*
Y43050D01*
Y43074D01*
X-19388Y43116D01*
X-19396Y43165D01*
X-19413Y43214D01*
X-19429Y43272D01*
X-19462Y43330D01*
X-19503Y43379D01*
X-19512Y43388D01*
X-19528Y43396D01*
X-19553Y43420D01*
X-19594Y43445D01*
X-19643Y43462D01*
X-19701Y43486D01*
X-19767Y43495D01*
X-19849Y43503D01*
X-19891D01*
X-19940Y43495D01*
X-20006Y43478D01*
X-20088Y43453D01*
X-20179Y43412D01*
X-20278Y43363D01*
X-20385Y43297D01*
X-20401Y43289D01*
X-20434Y43264D01*
X-20484Y43214D01*
X-20550Y43157D01*
X-20624Y43083D01*
X-20706Y42984D01*
X-20780Y42885D01*
X-20846Y42761D01*
X-20855Y42753D01*
X-20871Y42712D01*
X-20896Y42654D01*
X-20912Y42605D01*
X-20929Y42555D01*
X-20945Y42498D01*
X-20970Y42423D01*
X-20995Y42349D01*
X-21019Y42259D01*
X-21044Y42160D01*
X-21069Y42053D01*
X-21094Y41937D01*
X-21126Y41805D01*
X-21473Y40157D01*
X-22552D01*
X-21712Y44179D01*
X-20682D01*
X-20780Y43643D01*
X-20772Y43651D01*
X-20764Y43659D01*
X-20715Y43701D01*
X-20640Y43758D01*
X-20541Y43832D01*
X-20434Y43915D01*
X-20311Y43997D01*
X-20187Y44071D01*
X-20055Y44129D01*
X-20039Y44137D01*
X-19998Y44154D01*
X-19932Y44179D01*
X-19841Y44203D01*
X-19734Y44228D01*
X-19610Y44253D01*
X-19487Y44269D01*
X-19347Y44278D01*
X-19297D01*
X-19264Y44269D01*
D02*
G37*
G36*
X63665Y103563D02*
X63728Y103557D01*
X63805Y103551D01*
X63894Y103538D01*
X63983Y103525D01*
X64181Y103481D01*
X64378Y103417D01*
X64480Y103379D01*
X64569Y103334D01*
X64658Y103277D01*
X64741Y103213D01*
X64748Y103207D01*
X64760Y103194D01*
X64779Y103175D01*
X64805Y103149D01*
X64837Y103111D01*
X64869Y103067D01*
X64907Y103022D01*
X64951Y102964D01*
X64990Y102894D01*
X65028Y102824D01*
X65060Y102748D01*
X65098Y102665D01*
X65123Y102576D01*
X65149Y102480D01*
X65168Y102378D01*
X65174Y102270D01*
X64308Y102238D01*
Y102245D01*
Y102251D01*
X64295Y102289D01*
X64283Y102347D01*
X64257Y102417D01*
X64225Y102499D01*
X64181Y102576D01*
X64130Y102646D01*
X64066Y102710D01*
X64060Y102716D01*
X64034Y102735D01*
X63990Y102754D01*
X63932Y102786D01*
X63856Y102812D01*
X63760Y102831D01*
X63646Y102850D01*
X63518Y102856D01*
X63455D01*
X63391Y102850D01*
X63302Y102837D01*
X63212Y102818D01*
X63111Y102786D01*
X63015Y102748D01*
X62932Y102697D01*
X62926Y102691D01*
X62913Y102678D01*
X62888Y102659D01*
X62868Y102627D01*
X62843Y102589D01*
X62818Y102544D01*
X62805Y102493D01*
X62798Y102429D01*
Y102423D01*
Y102404D01*
X62805Y102378D01*
X62818Y102340D01*
X62830Y102302D01*
X62849Y102258D01*
X62881Y102219D01*
X62926Y102175D01*
X62932Y102168D01*
X62958Y102149D01*
X62983Y102136D01*
X63009Y102124D01*
X63040Y102105D01*
X63085Y102085D01*
X63130Y102066D01*
X63187Y102041D01*
X63251Y102015D01*
X63327Y101990D01*
X63410Y101964D01*
X63499Y101939D01*
X63601Y101913D01*
X63716Y101882D01*
X63722D01*
X63741Y101875D01*
X63773Y101869D01*
X63818Y101856D01*
X63868Y101843D01*
X63932Y101824D01*
X64066Y101786D01*
X64219Y101742D01*
X64372Y101690D01*
X64518Y101633D01*
X64588Y101608D01*
X64646Y101576D01*
X64652D01*
X64658Y101569D01*
X64697Y101544D01*
X64754Y101512D01*
X64818Y101461D01*
X64894Y101398D01*
X64977Y101321D01*
X65053Y101238D01*
X65123Y101136D01*
X65130Y101124D01*
X65149Y101085D01*
X65181Y101028D01*
X65213Y100952D01*
X65238Y100850D01*
X65270Y100735D01*
X65289Y100601D01*
X65295Y100455D01*
Y100448D01*
Y100436D01*
Y100417D01*
Y100391D01*
X65283Y100321D01*
X65270Y100232D01*
X65244Y100124D01*
X65206Y100009D01*
X65155Y99881D01*
X65085Y99760D01*
Y99754D01*
X65079Y99748D01*
X65047Y99709D01*
X65002Y99652D01*
X64939Y99582D01*
X64856Y99506D01*
X64754Y99423D01*
X64639Y99346D01*
X64505Y99283D01*
X64499D01*
X64486Y99276D01*
X64467Y99270D01*
X64442Y99257D01*
X64404Y99244D01*
X64359Y99232D01*
X64308Y99219D01*
X64251Y99206D01*
X64187Y99194D01*
X64117Y99181D01*
X63958Y99155D01*
X63779Y99136D01*
X63576Y99130D01*
X63499D01*
X63442Y99136D01*
X63372Y99142D01*
X63295Y99149D01*
X63212Y99162D01*
X63117Y99174D01*
X62913Y99219D01*
X62811Y99251D01*
X62709Y99289D01*
X62607Y99334D01*
X62505Y99385D01*
X62416Y99442D01*
X62327Y99506D01*
X62321Y99512D01*
X62308Y99525D01*
X62289Y99544D01*
X62257Y99576D01*
X62225Y99614D01*
X62187Y99665D01*
X62142Y99716D01*
X62098Y99786D01*
X62053Y99856D01*
X62009Y99939D01*
X61970Y100028D01*
X61926Y100124D01*
X61888Y100232D01*
X61856Y100347D01*
X61830Y100468D01*
X61811Y100601D01*
X62652Y100684D01*
Y100678D01*
X62658Y100665D01*
Y100646D01*
X62665Y100614D01*
X62684Y100538D01*
X62716Y100448D01*
X62754Y100347D01*
X62811Y100238D01*
X62875Y100143D01*
X62951Y100060D01*
X62964Y100053D01*
X62996Y100028D01*
X63047Y99996D01*
X63117Y99964D01*
X63206Y99926D01*
X63314Y99894D01*
X63442Y99869D01*
X63582Y99862D01*
X63652D01*
X63728Y99869D01*
X63818Y99881D01*
X63920Y99907D01*
X64028Y99932D01*
X64123Y99977D01*
X64213Y100034D01*
X64219Y100041D01*
X64244Y100066D01*
X64283Y100104D01*
X64321Y100155D01*
X64359Y100213D01*
X64397Y100283D01*
X64423Y100366D01*
X64429Y100448D01*
Y100455D01*
Y100474D01*
X64423Y100506D01*
X64416Y100538D01*
X64391Y100620D01*
X64372Y100665D01*
X64340Y100710D01*
X64333Y100716D01*
X64321Y100729D01*
X64302Y100748D01*
X64270Y100773D01*
X64225Y100805D01*
X64168Y100831D01*
X64104Y100862D01*
X64028Y100894D01*
X64021D01*
X63996Y100907D01*
X63951Y100920D01*
X63881Y100939D01*
X63843Y100952D01*
X63792Y100964D01*
X63735Y100977D01*
X63671Y100996D01*
X63601Y101015D01*
X63518Y101034D01*
X63429Y101060D01*
X63333Y101085D01*
X63327D01*
X63302Y101092D01*
X63270Y101104D01*
X63219Y101117D01*
X63161Y101130D01*
X63098Y101155D01*
X63028Y101175D01*
X62951Y101200D01*
X62792Y101264D01*
X62633Y101334D01*
X62550Y101372D01*
X62480Y101417D01*
X62416Y101461D01*
X62359Y101506D01*
X62353Y101512D01*
X62340Y101525D01*
X62321Y101544D01*
X62301Y101569D01*
X62270Y101601D01*
X62238Y101646D01*
X62200Y101697D01*
X62168Y101748D01*
X62091Y101875D01*
X62034Y102022D01*
X62009Y102105D01*
X61989Y102187D01*
X61977Y102277D01*
X61970Y102372D01*
Y102378D01*
Y102385D01*
Y102404D01*
Y102429D01*
X61983Y102493D01*
X61996Y102570D01*
X62015Y102665D01*
X62047Y102767D01*
X62091Y102875D01*
X62155Y102984D01*
Y102990D01*
X62161Y102996D01*
X62187Y103028D01*
X62231Y103079D01*
X62289Y103143D01*
X62365Y103213D01*
X62454Y103289D01*
X62563Y103359D01*
X62684Y103417D01*
X62690D01*
X62703Y103423D01*
X62722Y103429D01*
X62747Y103442D01*
X62779Y103455D01*
X62824Y103468D01*
X62868Y103481D01*
X62919Y103493D01*
X63047Y103519D01*
X63187Y103544D01*
X63353Y103563D01*
X63531Y103570D01*
X63607D01*
X63665Y103563D01*
D02*
G37*
G36*
X-35778Y92911D02*
X-35718Y92903D01*
X-35658Y92896D01*
X-35500Y92866D01*
X-35336Y92813D01*
X-35156Y92738D01*
X-35066Y92694D01*
X-34976Y92641D01*
X-34894Y92574D01*
X-34819Y92499D01*
X-34811Y92491D01*
X-34804Y92476D01*
X-34781Y92454D01*
X-34759Y92424D01*
X-34729Y92379D01*
X-34692Y92326D01*
X-34654Y92267D01*
X-34617Y92199D01*
X-34587Y92124D01*
X-34549Y92034D01*
X-34512Y91937D01*
X-34482Y91832D01*
X-34459Y91720D01*
X-34437Y91600D01*
X-34429Y91473D01*
X-34422Y91338D01*
Y91330D01*
Y91323D01*
Y91278D01*
Y91211D01*
X-34429Y91121D01*
X-34437Y91023D01*
X-34452Y90918D01*
X-34497Y90694D01*
X-36968D01*
Y90686D01*
Y90664D01*
X-36976Y90634D01*
Y90604D01*
Y90596D01*
Y90589D01*
Y90544D01*
X-36961Y90477D01*
X-36946Y90394D01*
X-36924Y90297D01*
X-36886Y90199D01*
X-36834Y90102D01*
X-36766Y90012D01*
X-36759Y90005D01*
X-36729Y89975D01*
X-36684Y89945D01*
X-36624Y89900D01*
X-36549Y89862D01*
X-36459Y89825D01*
X-36362Y89795D01*
X-36257Y89787D01*
X-36212D01*
X-36174Y89795D01*
X-36085Y89817D01*
X-35972Y89855D01*
X-35852Y89915D01*
X-35785Y89952D01*
X-35725Y90005D01*
X-35658Y90065D01*
X-35598Y90132D01*
X-35538Y90207D01*
X-35485Y90297D01*
X-34602Y90147D01*
Y90139D01*
X-34617Y90124D01*
X-34632Y90095D01*
X-34646Y90057D01*
X-34677Y90012D01*
X-34707Y89967D01*
X-34789Y89847D01*
X-34886Y89720D01*
X-35006Y89585D01*
X-35141Y89458D01*
X-35298Y89346D01*
X-35306D01*
X-35321Y89338D01*
X-35343Y89323D01*
X-35373Y89308D01*
X-35410Y89286D01*
X-35463Y89263D01*
X-35575Y89218D01*
X-35725Y89166D01*
X-35882Y89128D01*
X-36070Y89098D01*
X-36264Y89083D01*
X-36332D01*
X-36384Y89091D01*
X-36452Y89098D01*
X-36519Y89106D01*
X-36601Y89121D01*
X-36691Y89143D01*
X-36879Y89196D01*
X-36976Y89233D01*
X-37081Y89278D01*
X-37178Y89331D01*
X-37275Y89398D01*
X-37373Y89465D01*
X-37463Y89548D01*
X-37470Y89555D01*
X-37485Y89570D01*
X-37508Y89593D01*
X-37530Y89630D01*
X-37568Y89683D01*
X-37605Y89735D01*
X-37650Y89802D01*
X-37688Y89877D01*
X-37732Y89960D01*
X-37777Y90057D01*
X-37815Y90154D01*
X-37845Y90267D01*
X-37875Y90387D01*
X-37897Y90506D01*
X-37912Y90641D01*
X-37920Y90784D01*
Y90791D01*
Y90813D01*
Y90859D01*
X-37912Y90911D01*
X-37905Y90978D01*
X-37897Y91053D01*
X-37882Y91136D01*
X-37867Y91233D01*
X-37822Y91443D01*
X-37747Y91667D01*
X-37695Y91780D01*
X-37642Y91900D01*
X-37583Y92012D01*
X-37508Y92124D01*
X-37500Y92132D01*
X-37478Y92162D01*
X-37448Y92199D01*
X-37403Y92252D01*
X-37343Y92312D01*
X-37275Y92379D01*
X-37186Y92446D01*
X-37088Y92521D01*
X-36983Y92596D01*
X-36864Y92664D01*
X-36729Y92731D01*
X-36586Y92791D01*
X-36429Y92843D01*
X-36257Y92881D01*
X-36077Y92911D01*
X-35890Y92918D01*
X-35822D01*
X-35778Y92911D01*
D02*
G37*
G36*
X-25969Y105627D02*
X-25819Y105612D01*
X-25639Y105597D01*
X-25459Y105567D01*
X-25249Y105537D01*
X-24800Y105432D01*
X-24350Y105282D01*
X-24125Y105192D01*
X-23900Y105087D01*
X-23705Y104953D01*
X-23510Y104803D01*
X-23495Y104788D01*
X-23465Y104758D01*
X-23420Y104713D01*
X-23360Y104653D01*
X-23286Y104563D01*
X-23196Y104458D01*
X-23106Y104338D01*
X-23016Y104203D01*
X-22911Y104053D01*
X-22821Y103888D01*
X-22731Y103709D01*
X-22641Y103514D01*
X-22506Y103064D01*
X-22461Y102824D01*
X-22431Y102569D01*
X-24425Y102494D01*
Y102509D01*
Y102524D01*
X-24440Y102614D01*
X-24470Y102749D01*
X-24530Y102899D01*
X-24590Y103079D01*
X-24695Y103274D01*
X-24814Y103439D01*
X-24964Y103603D01*
X-24979Y103619D01*
X-25039Y103664D01*
X-25144Y103724D01*
X-25294Y103798D01*
X-25474Y103873D01*
X-25699Y103933D01*
X-25969Y103978D01*
X-26269Y103993D01*
X-26403D01*
X-26553Y103978D01*
X-26748Y103948D01*
X-26943Y103918D01*
X-27153Y103858D01*
X-27333Y103783D01*
X-27498Y103679D01*
X-27513Y103664D01*
X-27558Y103619D01*
X-27618Y103559D01*
X-27678Y103469D01*
X-27738Y103364D01*
X-27797Y103229D01*
X-27843Y103079D01*
X-27858Y102914D01*
Y102899D01*
Y102839D01*
X-27843Y102764D01*
X-27812Y102659D01*
X-27782Y102554D01*
X-27723Y102434D01*
X-27633Y102314D01*
X-27528Y102194D01*
X-27513Y102180D01*
X-27453Y102149D01*
X-27363Y102075D01*
X-27213Y101985D01*
X-27123Y101940D01*
X-27018Y101880D01*
X-26898Y101820D01*
X-26748Y101745D01*
X-26598Y101670D01*
X-26433Y101595D01*
X-26239Y101505D01*
X-26029Y101415D01*
X-26014Y101400D01*
X-25954Y101385D01*
X-25864Y101340D01*
X-25744Y101295D01*
X-25609Y101220D01*
X-25459Y101145D01*
X-25099Y100980D01*
X-24725Y100785D01*
X-24365Y100575D01*
X-24200Y100471D01*
X-24050Y100366D01*
X-23930Y100276D01*
X-23825Y100186D01*
X-23810Y100171D01*
X-23795Y100156D01*
X-23765Y100111D01*
X-23705Y100066D01*
X-23600Y99916D01*
X-23465Y99706D01*
X-23331Y99451D01*
X-23211Y99151D01*
X-23136Y98807D01*
X-23121Y98612D01*
X-23106Y98417D01*
Y98402D01*
Y98357D01*
Y98282D01*
X-23121Y98192D01*
X-23136Y98072D01*
X-23166Y97952D01*
X-23196Y97802D01*
X-23241Y97637D01*
X-23301Y97458D01*
X-23360Y97278D01*
X-23450Y97083D01*
X-23555Y96888D01*
X-23675Y96693D01*
X-23825Y96513D01*
X-23975Y96318D01*
X-24170Y96139D01*
X-24185Y96123D01*
X-24215Y96093D01*
X-24275Y96049D01*
X-24365Y95989D01*
X-24470Y95914D01*
X-24605Y95839D01*
X-24755Y95749D01*
X-24934Y95674D01*
X-25129Y95584D01*
X-25354Y95494D01*
X-25594Y95419D01*
X-25849Y95344D01*
X-26134Y95284D01*
X-26433Y95239D01*
X-26763Y95209D01*
X-27108Y95194D01*
X-27333D01*
X-27438Y95209D01*
X-27573Y95224D01*
X-27723D01*
X-27872Y95254D01*
X-28232Y95299D01*
X-28607Y95374D01*
X-28997Y95479D01*
X-29372Y95629D01*
X-29386D01*
X-29416Y95644D01*
X-29461Y95674D01*
X-29521Y95704D01*
X-29686Y95809D01*
X-29896Y95944D01*
X-30106Y96123D01*
X-30331Y96318D01*
X-30541Y96573D01*
X-30706Y96843D01*
Y96858D01*
X-30721Y96873D01*
X-30736Y96918D01*
X-30766Y96978D01*
X-30795Y97053D01*
X-30825Y97143D01*
X-30900Y97368D01*
X-30960Y97623D01*
X-31020Y97937D01*
X-31065Y98267D01*
Y98642D01*
X-29087Y98747D01*
Y98732D01*
Y98702D01*
Y98657D01*
X-29072Y98597D01*
X-29057Y98432D01*
X-29042Y98222D01*
X-28997Y98012D01*
X-28937Y97802D01*
X-28862Y97607D01*
X-28772Y97458D01*
X-28757Y97443D01*
X-28682Y97383D01*
X-28562Y97293D01*
X-28397Y97203D01*
X-28292Y97143D01*
X-28157Y97098D01*
X-28022Y97053D01*
X-27872Y97023D01*
X-27708Y96978D01*
X-27513Y96963D01*
X-27318Y96933D01*
X-26928D01*
X-26748Y96948D01*
X-26523Y96978D01*
X-26283Y97023D01*
X-26044Y97083D01*
X-25819Y97173D01*
X-25624Y97293D01*
X-25609Y97308D01*
X-25549Y97353D01*
X-25474Y97428D01*
X-25384Y97533D01*
X-25309Y97667D01*
X-25234Y97817D01*
X-25174Y97982D01*
X-25159Y98177D01*
Y98192D01*
Y98252D01*
X-25174Y98342D01*
X-25204Y98447D01*
X-25249Y98552D01*
X-25324Y98687D01*
X-25414Y98807D01*
X-25534Y98927D01*
X-25549Y98942D01*
X-25594Y98972D01*
X-25684Y99032D01*
X-25819Y99107D01*
X-25909Y99151D01*
X-25999Y99212D01*
X-26119Y99271D01*
X-26254Y99331D01*
X-26403Y99406D01*
X-26568Y99481D01*
X-26763Y99571D01*
X-26973Y99661D01*
X-26988D01*
X-27018Y99691D01*
X-27078Y99706D01*
X-27168Y99751D01*
X-27258Y99796D01*
X-27378Y99841D01*
X-27618Y99961D01*
X-27902Y100096D01*
X-28187Y100231D01*
X-28457Y100381D01*
X-28682Y100516D01*
X-28712Y100531D01*
X-28772Y100575D01*
X-28862Y100651D01*
X-28997Y100755D01*
X-29132Y100890D01*
X-29267Y101040D01*
X-29401Y101205D01*
X-29536Y101400D01*
X-29551Y101430D01*
X-29581Y101505D01*
X-29626Y101610D01*
X-29686Y101775D01*
X-29746Y101955D01*
X-29791Y102180D01*
X-29821Y102419D01*
X-29836Y102674D01*
Y102689D01*
Y102734D01*
Y102794D01*
X-29821Y102884D01*
X-29806Y102989D01*
X-29791Y103124D01*
X-29716Y103424D01*
X-29611Y103753D01*
X-29536Y103933D01*
X-29446Y104098D01*
X-29342Y104278D01*
X-29222Y104458D01*
X-29087Y104623D01*
X-28922Y104788D01*
X-28907Y104803D01*
X-28877Y104818D01*
X-28832Y104863D01*
X-28757Y104923D01*
X-28652Y104983D01*
X-28532Y105058D01*
X-28397Y105132D01*
X-28247Y105222D01*
X-28067Y105297D01*
X-27872Y105372D01*
X-27648Y105447D01*
X-27408Y105507D01*
X-27153Y105567D01*
X-26868Y105612D01*
X-26568Y105627D01*
X-26254Y105642D01*
X-26089D01*
X-25969Y105627D01*
D02*
G37*
G36*
X-27958Y89173D02*
X-28954D01*
X-28228Y92656D01*
X-28243Y92649D01*
X-28280Y92619D01*
X-28347Y92581D01*
X-28430Y92536D01*
X-28535Y92476D01*
X-28655Y92416D01*
X-28789Y92349D01*
X-28939Y92289D01*
X-28947D01*
X-28954Y92282D01*
X-28977Y92274D01*
X-29007Y92259D01*
X-29081Y92237D01*
X-29179Y92199D01*
X-29291Y92162D01*
X-29411Y92124D01*
X-29538Y92087D01*
X-29658Y92057D01*
X-29471Y92941D01*
X-29456Y92948D01*
X-29411Y92963D01*
X-29351Y93001D01*
X-29261Y93038D01*
X-29156Y93090D01*
X-29029Y93158D01*
X-28894Y93225D01*
X-28744Y93308D01*
X-28587Y93405D01*
X-28430Y93502D01*
X-28265Y93607D01*
X-28100Y93720D01*
X-27935Y93840D01*
X-27778Y93967D01*
X-27628Y94102D01*
X-27494Y94236D01*
X-26894D01*
X-27958Y89173D01*
D02*
G37*
G36*
X-39620Y94207D02*
X-39493Y94199D01*
X-39350Y94184D01*
X-39200Y94162D01*
X-39051Y94132D01*
X-38923Y94094D01*
X-38916D01*
X-38908Y94087D01*
X-38871Y94072D01*
X-38811Y94042D01*
X-38736Y93997D01*
X-38654Y93937D01*
X-38571Y93854D01*
X-38481Y93765D01*
X-38407Y93652D01*
X-38399Y93637D01*
X-38377Y93600D01*
X-38339Y93532D01*
X-38302Y93442D01*
X-38272Y93330D01*
X-38234Y93195D01*
X-38212Y93053D01*
X-38204Y92888D01*
Y92881D01*
Y92858D01*
Y92828D01*
X-38212Y92783D01*
X-38219Y92724D01*
X-38227Y92664D01*
X-38249Y92514D01*
X-38302Y92349D01*
X-38369Y92169D01*
X-38414Y92079D01*
X-38466Y91989D01*
X-38526Y91907D01*
X-38594Y91825D01*
X-38601Y91817D01*
X-38609Y91810D01*
X-38631Y91787D01*
X-38669Y91757D01*
X-38706Y91727D01*
X-38759Y91690D01*
X-38818Y91652D01*
X-38886Y91607D01*
X-38961Y91562D01*
X-39051Y91518D01*
X-39148Y91480D01*
X-39253Y91435D01*
X-39365Y91398D01*
X-39485Y91368D01*
X-39620Y91338D01*
X-39762Y91315D01*
X-39755Y91308D01*
X-39725Y91285D01*
X-39687Y91241D01*
X-39642Y91188D01*
X-39582Y91121D01*
X-39515Y91038D01*
X-39455Y90948D01*
X-39388Y90843D01*
X-39380Y90836D01*
X-39373Y90813D01*
X-39350Y90784D01*
X-39328Y90731D01*
X-39290Y90671D01*
X-39253Y90596D01*
X-39208Y90514D01*
X-39156Y90417D01*
X-39103Y90304D01*
X-39043Y90177D01*
X-38976Y90042D01*
X-38908Y89892D01*
X-38841Y89727D01*
X-38766Y89555D01*
X-38691Y89368D01*
X-38609Y89173D01*
X-39725D01*
Y89181D01*
X-39732Y89196D01*
X-39740Y89218D01*
X-39755Y89256D01*
X-39770Y89301D01*
X-39785Y89353D01*
X-39815Y89420D01*
X-39845Y89503D01*
X-39875Y89585D01*
X-39912Y89683D01*
X-39957Y89795D01*
X-40009Y89915D01*
X-40062Y90042D01*
X-40122Y90184D01*
X-40182Y90334D01*
X-40257Y90499D01*
Y90506D01*
X-40264Y90521D01*
X-40279Y90544D01*
X-40294Y90581D01*
X-40339Y90664D01*
X-40391Y90769D01*
X-40459Y90881D01*
X-40534Y90986D01*
X-40616Y91083D01*
X-40661Y91121D01*
X-40706Y91158D01*
X-40713Y91166D01*
X-40736Y91173D01*
X-40773Y91188D01*
X-40826Y91211D01*
X-40901Y91233D01*
X-40991Y91248D01*
X-41095Y91255D01*
X-41223Y91263D01*
X-41642D01*
X-42084Y89173D01*
X-43110D01*
X-42062Y94214D01*
X-39680D01*
X-39620Y94207D01*
D02*
G37*
G36*
X-1595Y105492D02*
X-1475Y105477D01*
X-1340Y105462D01*
X-1025Y105417D01*
X-696Y105312D01*
X-336Y105177D01*
X-171Y105087D01*
X-6Y104983D01*
X159Y104863D01*
X294Y104728D01*
X309Y104713D01*
X324Y104698D01*
X369Y104653D01*
X414Y104593D01*
X459Y104518D01*
X534Y104428D01*
X668Y104203D01*
X803Y103933D01*
X908Y103619D01*
X998Y103259D01*
X1013Y103064D01*
X1028Y102869D01*
Y102854D01*
Y102839D01*
Y102794D01*
Y102734D01*
X998Y102584D01*
X968Y102404D01*
X908Y102180D01*
X833Y101940D01*
X714Y101685D01*
X564Y101445D01*
X549Y101415D01*
X474Y101340D01*
X369Y101235D01*
X234Y101100D01*
X54Y100935D01*
X-171Y100785D01*
X-426Y100636D01*
X-711Y100516D01*
X-696D01*
X-681Y100501D01*
X-606Y100456D01*
X-486Y100381D01*
X-351Y100291D01*
X-201Y100156D01*
X-36Y100006D01*
X114Y99841D01*
X234Y99646D01*
X249Y99616D01*
X279Y99556D01*
X339Y99451D01*
X399Y99301D01*
X444Y99137D01*
X504Y98942D01*
X534Y98732D01*
X549Y98522D01*
Y98507D01*
Y98477D01*
Y98417D01*
X534Y98327D01*
X519Y98237D01*
X504Y98117D01*
X444Y97847D01*
X354Y97533D01*
X219Y97188D01*
X129Y97008D01*
X24Y96828D01*
X-111Y96648D01*
X-246Y96468D01*
X-261Y96453D01*
X-291Y96408D01*
X-351Y96348D01*
X-441Y96273D01*
X-546Y96169D01*
X-681Y96064D01*
X-831Y95944D01*
X-1010Y95839D01*
X-1205Y95719D01*
X-1415Y95599D01*
X-1640Y95494D01*
X-1895Y95389D01*
X-2150Y95314D01*
X-2434Y95254D01*
X-2734Y95209D01*
X-3049Y95194D01*
X-3169D01*
X-3259Y95209D01*
X-3379D01*
X-3499Y95239D01*
X-3799Y95284D01*
X-4128Y95374D01*
X-4488Y95494D01*
X-4848Y95674D01*
X-5013Y95794D01*
X-5178Y95914D01*
X-5193Y95929D01*
X-5208Y95944D01*
X-5253Y95989D01*
X-5313Y96049D01*
X-5373Y96123D01*
X-5447Y96214D01*
X-5522Y96318D01*
X-5612Y96453D01*
X-5702Y96588D01*
X-5777Y96738D01*
X-5867Y96918D01*
X-5942Y97098D01*
X-6077Y97518D01*
X-6122Y97742D01*
X-6167Y97982D01*
X-4278Y98222D01*
Y98207D01*
Y98192D01*
X-4263Y98147D01*
Y98087D01*
X-4233Y97952D01*
X-4188Y97772D01*
X-4128Y97593D01*
X-4068Y97413D01*
X-3978Y97233D01*
X-3873Y97098D01*
X-3858Y97083D01*
X-3813Y97053D01*
X-3739Y97008D01*
X-3649Y96948D01*
X-3529Y96888D01*
X-3379Y96843D01*
X-3214Y96813D01*
X-3034Y96798D01*
X-3004D01*
X-2914Y96813D01*
X-2794Y96828D01*
X-2644Y96858D01*
X-2464Y96903D01*
X-2269Y96993D01*
X-2090Y97098D01*
X-1910Y97248D01*
X-1895Y97263D01*
X-1835Y97323D01*
X-1760Y97428D01*
X-1685Y97563D01*
X-1595Y97727D01*
X-1535Y97937D01*
X-1475Y98162D01*
X-1460Y98417D01*
Y98447D01*
Y98522D01*
X-1475Y98627D01*
X-1505Y98777D01*
X-1550Y98927D01*
X-1625Y99092D01*
X-1715Y99241D01*
X-1835Y99391D01*
X-1850Y99406D01*
X-1895Y99451D01*
X-1985Y99511D01*
X-2090Y99586D01*
X-2225Y99646D01*
X-2404Y99706D01*
X-2584Y99751D01*
X-2809Y99766D01*
X-2899D01*
X-3004Y99751D01*
X-3124Y99736D01*
X-2779Y101370D01*
X-2449D01*
X-2300Y101385D01*
X-2120Y101415D01*
X-1925Y101475D01*
X-1730Y101535D01*
X-1535Y101640D01*
X-1355Y101775D01*
X-1340Y101790D01*
X-1295Y101850D01*
X-1220Y101940D01*
X-1145Y102060D01*
X-1070Y102225D01*
X-995Y102404D01*
X-950Y102629D01*
X-935Y102869D01*
Y102884D01*
Y102944D01*
X-950Y103034D01*
X-965Y103154D01*
X-1010Y103274D01*
X-1055Y103409D01*
X-1130Y103529D01*
X-1220Y103648D01*
X-1235Y103664D01*
X-1265Y103693D01*
X-1340Y103738D01*
X-1415Y103798D01*
X-1535Y103843D01*
X-1655Y103888D01*
X-1805Y103918D01*
X-1970Y103933D01*
X-2045D01*
X-2120Y103918D01*
X-2225Y103888D01*
X-2345Y103858D01*
X-2479Y103798D01*
X-2614Y103724D01*
X-2749Y103619D01*
X-2764Y103603D01*
X-2809Y103559D01*
X-2869Y103484D01*
X-2944Y103364D01*
X-3019Y103214D01*
X-3109Y103034D01*
X-3199Y102809D01*
X-3274Y102554D01*
X-5073Y102899D01*
Y102914D01*
X-5058Y102944D01*
X-5043Y103004D01*
X-5013Y103079D01*
X-4968Y103169D01*
X-4938Y103289D01*
X-4818Y103529D01*
X-4683Y103798D01*
X-4518Y104083D01*
X-4323Y104368D01*
X-4113Y104608D01*
X-4098Y104623D01*
X-4068Y104653D01*
X-4023Y104698D01*
X-3948Y104743D01*
X-3858Y104818D01*
X-3754Y104893D01*
X-3619Y104968D01*
X-3484Y105058D01*
X-3319Y105148D01*
X-3139Y105222D01*
X-2749Y105372D01*
X-2539Y105417D01*
X-2314Y105462D01*
X-2075Y105492D01*
X-1820Y105507D01*
X-1685D01*
X-1595Y105492D01*
D02*
G37*
G36*
X-17275D02*
X-17155Y105477D01*
X-17020Y105462D01*
X-16705Y105417D01*
X-16375Y105312D01*
X-16015Y105177D01*
X-15850Y105087D01*
X-15686Y104983D01*
X-15521Y104863D01*
X-15386Y104728D01*
X-15371Y104713D01*
X-15356Y104698D01*
X-15311Y104653D01*
X-15266Y104593D01*
X-15221Y104518D01*
X-15146Y104428D01*
X-15011Y104203D01*
X-14876Y103933D01*
X-14771Y103619D01*
X-14681Y103259D01*
X-14666Y103064D01*
X-14651Y102869D01*
Y102854D01*
Y102839D01*
Y102794D01*
Y102734D01*
X-14681Y102584D01*
X-14711Y102404D01*
X-14771Y102180D01*
X-14846Y101940D01*
X-14966Y101685D01*
X-15116Y101445D01*
X-15131Y101415D01*
X-15206Y101340D01*
X-15311Y101235D01*
X-15446Y101100D01*
X-15626Y100935D01*
X-15850Y100785D01*
X-16105Y100636D01*
X-16390Y100516D01*
X-16375D01*
X-16360Y100501D01*
X-16285Y100456D01*
X-16165Y100381D01*
X-16030Y100291D01*
X-15880Y100156D01*
X-15716Y100006D01*
X-15566Y99841D01*
X-15446Y99646D01*
X-15431Y99616D01*
X-15401Y99556D01*
X-15341Y99451D01*
X-15281Y99301D01*
X-15236Y99137D01*
X-15176Y98942D01*
X-15146Y98732D01*
X-15131Y98522D01*
Y98507D01*
Y98477D01*
Y98417D01*
X-15146Y98327D01*
X-15161Y98237D01*
X-15176Y98117D01*
X-15236Y97847D01*
X-15326Y97533D01*
X-15461Y97188D01*
X-15551Y97008D01*
X-15656Y96828D01*
X-15790Y96648D01*
X-15925Y96468D01*
X-15940Y96453D01*
X-15970Y96408D01*
X-16030Y96348D01*
X-16120Y96273D01*
X-16225Y96169D01*
X-16360Y96064D01*
X-16510Y95944D01*
X-16690Y95839D01*
X-16885Y95719D01*
X-17095Y95599D01*
X-17320Y95494D01*
X-17574Y95389D01*
X-17829Y95314D01*
X-18114Y95254D01*
X-18414Y95209D01*
X-18729Y95194D01*
X-18848D01*
X-18938Y95209D01*
X-19058D01*
X-19178Y95239D01*
X-19478Y95284D01*
X-19808Y95374D01*
X-20168Y95494D01*
X-20527Y95674D01*
X-20692Y95794D01*
X-20857Y95914D01*
X-20872Y95929D01*
X-20887Y95944D01*
X-20932Y95989D01*
X-20992Y96049D01*
X-21052Y96123D01*
X-21127Y96214D01*
X-21202Y96318D01*
X-21292Y96453D01*
X-21382Y96588D01*
X-21457Y96738D01*
X-21547Y96918D01*
X-21622Y97098D01*
X-21757Y97518D01*
X-21802Y97742D01*
X-21847Y97982D01*
X-19958Y98222D01*
Y98207D01*
Y98192D01*
X-19943Y98147D01*
Y98087D01*
X-19913Y97952D01*
X-19868Y97772D01*
X-19808Y97593D01*
X-19748Y97413D01*
X-19658Y97233D01*
X-19553Y97098D01*
X-19538Y97083D01*
X-19493Y97053D01*
X-19418Y97008D01*
X-19328Y96948D01*
X-19208Y96888D01*
X-19058Y96843D01*
X-18893Y96813D01*
X-18714Y96798D01*
X-18684D01*
X-18594Y96813D01*
X-18474Y96828D01*
X-18324Y96858D01*
X-18144Y96903D01*
X-17949Y96993D01*
X-17769Y97098D01*
X-17589Y97248D01*
X-17574Y97263D01*
X-17514Y97323D01*
X-17439Y97428D01*
X-17365Y97563D01*
X-17275Y97727D01*
X-17215Y97937D01*
X-17155Y98162D01*
X-17140Y98417D01*
Y98447D01*
Y98522D01*
X-17155Y98627D01*
X-17185Y98777D01*
X-17230Y98927D01*
X-17304Y99092D01*
X-17394Y99241D01*
X-17514Y99391D01*
X-17529Y99406D01*
X-17574Y99451D01*
X-17664Y99511D01*
X-17769Y99586D01*
X-17904Y99646D01*
X-18084Y99706D01*
X-18264Y99751D01*
X-18489Y99766D01*
X-18579D01*
X-18684Y99751D01*
X-18803Y99736D01*
X-18459Y101370D01*
X-18129D01*
X-17979Y101385D01*
X-17799Y101415D01*
X-17604Y101475D01*
X-17410Y101535D01*
X-17215Y101640D01*
X-17035Y101775D01*
X-17020Y101790D01*
X-16975Y101850D01*
X-16900Y101940D01*
X-16825Y102060D01*
X-16750Y102225D01*
X-16675Y102404D01*
X-16630Y102629D01*
X-16615Y102869D01*
Y102884D01*
Y102944D01*
X-16630Y103034D01*
X-16645Y103154D01*
X-16690Y103274D01*
X-16735Y103409D01*
X-16810Y103529D01*
X-16900Y103648D01*
X-16915Y103664D01*
X-16945Y103693D01*
X-17020Y103738D01*
X-17095Y103798D01*
X-17215Y103843D01*
X-17334Y103888D01*
X-17484Y103918D01*
X-17649Y103933D01*
X-17724D01*
X-17799Y103918D01*
X-17904Y103888D01*
X-18024Y103858D01*
X-18159Y103798D01*
X-18294Y103724D01*
X-18429Y103619D01*
X-18444Y103603D01*
X-18489Y103559D01*
X-18549Y103484D01*
X-18624Y103364D01*
X-18699Y103214D01*
X-18789Y103034D01*
X-18879Y102809D01*
X-18953Y102554D01*
X-20752Y102899D01*
Y102914D01*
X-20737Y102944D01*
X-20722Y103004D01*
X-20692Y103079D01*
X-20647Y103169D01*
X-20617Y103289D01*
X-20497Y103529D01*
X-20362Y103798D01*
X-20198Y104083D01*
X-20003Y104368D01*
X-19793Y104608D01*
X-19778Y104623D01*
X-19748Y104653D01*
X-19703Y104698D01*
X-19628Y104743D01*
X-19538Y104818D01*
X-19433Y104893D01*
X-19298Y104968D01*
X-19163Y105058D01*
X-18998Y105148D01*
X-18819Y105222D01*
X-18429Y105372D01*
X-18219Y105417D01*
X-17994Y105462D01*
X-17754Y105492D01*
X-17499Y105507D01*
X-17365D01*
X-17275Y105492D01*
D02*
G37*
G36*
X13185Y98057D02*
X9348D01*
X9737Y99961D01*
X13575D01*
X13185Y98057D01*
D02*
G37*
G36*
X8718Y103529D02*
X5360D01*
X4896Y101955D01*
X4911D01*
X4941Y101985D01*
X5001Y102000D01*
X5076Y102030D01*
X5255Y102090D01*
X5465Y102149D01*
X5480D01*
X5510Y102164D01*
X5570Y102180D01*
X5645Y102194D01*
X5840Y102209D01*
X6050Y102225D01*
X6155D01*
X6245Y102209D01*
X6335Y102194D01*
X6455Y102180D01*
X6724Y102135D01*
X7024Y102030D01*
X7339Y101895D01*
X7504Y101805D01*
X7654Y101700D01*
X7804Y101580D01*
X7954Y101445D01*
X7969Y101430D01*
X7984Y101415D01*
X8029Y101370D01*
X8074Y101310D01*
X8134Y101220D01*
X8194Y101130D01*
X8253Y101025D01*
X8328Y100890D01*
X8403Y100755D01*
X8463Y100591D01*
X8583Y100231D01*
X8673Y99811D01*
X8688Y99586D01*
X8703Y99346D01*
Y99331D01*
Y99301D01*
Y99241D01*
X8688Y99167D01*
Y99076D01*
X8673Y98972D01*
X8658Y98837D01*
X8643Y98702D01*
X8568Y98387D01*
X8478Y98042D01*
X8358Y97667D01*
X8179Y97293D01*
Y97278D01*
X8149Y97248D01*
X8118Y97203D01*
X8089Y97128D01*
X8029Y97038D01*
X7969Y96948D01*
X7804Y96723D01*
X7594Y96468D01*
X7339Y96198D01*
X7054Y95959D01*
X6724Y95734D01*
X6709D01*
X6679Y95704D01*
X6634Y95689D01*
X6560Y95644D01*
X6485Y95614D01*
X6380Y95569D01*
X6140Y95464D01*
X5855Y95359D01*
X5525Y95284D01*
X5165Y95224D01*
X4791Y95194D01*
X4671D01*
X4581Y95209D01*
X4461Y95224D01*
X4341Y95239D01*
X4041Y95299D01*
X3712Y95389D01*
X3352Y95539D01*
X3172Y95644D01*
X2992Y95749D01*
X2827Y95869D01*
X2662Y96019D01*
X2647Y96034D01*
X2632Y96064D01*
X2587Y96109D01*
X2527Y96169D01*
X2467Y96258D01*
X2407Y96348D01*
X2332Y96468D01*
X2257Y96603D01*
X2167Y96753D01*
X2093Y96918D01*
X2033Y97098D01*
X1973Y97308D01*
X1868Y97742D01*
X1853Y97982D01*
X1838Y98237D01*
X3771Y98417D01*
Y98387D01*
Y98342D01*
X3756Y98267D01*
Y98207D01*
Y98192D01*
Y98177D01*
Y98087D01*
X3771Y97967D01*
X3801Y97817D01*
X3831Y97637D01*
X3891Y97473D01*
X3966Y97308D01*
X4071Y97158D01*
X4086Y97143D01*
X4131Y97098D01*
X4191Y97053D01*
X4296Y96993D01*
X4401Y96918D01*
X4551Y96873D01*
X4701Y96828D01*
X4881Y96813D01*
X4911D01*
X5001Y96828D01*
X5136Y96843D01*
X5300Y96903D01*
X5495Y96978D01*
X5720Y97098D01*
X5930Y97263D01*
X6050Y97353D01*
X6155Y97473D01*
Y97488D01*
X6185Y97503D01*
X6215Y97548D01*
X6245Y97593D01*
X6335Y97742D01*
X6455Y97967D01*
X6560Y98222D01*
X6650Y98552D01*
X6709Y98927D01*
X6739Y99346D01*
Y99361D01*
Y99376D01*
Y99466D01*
X6724Y99586D01*
X6695Y99751D01*
X6664Y99916D01*
X6605Y100096D01*
X6515Y100261D01*
X6410Y100411D01*
X6395Y100426D01*
X6350Y100471D01*
X6275Y100531D01*
X6185Y100591D01*
X6050Y100651D01*
X5900Y100710D01*
X5735Y100755D01*
X5540Y100770D01*
X5480D01*
X5405Y100755D01*
X5300D01*
X5181Y100725D01*
X5061Y100696D01*
X4926Y100651D01*
X4791Y100591D01*
X4776Y100575D01*
X4731Y100561D01*
X4656Y100516D01*
X4566Y100456D01*
X4461Y100381D01*
X4356Y100291D01*
X4221Y100171D01*
X4101Y100051D01*
X2482Y100171D01*
X4011Y105327D01*
X9093D01*
X8718Y103529D01*
D02*
G37*
G36*
X62475Y53513D02*
X62554Y53505D01*
X62656Y53489D01*
X62758Y53466D01*
X62876Y53442D01*
X63002Y53411D01*
X63128Y53371D01*
X63262Y53324D01*
X63396Y53261D01*
X63529Y53190D01*
X63655Y53112D01*
X63781Y53017D01*
X63899Y52907D01*
X63907Y52899D01*
X63923Y52876D01*
X63954Y52844D01*
X63994Y52797D01*
X64041Y52734D01*
X64088Y52663D01*
X64143Y52577D01*
X64206Y52474D01*
X64261Y52364D01*
X64316Y52238D01*
X64364Y52112D01*
X64411Y51963D01*
X64450Y51813D01*
X64482Y51648D01*
X64497Y51467D01*
X64505Y51286D01*
Y51278D01*
Y51246D01*
Y51199D01*
X64497Y51144D01*
X64490Y51065D01*
X64482Y50979D01*
X64474Y50876D01*
X64458Y50766D01*
X64434Y50648D01*
X64411Y50515D01*
X64340Y50247D01*
X64293Y50097D01*
X64238Y49956D01*
X64175Y49806D01*
X64104Y49657D01*
X64096Y49649D01*
X64088Y49625D01*
X64065Y49586D01*
X64033Y49531D01*
X63994Y49460D01*
X63946Y49389D01*
X63884Y49303D01*
X63821Y49216D01*
X63750Y49121D01*
X63671Y49019D01*
X63490Y48823D01*
X63278Y48626D01*
X63160Y48539D01*
X63034Y48453D01*
X63026Y48445D01*
X63002Y48437D01*
X62963Y48413D01*
X62915Y48390D01*
X62853Y48358D01*
X62774Y48319D01*
X62687Y48280D01*
X62593Y48248D01*
X62483Y48209D01*
X62365Y48169D01*
X62239Y48130D01*
X62105Y48098D01*
X61822Y48051D01*
X61664Y48043D01*
X61507Y48035D01*
X61436D01*
X61381Y48043D01*
X61318D01*
X61247Y48051D01*
X61160Y48067D01*
X61074Y48075D01*
X60877Y48114D01*
X60673Y48177D01*
X60460Y48256D01*
X60263Y48366D01*
X60255Y48374D01*
X60240Y48382D01*
X60216Y48397D01*
X60185Y48429D01*
X60098Y48500D01*
X59988Y48594D01*
X59870Y48720D01*
X59752Y48862D01*
X59649Y49019D01*
X59555Y49200D01*
Y49208D01*
X59547Y49224D01*
X59539Y49248D01*
X59523Y49287D01*
X59508Y49334D01*
X59492Y49381D01*
X59453Y49515D01*
X59413Y49665D01*
X59382Y49838D01*
X59358Y50019D01*
X59350Y50208D01*
Y50216D01*
Y50231D01*
Y50255D01*
Y50286D01*
X59358Y50333D01*
Y50381D01*
X59366Y50507D01*
X59382Y50656D01*
X59405Y50822D01*
X59437Y51003D01*
X59484Y51199D01*
Y51207D01*
X59492Y51231D01*
X59508Y51270D01*
X59523Y51317D01*
X59539Y51372D01*
X59563Y51443D01*
X59594Y51522D01*
X59626Y51609D01*
X59705Y51797D01*
X59807Y52002D01*
X59917Y52207D01*
X60051Y52403D01*
X60059Y52411D01*
X60067Y52427D01*
X60090Y52451D01*
X60122Y52490D01*
X60200Y52584D01*
X60311Y52702D01*
X60452Y52828D01*
X60610Y52970D01*
X60799Y53104D01*
X61003Y53222D01*
X61011D01*
X61027Y53237D01*
X61058Y53253D01*
X61105Y53269D01*
X61160Y53293D01*
X61224Y53316D01*
X61302Y53340D01*
X61381Y53371D01*
X61475Y53403D01*
X61578Y53426D01*
X61798Y53474D01*
X62042Y53505D01*
X62309Y53521D01*
X62404D01*
X62475Y53513D01*
D02*
G37*
G36*
X74306Y8858D02*
X73299D01*
X71859Y12415D01*
X71111Y8858D01*
X70104D01*
X71205Y14155D01*
X72221D01*
X73661Y10613D01*
X74401Y14155D01*
X75416D01*
X74306Y8858D01*
D02*
G37*
G36*
X73886Y52545D02*
X71273D01*
X71006Y51270D01*
X73571D01*
X73391Y50389D01*
X70825D01*
X70345Y48130D01*
X69267D01*
X70368Y53426D01*
X74075D01*
X73886Y52545D01*
D02*
G37*
G36*
X69369D02*
X66756D01*
X66488Y51270D01*
X69054D01*
X68873Y50389D01*
X66307D01*
X65827Y48130D01*
X64749D01*
X65851Y53426D01*
X69558D01*
X69369Y52545D01*
D02*
G37*
G36*
X-22086Y89173D02*
X-23082D01*
X-22355Y92656D01*
X-22370Y92649D01*
X-22408Y92619D01*
X-22475Y92581D01*
X-22558Y92536D01*
X-22662Y92476D01*
X-22782Y92416D01*
X-22917Y92349D01*
X-23067Y92289D01*
X-23075D01*
X-23082Y92282D01*
X-23104Y92274D01*
X-23134Y92259D01*
X-23209Y92237D01*
X-23307Y92199D01*
X-23419Y92162D01*
X-23539Y92124D01*
X-23666Y92087D01*
X-23786Y92057D01*
X-23599Y92941D01*
X-23584Y92948D01*
X-23539Y92963D01*
X-23479Y93001D01*
X-23389Y93038D01*
X-23284Y93090D01*
X-23157Y93158D01*
X-23022Y93225D01*
X-22872Y93308D01*
X-22715Y93405D01*
X-22558Y93502D01*
X-22393Y93607D01*
X-22228Y93720D01*
X-22063Y93840D01*
X-21906Y93967D01*
X-21756Y94102D01*
X-21621Y94236D01*
X-21022D01*
X-22086Y89173D01*
D02*
G37*
G36*
X-25291D02*
X-26265D01*
X-26070Y90124D01*
X-25097D01*
X-25291Y89173D01*
D02*
G37*
G36*
X67790Y14241D02*
X67868Y14233D01*
X67971Y14218D01*
X68073Y14194D01*
X68191Y14171D01*
X68317Y14139D01*
X68443Y14100D01*
X68577Y14052D01*
X68711Y13990D01*
X68844Y13919D01*
X68970Y13840D01*
X69096Y13746D01*
X69214Y13635D01*
X69222Y13627D01*
X69238Y13604D01*
X69269Y13572D01*
X69309Y13525D01*
X69356Y13462D01*
X69403Y13391D01*
X69458Y13305D01*
X69521Y13203D01*
X69576Y13092D01*
X69631Y12966D01*
X69678Y12841D01*
X69726Y12691D01*
X69765Y12541D01*
X69797Y12376D01*
X69812Y12195D01*
X69820Y12014D01*
Y12006D01*
Y11975D01*
Y11928D01*
X69812Y11873D01*
X69805Y11794D01*
X69797Y11707D01*
X69789Y11605D01*
X69773Y11495D01*
X69749Y11377D01*
X69726Y11243D01*
X69655Y10975D01*
X69608Y10826D01*
X69553Y10684D01*
X69490Y10535D01*
X69419Y10385D01*
X69411Y10377D01*
X69403Y10354D01*
X69380Y10314D01*
X69348Y10259D01*
X69309Y10188D01*
X69261Y10118D01*
X69199Y10031D01*
X69135Y9944D01*
X69065Y9850D01*
X68986Y9748D01*
X68805Y9551D01*
X68593Y9354D01*
X68474Y9268D01*
X68348Y9181D01*
X68341Y9173D01*
X68317Y9165D01*
X68278Y9142D01*
X68230Y9118D01*
X68168Y9087D01*
X68089Y9047D01*
X68002Y9008D01*
X67908Y8976D01*
X67798Y8937D01*
X67680Y8898D01*
X67554Y8858D01*
X67420Y8827D01*
X67137Y8780D01*
X66979Y8772D01*
X66822Y8764D01*
X66751D01*
X66696Y8772D01*
X66633D01*
X66562Y8780D01*
X66475Y8795D01*
X66389Y8803D01*
X66192Y8843D01*
X65987Y8906D01*
X65775Y8984D01*
X65578Y9094D01*
X65570Y9102D01*
X65555Y9110D01*
X65531Y9126D01*
X65500Y9157D01*
X65413Y9228D01*
X65303Y9323D01*
X65185Y9448D01*
X65067Y9590D01*
X64964Y9748D01*
X64870Y9929D01*
Y9937D01*
X64862Y9952D01*
X64854Y9976D01*
X64838Y10015D01*
X64823Y10062D01*
X64807Y10110D01*
X64768Y10243D01*
X64728Y10393D01*
X64697Y10566D01*
X64673Y10747D01*
X64665Y10936D01*
Y10944D01*
Y10960D01*
Y10983D01*
Y11015D01*
X64673Y11062D01*
Y11109D01*
X64681Y11235D01*
X64697Y11384D01*
X64720Y11550D01*
X64752Y11731D01*
X64799Y11928D01*
Y11935D01*
X64807Y11959D01*
X64823Y11998D01*
X64838Y12046D01*
X64854Y12101D01*
X64878Y12172D01*
X64909Y12250D01*
X64941Y12337D01*
X65020Y12526D01*
X65122Y12730D01*
X65232Y12935D01*
X65366Y13132D01*
X65374Y13139D01*
X65381Y13155D01*
X65405Y13179D01*
X65437Y13218D01*
X65515Y13313D01*
X65626Y13431D01*
X65767Y13557D01*
X65925Y13698D01*
X66113Y13832D01*
X66318Y13950D01*
X66326D01*
X66342Y13966D01*
X66373Y13982D01*
X66420Y13997D01*
X66475Y14021D01*
X66538Y14045D01*
X66617Y14068D01*
X66696Y14100D01*
X66790Y14131D01*
X66893Y14155D01*
X67113Y14202D01*
X67357Y14233D01*
X67624Y14249D01*
X67719D01*
X67790Y14241D01*
D02*
G37*
G36*
X-32310Y89173D02*
X-33156D01*
X-33883Y92828D01*
X-32916D01*
X-32669Y91225D01*
Y91218D01*
X-32662Y91195D01*
Y91166D01*
X-32654Y91121D01*
X-32639Y91068D01*
X-32632Y91008D01*
X-32609Y90881D01*
X-32587Y90731D01*
X-32564Y90596D01*
X-32549Y90469D01*
X-32542Y90417D01*
X-32534Y90372D01*
X-32527Y90387D01*
X-32512Y90409D01*
X-32489Y90447D01*
X-32460Y90499D01*
X-32422Y90574D01*
X-32362Y90679D01*
X-32332Y90739D01*
X-32295Y90806D01*
Y90813D01*
X-32287Y90821D01*
X-32257Y90866D01*
X-32220Y90933D01*
X-32182Y91008D01*
X-32137Y91091D01*
X-32092Y91173D01*
X-32055Y91233D01*
X-32032Y91278D01*
X-31126Y92828D01*
X-30063D01*
X-32310Y89173D01*
D02*
G37*
G36*
X-32654Y95374D02*
X-34618D01*
X-34948Y97607D01*
X-38950D01*
X-40164Y95374D01*
X-42308D01*
X-36627Y105462D01*
X-34288D01*
X-32654Y95374D01*
D02*
G37*
G36*
X71280Y114193D02*
X71343Y114187D01*
X71420Y114181D01*
X71509Y114168D01*
X71598Y114155D01*
X71795Y114110D01*
X71993Y114047D01*
X72095Y114008D01*
X72184Y113964D01*
X72273Y113907D01*
X72356Y113843D01*
X72362Y113837D01*
X72375Y113824D01*
X72394Y113805D01*
X72420Y113779D01*
X72452Y113741D01*
X72483Y113696D01*
X72522Y113652D01*
X72566Y113594D01*
X72605Y113524D01*
X72643Y113454D01*
X72675Y113378D01*
X72713Y113295D01*
X72738Y113206D01*
X72764Y113110D01*
X72783Y113008D01*
X72789Y112900D01*
X71923Y112868D01*
Y112875D01*
Y112881D01*
X71910Y112919D01*
X71897Y112977D01*
X71872Y113047D01*
X71840Y113129D01*
X71795Y113206D01*
X71745Y113276D01*
X71681Y113340D01*
X71674Y113346D01*
X71649Y113365D01*
X71604Y113384D01*
X71547Y113416D01*
X71471Y113442D01*
X71375Y113461D01*
X71260Y113480D01*
X71133Y113486D01*
X71069D01*
X71006Y113480D01*
X70916Y113467D01*
X70827Y113448D01*
X70725Y113416D01*
X70630Y113378D01*
X70547Y113327D01*
X70541Y113321D01*
X70528Y113308D01*
X70502Y113289D01*
X70483Y113257D01*
X70458Y113219D01*
X70432Y113174D01*
X70420Y113123D01*
X70413Y113059D01*
Y113053D01*
Y113034D01*
X70420Y113008D01*
X70432Y112970D01*
X70445Y112932D01*
X70464Y112887D01*
X70496Y112849D01*
X70541Y112805D01*
X70547Y112798D01*
X70572Y112779D01*
X70598Y112766D01*
X70623Y112754D01*
X70655Y112734D01*
X70700Y112715D01*
X70744Y112696D01*
X70802Y112671D01*
X70865Y112645D01*
X70942Y112620D01*
X71025Y112594D01*
X71114Y112569D01*
X71216Y112543D01*
X71330Y112512D01*
X71337D01*
X71356Y112505D01*
X71388Y112499D01*
X71432Y112486D01*
X71483Y112473D01*
X71547Y112454D01*
X71681Y112416D01*
X71834Y112371D01*
X71987Y112320D01*
X72133Y112263D01*
X72203Y112238D01*
X72260Y112206D01*
X72267D01*
X72273Y112199D01*
X72311Y112174D01*
X72369Y112142D01*
X72433Y112091D01*
X72509Y112027D01*
X72592Y111951D01*
X72668Y111868D01*
X72738Y111766D01*
X72745Y111753D01*
X72764Y111715D01*
X72796Y111658D01*
X72827Y111582D01*
X72853Y111480D01*
X72885Y111365D01*
X72904Y111231D01*
X72910Y111085D01*
Y111078D01*
Y111066D01*
Y111047D01*
Y111021D01*
X72897Y110951D01*
X72885Y110862D01*
X72859Y110753D01*
X72821Y110639D01*
X72770Y110511D01*
X72700Y110390D01*
Y110384D01*
X72694Y110378D01*
X72662Y110339D01*
X72617Y110282D01*
X72553Y110212D01*
X72471Y110135D01*
X72369Y110053D01*
X72254Y109976D01*
X72120Y109913D01*
X72114D01*
X72101Y109906D01*
X72082Y109900D01*
X72057Y109887D01*
X72018Y109874D01*
X71974Y109862D01*
X71923Y109849D01*
X71865Y109836D01*
X71802Y109823D01*
X71732Y109811D01*
X71573Y109785D01*
X71394Y109766D01*
X71190Y109760D01*
X71114D01*
X71057Y109766D01*
X70986Y109773D01*
X70910Y109779D01*
X70827Y109792D01*
X70732Y109804D01*
X70528Y109849D01*
X70426Y109881D01*
X70324Y109919D01*
X70222Y109964D01*
X70120Y110014D01*
X70031Y110072D01*
X69942Y110135D01*
X69935Y110142D01*
X69923Y110155D01*
X69904Y110174D01*
X69872Y110206D01*
X69840Y110244D01*
X69802Y110295D01*
X69757Y110346D01*
X69713Y110416D01*
X69668Y110486D01*
X69623Y110569D01*
X69585Y110658D01*
X69541Y110753D01*
X69502Y110862D01*
X69470Y110976D01*
X69445Y111097D01*
X69426Y111231D01*
X70267Y111314D01*
Y111308D01*
X70273Y111295D01*
Y111276D01*
X70279Y111244D01*
X70298Y111168D01*
X70330Y111078D01*
X70369Y110976D01*
X70426Y110868D01*
X70490Y110773D01*
X70566Y110690D01*
X70579Y110683D01*
X70611Y110658D01*
X70662Y110626D01*
X70732Y110594D01*
X70821Y110556D01*
X70929Y110524D01*
X71057Y110499D01*
X71197Y110492D01*
X71267D01*
X71343Y110499D01*
X71432Y110511D01*
X71534Y110537D01*
X71643Y110562D01*
X71738Y110607D01*
X71827Y110664D01*
X71834Y110671D01*
X71859Y110696D01*
X71897Y110734D01*
X71936Y110785D01*
X71974Y110843D01*
X72012Y110913D01*
X72038Y110995D01*
X72044Y111078D01*
Y111085D01*
Y111104D01*
X72038Y111136D01*
X72031Y111168D01*
X72006Y111250D01*
X71987Y111295D01*
X71955Y111339D01*
X71948Y111346D01*
X71936Y111359D01*
X71917Y111378D01*
X71885Y111403D01*
X71840Y111435D01*
X71783Y111460D01*
X71719Y111492D01*
X71643Y111524D01*
X71636D01*
X71611Y111537D01*
X71566Y111550D01*
X71496Y111569D01*
X71458Y111582D01*
X71407Y111594D01*
X71350Y111607D01*
X71286Y111626D01*
X71216Y111645D01*
X71133Y111664D01*
X71044Y111690D01*
X70948Y111715D01*
X70942D01*
X70916Y111722D01*
X70885Y111734D01*
X70834Y111747D01*
X70776Y111760D01*
X70713Y111785D01*
X70643Y111804D01*
X70566Y111830D01*
X70407Y111894D01*
X70248Y111964D01*
X70165Y112002D01*
X70095Y112047D01*
X70031Y112091D01*
X69974Y112136D01*
X69967Y112142D01*
X69955Y112155D01*
X69935Y112174D01*
X69916Y112199D01*
X69885Y112231D01*
X69853Y112276D01*
X69814Y112327D01*
X69783Y112378D01*
X69706Y112505D01*
X69649Y112652D01*
X69623Y112734D01*
X69604Y112817D01*
X69591Y112907D01*
X69585Y113002D01*
Y113008D01*
Y113015D01*
Y113034D01*
Y113059D01*
X69598Y113123D01*
X69611Y113199D01*
X69630Y113295D01*
X69661Y113397D01*
X69706Y113505D01*
X69770Y113614D01*
Y113620D01*
X69776Y113626D01*
X69802Y113658D01*
X69846Y113709D01*
X69904Y113773D01*
X69980Y113843D01*
X70069Y113919D01*
X70178Y113989D01*
X70298Y114047D01*
X70305D01*
X70318Y114053D01*
X70337Y114059D01*
X70362Y114072D01*
X70394Y114085D01*
X70439Y114098D01*
X70483Y114110D01*
X70534Y114123D01*
X70662Y114149D01*
X70802Y114174D01*
X70967Y114193D01*
X71146Y114200D01*
X71222D01*
X71280Y114193D01*
D02*
G37*
G36*
X19766Y105447D02*
X20006D01*
X20230Y105432D01*
X20305D01*
X20380Y105417D01*
X20410D01*
X20485Y105402D01*
X20605Y105387D01*
X20755Y105357D01*
X20920Y105327D01*
X21115Y105282D01*
X21490Y105163D01*
X21520Y105148D01*
X21579Y105132D01*
X21669Y105087D01*
X21789Y105028D01*
X21924Y104953D01*
X22074Y104848D01*
X22239Y104743D01*
X22389Y104623D01*
X22404Y104608D01*
X22464Y104563D01*
X22539Y104488D01*
X22629Y104383D01*
X22734Y104263D01*
X22854Y104128D01*
X22974Y103963D01*
X23078Y103783D01*
X23094Y103768D01*
X23123Y103693D01*
X23183Y103603D01*
X23243Y103469D01*
X23318Y103304D01*
X23408Y103109D01*
X23483Y102899D01*
X23543Y102659D01*
X23558Y102629D01*
X23573Y102554D01*
X23603Y102419D01*
X23633Y102254D01*
X23663Y102045D01*
X23678Y101805D01*
X23708Y101550D01*
Y101265D01*
Y101250D01*
Y101190D01*
Y101115D01*
X23693Y100995D01*
Y100845D01*
X23678Y100680D01*
X23663Y100501D01*
X23633Y100291D01*
X23558Y99841D01*
X23438Y99361D01*
X23288Y98867D01*
X23078Y98372D01*
Y98357D01*
X23049Y98312D01*
X23019Y98252D01*
X22959Y98162D01*
X22899Y98057D01*
X22824Y97937D01*
X22644Y97653D01*
X22419Y97338D01*
X22149Y96993D01*
X21849Y96678D01*
X21505Y96378D01*
X21490D01*
X21475Y96348D01*
X21430Y96318D01*
X21370Y96288D01*
X21310Y96228D01*
X21220Y96184D01*
X20995Y96049D01*
X20725Y95914D01*
X20410Y95779D01*
X20051Y95644D01*
X19631Y95524D01*
X19601D01*
X19556Y95509D01*
X19511Y95494D01*
X19436D01*
X19361Y95479D01*
X19256Y95464D01*
X19136Y95449D01*
X19016Y95434D01*
X18866Y95419D01*
X18701Y95404D01*
X18522D01*
X18327Y95389D01*
X18117Y95374D01*
X14085D01*
X16183Y105462D01*
X19526D01*
X19766Y105447D01*
D02*
G37*
G36*
X75853Y123572D02*
X75974Y123566D01*
X76102Y123559D01*
X76236Y123547D01*
X76369Y123521D01*
X76484Y123495D01*
X76490D01*
X76503Y123489D01*
X76522Y123483D01*
X76548Y123476D01*
X76618Y123445D01*
X76707Y123400D01*
X76809Y123349D01*
X76917Y123279D01*
X77025Y123196D01*
X77127Y123094D01*
X77134D01*
X77140Y123082D01*
X77172Y123043D01*
X77223Y122986D01*
X77280Y122903D01*
X77350Y122801D01*
X77420Y122680D01*
X77484Y122546D01*
X77541Y122400D01*
Y122394D01*
X77548Y122381D01*
X77554Y122362D01*
X77561Y122330D01*
X77573Y122285D01*
X77586Y122241D01*
X77599Y122183D01*
X77612Y122120D01*
X77624Y122049D01*
X77637Y121973D01*
X77650Y121890D01*
X77662Y121801D01*
X77675Y121610D01*
X77681Y121393D01*
Y121387D01*
Y121368D01*
Y121343D01*
Y121304D01*
X77675Y121260D01*
Y121202D01*
X77669Y121145D01*
X77662Y121081D01*
X77650Y120935D01*
X77624Y120782D01*
X77592Y120623D01*
X77548Y120476D01*
Y120470D01*
X77541Y120457D01*
X77529Y120432D01*
X77516Y120400D01*
X77503Y120361D01*
X77484Y120317D01*
X77433Y120209D01*
X77363Y120088D01*
X77287Y119960D01*
X77197Y119833D01*
X77089Y119718D01*
X77076Y119712D01*
X77051Y119680D01*
X77000Y119642D01*
X76930Y119597D01*
X76841Y119540D01*
X76739Y119482D01*
X76618Y119431D01*
X76484Y119380D01*
X76471Y119374D01*
X76452D01*
X76433Y119368D01*
X76369Y119355D01*
X76280Y119336D01*
X76172Y119317D01*
X76038Y119304D01*
X75892Y119298D01*
X75720Y119291D01*
X74095D01*
Y123578D01*
X75802D01*
X75853Y123572D01*
D02*
G37*
G36*
X73178Y119291D02*
X72305D01*
X70573Y122107D01*
Y119291D01*
X69770D01*
Y123578D01*
X70611D01*
X72375Y120705D01*
Y123578D01*
X73178D01*
Y119291D01*
D02*
G37*
G36*
X67216Y123642D02*
X67279Y123636D01*
X67362Y123629D01*
X67445Y123623D01*
X67541Y123604D01*
X67738Y123566D01*
X67948Y123508D01*
X68050Y123470D01*
X68152Y123425D01*
X68241Y123368D01*
X68330Y123311D01*
X68337Y123304D01*
X68349Y123298D01*
X68375Y123279D01*
X68400Y123247D01*
X68439Y123215D01*
X68477Y123171D01*
X68521Y123126D01*
X68572Y123069D01*
X68617Y123005D01*
X68668Y122935D01*
X68719Y122859D01*
X68764Y122782D01*
X68846Y122597D01*
X68885Y122495D01*
X68910Y122387D01*
X68050Y122228D01*
Y122234D01*
X68044Y122241D01*
X68031Y122279D01*
X68006Y122336D01*
X67974Y122406D01*
X67923Y122489D01*
X67865Y122572D01*
X67795Y122648D01*
X67706Y122725D01*
X67693Y122731D01*
X67661Y122757D01*
X67611Y122782D01*
X67534Y122820D01*
X67445Y122852D01*
X67337Y122884D01*
X67216Y122903D01*
X67082Y122909D01*
X67024D01*
X66986Y122903D01*
X66942Y122897D01*
X66884Y122890D01*
X66757Y122865D01*
X66610Y122820D01*
X66540Y122795D01*
X66464Y122757D01*
X66387Y122712D01*
X66317Y122667D01*
X66247Y122610D01*
X66184Y122546D01*
X66177Y122540D01*
X66171Y122527D01*
X66152Y122508D01*
X66133Y122483D01*
X66107Y122444D01*
X66082Y122394D01*
X66050Y122343D01*
X66018Y122279D01*
X65986Y122209D01*
X65954Y122132D01*
X65929Y122043D01*
X65903Y121948D01*
X65884Y121846D01*
X65865Y121731D01*
X65859Y121610D01*
X65852Y121483D01*
Y121476D01*
Y121451D01*
Y121413D01*
X65859Y121355D01*
X65865Y121291D01*
X65872Y121221D01*
X65878Y121139D01*
X65897Y121056D01*
X65935Y120865D01*
X65993Y120674D01*
X66031Y120584D01*
X66082Y120495D01*
X66133Y120413D01*
X66190Y120336D01*
X66196Y120330D01*
X66203Y120317D01*
X66222Y120304D01*
X66254Y120279D01*
X66286Y120247D01*
X66324Y120215D01*
X66375Y120183D01*
X66426Y120151D01*
X66489Y120113D01*
X66553Y120081D01*
X66706Y120018D01*
X66789Y119992D01*
X66878Y119979D01*
X66974Y119967D01*
X67076Y119960D01*
X67120D01*
X67177Y119967D01*
X67247Y119973D01*
X67330Y119986D01*
X67419Y120005D01*
X67521Y120030D01*
X67623Y120062D01*
X67630D01*
X67636Y120069D01*
X67668Y120081D01*
X67719Y120107D01*
X67782Y120139D01*
X67859Y120177D01*
X67935Y120221D01*
X68018Y120266D01*
X68095Y120323D01*
Y120865D01*
X67101D01*
Y121591D01*
X68967D01*
Y119884D01*
X68955Y119871D01*
X68916Y119839D01*
X68853Y119788D01*
X68764Y119725D01*
X68655Y119654D01*
X68521Y119578D01*
X68362Y119495D01*
X68177Y119419D01*
X68171D01*
X68152Y119412D01*
X68126Y119400D01*
X68088Y119387D01*
X68044Y119374D01*
X67986Y119355D01*
X67923Y119336D01*
X67853Y119323D01*
X67693Y119285D01*
X67521Y119253D01*
X67330Y119228D01*
X67133Y119221D01*
X67069D01*
X67018Y119228D01*
X66961D01*
X66891Y119234D01*
X66814Y119247D01*
X66732Y119260D01*
X66547Y119291D01*
X66349Y119342D01*
X66152Y119412D01*
X66050Y119451D01*
X65954Y119501D01*
X65948Y119508D01*
X65935Y119514D01*
X65910Y119533D01*
X65872Y119553D01*
X65833Y119584D01*
X65782Y119616D01*
X65674Y119705D01*
X65553Y119820D01*
X65432Y119960D01*
X65311Y120119D01*
X65209Y120304D01*
Y120310D01*
X65196Y120330D01*
X65184Y120355D01*
X65171Y120400D01*
X65152Y120444D01*
X65133Y120502D01*
X65107Y120572D01*
X65088Y120648D01*
X65062Y120725D01*
X65037Y120814D01*
X64999Y121011D01*
X64973Y121221D01*
X64961Y121444D01*
Y121451D01*
Y121476D01*
Y121508D01*
X64967Y121559D01*
Y121616D01*
X64973Y121686D01*
X64986Y121763D01*
X64999Y121846D01*
X65031Y122030D01*
X65082Y122228D01*
X65152Y122432D01*
X65190Y122534D01*
X65241Y122629D01*
X65247Y122636D01*
X65254Y122655D01*
X65273Y122680D01*
X65292Y122718D01*
X65324Y122757D01*
X65356Y122808D01*
X65451Y122929D01*
X65566Y123056D01*
X65706Y123190D01*
X65865Y123317D01*
X66056Y123432D01*
X66063D01*
X66075Y123438D01*
X66101Y123451D01*
X66133Y123464D01*
X66171Y123483D01*
X66222Y123502D01*
X66279Y123521D01*
X66343Y123540D01*
X66413Y123559D01*
X66489Y123578D01*
X66572Y123598D01*
X66661Y123617D01*
X66865Y123642D01*
X67082Y123648D01*
X67158D01*
X67216Y123642D01*
D02*
G37*
G36*
X67133Y109843D02*
X66330D01*
X66324Y113212D01*
X65470Y109843D01*
X64642D01*
X63795Y113212D01*
Y109843D01*
X62992D01*
Y114129D01*
X64285D01*
X65062Y111199D01*
X65827Y114129D01*
X67133D01*
Y109843D01*
D02*
G37*
G36*
X68827D02*
X67961D01*
Y114129D01*
X68827D01*
Y109843D01*
D02*
G37*
G36*
X75630Y114193D02*
X75700D01*
X75777Y114181D01*
X75872Y114168D01*
X75974Y114149D01*
X76082Y114123D01*
X76204Y114091D01*
X76324Y114053D01*
X76452Y114008D01*
X76573Y113951D01*
X76700Y113881D01*
X76821Y113805D01*
X76942Y113709D01*
X77051Y113607D01*
X77057Y113601D01*
X77076Y113582D01*
X77102Y113543D01*
X77140Y113499D01*
X77184Y113442D01*
X77236Y113365D01*
X77286Y113282D01*
X77337Y113187D01*
X77388Y113072D01*
X77446Y112951D01*
X77490Y112817D01*
X77535Y112671D01*
X77573Y112518D01*
X77599Y112346D01*
X77618Y112168D01*
X77624Y111977D01*
Y111964D01*
Y111932D01*
X77618Y111874D01*
Y111804D01*
X77605Y111715D01*
X77592Y111620D01*
X77579Y111505D01*
X77554Y111384D01*
X77522Y111257D01*
X77484Y111123D01*
X77439Y110989D01*
X77382Y110855D01*
X77318Y110722D01*
X77242Y110588D01*
X77159Y110467D01*
X77057Y110352D01*
X77051Y110346D01*
X77032Y110327D01*
X77000Y110301D01*
X76955Y110263D01*
X76898Y110218D01*
X76828Y110167D01*
X76751Y110116D01*
X76656Y110065D01*
X76554Y110008D01*
X76439Y109957D01*
X76318Y109906D01*
X76184Y109862D01*
X76038Y109823D01*
X75885Y109798D01*
X75719Y109779D01*
X75547Y109773D01*
X75503D01*
X75458Y109779D01*
X75388D01*
X75312Y109792D01*
X75216Y109804D01*
X75114Y109823D01*
X75000Y109843D01*
X74879Y109874D01*
X74757Y109913D01*
X74630Y109964D01*
X74503Y110014D01*
X74382Y110085D01*
X74261Y110161D01*
X74140Y110250D01*
X74031Y110352D01*
X74025Y110359D01*
X74006Y110378D01*
X73980Y110409D01*
X73942Y110460D01*
X73904Y110518D01*
X73853Y110588D01*
X73802Y110677D01*
X73751Y110773D01*
X73700Y110881D01*
X73649Y111002D01*
X73598Y111129D01*
X73560Y111276D01*
X73522Y111429D01*
X73496Y111594D01*
X73477Y111773D01*
X73471Y111957D01*
Y111964D01*
Y111989D01*
Y112021D01*
X73477Y112066D01*
Y112123D01*
X73484Y112187D01*
X73490Y112263D01*
X73496Y112340D01*
X73515Y112512D01*
X73554Y112696D01*
X73598Y112881D01*
X73662Y113053D01*
Y113059D01*
X73668Y113066D01*
X73675Y113085D01*
X73687Y113110D01*
X73719Y113174D01*
X73764Y113251D01*
X73821Y113340D01*
X73891Y113442D01*
X73968Y113543D01*
X74057Y113639D01*
X74070Y113652D01*
X74101Y113684D01*
X74152Y113728D01*
X74222Y113786D01*
X74305Y113849D01*
X74401Y113913D01*
X74503Y113977D01*
X74617Y114028D01*
X74624D01*
X74637Y114034D01*
X74656Y114047D01*
X74687Y114053D01*
X74726Y114066D01*
X74770Y114085D01*
X74828Y114098D01*
X74885Y114117D01*
X75019Y114142D01*
X75178Y114174D01*
X75350Y114193D01*
X75541Y114200D01*
X75586D01*
X75630Y114193D01*
D02*
G37*
G36*
X-9540Y105492D02*
X-9435Y105477D01*
X-9300Y105447D01*
X-8985Y105372D01*
X-8805Y105327D01*
X-8640Y105252D01*
X-8460Y105177D01*
X-8281Y105073D01*
X-8101Y104953D01*
X-7936Y104818D01*
X-7771Y104653D01*
X-7621Y104473D01*
X-7606Y104458D01*
X-7591Y104428D01*
X-7546Y104368D01*
X-7501Y104278D01*
X-7441Y104173D01*
X-7381Y104053D01*
X-7306Y103903D01*
X-7231Y103738D01*
X-7171Y103544D01*
X-7096Y103334D01*
X-7036Y103109D01*
X-6976Y102854D01*
X-6931Y102584D01*
X-6887Y102299D01*
X-6871Y102000D01*
X-6857Y101670D01*
Y101640D01*
Y101550D01*
X-6871Y101400D01*
Y101220D01*
X-6887Y100980D01*
X-6916Y100710D01*
X-6961Y100411D01*
X-7006Y100066D01*
X-7066Y99721D01*
X-7156Y99346D01*
X-7246Y98972D01*
X-7366Y98582D01*
X-7501Y98192D01*
X-7666Y97802D01*
X-7861Y97428D01*
X-8071Y97068D01*
X-8086Y97053D01*
X-8131Y96993D01*
X-8191Y96888D01*
X-8296Y96783D01*
X-8415Y96633D01*
X-8550Y96468D01*
X-8715Y96303D01*
X-8910Y96139D01*
X-9135Y95959D01*
X-9375Y95794D01*
X-9630Y95629D01*
X-9914Y95494D01*
X-10214Y95374D01*
X-10529Y95269D01*
X-10874Y95209D01*
X-11234Y95194D01*
X-11338D01*
X-11428Y95209D01*
X-11518D01*
X-11623Y95224D01*
X-11893Y95269D01*
X-12178Y95359D01*
X-12478Y95464D01*
X-12792Y95629D01*
X-12927Y95719D01*
X-13062Y95839D01*
Y95854D01*
X-13092Y95869D01*
X-13122Y95914D01*
X-13167Y95959D01*
X-13287Y96109D01*
X-13422Y96318D01*
X-13557Y96573D01*
X-13677Y96888D01*
X-13767Y97263D01*
X-13827Y97682D01*
X-11983Y97847D01*
Y97817D01*
X-11968Y97757D01*
X-11953Y97653D01*
X-11938Y97518D01*
X-11848Y97248D01*
X-11788Y97113D01*
X-11713Y97008D01*
X-11698Y96993D01*
X-11668Y96978D01*
X-11623Y96933D01*
X-11548Y96888D01*
X-11458Y96843D01*
X-11338Y96813D01*
X-11219Y96783D01*
X-11084Y96768D01*
X-10994D01*
X-10904Y96783D01*
X-10784Y96813D01*
X-10634Y96858D01*
X-10484Y96933D01*
X-10334Y97023D01*
X-10184Y97158D01*
X-10154Y97188D01*
X-10094Y97263D01*
X-9989Y97413D01*
X-9870Y97607D01*
X-9794Y97727D01*
X-9720Y97862D01*
X-9645Y98012D01*
X-9570Y98177D01*
X-9495Y98357D01*
X-9420Y98552D01*
X-9345Y98777D01*
X-9285Y99002D01*
X-9315Y98987D01*
X-9390Y98942D01*
X-9525Y98867D01*
X-9690Y98807D01*
X-9900Y98732D01*
X-10124Y98657D01*
X-10379Y98612D01*
X-10634Y98597D01*
X-10754D01*
X-10829Y98612D01*
X-10934Y98627D01*
X-11054Y98642D01*
X-11323Y98702D01*
X-11623Y98792D01*
X-11953Y98927D01*
X-12103Y99017D01*
X-12268Y99137D01*
X-12418Y99256D01*
X-12568Y99391D01*
X-12583Y99406D01*
X-12598Y99421D01*
X-12643Y99481D01*
X-12688Y99541D01*
X-12748Y99616D01*
X-12808Y99721D01*
X-12867Y99826D01*
X-12942Y99961D01*
X-13017Y100111D01*
X-13077Y100276D01*
X-13137Y100456D01*
X-13197Y100651D01*
X-13287Y101070D01*
X-13302Y101310D01*
X-13317Y101565D01*
Y101580D01*
Y101640D01*
Y101715D01*
X-13302Y101820D01*
X-13287Y101955D01*
X-13272Y102120D01*
X-13242Y102299D01*
X-13197Y102494D01*
X-13077Y102914D01*
X-13002Y103139D01*
X-12912Y103379D01*
X-12808Y103603D01*
X-12673Y103843D01*
X-12523Y104083D01*
X-12358Y104308D01*
X-12343Y104323D01*
X-12313Y104353D01*
X-12253Y104413D01*
X-12178Y104503D01*
X-12088Y104593D01*
X-11968Y104683D01*
X-11833Y104803D01*
X-11668Y104908D01*
X-11488Y105013D01*
X-11293Y105132D01*
X-11084Y105222D01*
X-10859Y105327D01*
X-10619Y105402D01*
X-10349Y105462D01*
X-10079Y105492D01*
X-9780Y105507D01*
X-9645D01*
X-9540Y105492D01*
D02*
G37*
G36*
X30409Y105447D02*
X30663D01*
X30918Y105432D01*
X31158Y105417D01*
X31263Y105402D01*
X31353Y105387D01*
X31383D01*
X31473Y105372D01*
X31623Y105342D01*
X31788Y105297D01*
X31998Y105237D01*
X32208Y105163D01*
X32417Y105073D01*
X32612Y104968D01*
X32642Y104953D01*
X32702Y104908D01*
X32792Y104848D01*
X32912Y104758D01*
X33032Y104638D01*
X33167Y104488D01*
X33302Y104323D01*
X33407Y104143D01*
X33422Y104113D01*
X33452Y104053D01*
X33497Y103948D01*
X33542Y103813D01*
X33586Y103648D01*
X33632Y103454D01*
X33661Y103229D01*
X33676Y103004D01*
Y102989D01*
Y102974D01*
Y102929D01*
Y102869D01*
X33647Y102704D01*
X33617Y102509D01*
X33557Y102284D01*
X33482Y102030D01*
X33362Y101790D01*
X33197Y101550D01*
X33182Y101520D01*
X33107Y101445D01*
X33002Y101340D01*
X32837Y101205D01*
X32642Y101055D01*
X32387Y100905D01*
X32103Y100755D01*
X31758Y100620D01*
X31773D01*
X31788Y100605D01*
X31893Y100575D01*
X32028Y100516D01*
X32208Y100441D01*
X32402Y100336D01*
X32597Y100201D01*
X32792Y100036D01*
X32972Y99841D01*
X32987Y99811D01*
X33047Y99751D01*
X33122Y99631D01*
X33197Y99481D01*
X33287Y99301D01*
X33347Y99107D01*
X33407Y98867D01*
X33422Y98627D01*
Y98612D01*
Y98582D01*
Y98537D01*
X33407Y98477D01*
Y98387D01*
X33392Y98297D01*
X33362Y98072D01*
X33287Y97802D01*
X33197Y97503D01*
X33077Y97203D01*
X32897Y96888D01*
Y96873D01*
X32867Y96858D01*
X32837Y96813D01*
X32807Y96753D01*
X32687Y96618D01*
X32522Y96438D01*
X32327Y96243D01*
X32087Y96049D01*
X31803Y95869D01*
X31473Y95719D01*
X31458D01*
X31428Y95704D01*
X31383Y95689D01*
X31308Y95659D01*
X31218Y95644D01*
X31098Y95614D01*
X30963Y95584D01*
X30813Y95554D01*
X30648Y95509D01*
X30469Y95479D01*
X30259Y95449D01*
X30034Y95434D01*
X29794Y95404D01*
X29539Y95389D01*
X29269Y95374D01*
X24233D01*
X26331Y105462D01*
X30169D01*
X30409Y105447D01*
D02*
G37*
%LPC*%
G36*
X75547Y113461D02*
X75496D01*
X75458Y113454D01*
X75414Y113448D01*
X75363Y113442D01*
X75242Y113416D01*
X75102Y113372D01*
X75031Y113340D01*
X74961Y113308D01*
X74885Y113263D01*
X74815Y113212D01*
X74751Y113155D01*
X74687Y113091D01*
X74681Y113085D01*
X74675Y113072D01*
X74656Y113053D01*
X74637Y113021D01*
X74611Y112983D01*
X74585Y112938D01*
X74554Y112881D01*
X74528Y112817D01*
X74496Y112741D01*
X74464Y112658D01*
X74439Y112569D01*
X74414Y112467D01*
X74394Y112359D01*
X74375Y112244D01*
X74369Y112117D01*
X74363Y111983D01*
Y111977D01*
Y111951D01*
Y111913D01*
X74369Y111862D01*
X74375Y111804D01*
X74382Y111734D01*
X74388Y111658D01*
X74407Y111575D01*
X74445Y111397D01*
X74503Y111212D01*
X74541Y111123D01*
X74585Y111034D01*
X74637Y110957D01*
X74694Y110881D01*
X74700Y110874D01*
X74707Y110868D01*
X74726Y110849D01*
X74757Y110824D01*
X74789Y110798D01*
X74828Y110766D01*
X74872Y110728D01*
X74929Y110696D01*
X75050Y110626D01*
X75197Y110569D01*
X75280Y110543D01*
X75363Y110530D01*
X75452Y110518D01*
X75547Y110511D01*
X75598D01*
X75637Y110518D01*
X75675Y110524D01*
X75726Y110530D01*
X75847Y110556D01*
X75981Y110600D01*
X76051Y110632D01*
X76121Y110671D01*
X76191Y110709D01*
X76261Y110760D01*
X76331Y110817D01*
X76395Y110881D01*
X76401Y110887D01*
X76407Y110900D01*
X76427Y110919D01*
X76446Y110951D01*
X76471Y110989D01*
X76503Y111040D01*
X76535Y111091D01*
X76567Y111161D01*
X76592Y111231D01*
X76624Y111314D01*
X76656Y111409D01*
X76681Y111505D01*
X76700Y111613D01*
X76719Y111734D01*
X76726Y111862D01*
X76732Y111996D01*
Y112002D01*
Y112027D01*
Y112066D01*
X76726Y112117D01*
X76719Y112180D01*
X76713Y112250D01*
X76707Y112327D01*
X76694Y112410D01*
X76656Y112588D01*
X76599Y112773D01*
X76560Y112862D01*
X76516Y112945D01*
X76465Y113028D01*
X76407Y113098D01*
X76401Y113104D01*
X76395Y113110D01*
X76376Y113129D01*
X76350Y113155D01*
X76318Y113180D01*
X76274Y113212D01*
X76229Y113244D01*
X76178Y113282D01*
X76057Y113346D01*
X75911Y113403D01*
X75828Y113429D01*
X75739Y113448D01*
X75643Y113454D01*
X75547Y113461D01*
D02*
G37*
G36*
X10004Y43462D02*
X9946D01*
X9881Y43453D01*
X9790Y43437D01*
X9699Y43404D01*
X9592Y43371D01*
X9485Y43313D01*
X9378Y43239D01*
X9370Y43231D01*
X9337Y43198D01*
X9287Y43149D01*
X9221Y43074D01*
X9155Y42984D01*
X9089Y42877D01*
X9015Y42745D01*
X8958Y42597D01*
Y42588D01*
X8950Y42580D01*
X8941Y42555D01*
X8933Y42531D01*
X8908Y42448D01*
X8884Y42349D01*
X8859Y42234D01*
X8834Y42102D01*
X8818Y41970D01*
X8809Y41838D01*
Y41830D01*
Y41822D01*
Y41797D01*
Y41764D01*
X8826Y41690D01*
X8842Y41591D01*
X8867Y41476D01*
X8908Y41361D01*
X8966Y41253D01*
X9040Y41146D01*
X9048Y41138D01*
X9081Y41105D01*
X9131Y41072D01*
X9197Y41023D01*
X9287Y40982D01*
X9386Y40940D01*
X9502Y40907D01*
X9625Y40899D01*
X9666D01*
X9699Y40907D01*
X9782Y40916D01*
X9889Y40949D01*
X10004Y40990D01*
X10136Y41056D01*
X10260Y41155D01*
X10317Y41212D01*
X10375Y41278D01*
X10383Y41286D01*
X10391Y41303D01*
X10416Y41336D01*
X10441Y41377D01*
X10474Y41426D01*
X10515Y41492D01*
X10556Y41567D01*
X10598Y41649D01*
X10630Y41740D01*
X10672Y41838D01*
X10713Y41954D01*
X10746Y42069D01*
X10795Y42325D01*
X10803Y42465D01*
X10812Y42605D01*
Y42613D01*
Y42621D01*
Y42671D01*
X10803Y42737D01*
X10787Y42827D01*
X10754Y42926D01*
X10713Y43033D01*
X10655Y43132D01*
X10581Y43223D01*
X10573Y43231D01*
X10540Y43264D01*
X10490Y43297D01*
X10424Y43346D01*
X10342Y43388D01*
X10243Y43429D01*
X10128Y43453D01*
X10004Y43462D01*
D02*
G37*
G36*
X-39205Y43503D02*
X-39255D01*
X-39312Y43495D01*
X-39378Y43470D01*
X-39461Y43445D01*
X-39551Y43404D01*
X-39650Y43346D01*
X-39741Y43264D01*
X-39749Y43256D01*
X-39782Y43223D01*
X-39823Y43165D01*
X-39881Y43091D01*
X-39947Y42992D01*
X-40013Y42868D01*
X-40078Y42720D01*
X-40145Y42555D01*
X-40153Y42539D01*
X-40161Y42489D01*
X-40177Y42423D01*
X-40202Y42333D01*
X-40227Y42226D01*
X-40243Y42119D01*
X-40252Y42003D01*
X-40260Y41888D01*
Y41880D01*
Y41871D01*
Y41847D01*
Y41814D01*
X-40252Y41731D01*
X-40235Y41624D01*
X-40210Y41517D01*
X-40177Y41402D01*
X-40128Y41286D01*
X-40062Y41188D01*
X-40054Y41179D01*
X-40021Y41155D01*
X-39980Y41113D01*
X-39922Y41072D01*
X-39848Y41023D01*
X-39757Y40990D01*
X-39658Y40957D01*
X-39543Y40949D01*
X-39494D01*
X-39436Y40957D01*
X-39362Y40973D01*
X-39279Y40998D01*
X-39189Y41039D01*
X-39081Y41089D01*
X-38983Y41163D01*
X-38974Y41171D01*
X-38941Y41204D01*
X-38892Y41253D01*
X-38826Y41319D01*
X-38760Y41410D01*
X-38694Y41509D01*
X-38628Y41632D01*
X-38571Y41772D01*
Y41781D01*
X-38562Y41789D01*
X-38546Y41838D01*
X-38521Y41921D01*
X-38496Y42020D01*
X-38472Y42143D01*
X-38447Y42267D01*
X-38431Y42407D01*
X-38422Y42547D01*
Y42555D01*
Y42564D01*
Y42588D01*
Y42621D01*
X-38431Y42695D01*
X-38455Y42794D01*
X-38480Y42901D01*
X-38521Y43017D01*
X-38579Y43132D01*
X-38661Y43239D01*
X-38669Y43248D01*
X-38702Y43280D01*
X-38752Y43322D01*
X-38818Y43371D01*
X-38892Y43420D01*
X-38991Y43462D01*
X-39090Y43495D01*
X-39205Y43503D01*
D02*
G37*
G36*
X-15556D02*
X-15606D01*
X-15663Y43495D01*
X-15729Y43470D01*
X-15812Y43445D01*
X-15902Y43404D01*
X-16001Y43346D01*
X-16092Y43264D01*
X-16100Y43256D01*
X-16133Y43223D01*
X-16174Y43165D01*
X-16232Y43091D01*
X-16298Y42992D01*
X-16364Y42868D01*
X-16430Y42720D01*
X-16496Y42555D01*
X-16504Y42539D01*
X-16512Y42489D01*
X-16529Y42423D01*
X-16553Y42333D01*
X-16578Y42226D01*
X-16594Y42119D01*
X-16603Y42003D01*
X-16611Y41888D01*
Y41880D01*
Y41871D01*
Y41847D01*
Y41814D01*
X-16603Y41731D01*
X-16586Y41624D01*
X-16562Y41517D01*
X-16529Y41402D01*
X-16479Y41286D01*
X-16413Y41188D01*
X-16405Y41179D01*
X-16372Y41155D01*
X-16331Y41113D01*
X-16273Y41072D01*
X-16199Y41023D01*
X-16108Y40990D01*
X-16010Y40957D01*
X-15894Y40949D01*
X-15845D01*
X-15787Y40957D01*
X-15713Y40973D01*
X-15630Y40998D01*
X-15540Y41039D01*
X-15433Y41089D01*
X-15334Y41163D01*
X-15326Y41171D01*
X-15293Y41204D01*
X-15243Y41253D01*
X-15177Y41319D01*
X-15111Y41410D01*
X-15045Y41509D01*
X-14979Y41632D01*
X-14922Y41772D01*
Y41781D01*
X-14914Y41789D01*
X-14897Y41838D01*
X-14872Y41921D01*
X-14848Y42020D01*
X-14823Y42143D01*
X-14798Y42267D01*
X-14782Y42407D01*
X-14773Y42547D01*
Y42555D01*
Y42564D01*
Y42588D01*
Y42621D01*
X-14782Y42695D01*
X-14807Y42794D01*
X-14831Y42901D01*
X-14872Y43017D01*
X-14930Y43132D01*
X-15012Y43239D01*
X-15021Y43248D01*
X-15054Y43280D01*
X-15103Y43322D01*
X-15169Y43371D01*
X-15243Y43420D01*
X-15342Y43462D01*
X-15441Y43495D01*
X-15556Y43503D01*
D02*
G37*
G36*
X-35995Y92214D02*
X-36047D01*
X-36107Y92199D01*
X-36182Y92184D01*
X-36264Y92154D01*
X-36354Y92117D01*
X-36452Y92057D01*
X-36549Y91975D01*
X-36557Y91967D01*
X-36586Y91930D01*
X-36631Y91877D01*
X-36676Y91802D01*
X-36736Y91705D01*
X-36789Y91593D01*
X-36834Y91450D01*
X-36871Y91293D01*
X-35321D01*
Y91300D01*
Y91330D01*
Y91360D01*
Y91390D01*
Y91398D01*
Y91405D01*
Y91428D01*
Y91458D01*
X-35328Y91533D01*
X-35343Y91623D01*
X-35366Y91720D01*
X-35403Y91825D01*
X-35448Y91922D01*
X-35508Y92004D01*
X-35515Y92012D01*
X-35538Y92034D01*
X-35583Y92072D01*
X-35635Y92109D01*
X-35703Y92147D01*
X-35792Y92184D01*
X-35882Y92207D01*
X-35995Y92214D01*
D02*
G37*
G36*
X-39904Y93375D02*
X-41200D01*
X-41485Y92019D01*
X-40728D01*
X-40653Y92027D01*
X-40481Y92034D01*
X-40294Y92042D01*
X-40114Y92064D01*
X-40032Y92072D01*
X-39957Y92087D01*
X-39889Y92102D01*
X-39830Y92117D01*
X-39815Y92124D01*
X-39785Y92139D01*
X-39732Y92162D01*
X-39672Y92192D01*
X-39605Y92237D01*
X-39530Y92289D01*
X-39455Y92349D01*
X-39395Y92424D01*
X-39388Y92431D01*
X-39373Y92461D01*
X-39343Y92506D01*
X-39313Y92559D01*
X-39290Y92626D01*
X-39260Y92708D01*
X-39245Y92791D01*
X-39238Y92873D01*
Y92888D01*
Y92918D01*
X-39253Y92971D01*
X-39268Y93031D01*
X-39290Y93098D01*
X-39335Y93165D01*
X-39388Y93233D01*
X-39463Y93285D01*
X-39470Y93293D01*
X-39493Y93300D01*
X-39530Y93315D01*
X-39590Y93330D01*
X-39672Y93345D01*
X-39777Y93360D01*
X-39904Y93375D01*
D02*
G37*
G36*
X62317Y52608D02*
X62191D01*
X62144Y52600D01*
X62089D01*
X62026Y52584D01*
X61948Y52569D01*
X61861Y52545D01*
X61766Y52513D01*
X61664Y52474D01*
X61554Y52427D01*
X61452Y52364D01*
X61342Y52293D01*
X61231Y52207D01*
X61121Y52104D01*
X61019Y51994D01*
X60924Y51860D01*
X60917Y51852D01*
X60901Y51829D01*
X60877Y51789D01*
X60846Y51727D01*
X60806Y51664D01*
X60767Y51577D01*
X60720Y51482D01*
X60680Y51372D01*
X60633Y51262D01*
X60586Y51136D01*
X60547Y50995D01*
X60507Y50853D01*
X60476Y50703D01*
X60452Y50546D01*
X60436Y50389D01*
X60429Y50223D01*
Y50216D01*
Y50200D01*
Y50168D01*
X60436Y50137D01*
Y50090D01*
X60444Y50034D01*
X60468Y49909D01*
X60507Y49759D01*
X60570Y49610D01*
X60649Y49460D01*
X60759Y49310D01*
X60767D01*
X60775Y49295D01*
X60822Y49255D01*
X60893Y49192D01*
X60995Y49129D01*
X61121Y49066D01*
X61271Y49003D01*
X61436Y48964D01*
X61530Y48956D01*
X61633Y48948D01*
X61680D01*
X61711Y48956D01*
X61790Y48964D01*
X61900Y48988D01*
X62034Y49019D01*
X62176Y49066D01*
X62325Y49137D01*
X62475Y49232D01*
X62483D01*
X62490Y49248D01*
X62514Y49263D01*
X62546Y49287D01*
X62616Y49358D01*
X62711Y49452D01*
X62821Y49578D01*
X62931Y49727D01*
X63049Y49909D01*
X63152Y50113D01*
Y50121D01*
X63160Y50137D01*
X63175Y50176D01*
X63191Y50216D01*
X63215Y50271D01*
X63238Y50333D01*
X63262Y50404D01*
X63285Y50483D01*
X63333Y50656D01*
X63380Y50853D01*
X63411Y51058D01*
X63419Y51270D01*
Y51278D01*
Y51301D01*
Y51333D01*
X63411Y51372D01*
Y51427D01*
X63403Y51482D01*
X63380Y51624D01*
X63341Y51782D01*
X63278Y51947D01*
X63191Y52104D01*
X63144Y52175D01*
X63081Y52246D01*
Y52254D01*
X63065Y52262D01*
X63018Y52301D01*
X62947Y52364D01*
X62845Y52427D01*
X62727Y52490D01*
X62577Y52553D01*
X62412Y52592D01*
X62317Y52608D01*
D02*
G37*
G36*
X67632Y13336D02*
X67506D01*
X67459Y13328D01*
X67404D01*
X67341Y13313D01*
X67263Y13297D01*
X67176Y13273D01*
X67081Y13242D01*
X66979Y13203D01*
X66869Y13155D01*
X66767Y13092D01*
X66657Y13022D01*
X66546Y12935D01*
X66436Y12833D01*
X66334Y12722D01*
X66239Y12589D01*
X66232Y12581D01*
X66216Y12557D01*
X66192Y12518D01*
X66161Y12455D01*
X66121Y12392D01*
X66082Y12305D01*
X66035Y12211D01*
X65995Y12101D01*
X65948Y11991D01*
X65901Y11865D01*
X65862Y11723D01*
X65822Y11581D01*
X65791Y11432D01*
X65767Y11274D01*
X65751Y11117D01*
X65743Y10952D01*
Y10944D01*
Y10928D01*
Y10897D01*
X65751Y10865D01*
Y10818D01*
X65759Y10763D01*
X65783Y10637D01*
X65822Y10487D01*
X65885Y10338D01*
X65964Y10188D01*
X66074Y10039D01*
X66082D01*
X66090Y10023D01*
X66137Y9984D01*
X66208Y9921D01*
X66310Y9858D01*
X66436Y9795D01*
X66586Y9732D01*
X66751Y9692D01*
X66845Y9685D01*
X66948Y9677D01*
X66995D01*
X67026Y9685D01*
X67105Y9692D01*
X67215Y9716D01*
X67349Y9748D01*
X67491Y9795D01*
X67640Y9866D01*
X67790Y9960D01*
X67798D01*
X67805Y9976D01*
X67829Y9991D01*
X67861Y10015D01*
X67931Y10086D01*
X68026Y10180D01*
X68136Y10306D01*
X68246Y10456D01*
X68364Y10637D01*
X68467Y10842D01*
Y10849D01*
X68474Y10865D01*
X68490Y10904D01*
X68506Y10944D01*
X68529Y10999D01*
X68553Y11062D01*
X68577Y11133D01*
X68600Y11211D01*
X68648Y11384D01*
X68695Y11581D01*
X68726Y11786D01*
X68734Y11998D01*
Y12006D01*
Y12030D01*
Y12061D01*
X68726Y12101D01*
Y12156D01*
X68718Y12211D01*
X68695Y12353D01*
X68655Y12510D01*
X68593Y12675D01*
X68506Y12833D01*
X68459Y12903D01*
X68396Y12974D01*
Y12982D01*
X68380Y12990D01*
X68333Y13029D01*
X68262Y13092D01*
X68160Y13155D01*
X68042Y13218D01*
X67892Y13281D01*
X67727Y13321D01*
X67632Y13336D01*
D02*
G37*
G36*
X-3526Y43503D02*
X-3584D01*
X-3650Y43486D01*
X-3732Y43470D01*
X-3822Y43437D01*
X-3921Y43396D01*
X-4028Y43330D01*
X-4136Y43239D01*
X-4144Y43231D01*
X-4177Y43190D01*
X-4226Y43132D01*
X-4276Y43050D01*
X-4342Y42943D01*
X-4399Y42819D01*
X-4449Y42662D01*
X-4490Y42489D01*
X-2784D01*
Y42498D01*
Y42531D01*
Y42564D01*
Y42597D01*
Y42605D01*
Y42613D01*
Y42638D01*
Y42671D01*
X-2792Y42753D01*
X-2809Y42852D01*
X-2834Y42959D01*
X-2875Y43074D01*
X-2924Y43182D01*
X-2990Y43272D01*
X-2998Y43280D01*
X-3023Y43305D01*
X-3073Y43346D01*
X-3130Y43388D01*
X-3204Y43429D01*
X-3303Y43470D01*
X-3402Y43495D01*
X-3526Y43503D01*
D02*
G37*
G36*
X19451Y103798D02*
X17907D01*
X16483Y96993D01*
X17832D01*
X17937Y97008D01*
X18177D01*
X18447Y97023D01*
X18731Y97053D01*
X18986Y97083D01*
X19196Y97128D01*
X19226D01*
X19286Y97158D01*
X19391Y97188D01*
X19511Y97248D01*
X19661Y97323D01*
X19826Y97413D01*
X19991Y97518D01*
X20155Y97653D01*
X20186Y97682D01*
X20260Y97757D01*
X20365Y97877D01*
X20515Y98042D01*
X20680Y98252D01*
X20845Y98507D01*
X21025Y98807D01*
X21190Y99137D01*
Y99151D01*
X21205Y99181D01*
X21235Y99226D01*
X21265Y99301D01*
X21295Y99391D01*
X21325Y99496D01*
X21370Y99616D01*
X21415Y99766D01*
X21490Y100081D01*
X21565Y100456D01*
X21610Y100875D01*
X21624Y101325D01*
Y101340D01*
Y101370D01*
Y101430D01*
Y101505D01*
X21610Y101595D01*
Y101700D01*
X21579Y101940D01*
X21535Y102194D01*
X21475Y102464D01*
X21385Y102719D01*
X21265Y102944D01*
X21250Y102974D01*
X21205Y103034D01*
X21130Y103124D01*
X21025Y103244D01*
X20905Y103364D01*
X20755Y103469D01*
X20590Y103588D01*
X20410Y103664D01*
X20395D01*
X20335Y103679D01*
X20245Y103709D01*
X20110Y103738D01*
X19931Y103753D01*
X19721Y103783D01*
X19451Y103798D01*
D02*
G37*
G36*
X29674Y99631D02*
X27186D01*
X26631Y96993D01*
X28940D01*
X29060Y97008D01*
X29329D01*
X29614Y97023D01*
X29884Y97053D01*
X30139Y97098D01*
X30244Y97113D01*
X30334Y97143D01*
X30349Y97158D01*
X30409Y97173D01*
X30484Y97218D01*
X30588Y97278D01*
X30694Y97353D01*
X30813Y97443D01*
X30918Y97548D01*
X31023Y97682D01*
X31038Y97698D01*
X31068Y97742D01*
X31113Y97817D01*
X31158Y97922D01*
X31203Y98042D01*
X31248Y98177D01*
X31278Y98312D01*
X31293Y98462D01*
Y98492D01*
Y98552D01*
X31278Y98642D01*
X31248Y98762D01*
X31203Y98897D01*
X31128Y99032D01*
X31038Y99167D01*
X30918Y99301D01*
X30903Y99316D01*
X30843Y99346D01*
X30753Y99406D01*
X30619Y99466D01*
X30454Y99526D01*
X30229Y99586D01*
X29974Y99616D01*
X29674Y99631D01*
D02*
G37*
G36*
X-35802Y103349D02*
X-38021Y99286D01*
X-35203D01*
X-35802Y103349D01*
D02*
G37*
G36*
X-76550Y116588D02*
X-76671D01*
X-76722Y116582D01*
X-76830Y116575D01*
X-76951Y116569D01*
X-77078Y116550D01*
X-77200Y116531D01*
X-77308Y116499D01*
X-77320Y116493D01*
X-77352Y116480D01*
X-77403Y116461D01*
X-77461Y116435D01*
X-77524Y116397D01*
X-77594Y116359D01*
X-77665Y116308D01*
X-77722Y116251D01*
X-77728Y116244D01*
X-77747Y116225D01*
X-77773Y116187D01*
X-77805Y116142D01*
X-77837Y116085D01*
X-77875Y116021D01*
X-77900Y115945D01*
X-77926Y115856D01*
Y115849D01*
X-77932Y115817D01*
X-77938Y115767D01*
X-77951Y115696D01*
Y115652D01*
X-77957Y115601D01*
Y115543D01*
X-77964Y115480D01*
Y115403D01*
X-77970Y115327D01*
Y115238D01*
Y115142D01*
Y114760D01*
X-75136D01*
Y115403D01*
Y115410D01*
Y115416D01*
Y115435D01*
Y115461D01*
Y115524D01*
X-75142Y115601D01*
Y115690D01*
X-75155Y115773D01*
X-75161Y115856D01*
X-75174Y115926D01*
Y115932D01*
X-75187Y115964D01*
X-75199Y116002D01*
X-75218Y116047D01*
X-75238Y116104D01*
X-75269Y116161D01*
X-75308Y116219D01*
X-75352Y116270D01*
X-75359Y116276D01*
X-75378Y116295D01*
X-75410Y116321D01*
X-75454Y116352D01*
X-75511Y116384D01*
X-75582Y116429D01*
X-75664Y116461D01*
X-75766Y116499D01*
X-75773D01*
X-75779Y116505D01*
X-75798D01*
X-75817Y116512D01*
X-75881Y116525D01*
X-75970Y116544D01*
X-76085Y116563D01*
X-76218Y116575D01*
X-76371Y116582D01*
X-76550Y116588D01*
D02*
G37*
G36*
X69497Y63067D02*
X69446D01*
X69408Y63061D01*
X69363Y63054D01*
X69312Y63048D01*
X69191Y63022D01*
X69051Y62978D01*
X68981Y62946D01*
X68911Y62914D01*
X68835Y62870D01*
X68765Y62819D01*
X68701Y62761D01*
X68637Y62697D01*
X68631Y62691D01*
X68625Y62678D01*
X68605Y62659D01*
X68586Y62627D01*
X68561Y62589D01*
X68535Y62545D01*
X68503Y62487D01*
X68478Y62424D01*
X68446Y62347D01*
X68414Y62264D01*
X68389Y62175D01*
X68363Y62073D01*
X68344Y61965D01*
X68325Y61850D01*
X68319Y61723D01*
X68312Y61589D01*
Y61583D01*
Y61557D01*
Y61519D01*
X68319Y61468D01*
X68325Y61411D01*
X68331Y61341D01*
X68338Y61264D01*
X68357Y61181D01*
X68395Y61003D01*
X68453Y60818D01*
X68491Y60729D01*
X68535Y60640D01*
X68586Y60564D01*
X68644Y60487D01*
X68650Y60481D01*
X68656Y60474D01*
X68675Y60455D01*
X68707Y60430D01*
X68739Y60404D01*
X68777Y60373D01*
X68822Y60334D01*
X68879Y60302D01*
X69000Y60232D01*
X69147Y60175D01*
X69230Y60150D01*
X69312Y60137D01*
X69402Y60124D01*
X69497Y60118D01*
X69548D01*
X69586Y60124D01*
X69625Y60130D01*
X69675Y60137D01*
X69797Y60162D01*
X69930Y60207D01*
X70000Y60239D01*
X70070Y60277D01*
X70140Y60315D01*
X70211Y60366D01*
X70281Y60423D01*
X70344Y60487D01*
X70351Y60493D01*
X70357Y60506D01*
X70376Y60525D01*
X70395Y60557D01*
X70421Y60595D01*
X70453Y60646D01*
X70485Y60697D01*
X70516Y60767D01*
X70542Y60838D01*
X70574Y60920D01*
X70605Y61016D01*
X70631Y61111D01*
X70650Y61220D01*
X70669Y61341D01*
X70676Y61468D01*
X70682Y61602D01*
Y61608D01*
Y61634D01*
Y61672D01*
X70676Y61723D01*
X70669Y61787D01*
X70663Y61857D01*
X70657Y61933D01*
X70644Y62016D01*
X70605Y62194D01*
X70548Y62379D01*
X70510Y62468D01*
X70465Y62551D01*
X70414Y62634D01*
X70357Y62704D01*
X70351Y62710D01*
X70344Y62717D01*
X70325Y62736D01*
X70300Y62761D01*
X70268Y62787D01*
X70223Y62819D01*
X70179Y62850D01*
X70128Y62889D01*
X70007Y62952D01*
X69860Y63010D01*
X69777Y63035D01*
X69688Y63054D01*
X69593Y63061D01*
X69497Y63067D01*
D02*
G37*
G36*
X-76550Y112263D02*
X-76671D01*
X-76722Y112257D01*
X-76830Y112250D01*
X-76951Y112244D01*
X-77078Y112225D01*
X-77200Y112206D01*
X-77308Y112174D01*
X-77320Y112167D01*
X-77352Y112155D01*
X-77403Y112136D01*
X-77461Y112110D01*
X-77524Y112072D01*
X-77594Y112034D01*
X-77665Y111983D01*
X-77722Y111925D01*
X-77728Y111919D01*
X-77747Y111900D01*
X-77773Y111862D01*
X-77805Y111817D01*
X-77837Y111760D01*
X-77875Y111696D01*
X-77900Y111620D01*
X-77926Y111530D01*
Y111524D01*
X-77932Y111492D01*
X-77938Y111441D01*
X-77951Y111371D01*
Y111327D01*
X-77957Y111276D01*
Y111218D01*
X-77964Y111155D01*
Y111078D01*
X-77970Y111002D01*
Y110913D01*
Y110817D01*
Y110435D01*
X-75136D01*
Y111078D01*
Y111084D01*
Y111091D01*
Y111110D01*
Y111135D01*
Y111199D01*
X-75142Y111276D01*
Y111365D01*
X-75155Y111448D01*
X-75161Y111530D01*
X-75174Y111600D01*
Y111607D01*
X-75187Y111639D01*
X-75199Y111677D01*
X-75218Y111722D01*
X-75238Y111779D01*
X-75269Y111836D01*
X-75308Y111893D01*
X-75352Y111944D01*
X-75359Y111951D01*
X-75378Y111970D01*
X-75410Y111995D01*
X-75454Y112027D01*
X-75511Y112059D01*
X-75582Y112104D01*
X-75664Y112136D01*
X-75766Y112174D01*
X-75773D01*
X-75779Y112180D01*
X-75798D01*
X-75817Y112187D01*
X-75881Y112199D01*
X-75970Y112218D01*
X-76085Y112238D01*
X-76218Y112250D01*
X-76371Y112257D01*
X-76550Y112263D01*
D02*
G37*
G36*
X75529Y122852D02*
X74962D01*
Y120018D01*
X75726D01*
X75802Y120024D01*
X75892D01*
X75974Y120037D01*
X76057Y120043D01*
X76127Y120056D01*
X76134D01*
X76165Y120069D01*
X76204Y120081D01*
X76248Y120100D01*
X76306Y120119D01*
X76363Y120151D01*
X76420Y120189D01*
X76471Y120234D01*
X76478Y120240D01*
X76497Y120260D01*
X76522Y120291D01*
X76554Y120336D01*
X76586Y120393D01*
X76631Y120463D01*
X76662Y120546D01*
X76701Y120648D01*
Y120654D01*
X76707Y120661D01*
Y120680D01*
X76713Y120699D01*
X76726Y120763D01*
X76745Y120852D01*
X76764Y120967D01*
X76777Y121100D01*
X76783Y121253D01*
X76790Y121432D01*
Y121438D01*
Y121451D01*
Y121476D01*
Y121514D01*
Y121553D01*
X76783Y121604D01*
X76777Y121712D01*
X76771Y121833D01*
X76752Y121960D01*
X76732Y122081D01*
X76701Y122190D01*
X76694Y122202D01*
X76681Y122234D01*
X76662Y122285D01*
X76637Y122343D01*
X76599Y122406D01*
X76560Y122476D01*
X76509Y122546D01*
X76452Y122604D01*
X76446Y122610D01*
X76427Y122629D01*
X76388Y122655D01*
X76344Y122687D01*
X76287Y122718D01*
X76223Y122757D01*
X76146Y122782D01*
X76057Y122808D01*
X76051D01*
X76019Y122814D01*
X75968Y122820D01*
X75898Y122833D01*
X75853D01*
X75802Y122839D01*
X75745D01*
X75681Y122846D01*
X75605D01*
X75529Y122852D01*
D02*
G37*
G36*
X74847Y83146D02*
X74796D01*
X74758Y83139D01*
X74713Y83133D01*
X74662Y83127D01*
X74541Y83101D01*
X74408Y83056D01*
X74331Y83025D01*
X74261Y82993D01*
X74191Y82948D01*
X74121Y82897D01*
X74051Y82840D01*
X73987Y82776D01*
X73981Y82770D01*
X73974Y82757D01*
X73955Y82738D01*
X73936Y82706D01*
X73911Y82668D01*
X73885Y82623D01*
X73853Y82566D01*
X73828Y82502D01*
X73796Y82426D01*
X73764Y82343D01*
X73739Y82254D01*
X73713Y82152D01*
X73694Y82044D01*
X73675Y81929D01*
X73669Y81802D01*
X73662Y81668D01*
Y81661D01*
Y81636D01*
Y81598D01*
X73669Y81547D01*
X73675Y81483D01*
X73681Y81413D01*
X73688Y81330D01*
X73700Y81248D01*
X73739Y81063D01*
X73802Y80878D01*
X73834Y80789D01*
X73879Y80700D01*
X73930Y80623D01*
X73987Y80547D01*
X73993Y80540D01*
X74000Y80534D01*
X74019Y80515D01*
X74044Y80489D01*
X74083Y80464D01*
X74121Y80432D01*
X74216Y80362D01*
X74337Y80292D01*
X74478Y80235D01*
X74560Y80209D01*
X74643Y80196D01*
X74732Y80184D01*
X74822Y80177D01*
X74853D01*
X74892Y80184D01*
X74936D01*
X74987Y80190D01*
X75045Y80203D01*
X75172Y80235D01*
X75159Y80241D01*
X75127Y80266D01*
X75076Y80292D01*
X75006Y80336D01*
X74930Y80375D01*
X74841Y80426D01*
X74745Y80470D01*
X74643Y80509D01*
X74879Y81005D01*
X74885D01*
X74898Y80999D01*
X74923Y80993D01*
X74949Y80980D01*
X74987Y80961D01*
X75032Y80942D01*
X75140Y80891D01*
X75267Y80827D01*
X75401Y80751D01*
X75548Y80661D01*
X75694Y80559D01*
X75701Y80566D01*
X75720Y80598D01*
X75752Y80636D01*
X75790Y80693D01*
X75828Y80763D01*
X75866Y80840D01*
X75911Y80935D01*
X75943Y81031D01*
Y81037D01*
X75949Y81044D01*
X75955Y81082D01*
X75968Y81139D01*
X75987Y81216D01*
X76006Y81311D01*
X76019Y81419D01*
X76025Y81541D01*
X76032Y81668D01*
Y81674D01*
Y81700D01*
Y81738D01*
X76025Y81789D01*
X76019Y81853D01*
X76013Y81923D01*
X76006Y81999D01*
X75994Y82088D01*
X75949Y82267D01*
X75892Y82451D01*
X75854Y82541D01*
X75809Y82623D01*
X75758Y82706D01*
X75701Y82776D01*
X75694Y82783D01*
X75688Y82795D01*
X75669Y82808D01*
X75643Y82834D01*
X75611Y82859D01*
X75573Y82891D01*
X75522Y82929D01*
X75471Y82961D01*
X75350Y83031D01*
X75204Y83088D01*
X75121Y83114D01*
X75038Y83133D01*
X74943Y83139D01*
X74847Y83146D01*
D02*
G37*
G36*
X70484Y83088D02*
X69490D01*
Y81999D01*
X70331D01*
X70458Y82006D01*
X70586Y82012D01*
X70713Y82018D01*
X70770Y82025D01*
X70821Y82031D01*
X70866Y82044D01*
X70898Y82050D01*
X70904D01*
X70923Y82063D01*
X70955Y82076D01*
X70987Y82095D01*
X71031Y82114D01*
X71070Y82146D01*
X71108Y82184D01*
X71146Y82228D01*
X71152Y82235D01*
X71159Y82254D01*
X71172Y82279D01*
X71191Y82318D01*
X71210Y82369D01*
X71223Y82420D01*
X71229Y82483D01*
X71235Y82553D01*
Y82566D01*
Y82591D01*
X71229Y82630D01*
X71223Y82681D01*
X71203Y82732D01*
X71184Y82795D01*
X71152Y82853D01*
X71114Y82904D01*
X71108Y82910D01*
X71095Y82923D01*
X71070Y82948D01*
X71031Y82974D01*
X70987Y83006D01*
X70929Y83031D01*
X70866Y83050D01*
X70789Y83069D01*
X70783D01*
X70764Y83076D01*
X70732D01*
X70675Y83082D01*
X70541D01*
X70484Y83088D01*
D02*
G37*
G36*
X88205Y177491D02*
X87872D01*
Y175826D01*
X88321D01*
X88366Y175830D01*
X88418D01*
X88467Y175838D01*
X88515Y175841D01*
X88556Y175849D01*
X88560D01*
X88579Y175856D01*
X88601Y175864D01*
X88627Y175875D01*
X88661Y175886D01*
X88695Y175905D01*
X88728Y175927D01*
X88758Y175953D01*
X88762Y175957D01*
X88773Y175969D01*
X88788Y175987D01*
X88807Y176013D01*
X88826Y176047D01*
X88852Y176088D01*
X88870Y176137D01*
X88893Y176197D01*
Y176200D01*
X88897Y176204D01*
Y176215D01*
X88900Y176226D01*
X88908Y176264D01*
X88919Y176316D01*
X88930Y176384D01*
X88938Y176462D01*
X88941Y176552D01*
X88945Y176657D01*
Y176660D01*
Y176668D01*
Y176683D01*
Y176705D01*
Y176728D01*
X88941Y176758D01*
X88938Y176821D01*
X88934Y176892D01*
X88923Y176967D01*
X88911Y177038D01*
X88893Y177102D01*
X88889Y177109D01*
X88882Y177128D01*
X88870Y177158D01*
X88855Y177191D01*
X88833Y177229D01*
X88810Y177270D01*
X88781Y177311D01*
X88747Y177345D01*
X88743Y177348D01*
X88732Y177360D01*
X88710Y177375D01*
X88683Y177393D01*
X88650Y177412D01*
X88612Y177435D01*
X88567Y177450D01*
X88515Y177464D01*
X88511D01*
X88493Y177468D01*
X88463Y177472D01*
X88422Y177479D01*
X88395D01*
X88366Y177483D01*
X88332D01*
X88294Y177487D01*
X88249D01*
X88205Y177491D01*
D02*
G37*
G36*
X-9854Y103933D02*
X-9884D01*
X-9944Y103918D01*
X-10049Y103903D01*
X-10184Y103873D01*
X-10349Y103798D01*
X-10514Y103709D01*
X-10679Y103574D01*
X-10844Y103394D01*
Y103379D01*
X-10874Y103364D01*
X-10889Y103319D01*
X-10934Y103259D01*
X-10964Y103184D01*
X-11009Y103094D01*
X-11069Y102989D01*
X-11114Y102869D01*
X-11219Y102599D01*
X-11293Y102254D01*
X-11354Y101865D01*
X-11383Y101430D01*
Y101415D01*
Y101400D01*
Y101310D01*
X-11368Y101160D01*
X-11338Y100995D01*
X-11309Y100800D01*
X-11264Y100620D01*
X-11189Y100441D01*
X-11084Y100276D01*
X-11069Y100261D01*
X-11024Y100216D01*
X-10964Y100156D01*
X-10874Y100096D01*
X-10769Y100021D01*
X-10634Y99961D01*
X-10499Y99916D01*
X-10334Y99901D01*
X-10274D01*
X-10199Y99916D01*
X-10094Y99931D01*
X-9989Y99976D01*
X-9854Y100021D01*
X-9720Y100096D01*
X-9585Y100186D01*
X-9570Y100201D01*
X-9525Y100246D01*
X-9450Y100306D01*
X-9360Y100411D01*
X-9270Y100531D01*
X-9165Y100696D01*
X-9075Y100875D01*
X-8985Y101100D01*
X-8970Y101130D01*
X-8955Y101205D01*
X-8910Y101340D01*
X-8865Y101490D01*
X-8835Y101685D01*
X-8790Y101910D01*
X-8775Y102135D01*
X-8760Y102374D01*
Y102389D01*
Y102404D01*
Y102449D01*
Y102509D01*
X-8775Y102644D01*
X-8805Y102824D01*
X-8835Y103004D01*
X-8895Y103199D01*
X-8970Y103394D01*
X-9075Y103544D01*
X-9090Y103559D01*
X-9135Y103603D01*
X-9195Y103664D01*
X-9285Y103738D01*
X-9405Y103813D01*
X-9540Y103873D01*
X-9690Y103918D01*
X-9854Y103933D01*
D02*
G37*
G36*
X30214Y103783D02*
X28055D01*
X27546Y101385D01*
X29404D01*
X29494Y101400D01*
X29734D01*
X29989Y101415D01*
X30244Y101445D01*
X30484Y101490D01*
X30678Y101535D01*
X30694Y101550D01*
X30753Y101565D01*
X30843Y101595D01*
X30948Y101655D01*
X31053Y101715D01*
X31173Y101805D01*
X31278Y101910D01*
X31383Y102030D01*
X31398Y102045D01*
X31428Y102090D01*
X31458Y102164D01*
X31503Y102254D01*
X31548Y102359D01*
X31593Y102479D01*
X31608Y102614D01*
X31623Y102764D01*
Y102779D01*
Y102824D01*
X31608Y102899D01*
X31593Y102989D01*
X31563Y103094D01*
X31533Y103199D01*
X31473Y103304D01*
X31398Y103394D01*
X31383Y103409D01*
X31353Y103439D01*
X31308Y103484D01*
X31233Y103529D01*
X31143Y103588D01*
X31038Y103648D01*
X30918Y103693D01*
X30768Y103738D01*
X30753D01*
X30723Y103753D01*
X30648D01*
X30544Y103768D01*
X30409D01*
X30214Y103783D01*
D02*
G37*
%LPD*%
D21*
X65945Y25295D02*
G03*
X65945Y25295I-24803J0D01*
G01*
X81004Y128150D02*
Y156988D01*
X-81988Y128150D02*
X81004D01*
X-63484Y203839D02*
X62500D01*
Y172343D02*
Y203839D01*
X-63484Y172343D02*
X62500D01*
X-63484D02*
Y203839D01*
X-81988Y156988D02*
X81004D01*
Y224705D01*
X-81988D02*
X81004D01*
X-81988Y156988D02*
Y224705D01*
Y128150D02*
Y156988D01*
D42*
X37303Y92126D02*
G03*
X37303Y92126I-492J0D01*
G01*
X-49508Y81398D02*
G03*
X-49508Y81398I-492J0D01*
G01*
D43*
X-29468Y15748D02*
G03*
X-29468Y15748I-7934J0D01*
G01*
X-50195Y11811D02*
Y19685D01*
X-24608Y11811D02*
Y19685D01*
X-44290Y2955D02*
X-30513D01*
X-44290Y28541D02*
X-30513D01*
D44*
X-9102Y10862D02*
D03*
Y12437D02*
D03*
Y14012D02*
D03*
Y15587D02*
D03*
Y17161D02*
D03*
Y18736D02*
D03*
Y20311D02*
D03*
Y21886D02*
D03*
Y23461D02*
D03*
Y25035D02*
D03*
Y26610D02*
D03*
Y28185D02*
D03*
X-7528D02*
D03*
Y26610D02*
D03*
Y25035D02*
D03*
Y23461D02*
D03*
Y21886D02*
D03*
Y20311D02*
D03*
Y18736D02*
D03*
Y17161D02*
D03*
Y15587D02*
D03*
Y14012D02*
D03*
Y12437D02*
D03*
Y10862D02*
D03*
Y9287D02*
D03*
X-5953Y28185D02*
D03*
Y26610D02*
D03*
Y25035D02*
D03*
Y23461D02*
D03*
Y21886D02*
D03*
Y20311D02*
D03*
Y18736D02*
D03*
Y17161D02*
D03*
Y15587D02*
D03*
Y14012D02*
D03*
Y12437D02*
D03*
Y10862D02*
D03*
Y9287D02*
D03*
X-4378Y12437D02*
D03*
Y10862D02*
D03*
Y9287D02*
D03*
X-2803Y12437D02*
D03*
Y10862D02*
D03*
Y9287D02*
D03*
X-1228Y28185D02*
D03*
Y26610D02*
D03*
Y25035D02*
D03*
Y23461D02*
D03*
Y21886D02*
D03*
Y20311D02*
D03*
Y18736D02*
D03*
Y17161D02*
D03*
Y15587D02*
D03*
Y14012D02*
D03*
Y12437D02*
D03*
Y10862D02*
D03*
Y9287D02*
D03*
X347Y28185D02*
D03*
Y26610D02*
D03*
Y25035D02*
D03*
Y23461D02*
D03*
Y21886D02*
D03*
Y20311D02*
D03*
Y18736D02*
D03*
Y17161D02*
D03*
Y15587D02*
D03*
Y14012D02*
D03*
Y12437D02*
D03*
Y10862D02*
D03*
Y9287D02*
D03*
X1921Y28185D02*
D03*
Y26610D02*
D03*
Y25035D02*
D03*
Y23461D02*
D03*
Y21886D02*
D03*
Y20311D02*
D03*
Y18736D02*
D03*
Y17161D02*
D03*
Y15587D02*
D03*
Y14012D02*
D03*
Y12437D02*
D03*
Y10862D02*
D03*
X3496Y28185D02*
D03*
Y26610D02*
D03*
Y25035D02*
D03*
X5071Y28185D02*
D03*
Y26610D02*
D03*
Y25035D02*
D03*
X6646Y28185D02*
D03*
Y26610D02*
D03*
Y25035D02*
D03*
Y23461D02*
D03*
Y21886D02*
D03*
Y20311D02*
D03*
Y18736D02*
D03*
Y17161D02*
D03*
Y15587D02*
D03*
Y14012D02*
D03*
Y12437D02*
D03*
Y10862D02*
D03*
Y9287D02*
D03*
X8220Y28185D02*
D03*
Y26610D02*
D03*
Y25035D02*
D03*
Y23461D02*
D03*
Y21886D02*
D03*
Y20311D02*
D03*
Y18736D02*
D03*
Y17161D02*
D03*
Y15587D02*
D03*
Y14012D02*
D03*
Y12437D02*
D03*
Y10862D02*
D03*
Y9287D02*
D03*
X9795Y28185D02*
D03*
Y26610D02*
D03*
Y25035D02*
D03*
Y23461D02*
D03*
Y21886D02*
D03*
Y20311D02*
D03*
Y18736D02*
D03*
Y17161D02*
D03*
Y15587D02*
D03*
Y14012D02*
D03*
Y12437D02*
D03*
Y10862D02*
D03*
Y9287D02*
D03*
D45*
X39272Y88583D02*
X40945D01*
Y86909D02*
Y88583D01*
Y64961D02*
Y66634D01*
X39272Y64961D02*
X40945D01*
X17323D02*
X18996D01*
X17323D02*
Y66634D01*
Y86909D02*
Y88583D01*
X18996D01*
X-90680Y38146D02*
Y68854D01*
X-75720Y38146D02*
Y68854D01*
X-48327Y78543D02*
Y80216D01*
X-46654D01*
X-34252D02*
X-32579D01*
Y78543D02*
Y80216D01*
Y64468D02*
Y66142D01*
X-34252Y64468D02*
X-32579D01*
X-48327D02*
X-46654D01*
X-48327D02*
Y66142D01*
X74410Y16142D02*
Y19685D01*
X74409Y36614D02*
Y39370D01*
Y26772D02*
Y29528D01*
X74410Y16142D02*
X87402D01*
X74410Y50000D02*
X87402D01*
X74410Y46457D02*
Y50000D01*
X87402Y46457D02*
Y50000D01*
X87402Y36614D02*
Y39370D01*
X87402Y16142D02*
Y19685D01*
X87402Y26772D02*
Y29528D01*
D46*
X79646Y56653D02*
X89646D01*
X79646Y126654D02*
X89646D01*
X79646Y56653D02*
Y126654D01*
X89646Y56653D02*
Y126654D01*
X-80827Y102717D02*
Y122716D01*
X-90827Y102717D02*
X-80827D01*
X-90827D02*
Y122716D01*
X-80827D01*
Y102717D02*
Y122716D01*
X-90827Y102717D02*
X-80827D01*
X-90827D02*
Y122716D01*
X-80827D01*
X80827Y206575D02*
X90827D01*
X80827Y146575D02*
X90827D01*
Y206575D01*
X80827Y146575D02*
Y206575D01*
D47*
X-14090Y51765D02*
X-13990D01*
Y51865D02*
X-13890D01*
Y51965D02*
X-13790D01*
X-13890Y52065D02*
X-13590D01*
X-13790Y52165D02*
X-13490D01*
X-13690Y52265D02*
X-13390D01*
X-13690Y52365D02*
X-13290D01*
X-13590Y52465D02*
X-13090D01*
X-13490Y52565D02*
X-12990D01*
X-13490Y52665D02*
X-12890D01*
X-13390Y52765D02*
X-12790D01*
X-13290Y52865D02*
X-12590D01*
X-13290Y52965D02*
X-12490D01*
X-13190Y53065D02*
X-12390D01*
X-13090Y53165D02*
X-12290D01*
X-13090Y53265D02*
X-12090D01*
X-12990Y53365D02*
X-11990D01*
X-12890Y53465D02*
X-11890D01*
X-12890Y53565D02*
X-11790D01*
X-12790Y53665D02*
X-11590D01*
X-12790Y53765D02*
X-11490D01*
X-12690Y53865D02*
X-11390D01*
X-12590Y53965D02*
X-11290D01*
X-12590Y54065D02*
X-11090D01*
X-12490Y54165D02*
X-10990D01*
X-12390Y54265D02*
X-10890D01*
X-12390Y54365D02*
X-10790D01*
X-12290Y54465D02*
X-10590D01*
X-12190Y54565D02*
X-10490D01*
X-12190Y54665D02*
X-10390D01*
X-12090Y54765D02*
X-10290D01*
X-11990Y54865D02*
X-10090D01*
X-11990Y54965D02*
X-9990D01*
X-11890Y55065D02*
X-9890D01*
X-11790Y55165D02*
X-9790D01*
X-11790Y55265D02*
X-9590D01*
X-11690Y55365D02*
X-9490D01*
X-11590Y55465D02*
X-9390D01*
X-11590Y55565D02*
X-9290D01*
X-11490Y55665D02*
X-9090D01*
X-11490Y55765D02*
X-8990D01*
X-11390Y55865D02*
X-8890D01*
X-11290Y55965D02*
X-8790D01*
X-11290Y56065D02*
X-8590D01*
X-11190Y56165D02*
X-8490D01*
X-11090Y56265D02*
X-8390D01*
X-11090Y56365D02*
X-8290D01*
X-10990Y56465D02*
X-8090D01*
X-20090D02*
X-19990D01*
X-10990Y56565D02*
X-7990D01*
X-19990D02*
X-19790D01*
X-11190Y56665D02*
X-7890D01*
X-19890D02*
X-19690D01*
X-11290Y56765D02*
X-7790D01*
X-19890D02*
X-19590D01*
X-11490Y56865D02*
X-7590D01*
X-19790D02*
X-19490D01*
X-11690Y56965D02*
X-7490D01*
X-19690D02*
X-19290D01*
X-11890Y57065D02*
X-7390D01*
X-19690D02*
X-19190D01*
X-12090Y57165D02*
X-7290D01*
X-19590D02*
X-19090D01*
X-12290Y57265D02*
X-7090D01*
X-19490D02*
X-18990D01*
X-12390Y57365D02*
X-6990D01*
X-19490D02*
X-18790D01*
X-12590Y57465D02*
X-6890D01*
X-19390D02*
X-18690D01*
X-12790Y57565D02*
X-6890D01*
X-19290D02*
X-18590D01*
X-12990Y57665D02*
X-7090D01*
X-19290D02*
X-18490D01*
X-13190Y57765D02*
X-7390D01*
X-19190D02*
X-18290D01*
X-13390Y57865D02*
X-7590D01*
X-19090D02*
X-18190D01*
X-13490Y57965D02*
X-7790D01*
X-19090D02*
X-18090D01*
X-13590Y58065D02*
X-7990D01*
X-18990D02*
X-17990D01*
X-13490Y58165D02*
X-8290D01*
X-18990D02*
X-17790D01*
X-13390Y58265D02*
X-8490D01*
X-18890D02*
X-17690D01*
X-13290Y58365D02*
X-8690D01*
X-18790D02*
X-17590D01*
X-13190Y58465D02*
X-8890D01*
X-18790D02*
X-17490D01*
X-13090Y58565D02*
X-9190D01*
X-18690D02*
X-17290D01*
X-12990Y58665D02*
X-9390D01*
X-18590D02*
X-17190D01*
X-12890Y58765D02*
X-9490D01*
X-18590D02*
X-17090D01*
X-12790Y58865D02*
X-9490D01*
X-18490D02*
X-16990D01*
X-12690Y58965D02*
X-9390D01*
X-18390D02*
X-16790D01*
X-12590Y59065D02*
X-9390D01*
X-18390D02*
X-16690D01*
X-12490Y59165D02*
X-9390D01*
X-18290D02*
X-16590D01*
X-12390Y59265D02*
X-9290D01*
X-18190D02*
X-16490D01*
X-12290Y59365D02*
X-9290D01*
X-18190D02*
X-16290D01*
X-12190Y59465D02*
X-9290D01*
X-18090D02*
X-16190D01*
X-12090Y59565D02*
X-9190D01*
X-17990D02*
X-16090D01*
X-11990Y59665D02*
X-9190D01*
X-17990D02*
X-15990D01*
X-11890Y59765D02*
X-9190D01*
X-17890D02*
X-15790D01*
X-11790Y59865D02*
X-9090D01*
X-17890D02*
X-15690D01*
X-11690Y59965D02*
X-9090D01*
X-17790D02*
X-15590D01*
X-11590Y60065D02*
X-9090D01*
X-17690D02*
X-15490D01*
X-11490Y60165D02*
X-8990D01*
X-17690D02*
X-15290D01*
X-11390Y60265D02*
X-8990D01*
X-17590D02*
X-15190D01*
X-11290Y60365D02*
X-8890D01*
X-17490D02*
X-15090D01*
X-11190Y60465D02*
X-8890D01*
X-17490D02*
X-14990D01*
X-11090Y60565D02*
X-8890D01*
X-17390D02*
X-14790D01*
X-10990Y60665D02*
X-8790D01*
X-17290D02*
X-14690D01*
X-10890Y60765D02*
X-8790D01*
X-17290D02*
X-14590D01*
X-10790Y60865D02*
X-8790D01*
X-17190D02*
X-14490D01*
X-10690Y60965D02*
X-8690D01*
X-17090D02*
X-14290D01*
X-10590Y61065D02*
X-8690D01*
X-17090D02*
X-14190D01*
X-10490Y61165D02*
X-8690D01*
X-16990D02*
X-14090D01*
X-10390Y61265D02*
X-8590D01*
X-17190D02*
X-13990D01*
X-10290Y61365D02*
X-8590D01*
X-17390D02*
X-13790D01*
X-10190Y61465D02*
X-8590D01*
X-17590D02*
X-13690D01*
X-10090Y61565D02*
X-8490D01*
X-17790D02*
X-13590D01*
X-10090Y61665D02*
X-8490D01*
X-17890D02*
X-13490D01*
X-9990Y61765D02*
X-8390D01*
X-18090D02*
X-13290D01*
X-9890Y61865D02*
X-8390D01*
X-18290D02*
X-13190D01*
X-9790Y61965D02*
X-8390D01*
X-18490D02*
X-13090D01*
X-9690Y62065D02*
X-8290D01*
X-18690D02*
X-12990D01*
X-9590Y62165D02*
X-8290D01*
X-18790D02*
X-12890D01*
X-9490Y62265D02*
X-8290D01*
X-18990D02*
X-13190D01*
X-9390Y62365D02*
X-8190D01*
X-19190D02*
X-13390D01*
X-9290Y62465D02*
X-8190D01*
X-19390D02*
X-13590D01*
X-9190Y62565D02*
X-8190D01*
X-19590D02*
X-13790D01*
X-9090Y62665D02*
X-8090D01*
X-19590D02*
X-14090D01*
X-8990Y62765D02*
X-8090D01*
X-19490D02*
X-14290D01*
X-8890Y62865D02*
X-8090D01*
X-19390D02*
X-14490D01*
X-8790Y62965D02*
X-7990D01*
X-19290D02*
X-14790D01*
X-8690Y63065D02*
X-7990D01*
X-19190D02*
X-14990D01*
X-8590Y63165D02*
X-7890D01*
X-19090D02*
X-15190D01*
X-8490Y63265D02*
X-7890D01*
X-18990D02*
X-15390D01*
X-8390Y63365D02*
X-7890D01*
X-18890D02*
X-15590D01*
X-8290Y63465D02*
X-7790D01*
X-18890D02*
X-15490D01*
X-8190Y63565D02*
X-7790D01*
X-18790D02*
X-15490D01*
X-8090Y63665D02*
X-7790D01*
X-18690D02*
X-15490D01*
X-7990Y63765D02*
X-7690D01*
X-18590D02*
X-15390D01*
X-7890Y63865D02*
X-7690D01*
X-18490D02*
X-15390D01*
X-7790Y63965D02*
X-7690D01*
X-18390D02*
X-15390D01*
X-7690Y64065D02*
X-7590D01*
X-18290D02*
X-15290D01*
X-18190Y64165D02*
X-15290D01*
X-18090Y64265D02*
X-15290D01*
X-17990Y64365D02*
X-15190D01*
X-17890Y64465D02*
X-15190D01*
X-17790Y64565D02*
X-15190D01*
X-17690Y64665D02*
X-15090D01*
X-17590Y64765D02*
X-15090D01*
X-17490Y64865D02*
X-14990D01*
X-17390Y64965D02*
X-14990D01*
X-17290Y65065D02*
X-14990D01*
X-17190Y65165D02*
X-14890D01*
X-17090Y65265D02*
X-14890D01*
X-16990Y65365D02*
X-14890D01*
X-16890Y65465D02*
X-14790D01*
X-16790Y65565D02*
X-14790D01*
X-16690Y65665D02*
X-14790D01*
X-16590Y65765D02*
X-14690D01*
X-16490Y65865D02*
X-14690D01*
X-16390Y65965D02*
X-14690D01*
X-16290Y66065D02*
X-14590D01*
X-16190Y66165D02*
X-14590D01*
X-16090Y66265D02*
X-14590D01*
X-15990Y66365D02*
X-14490D01*
X-15890Y66465D02*
X-14490D01*
X-15790Y66565D02*
X-14390D01*
X-15690Y66665D02*
X-14390D01*
X-15590Y66765D02*
X-14390D01*
X-15490Y66865D02*
X-14290D01*
X-15390Y66965D02*
X-14290D01*
X-15290Y67065D02*
X-14290D01*
X-15190Y67165D02*
X-14190D01*
X-15190Y67265D02*
X-11690D01*
X-5390Y67365D02*
X-2890D01*
X-15090D02*
X-10790D01*
X-6690Y67465D02*
X-2390D01*
X-15290D02*
X-10090D01*
X-7490Y67565D02*
X-2090D01*
X-15590D02*
X-9290D01*
X-7990Y67665D02*
X-1790D01*
X-15790D02*
X-8390D01*
X-15990Y67765D02*
X-1590D01*
X-16190Y67865D02*
X-1490D01*
X-16390Y67965D02*
X-1290D01*
X-16490Y68065D02*
X-1190D01*
X-16690Y68165D02*
X-1090D01*
X-16790Y68265D02*
X-890D01*
X-16890Y68365D02*
X-790D01*
X-17090Y68465D02*
X-690D01*
X-17190Y68565D02*
X-590D01*
X-17290Y68665D02*
X-590D01*
X-17390Y68765D02*
X-490D01*
X-17490Y68865D02*
X-390D01*
X-17590Y68965D02*
X-290D01*
X-17590Y69065D02*
X-290D01*
X-17690Y69165D02*
X-190D01*
X-17790Y69265D02*
X-190D01*
X-17890Y69365D02*
X-90D01*
X-17890Y69465D02*
X-90D01*
X-17990Y69565D02*
X10D01*
X-18090Y69665D02*
X10D01*
X-18090Y69765D02*
X110D01*
X-18190Y69865D02*
X110D01*
X-18190Y69965D02*
X110D01*
X-18290Y70065D02*
X110D01*
X-20690D02*
X-19390D01*
X-18290Y70165D02*
X210D01*
X-21290D02*
X-19390D01*
X-18290Y70265D02*
X210D01*
X-21690D02*
X-19490D01*
X-18390Y70365D02*
X210D01*
X-21990D02*
X-19490D01*
X-18390Y70465D02*
X210D01*
X-22290D02*
X-19490D01*
X-18490Y70565D02*
X210D01*
X-22490D02*
X-19490D01*
X-18490Y70665D02*
X310D01*
X-22690D02*
X-19590D01*
X-18490Y70765D02*
X310D01*
X-22890D02*
X-19590D01*
X-18490Y70865D02*
X310D01*
X-22990D02*
X-19590D01*
X-18590Y70965D02*
X310D01*
X-23190D02*
X-19590D01*
X-18590Y71065D02*
X310D01*
X-23290D02*
X-19590D01*
X-18590Y71165D02*
X310D01*
X-23390D02*
X-19590D01*
X-18590Y71265D02*
X310D01*
X-23590D02*
X-19690D01*
X-18590Y71365D02*
X310D01*
X-23690D02*
X-19690D01*
X-18590Y71465D02*
X210D01*
X-23790D02*
X-19690D01*
X-18690Y71565D02*
X210D01*
X-23890D02*
X-19690D01*
X-18690Y71665D02*
X210D01*
X-23990D02*
X-19690D01*
X-18690Y71765D02*
X210D01*
X-24090D02*
X-19690D01*
X-18690Y71865D02*
X210D01*
X-24190D02*
X-19690D01*
X-18690Y71965D02*
X210D01*
X-24190D02*
X-19690D01*
X-18690Y72065D02*
X110D01*
X-24290D02*
X-19690D01*
X-18690Y72165D02*
X110D01*
X-24390D02*
X-19690D01*
X-18690Y72265D02*
X110D01*
X-24490D02*
X-19690D01*
X-18690Y72365D02*
X110D01*
X-24490D02*
X-19690D01*
X-18590Y72465D02*
X10D01*
X-24590D02*
X-19690D01*
X-18590Y72565D02*
X10D01*
X-24590D02*
X-19590D01*
X-18590Y72665D02*
X-90D01*
X-24690D02*
X-19590D01*
X-18590Y72765D02*
X-90D01*
X-24690D02*
X-19590D01*
X-18590Y72865D02*
X-190D01*
X-24790D02*
X-19590D01*
X-18590Y72965D02*
X-190D01*
X-24790D02*
X-19590D01*
X-18490Y73065D02*
X-290D01*
X-24890D02*
X-19490D01*
X-18490Y73165D02*
X-290D01*
X-24890D02*
X-19490D01*
X-9590Y73265D02*
X-390D01*
X-18490D02*
X-9690D01*
X-24990D02*
X-19490D01*
X-9590Y73365D02*
X-490D01*
X-18390D02*
X-9690D01*
X-24990D02*
X-19490D01*
X-9590Y73465D02*
X-590D01*
X-18390D02*
X-9790D01*
X-24990D02*
X-19390D01*
X-9690Y73565D02*
X-590D01*
X-18290D02*
X-9790D01*
X-25090D02*
X-19390D01*
X-9690Y73665D02*
X-690D01*
X-18290D02*
X-9890D01*
X-25090D02*
X-19390D01*
X-9690Y73765D02*
X-890D01*
X-18190D02*
X-9890D01*
X-25090D02*
X-19290D01*
X-9690Y73865D02*
X-990D01*
X-18190D02*
X-9990D01*
X-25090D02*
X-19290D01*
X-9690Y73965D02*
X-1090D01*
X-18090D02*
X-9990D01*
X-25090D02*
X-19190D01*
X-9690Y74065D02*
X-1190D01*
X-18090D02*
X-10090D01*
X-25190D02*
X-19190D01*
X-9790Y74165D02*
X-1390D01*
X-17990D02*
X-10190D01*
X-25190D02*
X-19090D01*
X-9790Y74265D02*
X-1590D01*
X-17990D02*
X-10190D01*
X-25190D02*
X-19090D01*
X-9790Y74365D02*
X-1790D01*
X-17890D02*
X-10290D01*
X-25190D02*
X-18990D01*
X-9890Y74465D02*
X-2090D01*
X-17790D02*
X-10390D01*
X-25190D02*
X-18990D01*
X-9890Y74565D02*
X-2390D01*
X-17690D02*
X-10490D01*
X-25190D02*
X-18890D01*
X-9890Y74665D02*
X-2890D01*
X-17590D02*
X-10590D01*
X-25190D02*
X-18790D01*
X-9990Y74765D02*
X-3690D01*
X-17590D02*
X-10690D01*
X-25190D02*
X-18790D01*
X-9990Y74865D02*
X-4190D01*
X-17490D02*
X-10790D01*
X-25190D02*
X-18690D01*
X-10090Y74965D02*
X-4190D01*
X-17390D02*
X-10890D01*
X-25190D02*
X-18590D01*
X-10090Y75065D02*
X-4190D01*
X-17290D02*
X-10990D01*
X-25190D02*
X-18590D01*
X-10190Y75165D02*
X-4090D01*
X-17190D02*
X-11190D01*
X-25190D02*
X-18490D01*
X-10290Y75265D02*
X-4090D01*
X-16990D02*
X-11290D01*
X-25190D02*
X-18390D01*
X-10290Y75365D02*
X-4090D01*
X-16890D02*
X-11390D01*
X-25190D02*
X-18290D01*
X-10390Y75465D02*
X-4090D01*
X-16790D02*
X-11590D01*
X-25190D02*
X-18190D01*
X-10490Y75565D02*
X-4090D01*
X-16590D02*
X-11790D01*
X-25190D02*
X-18190D01*
X-10490Y75665D02*
X-4090D01*
X-16490D02*
X-11990D01*
X-25090D02*
X-18090D01*
X-10590Y75765D02*
X-4090D01*
X-16390D02*
X-12190D01*
X-25090D02*
X-17990D01*
X-10690Y75865D02*
X-4090D01*
X-16190D02*
X-12390D01*
X-25090D02*
X-17790D01*
X-10790Y75965D02*
X-4090D01*
X-15990D02*
X-12590D01*
X-25090D02*
X-17690D01*
X-10890Y76065D02*
X-4090D01*
X-15790D02*
X-12890D01*
X-24990D02*
X-17590D01*
X-11090Y76165D02*
X-4090D01*
X-15490D02*
X-13190D01*
X-24990D02*
X-17390D01*
X-11190Y76265D02*
X-4090D01*
X-15190D02*
X-13490D01*
X-24990D02*
X-17290D01*
X-11290Y76365D02*
X-4090D01*
X-14790D02*
X-13890D01*
X-24890D02*
X-17090D01*
X-11490Y76465D02*
X-4090D01*
X-24890D02*
X-16890D01*
X-11690Y76565D02*
X-4090D01*
X-24790D02*
X-16790D01*
X-11790Y76665D02*
X-4090D01*
X-24790D02*
X-16490D01*
X-12090Y76765D02*
X-4090D01*
X-24690D02*
X-16590D01*
X-12390Y76865D02*
X-4090D01*
X-16290D02*
X-16090D01*
X-24690D02*
X-16590D01*
X-12690Y76965D02*
X-4090D01*
X-16290D02*
X-15790D01*
X-24590D02*
X-16690D01*
X-13090Y77065D02*
X-4090D01*
X-16290D02*
X-15490D01*
X-24490D02*
X-16790D01*
X-13190Y77165D02*
X-4090D01*
X-16390D02*
X-15090D01*
X-24490D02*
X-16790D01*
X-13190Y77265D02*
X-4090D01*
X-16390D02*
X-14590D01*
X-24390D02*
X-16890D01*
X-13190Y77365D02*
X-4190D01*
X-16390D02*
X-14290D01*
X-24290D02*
X-16990D01*
X-13090Y77465D02*
X-4190D01*
X-16490D02*
X-14290D01*
X-24190D02*
X-17090D01*
X-13090Y77565D02*
X-4190D01*
X-16490D02*
X-14190D01*
X-24190D02*
X-17190D01*
X-13090Y77665D02*
X-4190D01*
X-16590D02*
X-14190D01*
X-24090D02*
X-17290D01*
X-13090Y77765D02*
X-4290D01*
X-16590D02*
X-14090D01*
X-23990D02*
X-17390D01*
X-13090Y77865D02*
X-4290D01*
X-16690D02*
X-14090D01*
X-23890D02*
X-17490D01*
X-12990Y77965D02*
X-4290D01*
X-16690D02*
X-13990D01*
X-23790D02*
X-17690D01*
X-12990Y78065D02*
X-4390D01*
X-16790D02*
X-13890D01*
X-23590D02*
X-17790D01*
X-12990Y78165D02*
X-4390D01*
X-16790D02*
X-13890D01*
X-23490D02*
X-17890D01*
X-12890Y78265D02*
X-4390D01*
X-16890D02*
X-13790D01*
X-23390D02*
X-18090D01*
X-12890Y78365D02*
X-4490D01*
X-16990D02*
X-13790D01*
X-23290D02*
X-18290D01*
X-12890Y78465D02*
X-4490D01*
X-17090D02*
X-13690D01*
X-23090D02*
X-18390D01*
X-12790Y78565D02*
X-4590D01*
X-17090D02*
X-13590D01*
X-22990D02*
X-18590D01*
X-12790Y78665D02*
X-4590D01*
X-17190D02*
X-13590D01*
X-22790D02*
X-18790D01*
X-12690Y78765D02*
X-4690D01*
X-17290D02*
X-13490D01*
X-22590D02*
X-19090D01*
X-12690Y78865D02*
X-4690D01*
X-17390D02*
X-13490D01*
X-22390D02*
X-19290D01*
X-12590Y78965D02*
X-4790D01*
X-17590D02*
X-13390D01*
X-22190D02*
X-19590D01*
X-12590Y79065D02*
X-4890D01*
X-17690D02*
X-13290D01*
X-21890D02*
X-19890D01*
X-12490Y79165D02*
X-4890D01*
X-17790D02*
X-13290D01*
X-21590D02*
X-20190D01*
X-12390Y79265D02*
X-4990D01*
X-17990D02*
X-13190D01*
X-20990D02*
X-20690D01*
X-12390Y79365D02*
X-5090D01*
X-18090D02*
X-13090D01*
X-12290Y79465D02*
X-5190D01*
X-18290D02*
X-13090D01*
X-12190Y79565D02*
X-5290D01*
X-18490D02*
X-12990D01*
X-12090Y79665D02*
X-5390D01*
X-18790D02*
X-12890D01*
X-11990Y79765D02*
X-5490D01*
X-19090D02*
X-12790D01*
X-11890Y79865D02*
X-5590D01*
X-19490D02*
X-12790D01*
X-11790Y79965D02*
X-5690D01*
X-19690D02*
X-12690D01*
X-11690Y80065D02*
X-5790D01*
X-19690D02*
X-12590D01*
X-11590Y80165D02*
X-5990D01*
X-19690D02*
X-12490D01*
X-11490Y80265D02*
X-6090D01*
X-19690D02*
X-12390D01*
X-11290Y80365D02*
X-6290D01*
X-19690D02*
X-12390D01*
X-11190Y80465D02*
X-6390D01*
X-19690D02*
X-12290D01*
X-10990Y80565D02*
X-6590D01*
X-19590D02*
X-12190D01*
X-10790Y80665D02*
X-6790D01*
X-19590D02*
X-12090D01*
X-10590Y80765D02*
X-6990D01*
X-19590D02*
X-11990D01*
X-10390Y80865D02*
X-7290D01*
X-19590D02*
X-11890D01*
X-10090Y80965D02*
X-7590D01*
X-19490D02*
X-11790D01*
X-9690Y81065D02*
X-7890D01*
X-19490D02*
X-11690D01*
X-9190Y81165D02*
X-8390D01*
X-19490D02*
X-11590D01*
X-19390Y81265D02*
X-11490D01*
X-19390Y81365D02*
X-11390D01*
X-19290Y81465D02*
X-11190D01*
X-19290Y81565D02*
X-11190D01*
X-19190Y81665D02*
X-11290D01*
X-19190Y81765D02*
X-11290D01*
X-19090Y81865D02*
X-11390D01*
X-19090Y81965D02*
X-11490D01*
X-18990Y82065D02*
X-11590D01*
X-18890Y82165D02*
X-11590D01*
X-18890Y82265D02*
X-11690D01*
X-18790Y82365D02*
X-11790D01*
X-18690Y82465D02*
X-11890D01*
X-18590Y82565D02*
X-11990D01*
X-18490Y82665D02*
X-12090D01*
X-18390Y82765D02*
X-12190D01*
X-18290Y82865D02*
X-12290D01*
X-18190Y82965D02*
X-12490D01*
X-18090Y83065D02*
X-12590D01*
X-17890Y83165D02*
X-12790D01*
X-17790Y83265D02*
X-12890D01*
X-17590Y83365D02*
X-13090D01*
X-17390Y83465D02*
X-13290D01*
X-17290Y83565D02*
X-13490D01*
X-16990Y83665D02*
X-13690D01*
X-16790Y83765D02*
X-13990D01*
X-16390Y83865D02*
X-14290D01*
X-15990Y83965D02*
X-14790D01*
D48*
X39665Y25885D02*
X40977Y23917D01*
Y25885D02*
X39665Y23917D01*
X41633D02*
X42289D01*
X41961D01*
Y25885D01*
X41633Y25557D01*
X-76476Y222440D02*
Y220800D01*
X-76148Y220472D01*
X-75492D01*
X-75165Y220800D01*
Y222440D01*
X-73197D02*
X-74509D01*
Y221456D01*
X-73853Y221784D01*
X-73525D01*
X-73197Y221456D01*
Y220800D01*
X-73525Y220472D01*
X-74181D01*
X-74509Y220800D01*
X56036Y76049D02*
X55708Y76377D01*
X55052D01*
X54724Y76049D01*
Y74737D01*
X55052Y74409D01*
X55708D01*
X56036Y74737D01*
X56692D02*
X57020Y74409D01*
X57676D01*
X58004Y74737D01*
Y76049D01*
X57676Y76377D01*
X57020D01*
X56692Y76049D01*
Y75721D01*
X57020Y75393D01*
X58004D01*
X-53788Y56740D02*
X-54116Y57068D01*
X-54772D01*
X-55100Y56740D01*
Y55428D01*
X-54772Y55100D01*
X-54116D01*
X-53788Y55428D01*
X-53132Y55100D02*
X-52476D01*
X-52804D01*
Y57068D01*
X-53132Y56740D01*
X-51492D02*
X-51164Y57068D01*
X-50508D01*
X-50180Y56740D01*
Y55428D01*
X-50508Y55100D01*
X-51164D01*
X-51492Y55428D01*
Y56740D01*
X-49180Y115321D02*
X-49508Y115649D01*
X-50164D01*
X-50492Y115321D01*
Y114009D01*
X-50164Y113681D01*
X-49508D01*
X-49180Y114009D01*
X-48524Y113681D02*
X-47868D01*
X-48196D01*
Y115649D01*
X-48524Y115321D01*
X-46884Y113681D02*
X-46228D01*
X-46556D01*
Y115649D01*
X-46884Y115321D01*
X-42783D02*
X-43111Y115649D01*
X-43766D01*
X-44094Y115321D01*
Y114009D01*
X-43766Y113681D01*
X-43111D01*
X-42783Y114009D01*
X-42127Y113681D02*
X-41471D01*
X-41799D01*
Y115649D01*
X-42127Y115321D01*
X-39175Y113681D02*
X-40487D01*
X-39175Y114993D01*
Y115321D01*
X-39503Y115649D01*
X-40159D01*
X-40487Y115321D01*
X30052Y59908D02*
X29724Y60236D01*
X29068D01*
X28740Y59908D01*
Y58596D01*
X29068Y58268D01*
X29724D01*
X30052Y58596D01*
X30708Y58268D02*
X31364D01*
X31036D01*
Y60236D01*
X30708Y59908D01*
X32348D02*
X32676Y60236D01*
X33332D01*
X33660Y59908D01*
Y59580D01*
X33332Y59252D01*
X33004D01*
X33332D01*
X33660Y58924D01*
Y58596D01*
X33332Y58268D01*
X32676D01*
X32348Y58596D01*
X-36188Y115419D02*
X-36516Y115747D01*
X-37172D01*
X-37500Y115419D01*
Y114108D01*
X-37172Y113779D01*
X-36516D01*
X-36188Y114108D01*
X-35532Y113779D02*
X-34876D01*
X-35204D01*
Y115747D01*
X-35532Y115419D01*
X-32908Y113779D02*
Y115747D01*
X-33892Y114763D01*
X-32580D01*
X-29692Y115616D02*
X-30020Y115944D01*
X-30676D01*
X-31004Y115616D01*
Y114304D01*
X-30676Y113976D01*
X-30020D01*
X-29692Y114304D01*
X-29036Y113976D02*
X-28380D01*
X-28708D01*
Y115944D01*
X-29036Y115616D01*
X-26084Y115944D02*
X-27396D01*
Y114960D01*
X-26740Y115288D01*
X-26412D01*
X-26084Y114960D01*
Y114304D01*
X-26412Y113976D01*
X-27068D01*
X-27396Y114304D01*
X-23491Y115715D02*
X-23819Y116043D01*
X-24475D01*
X-24803Y115715D01*
Y114403D01*
X-24475Y114075D01*
X-23819D01*
X-23491Y114403D01*
X-22835Y114075D02*
X-22179D01*
X-22507D01*
Y116043D01*
X-22835Y115715D01*
X-19884Y116043D02*
X-20539Y115715D01*
X-21195Y115059D01*
Y114403D01*
X-20867Y114075D01*
X-20211D01*
X-19884Y114403D01*
Y114731D01*
X-20211Y115059D01*
X-21195D01*
X-53988Y85040D02*
X-54316Y85368D01*
X-54972D01*
X-55300Y85040D01*
Y83728D01*
X-54972Y83400D01*
X-54316D01*
X-53988Y83728D01*
X-53332Y83400D02*
X-52676D01*
X-53004D01*
Y85368D01*
X-53332Y85040D01*
X-51692Y85368D02*
X-50380D01*
Y85040D01*
X-51692Y83728D01*
Y83400D01*
X-6168Y115813D02*
X-6496Y116141D01*
X-7152D01*
X-7480Y115813D01*
Y114501D01*
X-7152Y114173D01*
X-6496D01*
X-6168Y114501D01*
X-5512Y114173D02*
X-4857D01*
X-5184D01*
Y116141D01*
X-5512Y115813D01*
X-3873D02*
X-3545Y116141D01*
X-2889D01*
X-2561Y115813D01*
Y115485D01*
X-2889Y115157D01*
X-2561Y114829D01*
Y114501D01*
X-2889Y114173D01*
X-3545D01*
X-3873Y114501D01*
Y114829D01*
X-3545Y115157D01*
X-3873Y115485D01*
Y115813D01*
X-3545Y115157D02*
X-2889D01*
X-16503Y115715D02*
X-16831Y116043D01*
X-17487D01*
X-17815Y115715D01*
Y114403D01*
X-17487Y114075D01*
X-16831D01*
X-16503Y114403D01*
X-15847Y114075D02*
X-15191D01*
X-15519D01*
Y116043D01*
X-15847Y115715D01*
X-14207Y114403D02*
X-13879Y114075D01*
X-13223D01*
X-12895Y114403D01*
Y115715D01*
X-13223Y116043D01*
X-13879D01*
X-14207Y115715D01*
Y115387D01*
X-13879Y115059D01*
X-12895D01*
X5052Y115911D02*
X4724Y116240D01*
X4068D01*
X3740Y115911D01*
Y114600D01*
X4068Y114272D01*
X4724D01*
X5052Y114600D01*
X7020Y114272D02*
X5708D01*
X7020Y115584D01*
Y115911D01*
X6692Y116240D01*
X6036D01*
X5708Y115911D01*
X7676D02*
X8004Y116240D01*
X8660D01*
X8988Y115911D01*
Y114600D01*
X8660Y114272D01*
X8004D01*
X7676Y114600D01*
Y115911D01*
X-74088Y81040D02*
X-74416Y81368D01*
X-75072D01*
X-75400Y81040D01*
Y79728D01*
X-75072Y79400D01*
X-74416D01*
X-74088Y79728D01*
X-72120Y79400D02*
X-73432D01*
X-72120Y80712D01*
Y81040D01*
X-72448Y81368D01*
X-73104D01*
X-73432Y81040D01*
X-71464Y79400D02*
X-70808D01*
X-71136D01*
Y81368D01*
X-71464Y81040D01*
X-66888Y81240D02*
X-67216Y81568D01*
X-67872D01*
X-68200Y81240D01*
Y79928D01*
X-67872Y79600D01*
X-67216D01*
X-66888Y79928D01*
X-64920Y79600D02*
X-66232D01*
X-64920Y80912D01*
Y81240D01*
X-65248Y81568D01*
X-65904D01*
X-66232Y81240D01*
X-62952Y79600D02*
X-64264D01*
X-62952Y80912D01*
Y81240D01*
X-63280Y81568D01*
X-63936D01*
X-64264Y81240D01*
X16273Y116010D02*
X15945Y116338D01*
X15289D01*
X14961Y116010D01*
Y114698D01*
X15289Y114370D01*
X15945D01*
X16273Y114698D01*
X18240Y114370D02*
X16928D01*
X18240Y115682D01*
Y116010D01*
X17912Y116338D01*
X17256D01*
X16928Y116010D01*
X18896D02*
X19224Y116338D01*
X19880D01*
X20208Y116010D01*
Y115682D01*
X19880Y115354D01*
X19552D01*
X19880D01*
X20208Y115026D01*
Y114698D01*
X19880Y114370D01*
X19224D01*
X18896Y114698D01*
X-44988Y56840D02*
X-45316Y57168D01*
X-45972D01*
X-46300Y56840D01*
Y55528D01*
X-45972Y55200D01*
X-45316D01*
X-44988Y55528D01*
X-43020Y55200D02*
X-44332D01*
X-43020Y56512D01*
Y56840D01*
X-43348Y57168D01*
X-44004D01*
X-44332Y56840D01*
X-41380Y55200D02*
Y57168D01*
X-42364Y56184D01*
X-41052D01*
X6036Y83530D02*
X5708Y83858D01*
X5052D01*
X4724Y83530D01*
Y82218D01*
X5052Y81890D01*
X5708D01*
X6036Y82218D01*
X8004Y81890D02*
X6692D01*
X8004Y83202D01*
Y83530D01*
X7676Y83858D01*
X7020D01*
X6692Y83530D01*
X9972Y83858D02*
X8660D01*
Y82874D01*
X9316Y83202D01*
X9644D01*
X9972Y82874D01*
Y82218D01*
X9644Y81890D01*
X8988D01*
X8660Y82218D01*
X-88058Y113385D02*
X-88714D01*
X-88386D01*
Y111745D01*
X-88714Y111417D01*
X-89042D01*
X-89370Y111745D01*
X-87402Y111417D02*
X-86746D01*
X-87074D01*
Y113385D01*
X-87402Y113057D01*
X84284Y117617D02*
X83628D01*
X83956D01*
Y115978D01*
X83628Y115650D01*
X83300D01*
X82972Y115978D01*
X84940Y117289D02*
X85268Y117617D01*
X85924D01*
X86252Y117289D01*
Y116962D01*
X85924Y116633D01*
X85596D01*
X85924D01*
X86252Y116305D01*
Y115978D01*
X85924Y115650D01*
X85268D01*
X84940Y115978D01*
X54724Y79921D02*
Y81889D01*
X55708D01*
X56036Y81561D01*
Y80905D01*
X55708Y80577D01*
X54724D01*
X55380D02*
X56036Y79921D01*
X57676D02*
Y81889D01*
X56692Y80905D01*
X58004D01*
X-60400Y79600D02*
Y81568D01*
X-59416D01*
X-59088Y81240D01*
Y80584D01*
X-59416Y80256D01*
X-60400D01*
X-59744D02*
X-59088Y79600D01*
X-57120Y81568D02*
X-57776Y81240D01*
X-58432Y80584D01*
Y79928D01*
X-58104Y79600D01*
X-57448D01*
X-57120Y79928D01*
Y80256D01*
X-57448Y80584D01*
X-58432D01*
X80643Y38943D02*
X80315Y39271D01*
X79659D01*
X79331Y38943D01*
Y38615D01*
X79659Y38287D01*
X80315D01*
X80643Y37959D01*
Y37631D01*
X80315Y37303D01*
X79659D01*
X79331Y37631D01*
X82610Y37303D02*
X81299D01*
X82610Y38615D01*
Y38943D01*
X82283Y39271D01*
X81626D01*
X81299Y38943D01*
X-37763Y16601D02*
X-38091Y16928D01*
X-38747D01*
X-39075Y16601D01*
Y16273D01*
X-38747Y15945D01*
X-38091D01*
X-37763Y15617D01*
Y15289D01*
X-38091Y14961D01*
X-38747D01*
X-39075Y15289D01*
X-37107Y16601D02*
X-36779Y16928D01*
X-36123D01*
X-35795Y16601D01*
Y16273D01*
X-36123Y15945D01*
X-36451D01*
X-36123D01*
X-35795Y15617D01*
Y15289D01*
X-36123Y14961D01*
X-36779D01*
X-37107Y15289D01*
X-35400Y84468D02*
Y82828D01*
X-35072Y82500D01*
X-34416D01*
X-34088Y82828D01*
Y84468D01*
X-33432D02*
X-32120D01*
Y84140D01*
X-33432Y82828D01*
Y82500D01*
X-90100Y79700D02*
Y81012D01*
X-89444Y81668D01*
X-88788Y81012D01*
Y79700D01*
Y80684D01*
X-90100D01*
X-88132Y79700D02*
Y81668D01*
X-86820Y79700D01*
Y81668D01*
X-86164D02*
X-84852D01*
X-85508D01*
Y79700D01*
X39370Y92125D02*
Y90486D01*
X39698Y90158D01*
X40354D01*
X40682Y90486D01*
Y92125D01*
X42650D02*
X41994Y91797D01*
X41338Y91141D01*
Y90486D01*
X41666Y90158D01*
X42322D01*
X42650Y90486D01*
Y90813D01*
X42322Y91141D01*
X41338D01*
X85662Y197539D02*
X85006D01*
X85334D01*
Y195899D01*
X85006Y195571D01*
X84678D01*
X84350Y195899D01*
X87630Y195571D02*
X86318D01*
X87630Y196883D01*
Y197211D01*
X87302Y197539D01*
X86646D01*
X86318Y197211D01*
M02*
