%FSLAX25Y25*%
%MOIN*%
G70*
G01*
G75*
G04 Layer_Color=8388736*
%ADD10O,0.01378X0.03347*%
%ADD11O,0.03347X0.01378*%
%ADD12R,0.16535X0.16535*%
%ADD13R,0.03200X0.03800*%
%ADD14R,0.03800X0.03200*%
%ADD15R,0.15354X0.08268*%
%ADD16R,0.12000X0.07873*%
%ADD17O,0.03150X0.01378*%
%ADD18O,0.01378X0.03150*%
%ADD19R,0.09843X0.09843*%
%ADD20C,0.01181*%
%ADD21C,0.01000*%
%ADD22O,0.11417X0.05512*%
%ADD23O,0.04331X0.05512*%
%ADD24C,0.05906*%
%ADD25C,0.13780*%
%ADD26C,0.06299*%
%ADD27R,0.06299X0.06299*%
%ADD28R,0.06000X0.06000*%
%ADD29C,0.06000*%
%ADD30C,0.05512*%
%ADD31C,0.02362*%
%ADD32C,0.02598*%
%ADD33C,0.01969*%
%ADD34O,0.02559X0.00984*%
%ADD35R,0.07087X0.07874*%
%ADD36R,0.01969X0.08858*%
%ADD37R,0.08071X0.13780*%
%ADD38R,0.08071X0.15748*%
%ADD39R,0.04800X0.02000*%
%ADD40R,0.05118X0.03347*%
%ADD41C,0.01969*%
%ADD42C,0.00984*%
%ADD43C,0.00787*%
%ADD44C,0.01221*%
%ADD45C,0.00787*%
%ADD46C,0.00800*%
%ADD47C,0.00100*%
%ADD48C,0.00492*%
%ADD49O,0.02178X0.04147*%
%ADD50O,0.04147X0.02178*%
%ADD51R,0.17335X0.17335*%
%ADD52R,0.16154X0.09068*%
%ADD53C,0.06706*%
%ADD54C,0.00800*%
%ADD55C,0.14579*%
%ADD56C,0.03162*%
%ADD57C,0.03398*%
%ADD58O,0.03359X0.01784*%
%ADD59R,0.07887X0.08674*%
%ADD60R,0.05918X0.04147*%
%ADD61C,0.00394*%
D45*
X90551Y38976D02*
X97244D01*
X90551Y44488D02*
X97244D01*
X87008Y42126D02*
X90551Y45669D01*
X87008Y38189D02*
X90551Y41732D01*
X87008Y34252D02*
X90551Y37795D01*
X87008Y30315D02*
X90551Y33858D01*
X87008Y26378D02*
X90551Y29921D01*
X87008Y22441D02*
X90551Y25984D01*
Y18898D02*
Y48819D01*
X97244Y44488D02*
X98819Y42913D01*
Y40551D02*
Y42913D01*
X97244Y38976D02*
X98819Y40551D01*
D48*
X93701Y24803D02*
X91733D01*
Y25787D01*
X92061Y26115D01*
X92717D01*
X93045Y25787D01*
Y24803D01*
X92061Y28083D02*
X91733Y27755D01*
Y27099D01*
X92061Y26771D01*
X93373D01*
X93701Y27099D01*
Y27755D01*
X93373Y28083D01*
X91733Y28739D02*
X93701D01*
Y29723D01*
X93373Y30051D01*
X93045D01*
X92717Y29723D01*
Y28739D01*
Y29723D01*
X92389Y30051D01*
X92061D01*
X91733Y29723D01*
Y28739D01*
Y33986D02*
Y32675D01*
X93701D01*
Y33986D01*
X92717Y32675D02*
Y33331D01*
X93701Y34642D02*
X91733D01*
X93701Y35954D01*
X91733D01*
Y36610D02*
X93701D01*
Y37594D01*
X93373Y37922D01*
X92061D01*
X91733Y37594D01*
Y36610D01*
M02*
