%FSLAX25Y25*%
%MOIN*%
G70*
G01*
G75*
G04 Layer_Color=32896*
%ADD10O,0.01378X0.03347*%
%ADD11O,0.03347X0.01378*%
%ADD12R,0.16535X0.16535*%
%ADD13R,0.03200X0.03800*%
%ADD14R,0.03800X0.03200*%
%ADD15R,0.15354X0.08268*%
%ADD16R,0.12000X0.07873*%
%ADD17O,0.03150X0.01378*%
%ADD18O,0.01378X0.03150*%
%ADD19R,0.09843X0.09843*%
%ADD20C,0.01181*%
%ADD21C,0.01000*%
%ADD22O,0.11417X0.05512*%
%ADD23O,0.04331X0.05512*%
%ADD24C,0.05906*%
%ADD25C,0.13780*%
%ADD26C,0.06299*%
%ADD27R,0.06299X0.06299*%
%ADD28R,0.06000X0.06000*%
%ADD29C,0.06000*%
%ADD30C,0.05512*%
%ADD31C,0.02362*%
%ADD32C,0.02598*%
%ADD33C,0.01969*%
%ADD34O,0.02559X0.00984*%
%ADD35R,0.07087X0.07874*%
%ADD36R,0.01969X0.08858*%
%ADD37R,0.08071X0.13780*%
%ADD38R,0.08071X0.15748*%
%ADD39R,0.04800X0.02000*%
%ADD40R,0.05118X0.03347*%
%ADD41C,0.01969*%
%ADD42C,0.00984*%
%ADD43C,0.00787*%
%ADD44C,0.01221*%
%ADD45C,0.00787*%
%ADD46C,0.00800*%
%ADD47C,0.00100*%
%ADD48C,0.00492*%
%ADD49O,0.02178X0.04147*%
%ADD50O,0.04147X0.02178*%
%ADD51R,0.17335X0.17335*%
%ADD52R,0.16154X0.09068*%
%ADD53C,0.06706*%
%ADD54C,0.00800*%
%ADD55C,0.14579*%
%ADD56C,0.03162*%
%ADD57C,0.03398*%
%ADD58O,0.03359X0.01784*%
%ADD59R,0.07887X0.08674*%
%ADD60R,0.05918X0.04147*%
%ADD61C,0.00394*%
G36*
X-53131Y205906D02*
X-54666D01*
X-55805Y211325D01*
X-57999Y205906D01*
X-59534D01*
X-61224Y213975D01*
X-59678D01*
X-58551Y208579D01*
X-56357Y213975D01*
X-54810D01*
X-53131Y205906D01*
D02*
G37*
G36*
X-26837D02*
X-28372D01*
X-29511Y211325D01*
X-31705Y205906D01*
X-33240D01*
X-34930Y213975D01*
X-33384D01*
X-32257Y208579D01*
X-30062Y213975D01*
X-28516D01*
X-26837Y205906D01*
D02*
G37*
G36*
X29485Y192323D02*
X27914D01*
X26691Y198174D01*
X28262D01*
X29485Y192323D01*
D02*
G37*
G36*
X-3613Y205906D02*
X-5255D01*
X-5987Y209347D01*
X-9895D01*
X-10171Y210689D01*
X-6262D01*
X-6670Y212632D01*
X-10651D01*
X-10938Y213975D01*
X-5291D01*
X-3613Y205906D01*
D02*
G37*
G36*
X40835D02*
X39120D01*
X38149Y207692D01*
X34947D01*
X34684Y205906D01*
X33113D01*
X34420Y213975D01*
X36290D01*
X40835Y205906D01*
D02*
G37*
G36*
X15056Y213999D02*
X15272Y213975D01*
X15488Y213927D01*
X15679Y213867D01*
X15859Y213783D01*
X16027Y213711D01*
X16183Y213615D01*
X16327Y213531D01*
X16459Y213447D01*
X16567Y213351D01*
X16663Y213279D01*
X16735Y213207D01*
X16794Y213136D01*
X16842Y213088D01*
X16867Y213064D01*
X16879Y213052D01*
X17010Y212872D01*
X17130Y212680D01*
X17238Y212488D01*
X17322Y212308D01*
X17394Y212116D01*
X17454Y211936D01*
X17550Y211601D01*
X17586Y211445D01*
X17610Y211301D01*
X17622Y211169D01*
X17634Y211061D01*
X17646Y210977D01*
Y210917D01*
Y210869D01*
Y210857D01*
X17634Y210653D01*
X17622Y210462D01*
X17550Y210126D01*
X17502Y209970D01*
X17454Y209826D01*
X17406Y209694D01*
X17346Y209574D01*
X17286Y209467D01*
X17238Y209383D01*
X17190Y209299D01*
X17142Y209239D01*
X17106Y209191D01*
X17070Y209143D01*
X17058Y209131D01*
X17046Y209119D01*
X16926Y209011D01*
X16806Y208915D01*
X16675Y208819D01*
X16555Y208747D01*
X16291Y208639D01*
X16051Y208567D01*
X15835Y208519D01*
X15739Y208507D01*
X15655Y208495D01*
X15596Y208483D01*
X15500D01*
X15296Y208495D01*
X15092Y208531D01*
X14912Y208591D01*
X14744Y208651D01*
X14612Y208699D01*
X14504Y208759D01*
X14445Y208795D01*
X14421Y208807D01*
X14469Y208627D01*
X14528Y208447D01*
X14588Y208292D01*
X14648Y208148D01*
X14708Y208016D01*
X14768Y207896D01*
X14828Y207788D01*
X14888Y207692D01*
X14984Y207536D01*
X15068Y207416D01*
X15116Y207356D01*
X15140Y207332D01*
X15260Y207224D01*
X15380Y207153D01*
X15500Y207092D01*
X15619Y207057D01*
X15715Y207033D01*
X15787Y207021D01*
X15859D01*
X15967Y207033D01*
X16063Y207057D01*
X16159Y207081D01*
X16231Y207117D01*
X16291Y207153D01*
X16327Y207188D01*
X16351Y207200D01*
X16363Y207212D01*
X16423Y207296D01*
X16471Y207404D01*
X16543Y207620D01*
X16555Y207728D01*
X16567Y207812D01*
X16579Y207860D01*
Y207884D01*
X18054Y207752D01*
X18006Y207416D01*
X17934Y207117D01*
X17838Y206865D01*
X17730Y206661D01*
X17622Y206493D01*
X17526Y206373D01*
X17490Y206337D01*
X17466Y206301D01*
X17442Y206289D01*
Y206277D01*
X17334Y206181D01*
X17226Y206109D01*
X16974Y205977D01*
X16735Y205893D01*
X16507Y205822D01*
X16291Y205786D01*
X16207Y205774D01*
X16135D01*
X16063Y205762D01*
X15979D01*
X15691Y205774D01*
X15416Y205822D01*
X15164Y205906D01*
X14924Y206001D01*
X14696Y206109D01*
X14492Y206241D01*
X14301Y206373D01*
X14121Y206517D01*
X13965Y206649D01*
X13833Y206781D01*
X13725Y206913D01*
X13629Y207033D01*
X13545Y207117D01*
X13497Y207200D01*
X13461Y207248D01*
X13449Y207260D01*
X13282Y207548D01*
X13126Y207848D01*
X12994Y208160D01*
X12886Y208471D01*
X12790Y208783D01*
X12718Y209083D01*
X12646Y209383D01*
X12598Y209658D01*
X12562Y209934D01*
X12526Y210174D01*
X12502Y210390D01*
X12490Y210582D01*
Y210725D01*
X12478Y210845D01*
Y210917D01*
Y210941D01*
X12490Y211205D01*
X12502Y211445D01*
X12538Y211673D01*
X12574Y211889D01*
X12622Y212092D01*
X12670Y212272D01*
X12730Y212440D01*
X12778Y212596D01*
X12838Y212728D01*
X12898Y212848D01*
X12946Y212944D01*
X12994Y213028D01*
X13030Y213100D01*
X13066Y213147D01*
X13078Y213172D01*
X13090Y213183D01*
X13209Y213327D01*
X13341Y213459D01*
X13473Y213567D01*
X13617Y213663D01*
X13761Y213747D01*
X13905Y213807D01*
X14037Y213867D01*
X14181Y213903D01*
X14433Y213963D01*
X14540Y213987D01*
X14624Y213999D01*
X14708Y214011D01*
X14816D01*
X15056Y213999D01*
D02*
G37*
G36*
X4366Y198306D02*
X4545Y198282D01*
X4725Y198246D01*
X4881Y198210D01*
X5013Y198174D01*
X5109Y198138D01*
X5169Y198114D01*
X5193Y198102D01*
X5385Y198018D01*
X5565Y197910D01*
X5744Y197790D01*
X5900Y197670D01*
X6044Y197563D01*
X6152Y197478D01*
X6224Y197419D01*
X6236Y197407D01*
X6248Y197395D01*
X6104Y198174D01*
X7603D01*
X8826Y192323D01*
X7255D01*
X6752Y194721D01*
X6704Y194913D01*
X6668Y195080D01*
X6632Y195236D01*
X6596Y195380D01*
X6560Y195512D01*
X6524Y195620D01*
X6488Y195728D01*
X6464Y195812D01*
X6440Y195884D01*
X6416Y195956D01*
X6380Y196040D01*
X6356Y196100D01*
X6344Y196112D01*
X6248Y196291D01*
X6140Y196435D01*
X6020Y196579D01*
X5912Y196687D01*
X5816Y196771D01*
X5744Y196843D01*
X5696Y196879D01*
X5672Y196891D01*
X5517Y196987D01*
X5373Y197059D01*
X5241Y197119D01*
X5121Y197155D01*
X5025Y197179D01*
X4953Y197191D01*
X4893D01*
X4773Y197179D01*
X4677Y197167D01*
X4593Y197131D01*
X4521Y197107D01*
X4462Y197071D01*
X4425Y197035D01*
X4402Y197023D01*
X4389Y197011D01*
X4330Y196939D01*
X4282Y196855D01*
X4258Y196771D01*
X4234Y196699D01*
X4222Y196627D01*
X4210Y196567D01*
Y196531D01*
Y196519D01*
Y196483D01*
X4222Y196435D01*
X4246Y196316D01*
X4270Y196172D01*
X4294Y196028D01*
X4330Y195872D01*
X4354Y195752D01*
X4366Y195704D01*
Y195668D01*
X4377Y195644D01*
Y195632D01*
X5085Y192323D01*
X3514D01*
X2795Y195620D01*
X2759Y195776D01*
X2735Y195920D01*
X2687Y196160D01*
X2651Y196363D01*
X2627Y196519D01*
X2615Y196639D01*
X2603Y196723D01*
Y196771D01*
Y196783D01*
X2615Y197035D01*
X2663Y197251D01*
X2735Y197443D01*
X2807Y197598D01*
X2891Y197730D01*
X2951Y197826D01*
X2999Y197874D01*
X3023Y197898D01*
X3190Y198042D01*
X3382Y198138D01*
X3562Y198210D01*
X3754Y198270D01*
X3910Y198294D01*
X4042Y198306D01*
X4090Y198318D01*
X4162D01*
X4366Y198306D01*
D02*
G37*
G36*
X5008Y209742D02*
X3713Y209646D01*
X3618Y209742D01*
X3510Y209838D01*
X3426Y209910D01*
X3342Y209970D01*
X3270Y210018D01*
X3210Y210054D01*
X3174Y210066D01*
X3162Y210078D01*
X3054Y210126D01*
X2946Y210162D01*
X2850Y210186D01*
X2754Y210210D01*
X2670D01*
X2610Y210222D01*
X2562D01*
X2406Y210210D01*
X2275Y210174D01*
X2155Y210126D01*
X2047Y210078D01*
X1975Y210030D01*
X1915Y209982D01*
X1879Y209946D01*
X1867Y209934D01*
X1783Y209814D01*
X1711Y209682D01*
X1663Y209539D01*
X1639Y209407D01*
X1615Y209275D01*
X1603Y209179D01*
Y209107D01*
Y209095D01*
Y209083D01*
X1627Y208747D01*
X1675Y208447D01*
X1747Y208184D01*
X1831Y207980D01*
X1927Y207800D01*
X1999Y207680D01*
X2023Y207644D01*
X2047Y207608D01*
X2071Y207596D01*
Y207584D01*
X2155Y207488D01*
X2251Y207416D01*
X2418Y207284D01*
X2598Y207188D01*
X2754Y207129D01*
X2886Y207081D01*
X2994Y207068D01*
X3066Y207057D01*
X3090D01*
X3234Y207068D01*
X3354Y207104D01*
X3474Y207140D01*
X3558Y207200D01*
X3641Y207248D01*
X3689Y207284D01*
X3725Y207320D01*
X3737Y207332D01*
X3821Y207452D01*
X3881Y207584D01*
X3929Y207716D01*
X3953Y207860D01*
X3977Y207980D01*
X3989Y208076D01*
Y208148D01*
Y208160D01*
Y208172D01*
Y208220D01*
X3977Y208279D01*
Y208315D01*
Y208340D01*
X5524Y208196D01*
X5512Y207992D01*
X5500Y207800D01*
X5416Y207452D01*
X5368Y207284D01*
X5320Y207140D01*
X5260Y207009D01*
X5188Y206889D01*
X5128Y206781D01*
X5068Y206685D01*
X5020Y206613D01*
X4972Y206541D01*
X4924Y206493D01*
X4888Y206457D01*
X4876Y206433D01*
X4865Y206421D01*
X4733Y206301D01*
X4601Y206205D01*
X4457Y206121D01*
X4313Y206037D01*
X4025Y205918D01*
X3761Y205846D01*
X3522Y205798D01*
X3426Y205786D01*
X3330Y205774D01*
X3258Y205762D01*
X3162D01*
X2862Y205786D01*
X2574Y205834D01*
X2311Y205893D01*
X2083Y205977D01*
X1891Y206061D01*
X1807Y206097D01*
X1747Y206121D01*
X1687Y206157D01*
X1651Y206169D01*
X1627Y206193D01*
X1615D01*
X1351Y206373D01*
X1124Y206565D01*
X920Y206781D01*
X752Y206985D01*
X620Y207165D01*
X572Y207236D01*
X524Y207308D01*
X500Y207368D01*
X476Y207404D01*
X452Y207428D01*
Y207440D01*
X308Y207740D01*
X212Y208040D01*
X140Y208315D01*
X81Y208567D01*
X68Y208675D01*
X56Y208783D01*
X45Y208867D01*
Y208939D01*
X33Y208999D01*
Y209047D01*
Y209071D01*
Y209083D01*
X45Y209275D01*
X56Y209455D01*
X128Y209790D01*
X224Y210078D01*
X272Y210210D01*
X332Y210318D01*
X392Y210426D01*
X440Y210510D01*
X488Y210582D01*
X536Y210653D01*
X572Y210701D01*
X608Y210737D01*
X620Y210750D01*
X632Y210761D01*
X752Y210869D01*
X872Y210965D01*
X992Y211049D01*
X1124Y211121D01*
X1375Y211229D01*
X1615Y211313D01*
X1831Y211349D01*
X1927Y211361D01*
X1999Y211373D01*
X2071Y211385D01*
X2155D01*
X2323Y211373D01*
X2479Y211361D01*
X2538Y211349D01*
X2586Y211337D01*
X2610Y211325D01*
X2622D01*
X2790Y211277D01*
X2934Y211229D01*
X2994Y211205D01*
X3042Y211193D01*
X3066Y211169D01*
X3078D01*
X2706Y212428D01*
X21D01*
X-279Y213867D01*
X3785D01*
X5008Y209742D01*
D02*
G37*
G36*
X8653Y213999D02*
X8845Y213975D01*
X9025Y213939D01*
X9193Y213903D01*
X9505Y213783D01*
X9648Y213723D01*
X9780Y213651D01*
X9888Y213579D01*
X9996Y213519D01*
X10080Y213459D01*
X10152Y213399D01*
X10212Y213363D01*
X10248Y213327D01*
X10272Y213303D01*
X10284Y213291D01*
X10452Y213100D01*
X10608Y212872D01*
X10740Y212644D01*
X10847Y212428D01*
X10943Y212236D01*
X10967Y212140D01*
X11003Y212068D01*
X11027Y212008D01*
X11039Y211961D01*
X11051Y211936D01*
Y211925D01*
X9612Y211649D01*
X9553Y211853D01*
X9481Y212032D01*
X9409Y212176D01*
X9349Y212296D01*
X9289Y212392D01*
X9241Y212452D01*
X9205Y212488D01*
X9193Y212500D01*
X9085Y212584D01*
X8977Y212644D01*
X8869Y212692D01*
X8773Y212716D01*
X8689Y212740D01*
X8629Y212752D01*
X8569D01*
X8438Y212740D01*
X8318Y212716D01*
X8222Y212680D01*
X8126Y212644D01*
X8066Y212596D01*
X8006Y212560D01*
X7982Y212536D01*
X7970Y212524D01*
X7898Y212428D01*
X7838Y212332D01*
X7802Y212224D01*
X7766Y212128D01*
X7754Y212032D01*
X7742Y211961D01*
Y211912D01*
Y211900D01*
X7754Y211709D01*
X7790Y211529D01*
X7850Y211385D01*
X7910Y211253D01*
X7970Y211157D01*
X8030Y211085D01*
X8066Y211037D01*
X8078Y211025D01*
X8222Y210917D01*
X8377Y210833D01*
X8533Y210785D01*
X8689Y210737D01*
X8833Y210714D01*
X8953Y210701D01*
X9217D01*
X9493Y209395D01*
X9397Y209407D01*
X9313Y209419D01*
X9241D01*
X9061Y209407D01*
X8917Y209371D01*
X8773Y209323D01*
X8665Y209275D01*
X8581Y209215D01*
X8509Y209167D01*
X8473Y209131D01*
X8461Y209119D01*
X8366Y208999D01*
X8294Y208879D01*
X8234Y208747D01*
X8198Y208627D01*
X8174Y208507D01*
X8162Y208423D01*
Y208364D01*
Y208340D01*
X8174Y208136D01*
X8222Y207956D01*
X8270Y207788D01*
X8342Y207656D01*
X8401Y207548D01*
X8461Y207464D01*
X8509Y207416D01*
X8521Y207404D01*
X8665Y207284D01*
X8809Y207200D01*
X8965Y207129D01*
X9109Y207092D01*
X9229Y207068D01*
X9325Y207057D01*
X9397Y207045D01*
X9421D01*
X9565Y207057D01*
X9696Y207081D01*
X9816Y207117D01*
X9912Y207165D01*
X9984Y207212D01*
X10044Y207248D01*
X10080Y207272D01*
X10092Y207284D01*
X10176Y207392D01*
X10248Y207536D01*
X10296Y207680D01*
X10344Y207824D01*
X10380Y207968D01*
X10404Y208076D01*
Y208124D01*
X10416Y208160D01*
Y208172D01*
Y208184D01*
X11927Y207992D01*
X11891Y207800D01*
X11855Y207620D01*
X11747Y207284D01*
X11687Y207140D01*
X11615Y206997D01*
X11555Y206877D01*
X11483Y206769D01*
X11411Y206661D01*
X11351Y206577D01*
X11291Y206505D01*
X11243Y206445D01*
X11195Y206397D01*
X11159Y206361D01*
X11147Y206349D01*
X11135Y206337D01*
X11003Y206241D01*
X10871Y206145D01*
X10584Y206001D01*
X10296Y205906D01*
X10032Y205834D01*
X9792Y205798D01*
X9696Y205774D01*
X9601D01*
X9529Y205762D01*
X9433D01*
X9181Y205774D01*
X8941Y205810D01*
X8713Y205857D01*
X8509Y205918D01*
X8306Y206001D01*
X8126Y206085D01*
X7958Y206181D01*
X7802Y206277D01*
X7658Y206361D01*
X7538Y206457D01*
X7430Y206541D01*
X7346Y206625D01*
X7275Y206685D01*
X7226Y206733D01*
X7203Y206769D01*
X7191Y206781D01*
X7083Y206925D01*
X6975Y207068D01*
X6891Y207212D01*
X6819Y207356D01*
X6711Y207632D01*
X6639Y207884D01*
X6591Y208100D01*
X6579Y208196D01*
X6567Y208267D01*
X6555Y208340D01*
Y208387D01*
Y208411D01*
Y208423D01*
X6567Y208591D01*
X6591Y208759D01*
X6639Y208915D01*
X6675Y209047D01*
X6723Y209167D01*
X6771Y209251D01*
X6795Y209299D01*
X6807Y209323D01*
X6903Y209478D01*
X7023Y209610D01*
X7155Y209730D01*
X7275Y209838D01*
X7382Y209910D01*
X7478Y209970D01*
X7538Y210006D01*
X7550Y210018D01*
X7562D01*
X7334Y210114D01*
X7131Y210234D01*
X6951Y210354D01*
X6807Y210486D01*
X6699Y210594D01*
X6615Y210678D01*
X6555Y210737D01*
X6543Y210761D01*
X6423Y210953D01*
X6327Y211157D01*
X6267Y211349D01*
X6219Y211529D01*
X6195Y211673D01*
X6171Y211793D01*
Y211841D01*
Y211877D01*
Y211889D01*
Y211900D01*
X6183Y212056D01*
X6195Y212212D01*
X6267Y212500D01*
X6351Y212752D01*
X6459Y212968D01*
X6567Y213147D01*
X6627Y213219D01*
X6663Y213279D01*
X6699Y213327D01*
X6735Y213363D01*
X6747Y213375D01*
X6759Y213387D01*
X6867Y213495D01*
X6999Y213591D01*
X7131Y213675D01*
X7262Y213747D01*
X7550Y213855D01*
X7814Y213939D01*
X8066Y213975D01*
X8174Y213987D01*
X8270Y213999D01*
X8342Y214011D01*
X8450D01*
X8653Y213999D01*
D02*
G37*
G36*
X21195D02*
X21387Y213975D01*
X21566Y213939D01*
X21734Y213903D01*
X22046Y213783D01*
X22190Y213723D01*
X22322Y213651D01*
X22430Y213579D01*
X22538Y213519D01*
X22622Y213459D01*
X22694Y213399D01*
X22754Y213363D01*
X22790Y213327D01*
X22814Y213303D01*
X22826Y213291D01*
X22993Y213100D01*
X23149Y212872D01*
X23281Y212644D01*
X23389Y212428D01*
X23485Y212236D01*
X23509Y212140D01*
X23545Y212068D01*
X23569Y212008D01*
X23581Y211961D01*
X23593Y211936D01*
Y211925D01*
X22154Y211649D01*
X22094Y211853D01*
X22022Y212032D01*
X21950Y212176D01*
X21890Y212296D01*
X21830Y212392D01*
X21782Y212452D01*
X21746Y212488D01*
X21734Y212500D01*
X21626Y212584D01*
X21519Y212644D01*
X21411Y212692D01*
X21315Y212716D01*
X21231Y212740D01*
X21171Y212752D01*
X21111D01*
X20979Y212740D01*
X20859Y212716D01*
X20763Y212680D01*
X20667Y212644D01*
X20607Y212596D01*
X20547Y212560D01*
X20523Y212536D01*
X20511Y212524D01*
X20439Y212428D01*
X20380Y212332D01*
X20344Y212224D01*
X20308Y212128D01*
X20296Y212032D01*
X20284Y211961D01*
Y211912D01*
Y211900D01*
X20296Y211709D01*
X20332Y211529D01*
X20391Y211385D01*
X20451Y211253D01*
X20511Y211157D01*
X20571Y211085D01*
X20607Y211037D01*
X20619Y211025D01*
X20763Y210917D01*
X20919Y210833D01*
X21075Y210785D01*
X21231Y210737D01*
X21375Y210714D01*
X21495Y210701D01*
X21758D01*
X22034Y209395D01*
X21938Y209407D01*
X21854Y209419D01*
X21782D01*
X21602Y209407D01*
X21459Y209371D01*
X21315Y209323D01*
X21207Y209275D01*
X21123Y209215D01*
X21051Y209167D01*
X21015Y209131D01*
X21003Y209119D01*
X20907Y208999D01*
X20835Y208879D01*
X20775Y208747D01*
X20739Y208627D01*
X20715Y208507D01*
X20703Y208423D01*
Y208364D01*
Y208340D01*
X20715Y208136D01*
X20763Y207956D01*
X20811Y207788D01*
X20883Y207656D01*
X20943Y207548D01*
X21003Y207464D01*
X21051Y207416D01*
X21063Y207404D01*
X21207Y207284D01*
X21351Y207200D01*
X21507Y207129D01*
X21651Y207092D01*
X21770Y207068D01*
X21866Y207057D01*
X21938Y207045D01*
X21962D01*
X22106Y207057D01*
X22238Y207081D01*
X22358Y207117D01*
X22454Y207165D01*
X22526Y207212D01*
X22586Y207248D01*
X22622Y207272D01*
X22634Y207284D01*
X22718Y207392D01*
X22790Y207536D01*
X22838Y207680D01*
X22885Y207824D01*
X22921Y207968D01*
X22945Y208076D01*
Y208124D01*
X22957Y208160D01*
Y208172D01*
Y208184D01*
X24468Y207992D01*
X24432Y207800D01*
X24396Y207620D01*
X24288Y207284D01*
X24228Y207140D01*
X24156Y206997D01*
X24096Y206877D01*
X24024Y206769D01*
X23953Y206661D01*
X23893Y206577D01*
X23833Y206505D01*
X23785Y206445D01*
X23737Y206397D01*
X23701Y206361D01*
X23689Y206349D01*
X23677Y206337D01*
X23545Y206241D01*
X23413Y206145D01*
X23125Y206001D01*
X22838Y205906D01*
X22574Y205834D01*
X22334Y205798D01*
X22238Y205774D01*
X22142D01*
X22070Y205762D01*
X21974D01*
X21722Y205774D01*
X21483Y205810D01*
X21255Y205857D01*
X21051Y205918D01*
X20847Y206001D01*
X20667Y206085D01*
X20499Y206181D01*
X20344Y206277D01*
X20200Y206361D01*
X20080Y206457D01*
X19972Y206541D01*
X19888Y206625D01*
X19816Y206685D01*
X19768Y206733D01*
X19744Y206769D01*
X19732Y206781D01*
X19624Y206925D01*
X19516Y207068D01*
X19432Y207212D01*
X19360Y207356D01*
X19252Y207632D01*
X19181Y207884D01*
X19133Y208100D01*
X19121Y208196D01*
X19109Y208267D01*
X19097Y208340D01*
Y208387D01*
Y208411D01*
Y208423D01*
X19109Y208591D01*
X19133Y208759D01*
X19181Y208915D01*
X19217Y209047D01*
X19264Y209167D01*
X19312Y209251D01*
X19336Y209299D01*
X19348Y209323D01*
X19444Y209478D01*
X19564Y209610D01*
X19696Y209730D01*
X19816Y209838D01*
X19924Y209910D01*
X20020Y209970D01*
X20080Y210006D01*
X20092Y210018D01*
X20104D01*
X19876Y210114D01*
X19672Y210234D01*
X19492Y210354D01*
X19348Y210486D01*
X19241Y210594D01*
X19157Y210678D01*
X19097Y210737D01*
X19085Y210761D01*
X18965Y210953D01*
X18869Y211157D01*
X18809Y211349D01*
X18761Y211529D01*
X18737Y211673D01*
X18713Y211793D01*
Y211841D01*
Y211877D01*
Y211889D01*
Y211900D01*
X18725Y212056D01*
X18737Y212212D01*
X18809Y212500D01*
X18893Y212752D01*
X19001Y212968D01*
X19109Y213147D01*
X19169Y213219D01*
X19205Y213279D01*
X19241Y213327D01*
X19276Y213363D01*
X19288Y213375D01*
X19300Y213387D01*
X19408Y213495D01*
X19540Y213591D01*
X19672Y213675D01*
X19804Y213747D01*
X20092Y213855D01*
X20356Y213939D01*
X20607Y213975D01*
X20715Y213987D01*
X20811Y213999D01*
X20883Y214011D01*
X20991D01*
X21195Y213999D01*
D02*
G37*
G36*
X1956Y192323D02*
X385D01*
X-838Y198174D01*
X733D01*
X1956Y192323D01*
D02*
G37*
G36*
X-5646Y198306D02*
X-5466Y198282D01*
X-5286Y198246D01*
X-5130Y198210D01*
X-4999Y198174D01*
X-4903Y198138D01*
X-4843Y198114D01*
X-4819Y198102D01*
X-4627Y198018D01*
X-4447Y197910D01*
X-4267Y197790D01*
X-4111Y197670D01*
X-3968Y197563D01*
X-3860Y197478D01*
X-3788Y197419D01*
X-3776Y197407D01*
X-3764Y197395D01*
X-3907Y198174D01*
X-2409D01*
X-1186Y192323D01*
X-2757D01*
X-3260Y194721D01*
X-3308Y194913D01*
X-3344Y195080D01*
X-3380Y195236D01*
X-3416Y195380D01*
X-3452Y195512D01*
X-3488Y195620D01*
X-3524Y195728D01*
X-3548Y195812D01*
X-3572Y195884D01*
X-3596Y195956D01*
X-3632Y196040D01*
X-3656Y196100D01*
X-3668Y196112D01*
X-3764Y196291D01*
X-3872Y196435D01*
X-3991Y196579D01*
X-4099Y196687D01*
X-4195Y196771D01*
X-4267Y196843D01*
X-4315Y196879D01*
X-4339Y196891D01*
X-4495Y196987D01*
X-4639Y197059D01*
X-4771Y197119D01*
X-4891Y197155D01*
X-4987Y197179D01*
X-5059Y197191D01*
X-5119D01*
X-5238Y197179D01*
X-5334Y197167D01*
X-5418Y197131D01*
X-5490Y197107D01*
X-5550Y197071D01*
X-5586Y197035D01*
X-5610Y197023D01*
X-5622Y197011D01*
X-5682Y196939D01*
X-5730Y196855D01*
X-5754Y196771D01*
X-5778Y196699D01*
X-5790Y196627D01*
X-5802Y196567D01*
Y196531D01*
Y196519D01*
Y196483D01*
X-5790Y196435D01*
X-5766Y196316D01*
X-5742Y196172D01*
X-5718Y196028D01*
X-5682Y195872D01*
X-5658Y195752D01*
X-5646Y195704D01*
Y195668D01*
X-5634Y195644D01*
Y195632D01*
X-4927Y192323D01*
X-6497D01*
X-7217Y195620D01*
X-7253Y195776D01*
X-7277Y195920D01*
X-7325Y196160D01*
X-7361Y196363D01*
X-7385Y196519D01*
X-7397Y196639D01*
X-7409Y196723D01*
Y196771D01*
Y196783D01*
X-7397Y197035D01*
X-7349Y197251D01*
X-7277Y197443D01*
X-7205Y197598D01*
X-7121Y197730D01*
X-7061Y197826D01*
X-7013Y197874D01*
X-6989Y197898D01*
X-6821Y198042D01*
X-6629Y198138D01*
X-6449Y198210D01*
X-6258Y198270D01*
X-6102Y198294D01*
X-5970Y198306D01*
X-5922Y198318D01*
X-5850D01*
X-5646Y198306D01*
D02*
G37*
G36*
X-34918Y205906D02*
X-36561D01*
X-37077Y208351D01*
X-38659Y209742D01*
X-40662Y205906D01*
X-42544D01*
X-39870Y210797D01*
X-43503Y213975D01*
X-41285D01*
X-37532Y210534D01*
X-38252Y213975D01*
X-36597D01*
X-34918Y205906D01*
D02*
G37*
G36*
X-10826Y198294D02*
X-10574Y198246D01*
X-10334Y198174D01*
X-10130Y198102D01*
X-9950Y198018D01*
X-9879Y197982D01*
X-9819Y197946D01*
X-9771Y197910D01*
X-9735Y197898D01*
X-9711Y197874D01*
X-9699D01*
X-9459Y197694D01*
X-9255Y197478D01*
X-9075Y197263D01*
X-8931Y197059D01*
X-8811Y196867D01*
X-8764Y196783D01*
X-8727Y196711D01*
X-8692Y196651D01*
X-8668Y196603D01*
X-8656Y196579D01*
Y196567D01*
X-8536Y196244D01*
X-8440Y195908D01*
X-8380Y195584D01*
X-8332Y195296D01*
X-8320Y195165D01*
X-8308Y195045D01*
X-8296Y194937D01*
Y194853D01*
X-8284Y194769D01*
Y194721D01*
Y194685D01*
Y194673D01*
X-8296Y194457D01*
X-8308Y194265D01*
X-8332Y194073D01*
X-8368Y193905D01*
X-8404Y193750D01*
X-8452Y193606D01*
X-8500Y193474D01*
X-8560Y193354D01*
X-8608Y193246D01*
X-8656Y193150D01*
X-8704Y193078D01*
X-8739Y193018D01*
X-8776Y192958D01*
X-8800Y192922D01*
X-8823Y192910D01*
Y192898D01*
X-8931Y192790D01*
X-9039Y192707D01*
X-9159Y192623D01*
X-9279Y192551D01*
X-9519Y192443D01*
X-9735Y192371D01*
X-9939Y192335D01*
X-10023Y192323D01*
X-10094Y192311D01*
X-10154Y192299D01*
X-10238D01*
X-10406Y192311D01*
X-10574Y192323D01*
X-10910Y192407D01*
X-11209Y192515D01*
X-11473Y192635D01*
X-11593Y192694D01*
X-11701Y192754D01*
X-11785Y192814D01*
X-11869Y192862D01*
X-11929Y192910D01*
X-11977Y192946D01*
X-12001Y192958D01*
X-12013Y192970D01*
X-11953Y192707D01*
X-11905Y192455D01*
X-11857Y192263D01*
X-11809Y192095D01*
X-11785Y191975D01*
X-11749Y191879D01*
X-11725Y191819D01*
X-11713Y191783D01*
Y191771D01*
X-11653Y191651D01*
X-11593Y191556D01*
X-11533Y191472D01*
X-11473Y191400D01*
X-11413Y191352D01*
X-11365Y191316D01*
X-11341Y191292D01*
X-11329Y191280D01*
X-11197Y191208D01*
X-11066Y191160D01*
X-10922Y191124D01*
X-10778Y191100D01*
X-10658Y191088D01*
X-10562Y191076D01*
X-10370D01*
X-10274Y191088D01*
X-10178Y191112D01*
X-10106Y191124D01*
X-10046Y191148D01*
X-10011Y191160D01*
X-9986Y191172D01*
X-9974D01*
X-9855Y191244D01*
X-9771Y191328D01*
X-9711Y191376D01*
X-9699Y191400D01*
X-9675Y191448D01*
X-9663Y191507D01*
X-9639Y191627D01*
X-9627Y191687D01*
Y191735D01*
Y191759D01*
Y191771D01*
X-7948Y192011D01*
X-7936Y191927D01*
Y191855D01*
Y191807D01*
Y191783D01*
X-7948Y191603D01*
X-7960Y191436D01*
X-7996Y191292D01*
X-8032Y191148D01*
X-8080Y191028D01*
X-8140Y190908D01*
X-8260Y190716D01*
X-8368Y190560D01*
X-8476Y190464D01*
X-8548Y190404D01*
X-8560Y190380D01*
X-8572D01*
X-8704Y190308D01*
X-8835Y190237D01*
X-9135Y190129D01*
X-9447Y190057D01*
X-9747Y190009D01*
X-9891Y189985D01*
X-10023Y189973D01*
X-10142Y189961D01*
X-10250D01*
X-10334Y189949D01*
X-10658D01*
X-10838Y189961D01*
X-11006Y189985D01*
X-11162Y189997D01*
X-11281Y190021D01*
X-11377Y190033D01*
X-11437Y190045D01*
X-11461D01*
X-11629Y190081D01*
X-11785Y190129D01*
X-11917Y190177D01*
X-12037Y190225D01*
X-12133Y190261D01*
X-12205Y190296D01*
X-12253Y190321D01*
X-12265Y190332D01*
X-12385Y190416D01*
X-12504Y190500D01*
X-12600Y190584D01*
X-12672Y190656D01*
X-12744Y190728D01*
X-12792Y190788D01*
X-12816Y190824D01*
X-12828Y190836D01*
X-12912Y190956D01*
X-12984Y191076D01*
X-13056Y191208D01*
X-13116Y191340D01*
X-13164Y191448D01*
X-13200Y191543D01*
X-13212Y191603D01*
X-13224Y191627D01*
X-13260Y191723D01*
X-13296Y191843D01*
X-13368Y192095D01*
X-13440Y192371D01*
X-13511Y192635D01*
X-13571Y192886D01*
X-13596Y192994D01*
X-13620Y193090D01*
X-13631Y193174D01*
X-13643Y193234D01*
X-13655Y193270D01*
Y193282D01*
X-14579Y198174D01*
X-13104D01*
X-12900Y197131D01*
X-12792Y197335D01*
X-12660Y197503D01*
X-12540Y197658D01*
X-12420Y197778D01*
X-12313Y197874D01*
X-12229Y197946D01*
X-12169Y197994D01*
X-12145Y198006D01*
X-11965Y198114D01*
X-11773Y198186D01*
X-11605Y198246D01*
X-11437Y198282D01*
X-11293Y198306D01*
X-11186Y198318D01*
X-11090D01*
X-10826Y198294D01*
D02*
G37*
G36*
X23585D02*
X23837Y198246D01*
X24077Y198174D01*
X24281Y198102D01*
X24461Y198018D01*
X24533Y197982D01*
X24593Y197946D01*
X24641Y197910D01*
X24677Y197898D01*
X24701Y197874D01*
X24713D01*
X24952Y197694D01*
X25156Y197478D01*
X25336Y197263D01*
X25480Y197059D01*
X25600Y196867D01*
X25648Y196783D01*
X25684Y196711D01*
X25720Y196651D01*
X25744Y196603D01*
X25756Y196579D01*
Y196567D01*
X25876Y196244D01*
X25971Y195908D01*
X26032Y195584D01*
X26079Y195296D01*
X26091Y195165D01*
X26103Y195045D01*
X26115Y194937D01*
Y194853D01*
X26127Y194769D01*
Y194721D01*
Y194685D01*
Y194673D01*
X26115Y194457D01*
X26103Y194265D01*
X26079Y194073D01*
X26043Y193905D01*
X26008Y193750D01*
X25960Y193606D01*
X25912Y193474D01*
X25852Y193354D01*
X25804Y193246D01*
X25756Y193150D01*
X25708Y193078D01*
X25672Y193018D01*
X25636Y192958D01*
X25612Y192922D01*
X25588Y192910D01*
Y192898D01*
X25480Y192790D01*
X25372Y192707D01*
X25252Y192623D01*
X25132Y192551D01*
X24892Y192443D01*
X24677Y192371D01*
X24473Y192335D01*
X24389Y192323D01*
X24317Y192311D01*
X24257Y192299D01*
X24173D01*
X24005Y192311D01*
X23837Y192323D01*
X23502Y192407D01*
X23202Y192515D01*
X22938Y192635D01*
X22818Y192694D01*
X22710Y192754D01*
X22626Y192814D01*
X22542Y192862D01*
X22482Y192910D01*
X22434Y192946D01*
X22411Y192958D01*
X22399Y192970D01*
X22458Y192707D01*
X22506Y192455D01*
X22554Y192263D01*
X22602Y192095D01*
X22626Y191975D01*
X22662Y191879D01*
X22686Y191819D01*
X22698Y191783D01*
Y191771D01*
X22758Y191651D01*
X22818Y191556D01*
X22878Y191472D01*
X22938Y191400D01*
X22998Y191352D01*
X23046Y191316D01*
X23070Y191292D01*
X23082Y191280D01*
X23214Y191208D01*
X23346Y191160D01*
X23490Y191124D01*
X23633Y191100D01*
X23753Y191088D01*
X23849Y191076D01*
X24041D01*
X24137Y191088D01*
X24233Y191112D01*
X24305Y191124D01*
X24365Y191148D01*
X24401Y191160D01*
X24425Y191172D01*
X24437D01*
X24557Y191244D01*
X24641Y191328D01*
X24701Y191376D01*
X24713Y191400D01*
X24737Y191448D01*
X24749Y191507D01*
X24772Y191627D01*
X24784Y191687D01*
Y191735D01*
Y191759D01*
Y191771D01*
X26463Y192011D01*
X26475Y191927D01*
Y191855D01*
Y191807D01*
Y191783D01*
X26463Y191603D01*
X26451Y191436D01*
X26415Y191292D01*
X26379Y191148D01*
X26331Y191028D01*
X26271Y190908D01*
X26151Y190716D01*
X26043Y190560D01*
X25936Y190464D01*
X25864Y190404D01*
X25852Y190380D01*
X25840D01*
X25708Y190308D01*
X25576Y190237D01*
X25276Y190129D01*
X24964Y190057D01*
X24665Y190009D01*
X24521Y189985D01*
X24389Y189973D01*
X24269Y189961D01*
X24161D01*
X24077Y189949D01*
X23753D01*
X23573Y189961D01*
X23406Y189985D01*
X23250Y189997D01*
X23130Y190021D01*
X23034Y190033D01*
X22974Y190045D01*
X22950D01*
X22782Y190081D01*
X22626Y190129D01*
X22494Y190177D01*
X22375Y190225D01*
X22279Y190261D01*
X22207Y190296D01*
X22159Y190321D01*
X22147Y190332D01*
X22027Y190416D01*
X21907Y190500D01*
X21811Y190584D01*
X21739Y190656D01*
X21667Y190728D01*
X21619Y190788D01*
X21595Y190824D01*
X21583Y190836D01*
X21499Y190956D01*
X21427Y191076D01*
X21355Y191208D01*
X21295Y191340D01*
X21248Y191448D01*
X21212Y191543D01*
X21200Y191603D01*
X21188Y191627D01*
X21152Y191723D01*
X21116Y191843D01*
X21044Y192095D01*
X20972Y192371D01*
X20900Y192635D01*
X20840Y192886D01*
X20816Y192994D01*
X20792Y193090D01*
X20780Y193174D01*
X20768Y193234D01*
X20756Y193270D01*
Y193282D01*
X19833Y198174D01*
X21307D01*
X21511Y197131D01*
X21619Y197335D01*
X21751Y197503D01*
X21871Y197658D01*
X21991Y197778D01*
X22099Y197874D01*
X22183Y197946D01*
X22243Y197994D01*
X22267Y198006D01*
X22446Y198114D01*
X22638Y198186D01*
X22806Y198246D01*
X22974Y198282D01*
X23118Y198306D01*
X23226Y198318D01*
X23322D01*
X23585Y198294D01*
D02*
G37*
G36*
X19461Y192323D02*
X17890D01*
X17399Y194637D01*
X17363Y194829D01*
X17315Y195009D01*
X17279Y195165D01*
X17243Y195308D01*
X17219Y195440D01*
X17183Y195548D01*
X17159Y195644D01*
X17135Y195728D01*
X17111Y195800D01*
X17087Y195860D01*
X17063Y195956D01*
X17039Y196004D01*
Y196016D01*
X16931Y196208D01*
X16823Y196376D01*
X16691Y196531D01*
X16583Y196663D01*
X16476Y196759D01*
X16391Y196843D01*
X16332Y196891D01*
X16308Y196903D01*
X16164Y196999D01*
X16032Y197071D01*
X15900Y197119D01*
X15780Y197155D01*
X15672Y197179D01*
X15600Y197191D01*
X15528D01*
X15420Y197179D01*
X15324Y197167D01*
X15240Y197131D01*
X15168Y197095D01*
X15109Y197059D01*
X15073Y197035D01*
X15049Y197011D01*
X15037Y196999D01*
X14977Y196927D01*
X14929Y196855D01*
X14893Y196771D01*
X14869Y196699D01*
X14857Y196627D01*
X14845Y196579D01*
Y196543D01*
Y196531D01*
X14857Y196447D01*
X14869Y196352D01*
X14893Y196232D01*
X14917Y196100D01*
X14941Y195992D01*
X14953Y195896D01*
X14977Y195824D01*
Y195812D01*
Y195800D01*
X15720Y192323D01*
X14149D01*
X13406Y195728D01*
X13358Y195992D01*
X13310Y196208D01*
X13286Y196399D01*
X13262Y196555D01*
X13250Y196675D01*
X13238Y196759D01*
Y196807D01*
Y196819D01*
X13250Y197059D01*
X13298Y197275D01*
X13370Y197455D01*
X13442Y197610D01*
X13526Y197730D01*
X13586Y197826D01*
X13634Y197874D01*
X13658Y197898D01*
X13826Y198042D01*
X14017Y198138D01*
X14197Y198210D01*
X14389Y198270D01*
X14545Y198294D01*
X14677Y198306D01*
X14725Y198318D01*
X14797D01*
X14989Y198306D01*
X15168Y198294D01*
X15348Y198258D01*
X15492Y198222D01*
X15612Y198186D01*
X15708Y198162D01*
X15768Y198138D01*
X15792Y198126D01*
X15972Y198042D01*
X16152Y197946D01*
X16320Y197850D01*
X16476Y197754D01*
X16607Y197658D01*
X16703Y197586D01*
X16775Y197538D01*
X16787Y197514D01*
X16799D01*
X16200Y200392D01*
X17782D01*
X19461Y192323D01*
D02*
G37*
G36*
X10996Y199097D02*
X11188Y198174D01*
X11955D01*
X12195Y196999D01*
X11416D01*
X11919Y194637D01*
X11955Y194469D01*
X11991Y194301D01*
X12015Y194157D01*
X12039Y194037D01*
X12051Y193918D01*
X12075Y193822D01*
X12087Y193726D01*
X12099Y193654D01*
X12111Y193534D01*
X12123Y193450D01*
Y193402D01*
Y193390D01*
X12111Y193186D01*
X12063Y193006D01*
X12003Y192850D01*
X11931Y192730D01*
X11871Y192623D01*
X11811Y192551D01*
X11763Y192503D01*
X11751Y192491D01*
X11584Y192383D01*
X11404Y192311D01*
X11200Y192251D01*
X10996Y192215D01*
X10816Y192191D01*
X10672Y192179D01*
X10540D01*
X10229Y192191D01*
X10085Y192203D01*
X9953Y192227D01*
X9857Y192239D01*
X9773Y192251D01*
X9713Y192263D01*
X9701D01*
X9449Y193438D01*
X9593Y193426D01*
X9713Y193414D01*
X9797Y193402D01*
X9869D01*
X9917Y193390D01*
X10085D01*
X10169Y193402D01*
X10241Y193426D01*
X10301Y193438D01*
X10337Y193462D01*
X10373Y193474D01*
X10385Y193486D01*
X10396D01*
X10457Y193582D01*
X10492Y193666D01*
X10504Y193750D01*
Y193762D01*
Y193774D01*
Y193798D01*
X10492Y193834D01*
X10481Y193930D01*
X10457Y194061D01*
X10432Y194193D01*
X10408Y194325D01*
X10385Y194433D01*
X10373Y194481D01*
X10361Y194517D01*
Y194529D01*
Y194541D01*
X9857Y196999D01*
X8886D01*
X8646Y198174D01*
X9617D01*
X9198Y200188D01*
X10996Y199097D01*
D02*
G37*
G36*
X-28739Y198306D02*
X-28451Y198258D01*
X-28175Y198198D01*
X-27924Y198114D01*
X-27696Y198018D01*
X-27480Y197910D01*
X-27288Y197802D01*
X-27120Y197682D01*
X-26964Y197563D01*
X-26820Y197455D01*
X-26713Y197347D01*
X-26617Y197251D01*
X-26545Y197167D01*
X-26497Y197107D01*
X-26461Y197059D01*
X-26449Y197047D01*
X-26329Y196867D01*
X-26233Y196687D01*
X-26149Y196495D01*
X-26065Y196316D01*
X-25945Y195956D01*
X-25873Y195620D01*
X-25849Y195464D01*
X-25825Y195332D01*
X-25813Y195212D01*
X-25801Y195105D01*
X-25789Y195021D01*
Y194949D01*
Y194913D01*
Y194901D01*
X-25801Y194673D01*
X-25825Y194457D01*
X-25861Y194265D01*
X-25909Y194073D01*
X-25957Y193894D01*
X-26017Y193738D01*
X-26089Y193582D01*
X-26161Y193450D01*
X-26221Y193330D01*
X-26293Y193222D01*
X-26353Y193138D01*
X-26413Y193054D01*
X-26449Y192994D01*
X-26485Y192958D01*
X-26509Y192934D01*
X-26521Y192922D01*
X-26665Y192790D01*
X-26820Y192683D01*
X-26976Y192575D01*
X-27132Y192491D01*
X-27300Y192419D01*
X-27456Y192359D01*
X-27756Y192275D01*
X-27900Y192239D01*
X-28031Y192215D01*
X-28139Y192203D01*
X-28247Y192191D01*
X-28331Y192179D01*
X-28439D01*
X-28751Y192203D01*
X-29051Y192251D01*
X-29302Y192311D01*
X-29542Y192395D01*
X-29722Y192467D01*
X-29806Y192503D01*
X-29866Y192539D01*
X-29914Y192563D01*
X-29950Y192587D01*
X-29974Y192599D01*
X-29986D01*
X-30238Y192778D01*
X-30453Y192982D01*
X-30645Y193198D01*
X-30801Y193402D01*
X-30933Y193594D01*
X-30981Y193666D01*
X-31029Y193738D01*
X-31053Y193798D01*
X-31077Y193846D01*
X-31101Y193869D01*
Y193881D01*
X-29686Y194121D01*
X-29602Y193977D01*
X-29506Y193858D01*
X-29410Y193750D01*
X-29302Y193654D01*
X-29206Y193570D01*
X-29098Y193510D01*
X-28907Y193414D01*
X-28727Y193354D01*
X-28583Y193318D01*
X-28523Y193306D01*
X-28451D01*
X-28283Y193318D01*
X-28127Y193366D01*
X-27983Y193426D01*
X-27864Y193486D01*
X-27768Y193558D01*
X-27696Y193606D01*
X-27648Y193654D01*
X-27636Y193666D01*
X-27528Y193810D01*
X-27444Y193965D01*
X-27384Y194121D01*
X-27348Y194277D01*
X-27324Y194409D01*
X-27300Y194517D01*
Y194589D01*
Y194601D01*
Y194613D01*
Y194661D01*
X-27312Y194709D01*
Y194745D01*
Y194757D01*
X-31269D01*
X-31341Y195116D01*
X-31365Y195284D01*
X-31377Y195440D01*
X-31389Y195584D01*
Y195692D01*
Y195764D01*
Y195776D01*
Y195788D01*
X-31377Y196004D01*
X-31365Y196208D01*
X-31329Y196399D01*
X-31293Y196579D01*
X-31245Y196747D01*
X-31185Y196903D01*
X-31125Y197047D01*
X-31077Y197167D01*
X-31017Y197275D01*
X-30957Y197371D01*
X-30897Y197455D01*
X-30849Y197527D01*
X-30813Y197574D01*
X-30777Y197610D01*
X-30765Y197634D01*
X-30753Y197646D01*
X-30633Y197766D01*
X-30501Y197874D01*
X-30358Y197958D01*
X-30214Y198030D01*
X-29926Y198150D01*
X-29662Y198234D01*
X-29410Y198282D01*
X-29314Y198294D01*
X-29218Y198306D01*
X-29147Y198318D01*
X-29039D01*
X-28739Y198306D01*
D02*
G37*
G36*
X36319Y192323D02*
X30552D01*
X30276Y193666D01*
X34389D01*
X32986Y200392D01*
X34640D01*
X36319Y192323D01*
D02*
G37*
G36*
X565Y198965D02*
X-1006D01*
X-1306Y200392D01*
X277D01*
X565Y198965D01*
D02*
G37*
G36*
X-43119Y205906D02*
X-48887D01*
X-49163Y207248D01*
X-45050D01*
X-46453Y213975D01*
X-44798D01*
X-43119Y205906D01*
D02*
G37*
G36*
X-18060D02*
X-19775D01*
X-20746Y207692D01*
X-23947D01*
X-24211Y205906D01*
X-25782D01*
X-24475Y213975D01*
X-22605D01*
X-18060Y205906D01*
D02*
G37*
G36*
X-10543D02*
X-12185D01*
X-12893Y209251D01*
X-13564D01*
X-13768Y209239D01*
X-13936Y209227D01*
X-14080Y209203D01*
X-14200Y209167D01*
X-14284Y209131D01*
X-14344Y209107D01*
X-14379Y209095D01*
X-14391Y209083D01*
X-14463Y209023D01*
X-14535Y208963D01*
X-14667Y208807D01*
X-14787Y208639D01*
X-14895Y208459D01*
X-14979Y208292D01*
X-15051Y208160D01*
X-15075Y208100D01*
X-15099Y208064D01*
X-15111Y208040D01*
Y208028D01*
X-15231Y207764D01*
X-15327Y207524D01*
X-15423Y207296D01*
X-15507Y207092D01*
X-15590Y206901D01*
X-15662Y206721D01*
X-15722Y206565D01*
X-15770Y206433D01*
X-15818Y206301D01*
X-15866Y206193D01*
X-15890Y206109D01*
X-15914Y206037D01*
X-15938Y205977D01*
X-15950Y205942D01*
X-15962Y205918D01*
Y205906D01*
X-17749D01*
X-17617Y206217D01*
X-17497Y206517D01*
X-17377Y206793D01*
X-17269Y207057D01*
X-17161Y207296D01*
X-17053Y207512D01*
X-16957Y207716D01*
X-16873Y207896D01*
X-16790Y208052D01*
X-16717Y208184D01*
X-16658Y208303D01*
X-16598Y208399D01*
X-16562Y208483D01*
X-16526Y208531D01*
X-16514Y208567D01*
X-16502Y208579D01*
X-16394Y208747D01*
X-16298Y208891D01*
X-16190Y209023D01*
X-16094Y209131D01*
X-16022Y209215D01*
X-15962Y209287D01*
X-15914Y209323D01*
X-15902Y209335D01*
X-16130Y209371D01*
X-16346Y209419D01*
X-16538Y209467D01*
X-16717Y209526D01*
X-16885Y209598D01*
X-17041Y209658D01*
X-17185Y209730D01*
X-17305Y209802D01*
X-17413Y209874D01*
X-17509Y209934D01*
X-17593Y209994D01*
X-17653Y210042D01*
X-17713Y210090D01*
X-17749Y210126D01*
X-17761Y210138D01*
X-17773Y210150D01*
X-17881Y210282D01*
X-17977Y210414D01*
X-18060Y210558D01*
X-18132Y210701D01*
X-18240Y210989D01*
X-18324Y211253D01*
X-18360Y211493D01*
X-18372Y211589D01*
X-18384Y211685D01*
X-18396Y211757D01*
Y211805D01*
Y211841D01*
Y211853D01*
X-18384Y212116D01*
X-18348Y212344D01*
X-18288Y212560D01*
X-18240Y212740D01*
X-18180Y212884D01*
X-18120Y212992D01*
X-18084Y213052D01*
X-18072Y213075D01*
X-17953Y213255D01*
X-17809Y213399D01*
X-17677Y213531D01*
X-17545Y213627D01*
X-17425Y213699D01*
X-17329Y213747D01*
X-17269Y213771D01*
X-17257Y213783D01*
X-17245D01*
X-17041Y213843D01*
X-16802Y213891D01*
X-16562Y213927D01*
X-16334Y213951D01*
X-16130Y213963D01*
X-16034Y213975D01*
X-12221D01*
X-10543Y205906D01*
D02*
G37*
G36*
X28094Y198965D02*
X26523D01*
X26223Y200392D01*
X27806D01*
X28094Y198965D01*
D02*
G37*
G36*
X28245Y214107D02*
X28485Y214095D01*
X28713Y214059D01*
X28916Y214011D01*
X29108Y213963D01*
X29288Y213903D01*
X29444Y213843D01*
X29588Y213783D01*
X29708Y213711D01*
X29816Y213651D01*
X29912Y213591D01*
X29996Y213543D01*
X30055Y213495D01*
X30091Y213459D01*
X30115Y213447D01*
X30127Y213435D01*
X30259Y213303D01*
X30367Y213172D01*
X30463Y213028D01*
X30547Y212884D01*
X30619Y212752D01*
X30679Y212608D01*
X30763Y212344D01*
X30823Y212104D01*
X30835Y211996D01*
X30847Y211912D01*
X30859Y211841D01*
Y211793D01*
Y211757D01*
Y211745D01*
X30847Y211541D01*
X30823Y211349D01*
X30787Y211169D01*
X30739Y211025D01*
X30691Y210893D01*
X30655Y210809D01*
X30631Y210750D01*
X30619Y210725D01*
X30511Y210570D01*
X30403Y210438D01*
X30295Y210318D01*
X30187Y210210D01*
X30079Y210126D01*
X30007Y210066D01*
X29959Y210030D01*
X29936Y210018D01*
X29756Y209910D01*
X29540Y209790D01*
X29312Y209682D01*
X29084Y209574D01*
X28892Y209478D01*
X28796Y209443D01*
X28725Y209407D01*
X28653Y209371D01*
X28605Y209359D01*
X28581Y209335D01*
X28569D01*
X28401Y209263D01*
X28245Y209191D01*
X28113Y209131D01*
X27993Y209071D01*
X27885Y209023D01*
X27789Y208975D01*
X27717Y208927D01*
X27645Y208891D01*
X27538Y208831D01*
X27466Y208783D01*
X27430Y208759D01*
X27418Y208747D01*
X27322Y208651D01*
X27250Y208555D01*
X27190Y208447D01*
X27154Y208364D01*
X27130Y208279D01*
X27118Y208208D01*
Y208160D01*
Y208148D01*
X27130Y207992D01*
X27178Y207860D01*
X27238Y207740D01*
X27298Y207632D01*
X27370Y207548D01*
X27430Y207488D01*
X27478Y207452D01*
X27490Y207440D01*
X27645Y207344D01*
X27825Y207272D01*
X28017Y207224D01*
X28209Y207188D01*
X28389Y207165D01*
X28533Y207153D01*
X28844D01*
X29000Y207176D01*
X29156Y207188D01*
X29288Y207224D01*
X29408Y207248D01*
X29516Y207284D01*
X29624Y207320D01*
X29708Y207368D01*
X29840Y207440D01*
X29936Y207512D01*
X29996Y207560D01*
X30007Y207572D01*
X30079Y207692D01*
X30139Y207848D01*
X30187Y208016D01*
X30223Y208184D01*
X30235Y208351D01*
X30247Y208483D01*
X30259Y208531D01*
Y208567D01*
Y208591D01*
Y208603D01*
X31842Y208519D01*
Y208220D01*
X31806Y207956D01*
X31758Y207704D01*
X31710Y207500D01*
X31650Y207320D01*
X31626Y207248D01*
X31602Y207188D01*
X31578Y207140D01*
X31566Y207104D01*
X31554Y207092D01*
Y207081D01*
X31422Y206865D01*
X31255Y206661D01*
X31075Y206505D01*
X30907Y206361D01*
X30739Y206253D01*
X30607Y206169D01*
X30559Y206145D01*
X30523Y206121D01*
X30499Y206109D01*
X30487D01*
X30187Y205989D01*
X29876Y205906D01*
X29576Y205846D01*
X29288Y205810D01*
X29168Y205786D01*
X29048D01*
X28940Y205774D01*
X28857Y205762D01*
X28677D01*
X28401Y205774D01*
X28137Y205798D01*
X27897Y205834D01*
X27670Y205882D01*
X27466Y205942D01*
X27274Y206001D01*
X27094Y206073D01*
X26938Y206145D01*
X26794Y206205D01*
X26674Y206277D01*
X26566Y206337D01*
X26482Y206397D01*
X26410Y206445D01*
X26362Y206481D01*
X26339Y206505D01*
X26327Y206517D01*
X26171Y206661D01*
X26051Y206817D01*
X25931Y206961D01*
X25835Y207117D01*
X25751Y207272D01*
X25679Y207428D01*
X25631Y207572D01*
X25583Y207716D01*
X25547Y207848D01*
X25523Y207968D01*
X25499Y208064D01*
X25487Y208160D01*
X25475Y208232D01*
Y208292D01*
Y208328D01*
Y208340D01*
X25487Y208495D01*
X25499Y208651D01*
X25559Y208927D01*
X25655Y209167D01*
X25763Y209371D01*
X25871Y209539D01*
X25955Y209658D01*
X26003Y209694D01*
X26027Y209730D01*
X26039Y209742D01*
X26051Y209754D01*
X26135Y209826D01*
X26231Y209898D01*
X26351Y209982D01*
X26482Y210066D01*
X26770Y210234D01*
X27070Y210390D01*
X27358Y210522D01*
X27478Y210582D01*
X27586Y210642D01*
X27681Y210678D01*
X27753Y210714D01*
X27801Y210725D01*
X27813Y210737D01*
X27981Y210809D01*
X28137Y210881D01*
X28269Y210941D01*
X28389Y211001D01*
X28509Y211061D01*
X28605Y211109D01*
X28689Y211157D01*
X28760Y211193D01*
X28880Y211265D01*
X28952Y211325D01*
X29000Y211349D01*
X29012Y211361D01*
X29096Y211457D01*
X29168Y211553D01*
X29216Y211649D01*
X29240Y211733D01*
X29264Y211817D01*
X29276Y211877D01*
Y211925D01*
Y211936D01*
X29264Y212068D01*
X29228Y212188D01*
X29180Y212296D01*
X29132Y212380D01*
X29084Y212452D01*
X29036Y212500D01*
X29000Y212536D01*
X28988Y212548D01*
X28857Y212632D01*
X28713Y212692D01*
X28545Y212740D01*
X28389Y212764D01*
X28233Y212788D01*
X28113Y212800D01*
X28005D01*
X27765Y212788D01*
X27549Y212752D01*
X27370Y212704D01*
X27226Y212644D01*
X27106Y212584D01*
X27022Y212536D01*
X26974Y212500D01*
X26962Y212488D01*
X26842Y212356D01*
X26746Y212224D01*
X26662Y212068D01*
X26614Y211925D01*
X26566Y211805D01*
X26542Y211697D01*
X26530Y211625D01*
Y211613D01*
Y211601D01*
X24936Y211661D01*
X24960Y211864D01*
X24996Y212056D01*
X25104Y212416D01*
X25175Y212572D01*
X25247Y212716D01*
X25319Y212848D01*
X25403Y212968D01*
X25475Y213075D01*
X25547Y213172D01*
X25619Y213255D01*
X25679Y213327D01*
X25727Y213375D01*
X25763Y213411D01*
X25787Y213435D01*
X25799Y213447D01*
X25955Y213567D01*
X26111Y213675D01*
X26291Y213759D01*
X26470Y213831D01*
X26830Y213951D01*
X27190Y214035D01*
X27358Y214059D01*
X27502Y214083D01*
X27645Y214095D01*
X27765Y214107D01*
X27861Y214119D01*
X27993D01*
X28245Y214107D01*
D02*
G37*
G36*
X-49894Y205906D02*
X-51537D01*
X-53227Y213975D01*
X-51573D01*
X-49894Y205906D01*
D02*
G37*
G36*
X21237Y156041D02*
X20725D01*
X18854Y159946D01*
X19371D01*
X21237Y156041D01*
D02*
G37*
G36*
X35466Y156102D02*
X34696D01*
X34365Y157670D01*
X34050D01*
X33955Y157665D01*
X33876Y157659D01*
X33808Y157648D01*
X33752Y157631D01*
X33713Y157614D01*
X33685Y157603D01*
X33668Y157597D01*
X33662Y157592D01*
X33629Y157564D01*
X33595Y157536D01*
X33533Y157462D01*
X33477Y157384D01*
X33426Y157299D01*
X33387Y157221D01*
X33353Y157159D01*
X33342Y157131D01*
X33331Y157114D01*
X33325Y157103D01*
Y157097D01*
X33269Y156974D01*
X33224Y156861D01*
X33179Y156754D01*
X33140Y156659D01*
X33100Y156569D01*
X33067Y156484D01*
X33038Y156412D01*
X33016Y156350D01*
X32994Y156288D01*
X32971Y156237D01*
X32960Y156198D01*
X32949Y156164D01*
X32937Y156136D01*
X32932Y156119D01*
X32926Y156108D01*
Y156102D01*
X32089D01*
X32151Y156248D01*
X32207Y156389D01*
X32263Y156518D01*
X32313Y156642D01*
X32364Y156754D01*
X32415Y156855D01*
X32460Y156951D01*
X32499Y157035D01*
X32538Y157108D01*
X32572Y157170D01*
X32600Y157226D01*
X32628Y157271D01*
X32645Y157311D01*
X32662Y157333D01*
X32667Y157350D01*
X32673Y157356D01*
X32724Y157434D01*
X32769Y157502D01*
X32819Y157564D01*
X32864Y157614D01*
X32898Y157653D01*
X32926Y157687D01*
X32949Y157704D01*
X32954Y157710D01*
X32847Y157727D01*
X32746Y157749D01*
X32656Y157772D01*
X32572Y157800D01*
X32493Y157833D01*
X32420Y157861D01*
X32353Y157895D01*
X32297Y157929D01*
X32246Y157963D01*
X32201Y157991D01*
X32162Y158019D01*
X32134Y158041D01*
X32105Y158064D01*
X32089Y158081D01*
X32083Y158086D01*
X32077Y158092D01*
X32027Y158154D01*
X31982Y158215D01*
X31943Y158283D01*
X31909Y158350D01*
X31858Y158485D01*
X31819Y158609D01*
X31802Y158721D01*
X31796Y158766D01*
X31791Y158811D01*
X31785Y158845D01*
Y158867D01*
Y158884D01*
Y158890D01*
X31791Y159013D01*
X31808Y159120D01*
X31836Y159221D01*
X31858Y159306D01*
X31886Y159373D01*
X31914Y159424D01*
X31931Y159452D01*
X31937Y159463D01*
X31993Y159547D01*
X32061Y159615D01*
X32122Y159677D01*
X32184Y159722D01*
X32240Y159755D01*
X32285Y159778D01*
X32313Y159789D01*
X32319Y159795D01*
X32325D01*
X32420Y159823D01*
X32533Y159845D01*
X32645Y159862D01*
X32752Y159873D01*
X32847Y159879D01*
X32892Y159885D01*
X34679D01*
X35466Y156102D01*
D02*
G37*
G36*
X-21928Y200524D02*
X-21689Y200512D01*
X-21461Y200476D01*
X-21257Y200428D01*
X-21065Y200380D01*
X-20885Y200320D01*
X-20730Y200260D01*
X-20586Y200200D01*
X-20466Y200128D01*
X-20358Y200068D01*
X-20262Y200008D01*
X-20178Y199960D01*
X-20118Y199913D01*
X-20082Y199876D01*
X-20058Y199864D01*
X-20046Y199853D01*
X-19914Y199721D01*
X-19806Y199589D01*
X-19710Y199445D01*
X-19626Y199301D01*
X-19555Y199169D01*
X-19495Y199025D01*
X-19411Y198761D01*
X-19351Y198522D01*
X-19339Y198414D01*
X-19327Y198330D01*
X-19315Y198258D01*
Y198210D01*
Y198174D01*
Y198162D01*
X-19327Y197958D01*
X-19351Y197766D01*
X-19387Y197586D01*
X-19435Y197443D01*
X-19483Y197311D01*
X-19519Y197227D01*
X-19543Y197167D01*
X-19555Y197143D01*
X-19662Y196987D01*
X-19770Y196855D01*
X-19878Y196735D01*
X-19986Y196627D01*
X-20094Y196543D01*
X-20166Y196483D01*
X-20214Y196447D01*
X-20238Y196435D01*
X-20418Y196327D01*
X-20634Y196208D01*
X-20861Y196100D01*
X-21089Y195992D01*
X-21281Y195896D01*
X-21377Y195860D01*
X-21449Y195824D01*
X-21521Y195788D01*
X-21569Y195776D01*
X-21593Y195752D01*
X-21605D01*
X-21773Y195680D01*
X-21928Y195608D01*
X-22060Y195548D01*
X-22180Y195488D01*
X-22288Y195440D01*
X-22384Y195392D01*
X-22456Y195344D01*
X-22528Y195308D01*
X-22636Y195248D01*
X-22708Y195200D01*
X-22744Y195176D01*
X-22756Y195165D01*
X-22852Y195069D01*
X-22924Y194973D01*
X-22984Y194865D01*
X-23020Y194781D01*
X-23044Y194697D01*
X-23056Y194625D01*
Y194577D01*
Y194565D01*
X-23044Y194409D01*
X-22996Y194277D01*
X-22936Y194157D01*
X-22876Y194049D01*
X-22804Y193965D01*
X-22744Y193905D01*
X-22696Y193869D01*
X-22684Y193858D01*
X-22528Y193762D01*
X-22348Y193690D01*
X-22156Y193642D01*
X-21964Y193606D01*
X-21785Y193582D01*
X-21641Y193570D01*
X-21329D01*
X-21173Y193594D01*
X-21017Y193606D01*
X-20885Y193642D01*
X-20765Y193666D01*
X-20658Y193702D01*
X-20550Y193738D01*
X-20466Y193786D01*
X-20334Y193858D01*
X-20238Y193930D01*
X-20178Y193977D01*
X-20166Y193989D01*
X-20094Y194109D01*
X-20034Y194265D01*
X-19986Y194433D01*
X-19950Y194601D01*
X-19938Y194769D01*
X-19926Y194901D01*
X-19914Y194949D01*
Y194985D01*
Y195009D01*
Y195021D01*
X-18331Y194937D01*
Y194637D01*
X-18368Y194373D01*
X-18416Y194121D01*
X-18463Y193918D01*
X-18523Y193738D01*
X-18547Y193666D01*
X-18571Y193606D01*
X-18595Y193558D01*
X-18607Y193522D01*
X-18619Y193510D01*
Y193498D01*
X-18751Y193282D01*
X-18919Y193078D01*
X-19099Y192922D01*
X-19267Y192778D01*
X-19435Y192671D01*
X-19567Y192587D01*
X-19614Y192563D01*
X-19650Y192539D01*
X-19674Y192527D01*
X-19686D01*
X-19986Y192407D01*
X-20298Y192323D01*
X-20598Y192263D01*
X-20885Y192227D01*
X-21005Y192203D01*
X-21125D01*
X-21233Y192191D01*
X-21317Y192179D01*
X-21497D01*
X-21773Y192191D01*
X-22036Y192215D01*
X-22276Y192251D01*
X-22504Y192299D01*
X-22708Y192359D01*
X-22900Y192419D01*
X-23080Y192491D01*
X-23235Y192563D01*
X-23379Y192623D01*
X-23499Y192694D01*
X-23607Y192754D01*
X-23691Y192814D01*
X-23763Y192862D01*
X-23811Y192898D01*
X-23835Y192922D01*
X-23847Y192934D01*
X-24003Y193078D01*
X-24123Y193234D01*
X-24243Y193378D01*
X-24339Y193534D01*
X-24422Y193690D01*
X-24494Y193846D01*
X-24542Y193989D01*
X-24590Y194133D01*
X-24626Y194265D01*
X-24650Y194385D01*
X-24674Y194481D01*
X-24686Y194577D01*
X-24698Y194649D01*
Y194709D01*
Y194745D01*
Y194757D01*
X-24686Y194913D01*
X-24674Y195069D01*
X-24614Y195344D01*
X-24518Y195584D01*
X-24410Y195788D01*
X-24303Y195956D01*
X-24219Y196076D01*
X-24171Y196112D01*
X-24147Y196148D01*
X-24135Y196160D01*
X-24123Y196172D01*
X-24039Y196244D01*
X-23943Y196316D01*
X-23823Y196399D01*
X-23691Y196483D01*
X-23403Y196651D01*
X-23103Y196807D01*
X-22816Y196939D01*
X-22696Y196999D01*
X-22588Y197059D01*
X-22492Y197095D01*
X-22420Y197131D01*
X-22372Y197143D01*
X-22360Y197155D01*
X-22192Y197227D01*
X-22036Y197299D01*
X-21904Y197359D01*
X-21785Y197419D01*
X-21665Y197478D01*
X-21569Y197527D01*
X-21485Y197574D01*
X-21413Y197610D01*
X-21293Y197682D01*
X-21221Y197742D01*
X-21173Y197766D01*
X-21161Y197778D01*
X-21077Y197874D01*
X-21005Y197970D01*
X-20957Y198066D01*
X-20933Y198150D01*
X-20909Y198234D01*
X-20897Y198294D01*
Y198342D01*
Y198354D01*
X-20909Y198486D01*
X-20945Y198606D01*
X-20993Y198714D01*
X-21041Y198797D01*
X-21089Y198869D01*
X-21137Y198917D01*
X-21173Y198953D01*
X-21185Y198965D01*
X-21317Y199049D01*
X-21461Y199109D01*
X-21629Y199157D01*
X-21785Y199181D01*
X-21940Y199205D01*
X-22060Y199217D01*
X-22168D01*
X-22408Y199205D01*
X-22624Y199169D01*
X-22804Y199121D01*
X-22948Y199061D01*
X-23068Y199001D01*
X-23152Y198953D01*
X-23200Y198917D01*
X-23211Y198905D01*
X-23331Y198774D01*
X-23427Y198642D01*
X-23511Y198486D01*
X-23559Y198342D01*
X-23607Y198222D01*
X-23631Y198114D01*
X-23643Y198042D01*
Y198030D01*
Y198018D01*
X-25238Y198078D01*
X-25214Y198282D01*
X-25178Y198474D01*
X-25070Y198833D01*
X-24998Y198989D01*
X-24926Y199133D01*
X-24854Y199265D01*
X-24770Y199385D01*
X-24698Y199493D01*
X-24626Y199589D01*
X-24554Y199673D01*
X-24494Y199745D01*
X-24446Y199793D01*
X-24410Y199829D01*
X-24386Y199853D01*
X-24374Y199864D01*
X-24219Y199984D01*
X-24063Y200092D01*
X-23883Y200176D01*
X-23703Y200248D01*
X-23343Y200368D01*
X-22984Y200452D01*
X-22816Y200476D01*
X-22672Y200500D01*
X-22528Y200512D01*
X-22408Y200524D01*
X-22312Y200536D01*
X-22180D01*
X-21928Y200524D01*
D02*
G37*
G36*
X14723Y159896D02*
X14807Y159885D01*
X14886Y159868D01*
X14959Y159845D01*
X15099Y159789D01*
X15223Y159727D01*
X15274Y159694D01*
X15324Y159660D01*
X15364Y159632D01*
X15397Y159604D01*
X15425Y159581D01*
X15448Y159564D01*
X15459Y159553D01*
X15465Y159547D01*
X15532Y159480D01*
X15600Y159401D01*
X15718Y159233D01*
X15819Y159058D01*
X15909Y158884D01*
X15942Y158806D01*
X15976Y158727D01*
X16004Y158660D01*
X16027Y158603D01*
X16049Y158553D01*
X16060Y158519D01*
X16066Y158491D01*
X16072Y158485D01*
X16134Y158266D01*
X16184Y158058D01*
X16218Y157861D01*
X16229Y157772D01*
X16240Y157687D01*
X16246Y157608D01*
X16251Y157541D01*
X16257Y157479D01*
Y157429D01*
X16263Y157384D01*
Y157356D01*
Y157333D01*
Y157327D01*
X16257Y157215D01*
X16251Y157108D01*
X16235Y157007D01*
X16218Y156912D01*
X16195Y156827D01*
X16173Y156749D01*
X16145Y156676D01*
X16117Y156614D01*
X16089Y156552D01*
X16060Y156507D01*
X16038Y156462D01*
X16015Y156428D01*
X15999Y156400D01*
X15982Y156383D01*
X15976Y156372D01*
X15970Y156367D01*
X15914Y156310D01*
X15853Y156260D01*
X15791Y156215D01*
X15729Y156175D01*
X15661Y156142D01*
X15600Y156114D01*
X15482Y156074D01*
X15375Y156052D01*
X15330Y156046D01*
X15291Y156041D01*
X15257Y156035D01*
X15212D01*
X15127Y156041D01*
X15043Y156052D01*
X14965Y156069D01*
X14886Y156091D01*
X14745Y156142D01*
X14627Y156209D01*
X14571Y156237D01*
X14526Y156271D01*
X14487Y156299D01*
X14447Y156327D01*
X14425Y156344D01*
X14402Y156361D01*
X14391Y156372D01*
X14386Y156378D01*
X14318Y156445D01*
X14256Y156518D01*
X14138Y156676D01*
X14043Y156844D01*
X13959Y157002D01*
X13925Y157075D01*
X13891Y157142D01*
X13869Y157204D01*
X13846Y157260D01*
X13829Y157305D01*
X13818Y157339D01*
X13807Y157361D01*
Y157367D01*
X13734Y157603D01*
X13678Y157833D01*
X13661Y157940D01*
X13638Y158041D01*
X13627Y158137D01*
X13616Y158227D01*
X13604Y158305D01*
X13599Y158379D01*
X13593Y158440D01*
Y158496D01*
X13588Y158541D01*
Y158570D01*
Y158592D01*
Y158598D01*
X13593Y158716D01*
X13599Y158822D01*
X13616Y158924D01*
X13633Y159019D01*
X13655Y159103D01*
X13683Y159182D01*
X13711Y159255D01*
X13734Y159317D01*
X13762Y159379D01*
X13790Y159424D01*
X13818Y159469D01*
X13840Y159502D01*
X13857Y159531D01*
X13874Y159547D01*
X13880Y159559D01*
X13885Y159564D01*
X13942Y159626D01*
X14004Y159677D01*
X14065Y159722D01*
X14127Y159761D01*
X14195Y159795D01*
X14256Y159817D01*
X14374Y159862D01*
X14481Y159885D01*
X14526Y159890D01*
X14560Y159896D01*
X14594Y159901D01*
X14639D01*
X14723Y159896D01*
D02*
G37*
G36*
X25008D02*
X25092Y159885D01*
X25170Y159868D01*
X25243Y159845D01*
X25384Y159789D01*
X25508Y159727D01*
X25558Y159694D01*
X25609Y159660D01*
X25648Y159632D01*
X25682Y159604D01*
X25710Y159581D01*
X25732Y159564D01*
X25744Y159553D01*
X25749Y159547D01*
X25817Y159480D01*
X25884Y159401D01*
X26002Y159233D01*
X26103Y159058D01*
X26193Y158884D01*
X26227Y158806D01*
X26261Y158727D01*
X26289Y158660D01*
X26311Y158603D01*
X26334Y158553D01*
X26345Y158519D01*
X26351Y158491D01*
X26356Y158485D01*
X26418Y158266D01*
X26469Y158058D01*
X26502Y157861D01*
X26514Y157772D01*
X26525Y157687D01*
X26531Y157608D01*
X26536Y157541D01*
X26542Y157479D01*
Y157429D01*
X26547Y157384D01*
Y157356D01*
Y157333D01*
Y157327D01*
X26542Y157215D01*
X26536Y157108D01*
X26519Y157007D01*
X26502Y156912D01*
X26480Y156827D01*
X26458Y156749D01*
X26429Y156676D01*
X26401Y156614D01*
X26373Y156552D01*
X26345Y156507D01*
X26323Y156462D01*
X26300Y156428D01*
X26283Y156400D01*
X26266Y156383D01*
X26261Y156372D01*
X26255Y156367D01*
X26199Y156310D01*
X26137Y156260D01*
X26075Y156215D01*
X26013Y156175D01*
X25946Y156142D01*
X25884Y156114D01*
X25766Y156074D01*
X25659Y156052D01*
X25614Y156046D01*
X25575Y156041D01*
X25541Y156035D01*
X25496D01*
X25412Y156041D01*
X25328Y156052D01*
X25249Y156069D01*
X25170Y156091D01*
X25030Y156142D01*
X24912Y156209D01*
X24856Y156237D01*
X24811Y156271D01*
X24771Y156299D01*
X24732Y156327D01*
X24710Y156344D01*
X24687Y156361D01*
X24676Y156372D01*
X24670Y156378D01*
X24603Y156445D01*
X24541Y156518D01*
X24423Y156676D01*
X24328Y156844D01*
X24243Y157002D01*
X24209Y157075D01*
X24176Y157142D01*
X24153Y157204D01*
X24131Y157260D01*
X24114Y157305D01*
X24103Y157339D01*
X24091Y157361D01*
Y157367D01*
X24018Y157603D01*
X23962Y157833D01*
X23945Y157940D01*
X23923Y158041D01*
X23912Y158137D01*
X23900Y158227D01*
X23889Y158305D01*
X23884Y158379D01*
X23878Y158440D01*
Y158496D01*
X23872Y158541D01*
Y158570D01*
Y158592D01*
Y158598D01*
X23878Y158716D01*
X23884Y158822D01*
X23900Y158924D01*
X23917Y159019D01*
X23940Y159103D01*
X23968Y159182D01*
X23996Y159255D01*
X24018Y159317D01*
X24047Y159379D01*
X24075Y159424D01*
X24103Y159469D01*
X24125Y159502D01*
X24142Y159531D01*
X24159Y159547D01*
X24164Y159559D01*
X24170Y159564D01*
X24226Y159626D01*
X24288Y159677D01*
X24350Y159722D01*
X24412Y159761D01*
X24479Y159795D01*
X24541Y159817D01*
X24659Y159862D01*
X24766Y159885D01*
X24811Y159890D01*
X24845Y159896D01*
X24878Y159901D01*
X24923D01*
X25008Y159896D01*
D02*
G37*
G36*
X36708Y157614D02*
X36731Y157502D01*
X36753Y157406D01*
X36776Y157316D01*
X36798Y157238D01*
X36815Y157165D01*
X36832Y157103D01*
X36849Y157052D01*
X36866Y157007D01*
X36882Y156968D01*
X36894Y156934D01*
X36905Y156912D01*
X36911Y156895D01*
X36922Y156867D01*
X36928Y156861D01*
X36978Y156805D01*
X37045Y156760D01*
X37113Y156732D01*
X37180Y156709D01*
X37248Y156698D01*
X37298Y156693D01*
X37321Y156687D01*
X37349D01*
X37422Y156693D01*
X37490Y156704D01*
X37540Y156715D01*
X37585Y156737D01*
X37619Y156754D01*
X37647Y156765D01*
X37658Y156777D01*
X37664Y156782D01*
X37697Y156822D01*
X37720Y156867D01*
X37742Y156912D01*
X37754Y156957D01*
X37759Y156996D01*
X37765Y157030D01*
Y157052D01*
Y157058D01*
Y157120D01*
X37759Y157181D01*
Y157210D01*
X37754Y157232D01*
Y157243D01*
Y157249D01*
X38473Y157170D01*
X38479Y157091D01*
X38484Y157030D01*
Y157002D01*
Y156985D01*
Y156974D01*
Y156968D01*
X38479Y156889D01*
X38473Y156816D01*
X38439Y156676D01*
X38400Y156563D01*
X38349Y156462D01*
X38299Y156383D01*
X38254Y156327D01*
X38237Y156310D01*
X38226Y156293D01*
X38220Y156288D01*
X38214Y156282D01*
X38158Y156237D01*
X38102Y156203D01*
X37973Y156142D01*
X37838Y156097D01*
X37703Y156069D01*
X37585Y156046D01*
X37534Y156041D01*
X37490D01*
X37450Y156035D01*
X37400D01*
X37282Y156041D01*
X37175Y156046D01*
X37074Y156063D01*
X36978Y156086D01*
X36894Y156108D01*
X36815Y156136D01*
X36748Y156164D01*
X36686Y156198D01*
X36630Y156226D01*
X36579Y156254D01*
X36540Y156282D01*
X36506Y156305D01*
X36483Y156327D01*
X36467Y156344D01*
X36455Y156350D01*
X36450Y156355D01*
X36394Y156423D01*
X36337Y156501D01*
X36287Y156591D01*
X36242Y156681D01*
X36158Y156889D01*
X36084Y157091D01*
X36051Y157193D01*
X36028Y157283D01*
X36006Y157367D01*
X35983Y157446D01*
X35967Y157507D01*
X35961Y157552D01*
X35950Y157580D01*
Y157592D01*
X35472Y159885D01*
X36231D01*
X36708Y157614D01*
D02*
G37*
G36*
X-41808Y198306D02*
X-41568Y198282D01*
X-41340Y198258D01*
X-41124Y198210D01*
X-40933Y198150D01*
X-40765Y198090D01*
X-40609Y198030D01*
X-40465Y197970D01*
X-40333Y197898D01*
X-40225Y197838D01*
X-40141Y197778D01*
X-40057Y197718D01*
X-39997Y197670D01*
X-39961Y197646D01*
X-39937Y197622D01*
X-39926Y197610D01*
X-39830Y197514D01*
X-39758Y197419D01*
X-39626Y197215D01*
X-39542Y197011D01*
X-39470Y196819D01*
X-39434Y196663D01*
X-39422Y196531D01*
X-39410Y196483D01*
Y196447D01*
Y196423D01*
Y196411D01*
X-39422Y196280D01*
X-39434Y196160D01*
X-39494Y195944D01*
X-39578Y195752D01*
X-39674Y195584D01*
X-39770Y195452D01*
X-39854Y195368D01*
X-39913Y195308D01*
X-39937Y195284D01*
X-40009Y195236D01*
X-40117Y195176D01*
X-40225Y195116D01*
X-40357Y195056D01*
X-40657Y194925D01*
X-40957Y194805D01*
X-41244Y194709D01*
X-41376Y194661D01*
X-41484Y194613D01*
X-41580Y194589D01*
X-41652Y194565D01*
X-41700Y194541D01*
X-41712D01*
X-41892Y194481D01*
X-42048Y194421D01*
X-42156Y194373D01*
X-42240Y194325D01*
X-42300Y194289D01*
X-42347Y194265D01*
X-42371Y194241D01*
X-42443Y194145D01*
X-42479Y194049D01*
X-42491Y193977D01*
Y193965D01*
Y193954D01*
X-42479Y193869D01*
X-42455Y193786D01*
X-42384Y193666D01*
X-42336Y193618D01*
X-42300Y193582D01*
X-42276Y193558D01*
X-42264Y193546D01*
X-42132Y193462D01*
X-41988Y193402D01*
X-41844Y193366D01*
X-41712Y193342D01*
X-41592Y193318D01*
X-41484Y193306D01*
X-41400D01*
X-41208Y193318D01*
X-41053Y193342D01*
X-40909Y193366D01*
X-40789Y193402D01*
X-40693Y193438D01*
X-40621Y193474D01*
X-40573Y193486D01*
X-40561Y193498D01*
X-40453Y193582D01*
X-40357Y193690D01*
X-40273Y193810D01*
X-40201Y193918D01*
X-40141Y194025D01*
X-40105Y194109D01*
X-40081Y194169D01*
X-40069Y194193D01*
X-38535Y193941D01*
X-38643Y193642D01*
X-38787Y193378D01*
X-38930Y193162D01*
X-39086Y192970D01*
X-39230Y192826D01*
X-39350Y192719D01*
X-39398Y192683D01*
X-39434Y192658D01*
X-39446Y192635D01*
X-39458D01*
X-39590Y192551D01*
X-39746Y192479D01*
X-40057Y192371D01*
X-40381Y192287D01*
X-40705Y192239D01*
X-40849Y192215D01*
X-40981Y192203D01*
X-41113Y192191D01*
X-41220D01*
X-41304Y192179D01*
X-41424D01*
X-41652Y192191D01*
X-41880Y192203D01*
X-42084Y192239D01*
X-42264Y192275D01*
X-42443Y192323D01*
X-42611Y192371D01*
X-42755Y192431D01*
X-42887Y192491D01*
X-43007Y192539D01*
X-43103Y192599D01*
X-43187Y192647D01*
X-43259Y192694D01*
X-43319Y192730D01*
X-43355Y192766D01*
X-43379Y192778D01*
X-43391Y192790D01*
X-43510Y192910D01*
X-43630Y193030D01*
X-43714Y193150D01*
X-43798Y193270D01*
X-43870Y193390D01*
X-43930Y193510D01*
X-44014Y193738D01*
X-44062Y193941D01*
X-44074Y194013D01*
X-44086Y194085D01*
X-44098Y194145D01*
Y194193D01*
Y194217D01*
Y194229D01*
Y194349D01*
X-44074Y194457D01*
X-44014Y194673D01*
X-43918Y194865D01*
X-43822Y195021D01*
X-43726Y195152D01*
X-43630Y195248D01*
X-43571Y195308D01*
X-43558Y195332D01*
X-43547D01*
X-43463Y195392D01*
X-43367Y195452D01*
X-43259Y195524D01*
X-43139Y195584D01*
X-42887Y195692D01*
X-42623Y195800D01*
X-42384Y195884D01*
X-42276Y195920D01*
X-42192Y195944D01*
X-42108Y195968D01*
X-42048Y195992D01*
X-42012Y196004D01*
X-42000D01*
X-41868Y196040D01*
X-41748Y196076D01*
X-41640Y196112D01*
X-41544Y196148D01*
X-41388Y196196D01*
X-41268Y196232D01*
X-41196Y196267D01*
X-41148Y196291D01*
X-41124Y196303D01*
X-41113D01*
X-41041Y196363D01*
X-40993Y196423D01*
X-40945Y196483D01*
X-40921Y196543D01*
X-40909Y196591D01*
X-40897Y196639D01*
Y196663D01*
Y196675D01*
X-40909Y196759D01*
X-40933Y196831D01*
X-41005Y196951D01*
X-41041Y196999D01*
X-41076Y197035D01*
X-41100Y197047D01*
X-41113Y197059D01*
X-41208Y197119D01*
X-41316Y197155D01*
X-41544Y197203D01*
X-41652Y197215D01*
X-41736Y197227D01*
X-41820D01*
X-42000Y197215D01*
X-42156Y197191D01*
X-42300Y197155D01*
X-42419Y197119D01*
X-42527Y197083D01*
X-42599Y197047D01*
X-42647Y197023D01*
X-42659Y197011D01*
X-42755Y196939D01*
X-42827Y196867D01*
X-42899Y196783D01*
X-42947Y196711D01*
X-42995Y196639D01*
X-43019Y196579D01*
X-43043Y196543D01*
Y196531D01*
X-44506Y196783D01*
X-44434Y197035D01*
X-44326Y197251D01*
X-44206Y197443D01*
X-44074Y197610D01*
X-43954Y197730D01*
X-43858Y197826D01*
X-43786Y197874D01*
X-43774Y197898D01*
X-43762D01*
X-43654Y197970D01*
X-43523Y198042D01*
X-43259Y198138D01*
X-42971Y198210D01*
X-42695Y198270D01*
X-42443Y198294D01*
X-42336Y198306D01*
X-42240D01*
X-42168Y198318D01*
X-42060D01*
X-41808Y198306D01*
D02*
G37*
G36*
X17752Y159896D02*
X17836Y159890D01*
X17994Y159856D01*
X18129Y159812D01*
X18190Y159789D01*
X18247Y159761D01*
X18297Y159733D01*
X18342Y159710D01*
X18382Y159688D01*
X18415Y159665D01*
X18438Y159649D01*
X18455Y159632D01*
X18466Y159626D01*
X18471Y159620D01*
X18528Y159564D01*
X18578Y159508D01*
X18668Y159379D01*
X18741Y159244D01*
X18792Y159115D01*
X18831Y158997D01*
X18848Y158946D01*
X18859Y158901D01*
X18865Y158867D01*
X18870Y158839D01*
X18876Y158822D01*
Y158817D01*
X18151Y158710D01*
X18123Y158828D01*
X18095Y158929D01*
X18061Y159013D01*
X18033Y159075D01*
X18005Y159126D01*
X17982Y159160D01*
X17966Y159182D01*
X17960Y159188D01*
X17909Y159233D01*
X17853Y159266D01*
X17803Y159289D01*
X17752Y159306D01*
X17713Y159317D01*
X17679Y159323D01*
X17651D01*
X17589Y159317D01*
X17533Y159306D01*
X17482Y159283D01*
X17443Y159261D01*
X17409Y159238D01*
X17387Y159216D01*
X17370Y159205D01*
X17364Y159199D01*
X17325Y159154D01*
X17297Y159103D01*
X17280Y159047D01*
X17263Y159002D01*
X17257Y158957D01*
X17252Y158924D01*
Y158901D01*
Y158890D01*
Y158845D01*
X17263Y158800D01*
X17286Y158716D01*
X17297Y158676D01*
X17308Y158648D01*
X17314Y158631D01*
X17319Y158626D01*
X17347Y158570D01*
X17387Y158508D01*
X17426Y158451D01*
X17466Y158395D01*
X17505Y158350D01*
X17538Y158311D01*
X17561Y158289D01*
X17567Y158277D01*
X17589Y158255D01*
X17617Y158227D01*
X17685Y158154D01*
X17763Y158075D01*
X17848Y157996D01*
X17926Y157923D01*
X17988Y157861D01*
X18016Y157833D01*
X18033Y157817D01*
X18044Y157805D01*
X18050Y157800D01*
X18140Y157710D01*
X18224Y157631D01*
X18303Y157558D01*
X18370Y157485D01*
X18438Y157423D01*
X18494Y157367D01*
X18544Y157311D01*
X18589Y157266D01*
X18629Y157226D01*
X18657Y157193D01*
X18708Y157136D01*
X18736Y157108D01*
X18747Y157097D01*
X18814Y157018D01*
X18876Y156934D01*
X18932Y156855D01*
X18977Y156782D01*
X19017Y156721D01*
X19045Y156676D01*
X19061Y156642D01*
X19067Y156636D01*
Y156631D01*
X19106Y156535D01*
X19146Y156440D01*
X19168Y156355D01*
X19191Y156271D01*
X19208Y156203D01*
X19219Y156147D01*
X19225Y156114D01*
Y156108D01*
Y156102D01*
X16926D01*
X16785Y156777D01*
X18095D01*
X18016Y156872D01*
X17982Y156912D01*
X17949Y156951D01*
X17921Y156979D01*
X17898Y157002D01*
X17887Y157018D01*
X17881Y157024D01*
X17831Y157075D01*
X17763Y157142D01*
X17690Y157215D01*
X17612Y157288D01*
X17538Y157356D01*
X17482Y157412D01*
X17460Y157434D01*
X17443Y157451D01*
X17432Y157457D01*
X17426Y157462D01*
X17302Y157575D01*
X17201Y157676D01*
X17117Y157760D01*
X17044Y157828D01*
X16993Y157884D01*
X16954Y157923D01*
X16931Y157951D01*
X16926Y157957D01*
X16853Y158053D01*
X16791Y158137D01*
X16740Y158221D01*
X16695Y158289D01*
X16662Y158350D01*
X16639Y158395D01*
X16628Y158423D01*
X16623Y158435D01*
X16589Y158519D01*
X16566Y158598D01*
X16549Y158676D01*
X16538Y158744D01*
X16533Y158800D01*
X16527Y158845D01*
Y158873D01*
Y158884D01*
X16533Y158963D01*
X16538Y159042D01*
X16572Y159182D01*
X16623Y159306D01*
X16679Y159413D01*
X16735Y159497D01*
X16757Y159531D01*
X16785Y159559D01*
X16802Y159581D01*
X16819Y159598D01*
X16825Y159604D01*
X16830Y159609D01*
X16892Y159660D01*
X16954Y159705D01*
X17021Y159744D01*
X17089Y159778D01*
X17229Y159828D01*
X17359Y159868D01*
X17421Y159879D01*
X17477Y159885D01*
X17533Y159890D01*
X17572Y159896D01*
X17612Y159901D01*
X17662D01*
X17752Y159896D01*
D02*
G37*
G36*
X22158D02*
X22242Y159890D01*
X22400Y159856D01*
X22535Y159812D01*
X22596Y159789D01*
X22653Y159761D01*
X22703Y159733D01*
X22748Y159710D01*
X22788Y159688D01*
X22821Y159665D01*
X22844Y159649D01*
X22861Y159632D01*
X22872Y159626D01*
X22877Y159620D01*
X22934Y159564D01*
X22984Y159508D01*
X23074Y159379D01*
X23147Y159244D01*
X23198Y159115D01*
X23237Y158997D01*
X23254Y158946D01*
X23265Y158901D01*
X23271Y158867D01*
X23277Y158839D01*
X23282Y158822D01*
Y158817D01*
X22557Y158710D01*
X22529Y158828D01*
X22501Y158929D01*
X22467Y159013D01*
X22439Y159075D01*
X22411Y159126D01*
X22389Y159160D01*
X22372Y159182D01*
X22366Y159188D01*
X22316Y159233D01*
X22259Y159266D01*
X22209Y159289D01*
X22158Y159306D01*
X22119Y159317D01*
X22085Y159323D01*
X22057D01*
X21995Y159317D01*
X21939Y159306D01*
X21888Y159283D01*
X21849Y159261D01*
X21815Y159238D01*
X21793Y159216D01*
X21776Y159205D01*
X21770Y159199D01*
X21731Y159154D01*
X21703Y159103D01*
X21686Y159047D01*
X21669Y159002D01*
X21664Y158957D01*
X21658Y158924D01*
Y158901D01*
Y158890D01*
Y158845D01*
X21669Y158800D01*
X21692Y158716D01*
X21703Y158676D01*
X21714Y158648D01*
X21720Y158631D01*
X21725Y158626D01*
X21754Y158570D01*
X21793Y158508D01*
X21832Y158451D01*
X21871Y158395D01*
X21911Y158350D01*
X21945Y158311D01*
X21967Y158289D01*
X21973Y158277D01*
X21995Y158255D01*
X22023Y158227D01*
X22091Y158154D01*
X22169Y158075D01*
X22254Y157996D01*
X22332Y157923D01*
X22394Y157861D01*
X22422Y157833D01*
X22439Y157817D01*
X22450Y157805D01*
X22456Y157800D01*
X22546Y157710D01*
X22630Y157631D01*
X22709Y157558D01*
X22776Y157485D01*
X22844Y157423D01*
X22900Y157367D01*
X22951Y157311D01*
X22996Y157266D01*
X23035Y157226D01*
X23063Y157193D01*
X23114Y157136D01*
X23142Y157108D01*
X23153Y157097D01*
X23220Y157018D01*
X23282Y156934D01*
X23338Y156855D01*
X23383Y156782D01*
X23423Y156721D01*
X23451Y156676D01*
X23468Y156642D01*
X23473Y156636D01*
Y156631D01*
X23513Y156535D01*
X23552Y156440D01*
X23574Y156355D01*
X23597Y156271D01*
X23614Y156203D01*
X23625Y156147D01*
X23631Y156114D01*
Y156108D01*
Y156102D01*
X21332D01*
X21192Y156777D01*
X22501D01*
X22422Y156872D01*
X22389Y156912D01*
X22355Y156951D01*
X22327Y156979D01*
X22304Y157002D01*
X22293Y157018D01*
X22287Y157024D01*
X22237Y157075D01*
X22169Y157142D01*
X22096Y157215D01*
X22018Y157288D01*
X21945Y157356D01*
X21888Y157412D01*
X21866Y157434D01*
X21849Y157451D01*
X21838Y157457D01*
X21832Y157462D01*
X21709Y157575D01*
X21607Y157676D01*
X21523Y157760D01*
X21450Y157828D01*
X21399Y157884D01*
X21360Y157923D01*
X21338Y157951D01*
X21332Y157957D01*
X21259Y158053D01*
X21197Y158137D01*
X21147Y158221D01*
X21102Y158289D01*
X21068Y158350D01*
X21045Y158395D01*
X21034Y158423D01*
X21028Y158435D01*
X20995Y158519D01*
X20972Y158598D01*
X20956Y158676D01*
X20944Y158744D01*
X20939Y158800D01*
X20933Y158845D01*
Y158873D01*
Y158884D01*
X20939Y158963D01*
X20944Y159042D01*
X20978Y159182D01*
X21028Y159306D01*
X21085Y159413D01*
X21141Y159497D01*
X21163Y159531D01*
X21192Y159559D01*
X21208Y159581D01*
X21225Y159598D01*
X21231Y159604D01*
X21237Y159609D01*
X21298Y159660D01*
X21360Y159705D01*
X21428Y159744D01*
X21495Y159778D01*
X21635Y159828D01*
X21765Y159868D01*
X21827Y159879D01*
X21883Y159885D01*
X21939Y159890D01*
X21978Y159896D01*
X22018Y159901D01*
X22068D01*
X22158Y159896D01*
D02*
G37*
G36*
X8923D02*
X9013Y159885D01*
X9097Y159868D01*
X9176Y159851D01*
X9322Y159795D01*
X9390Y159767D01*
X9451Y159733D01*
X9502Y159699D01*
X9552Y159671D01*
X9592Y159643D01*
X9625Y159615D01*
X9654Y159598D01*
X9670Y159581D01*
X9682Y159570D01*
X9687Y159564D01*
X9766Y159474D01*
X9839Y159368D01*
X9901Y159261D01*
X9951Y159160D01*
X9996Y159070D01*
X10008Y159025D01*
X10025Y158991D01*
X10036Y158963D01*
X10041Y158940D01*
X10047Y158929D01*
Y158924D01*
X9373Y158794D01*
X9345Y158890D01*
X9311Y158974D01*
X9277Y159042D01*
X9249Y159098D01*
X9221Y159143D01*
X9198Y159171D01*
X9182Y159188D01*
X9176Y159193D01*
X9125Y159233D01*
X9075Y159261D01*
X9024Y159283D01*
X8979Y159294D01*
X8940Y159306D01*
X8912Y159311D01*
X8884D01*
X8822Y159306D01*
X8766Y159294D01*
X8721Y159278D01*
X8676Y159261D01*
X8648Y159238D01*
X8620Y159221D01*
X8608Y159210D01*
X8603Y159205D01*
X8569Y159160D01*
X8541Y159115D01*
X8524Y159064D01*
X8507Y159019D01*
X8502Y158974D01*
X8496Y158940D01*
Y158918D01*
Y158912D01*
X8502Y158822D01*
X8518Y158738D01*
X8546Y158671D01*
X8575Y158609D01*
X8603Y158564D01*
X8631Y158530D01*
X8648Y158508D01*
X8653Y158502D01*
X8721Y158451D01*
X8794Y158412D01*
X8867Y158390D01*
X8940Y158367D01*
X9007Y158356D01*
X9064Y158350D01*
X9187D01*
X9317Y157738D01*
X9272Y157743D01*
X9232Y157749D01*
X9198D01*
X9114Y157743D01*
X9047Y157727D01*
X8979Y157704D01*
X8929Y157682D01*
X8889Y157653D01*
X8856Y157631D01*
X8839Y157614D01*
X8833Y157608D01*
X8788Y157552D01*
X8754Y157496D01*
X8726Y157434D01*
X8709Y157378D01*
X8698Y157322D01*
X8693Y157283D01*
Y157255D01*
Y157243D01*
X8698Y157148D01*
X8721Y157063D01*
X8743Y156985D01*
X8777Y156923D01*
X8805Y156872D01*
X8833Y156833D01*
X8856Y156810D01*
X8861Y156805D01*
X8929Y156749D01*
X8996Y156709D01*
X9069Y156676D01*
X9137Y156659D01*
X9193Y156648D01*
X9238Y156642D01*
X9272Y156636D01*
X9283D01*
X9350Y156642D01*
X9412Y156653D01*
X9468Y156670D01*
X9513Y156693D01*
X9547Y156715D01*
X9575Y156732D01*
X9592Y156743D01*
X9597Y156749D01*
X9637Y156799D01*
X9670Y156867D01*
X9693Y156934D01*
X9715Y157002D01*
X9732Y157069D01*
X9744Y157120D01*
Y157142D01*
X9749Y157159D01*
Y157165D01*
Y157170D01*
X10457Y157080D01*
X10440Y156990D01*
X10424Y156906D01*
X10373Y156749D01*
X10345Y156681D01*
X10311Y156614D01*
X10283Y156558D01*
X10249Y156507D01*
X10216Y156456D01*
X10188Y156417D01*
X10159Y156383D01*
X10137Y156355D01*
X10114Y156333D01*
X10098Y156316D01*
X10092Y156310D01*
X10086Y156305D01*
X10025Y156260D01*
X9963Y156215D01*
X9828Y156147D01*
X9693Y156102D01*
X9569Y156069D01*
X9457Y156052D01*
X9412Y156041D01*
X9367D01*
X9333Y156035D01*
X9288D01*
X9170Y156041D01*
X9058Y156057D01*
X8951Y156080D01*
X8856Y156108D01*
X8760Y156147D01*
X8676Y156187D01*
X8597Y156232D01*
X8524Y156277D01*
X8457Y156316D01*
X8400Y156361D01*
X8350Y156400D01*
X8310Y156440D01*
X8277Y156468D01*
X8254Y156490D01*
X8243Y156507D01*
X8237Y156513D01*
X8187Y156580D01*
X8136Y156648D01*
X8097Y156715D01*
X8063Y156782D01*
X8013Y156912D01*
X7979Y157030D01*
X7956Y157131D01*
X7951Y157176D01*
X7945Y157210D01*
X7940Y157243D01*
Y157266D01*
Y157277D01*
Y157283D01*
X7945Y157361D01*
X7956Y157440D01*
X7979Y157513D01*
X7996Y157575D01*
X8018Y157631D01*
X8041Y157670D01*
X8052Y157693D01*
X8058Y157704D01*
X8102Y157777D01*
X8159Y157839D01*
X8221Y157895D01*
X8277Y157946D01*
X8327Y157979D01*
X8372Y158008D01*
X8400Y158024D01*
X8406Y158030D01*
X8412D01*
X8305Y158075D01*
X8209Y158131D01*
X8125Y158187D01*
X8058Y158249D01*
X8007Y158300D01*
X7968Y158339D01*
X7940Y158367D01*
X7934Y158379D01*
X7878Y158468D01*
X7833Y158564D01*
X7805Y158654D01*
X7782Y158738D01*
X7771Y158806D01*
X7760Y158862D01*
Y158884D01*
Y158901D01*
Y158907D01*
Y158912D01*
X7765Y158985D01*
X7771Y159058D01*
X7805Y159193D01*
X7844Y159311D01*
X7895Y159413D01*
X7945Y159497D01*
X7973Y159531D01*
X7990Y159559D01*
X8007Y159581D01*
X8024Y159598D01*
X8029Y159604D01*
X8035Y159609D01*
X8086Y159660D01*
X8147Y159705D01*
X8209Y159744D01*
X8271Y159778D01*
X8406Y159828D01*
X8530Y159868D01*
X8648Y159885D01*
X8698Y159890D01*
X8743Y159896D01*
X8777Y159901D01*
X8828D01*
X8923Y159896D01*
D02*
G37*
G36*
X-48283Y198306D02*
X-48031Y198282D01*
X-47779Y198234D01*
X-47551Y198162D01*
X-47335Y198090D01*
X-47144Y198006D01*
X-46952Y197922D01*
X-46796Y197838D01*
X-46640Y197742D01*
X-46520Y197658D01*
X-46400Y197574D01*
X-46316Y197503D01*
X-46244Y197443D01*
X-46196Y197395D01*
X-46160Y197359D01*
X-46148Y197347D01*
X-45992Y197155D01*
X-45849Y196951D01*
X-45729Y196747D01*
X-45621Y196531D01*
X-45537Y196316D01*
X-45465Y196100D01*
X-45405Y195884D01*
X-45357Y195680D01*
X-45309Y195488D01*
X-45285Y195308D01*
X-45261Y195152D01*
X-45249Y195021D01*
Y194901D01*
X-45237Y194817D01*
Y194769D01*
Y194745D01*
X-45249Y194493D01*
X-45285Y194253D01*
X-45333Y194025D01*
X-45393Y193834D01*
X-45453Y193666D01*
X-45501Y193546D01*
X-45525Y193498D01*
X-45537Y193462D01*
X-45549Y193450D01*
Y193438D01*
X-45681Y193222D01*
X-45825Y193042D01*
X-45981Y192874D01*
X-46136Y192743D01*
X-46280Y192647D01*
X-46388Y192563D01*
X-46436Y192539D01*
X-46472Y192515D01*
X-46484Y192503D01*
X-46496D01*
X-46736Y192395D01*
X-46988Y192311D01*
X-47239Y192263D01*
X-47467Y192215D01*
X-47659Y192191D01*
X-47743D01*
X-47815Y192179D01*
X-47959D01*
X-48235Y192191D01*
X-48498Y192227D01*
X-48750Y192275D01*
X-48978Y192335D01*
X-49194Y192419D01*
X-49398Y192503D01*
X-49578Y192599D01*
X-49745Y192694D01*
X-49889Y192790D01*
X-50021Y192886D01*
X-50141Y192970D01*
X-50225Y193054D01*
X-50297Y193114D01*
X-50357Y193162D01*
X-50381Y193198D01*
X-50393Y193210D01*
X-50549Y193414D01*
X-50692Y193618D01*
X-50812Y193822D01*
X-50920Y194037D01*
X-51004Y194241D01*
X-51076Y194445D01*
X-51148Y194649D01*
X-51196Y194829D01*
X-51232Y195009D01*
X-51256Y195165D01*
X-51280Y195308D01*
X-51292Y195428D01*
X-51304Y195536D01*
Y195608D01*
Y195656D01*
Y195668D01*
X-51292Y195884D01*
X-51268Y196100D01*
X-51232Y196291D01*
X-51196Y196483D01*
X-51136Y196651D01*
X-51076Y196807D01*
X-51004Y196951D01*
X-50944Y197083D01*
X-50872Y197203D01*
X-50800Y197311D01*
X-50740Y197395D01*
X-50692Y197467D01*
X-50645Y197527D01*
X-50609Y197563D01*
X-50585Y197586D01*
X-50573Y197598D01*
X-50429Y197730D01*
X-50273Y197838D01*
X-50117Y197934D01*
X-49949Y198018D01*
X-49781Y198090D01*
X-49613Y198138D01*
X-49290Y198234D01*
X-49146Y198258D01*
X-49002Y198282D01*
X-48882Y198294D01*
X-48774Y198306D01*
X-48678Y198318D01*
X-48558D01*
X-48283Y198306D01*
D02*
G37*
G36*
X30234Y157575D02*
X30538Y156102D01*
X29768D01*
X29470Y157502D01*
X27733Y159885D01*
X28638D01*
X29172Y159115D01*
X29532Y158615D01*
X29577Y158547D01*
X29616Y158480D01*
X29655Y158418D01*
X29689Y158367D01*
X29711Y158322D01*
X29734Y158289D01*
X29745Y158266D01*
X29751Y158260D01*
X29779Y158334D01*
X29807Y158418D01*
X29846Y158508D01*
X29886Y158598D01*
X29919Y158682D01*
X29948Y158749D01*
X29959Y158777D01*
X29970Y158794D01*
X29976Y158806D01*
Y158811D01*
X30442Y159885D01*
X31274D01*
X30234Y157575D01*
D02*
G37*
G36*
X11514Y159800D02*
X11626Y159699D01*
X11744Y159604D01*
X11868Y159514D01*
X11992Y159429D01*
X12115Y159351D01*
X12233Y159278D01*
X12351Y159205D01*
X12464Y159143D01*
X12565Y159092D01*
X12660Y159042D01*
X12739Y159002D01*
X12807Y158974D01*
X12851Y158946D01*
X12885Y158935D01*
X12896Y158929D01*
X13037Y158266D01*
X12947Y158289D01*
X12851Y158317D01*
X12762Y158345D01*
X12677Y158373D01*
X12604Y158401D01*
X12548Y158418D01*
X12526Y158429D01*
X12509Y158435D01*
X12503Y158440D01*
X12497D01*
X12385Y158485D01*
X12284Y158536D01*
X12194Y158581D01*
X12115Y158626D01*
X12053Y158660D01*
X12003Y158688D01*
X11975Y158710D01*
X11964Y158716D01*
X12509Y156102D01*
X11761D01*
X10963Y159901D01*
X11413D01*
X11514Y159800D01*
D02*
G37*
G36*
X12490Y165157D02*
X10931D01*
X10620Y166680D01*
X12178D01*
X12490Y165157D01*
D02*
G37*
G36*
X-36329Y198306D02*
X-36149Y198282D01*
X-35969Y198246D01*
X-35813Y198210D01*
X-35681Y198174D01*
X-35585Y198138D01*
X-35525Y198114D01*
X-35501Y198102D01*
X-35309Y198018D01*
X-35129Y197910D01*
X-34950Y197790D01*
X-34794Y197670D01*
X-34650Y197563D01*
X-34542Y197478D01*
X-34470Y197419D01*
X-34458Y197407D01*
X-34446Y197395D01*
X-34590Y198174D01*
X-33091D01*
X-31868Y192323D01*
X-33439D01*
X-33942Y194721D01*
X-33990Y194913D01*
X-34026Y195080D01*
X-34062Y195236D01*
X-34098Y195380D01*
X-34134Y195512D01*
X-34170Y195620D01*
X-34206Y195728D01*
X-34230Y195812D01*
X-34254Y195884D01*
X-34278Y195956D01*
X-34314Y196040D01*
X-34338Y196100D01*
X-34350Y196112D01*
X-34446Y196291D01*
X-34554Y196435D01*
X-34674Y196579D01*
X-34782Y196687D01*
X-34878Y196771D01*
X-34950Y196843D01*
X-34998Y196879D01*
X-35022Y196891D01*
X-35177Y196987D01*
X-35321Y197059D01*
X-35453Y197119D01*
X-35573Y197155D01*
X-35669Y197179D01*
X-35741Y197191D01*
X-35801D01*
X-35921Y197179D01*
X-36017Y197167D01*
X-36101Y197131D01*
X-36173Y197107D01*
X-36233Y197071D01*
X-36269Y197035D01*
X-36292Y197023D01*
X-36305Y197011D01*
X-36364Y196939D01*
X-36412Y196855D01*
X-36436Y196771D01*
X-36460Y196699D01*
X-36472Y196627D01*
X-36484Y196567D01*
Y196531D01*
Y196519D01*
Y196483D01*
X-36472Y196435D01*
X-36448Y196316D01*
X-36424Y196172D01*
X-36400Y196028D01*
X-36364Y195872D01*
X-36340Y195752D01*
X-36329Y195704D01*
Y195668D01*
X-36316Y195644D01*
Y195632D01*
X-35609Y192323D01*
X-37180D01*
X-37899Y195620D01*
X-37935Y195776D01*
X-37959Y195920D01*
X-38007Y196160D01*
X-38043Y196363D01*
X-38067Y196519D01*
X-38079Y196639D01*
X-38091Y196723D01*
Y196771D01*
Y196783D01*
X-38079Y197035D01*
X-38031Y197251D01*
X-37959Y197443D01*
X-37887Y197598D01*
X-37803Y197730D01*
X-37743Y197826D01*
X-37695Y197874D01*
X-37671Y197898D01*
X-37503Y198042D01*
X-37312Y198138D01*
X-37132Y198210D01*
X-36940Y198270D01*
X-36784Y198294D01*
X-36652Y198306D01*
X-36604Y198318D01*
X-36532D01*
X-36329Y198306D01*
D02*
G37*
G36*
X-55860D02*
X-55692Y198270D01*
X-55524Y198198D01*
X-55369Y198126D01*
X-55213Y198030D01*
X-55057Y197922D01*
X-54793Y197694D01*
X-54685Y197574D01*
X-54577Y197455D01*
X-54481Y197347D01*
X-54409Y197251D01*
X-54349Y197179D01*
X-54302Y197119D01*
X-54277Y197071D01*
X-54265Y197059D01*
X-54493Y198174D01*
X-53019D01*
X-51796Y192323D01*
X-53366D01*
X-53750Y194157D01*
X-53798Y194361D01*
X-53834Y194553D01*
X-53882Y194721D01*
X-53918Y194889D01*
X-53954Y195033D01*
X-54002Y195165D01*
X-54038Y195284D01*
X-54074Y195392D01*
X-54098Y195488D01*
X-54134Y195572D01*
X-54158Y195632D01*
X-54182Y195692D01*
X-54194Y195728D01*
X-54206Y195764D01*
X-54218Y195788D01*
X-54313Y195968D01*
X-54421Y196136D01*
X-54529Y196280D01*
X-54637Y196399D01*
X-54733Y196495D01*
X-54805Y196555D01*
X-54853Y196603D01*
X-54877Y196615D01*
X-55033Y196723D01*
X-55189Y196795D01*
X-55321Y196855D01*
X-55453Y196891D01*
X-55549Y196915D01*
X-55632Y196927D01*
X-55704D01*
X-55884Y196915D01*
X-56028Y196891D01*
X-56088Y196867D01*
X-56136Y196855D01*
X-56160Y196843D01*
X-56172D01*
X-56771Y198138D01*
X-56628Y198198D01*
X-56496Y198246D01*
X-56364Y198270D01*
X-56256Y198294D01*
X-56172Y198306D01*
X-56100Y198318D01*
X-56040D01*
X-55860Y198306D01*
D02*
G37*
G36*
X-25830Y171141D02*
X-25578Y171116D01*
X-25326Y171069D01*
X-25099Y170997D01*
X-24883Y170925D01*
X-24691Y170841D01*
X-24499Y170757D01*
X-24343Y170673D01*
X-24187Y170577D01*
X-24068Y170493D01*
X-23948Y170409D01*
X-23864Y170337D01*
X-23792Y170277D01*
X-23744Y170229D01*
X-23708Y170193D01*
X-23696Y170181D01*
X-23540Y169990D01*
X-23396Y169786D01*
X-23276Y169582D01*
X-23168Y169366D01*
X-23084Y169150D01*
X-23012Y168934D01*
X-22952Y168719D01*
X-22905Y168515D01*
X-22857Y168323D01*
X-22833Y168143D01*
X-22809Y167987D01*
X-22797Y167855D01*
Y167735D01*
X-22785Y167651D01*
Y167603D01*
Y167579D01*
X-22797Y167328D01*
X-22833Y167088D01*
X-22881Y166860D01*
X-22941Y166668D01*
X-23000Y166500D01*
X-23048Y166381D01*
X-23072Y166332D01*
X-23084Y166297D01*
X-23096Y166285D01*
Y166273D01*
X-23228Y166057D01*
X-23372Y165877D01*
X-23528Y165709D01*
X-23684Y165577D01*
X-23828Y165481D01*
X-23936Y165397D01*
X-23984Y165373D01*
X-24020Y165349D01*
X-24032Y165337D01*
X-24044D01*
X-24283Y165229D01*
X-24535Y165146D01*
X-24787Y165097D01*
X-25015Y165050D01*
X-25207Y165026D01*
X-25291D01*
X-25363Y165014D01*
X-25506D01*
X-25782Y165026D01*
X-26046Y165062D01*
X-26298Y165110D01*
X-26526Y165170D01*
X-26741Y165253D01*
X-26945Y165337D01*
X-27125Y165433D01*
X-27293Y165529D01*
X-27437Y165625D01*
X-27569Y165721D01*
X-27689Y165805D01*
X-27773Y165889D01*
X-27844Y165949D01*
X-27904Y165997D01*
X-27928Y166033D01*
X-27940Y166045D01*
X-28096Y166249D01*
X-28240Y166452D01*
X-28360Y166656D01*
X-28468Y166872D01*
X-28552Y167076D01*
X-28624Y167280D01*
X-28696Y167483D01*
X-28744Y167663D01*
X-28780Y167843D01*
X-28804Y167999D01*
X-28828Y168143D01*
X-28840Y168263D01*
X-28852Y168371D01*
Y168443D01*
Y168491D01*
Y168503D01*
X-28840Y168719D01*
X-28816Y168934D01*
X-28780Y169126D01*
X-28744Y169318D01*
X-28684Y169486D01*
X-28624Y169642D01*
X-28552Y169786D01*
X-28492Y169918D01*
X-28420Y170037D01*
X-28348Y170145D01*
X-28288Y170229D01*
X-28240Y170301D01*
X-28192Y170361D01*
X-28156Y170397D01*
X-28132Y170421D01*
X-28120Y170433D01*
X-27976Y170565D01*
X-27820Y170673D01*
X-27665Y170769D01*
X-27497Y170853D01*
X-27329Y170925D01*
X-27161Y170973D01*
X-26837Y171069D01*
X-26693Y171092D01*
X-26550Y171116D01*
X-26430Y171128D01*
X-26322Y171141D01*
X-26226Y171152D01*
X-26106D01*
X-25830Y171141D01*
D02*
G37*
G36*
X-9955D02*
X-9716Y171116D01*
X-9488Y171092D01*
X-9272Y171045D01*
X-9080Y170985D01*
X-8912Y170925D01*
X-8756Y170865D01*
X-8613Y170805D01*
X-8481Y170733D01*
X-8373Y170673D01*
X-8289Y170613D01*
X-8205Y170553D01*
X-8145Y170505D01*
X-8109Y170481D01*
X-8085Y170457D01*
X-8073Y170445D01*
X-7977Y170349D01*
X-7905Y170253D01*
X-7773Y170049D01*
X-7689Y169846D01*
X-7617Y169654D01*
X-7581Y169498D01*
X-7569Y169366D01*
X-7557Y169318D01*
Y169282D01*
Y169258D01*
Y169246D01*
X-7569Y169114D01*
X-7581Y168994D01*
X-7641Y168779D01*
X-7725Y168587D01*
X-7821Y168419D01*
X-7917Y168287D01*
X-8001Y168203D01*
X-8061Y168143D01*
X-8085Y168119D01*
X-8157Y168071D01*
X-8265Y168011D01*
X-8373Y167951D01*
X-8505Y167891D01*
X-8804Y167759D01*
X-9104Y167639D01*
X-9392Y167543D01*
X-9524Y167496D01*
X-9632Y167448D01*
X-9727Y167424D01*
X-9799Y167400D01*
X-9847Y167376D01*
X-9859D01*
X-10039Y167316D01*
X-10195Y167256D01*
X-10303Y167208D01*
X-10387Y167160D01*
X-10447Y167124D01*
X-10495Y167100D01*
X-10519Y167076D01*
X-10591Y166980D01*
X-10627Y166884D01*
X-10639Y166812D01*
Y166800D01*
Y166788D01*
X-10627Y166704D01*
X-10603Y166620D01*
X-10531Y166500D01*
X-10483Y166452D01*
X-10447Y166416D01*
X-10423Y166393D01*
X-10411Y166381D01*
X-10279Y166297D01*
X-10135Y166237D01*
X-9991Y166201D01*
X-9859Y166177D01*
X-9740Y166153D01*
X-9632Y166141D01*
X-9548D01*
X-9356Y166153D01*
X-9200Y166177D01*
X-9056Y166201D01*
X-8936Y166237D01*
X-8840Y166273D01*
X-8768Y166308D01*
X-8720Y166321D01*
X-8708Y166332D01*
X-8601Y166416D01*
X-8505Y166524D01*
X-8421Y166644D01*
X-8349Y166752D01*
X-8289Y166860D01*
X-8253Y166944D01*
X-8229Y167004D01*
X-8217Y167028D01*
X-6682Y166776D01*
X-6790Y166476D01*
X-6934Y166213D01*
X-7078Y165997D01*
X-7234Y165805D01*
X-7378Y165661D01*
X-7497Y165553D01*
X-7545Y165517D01*
X-7581Y165493D01*
X-7593Y165469D01*
X-7605D01*
X-7737Y165385D01*
X-7893Y165313D01*
X-8205Y165205D01*
X-8529Y165121D01*
X-8852Y165074D01*
X-8996Y165050D01*
X-9128Y165038D01*
X-9260Y165026D01*
X-9368D01*
X-9452Y165014D01*
X-9572D01*
X-9799Y165026D01*
X-10027Y165038D01*
X-10231Y165074D01*
X-10411Y165110D01*
X-10591Y165157D01*
X-10759Y165205D01*
X-10903Y165265D01*
X-11034Y165325D01*
X-11154Y165373D01*
X-11250Y165433D01*
X-11334Y165481D01*
X-11406Y165529D01*
X-11466Y165565D01*
X-11502Y165601D01*
X-11526Y165613D01*
X-11538Y165625D01*
X-11658Y165745D01*
X-11778Y165865D01*
X-11862Y165985D01*
X-11946Y166105D01*
X-12018Y166225D01*
X-12078Y166344D01*
X-12162Y166572D01*
X-12210Y166776D01*
X-12222Y166848D01*
X-12234Y166920D01*
X-12245Y166980D01*
Y167028D01*
Y167052D01*
Y167064D01*
Y167184D01*
X-12222Y167292D01*
X-12162Y167508D01*
X-12066Y167699D01*
X-11970Y167855D01*
X-11874Y167987D01*
X-11778Y168083D01*
X-11718Y168143D01*
X-11706Y168167D01*
X-11694D01*
X-11610Y168227D01*
X-11514Y168287D01*
X-11406Y168359D01*
X-11286Y168419D01*
X-11034Y168527D01*
X-10771Y168635D01*
X-10531Y168719D01*
X-10423Y168754D01*
X-10339Y168779D01*
X-10255Y168802D01*
X-10195Y168826D01*
X-10159Y168838D01*
X-10147D01*
X-10015Y168874D01*
X-9895Y168910D01*
X-9787Y168946D01*
X-9692Y168982D01*
X-9536Y169030D01*
X-9416Y169066D01*
X-9344Y169102D01*
X-9296Y169126D01*
X-9272Y169138D01*
X-9260D01*
X-9188Y169198D01*
X-9140Y169258D01*
X-9092Y169318D01*
X-9068Y169378D01*
X-9056Y169426D01*
X-9044Y169474D01*
Y169498D01*
Y169510D01*
X-9056Y169594D01*
X-9080Y169666D01*
X-9152Y169786D01*
X-9188Y169834D01*
X-9224Y169870D01*
X-9248Y169881D01*
X-9260Y169894D01*
X-9356Y169954D01*
X-9464Y169990D01*
X-9692Y170037D01*
X-9799Y170049D01*
X-9883Y170061D01*
X-9967D01*
X-10147Y170049D01*
X-10303Y170025D01*
X-10447Y169990D01*
X-10567Y169954D01*
X-10675Y169918D01*
X-10747Y169881D01*
X-10795Y169858D01*
X-10807Y169846D01*
X-10903Y169774D01*
X-10975Y169702D01*
X-11046Y169618D01*
X-11094Y169546D01*
X-11142Y169474D01*
X-11166Y169414D01*
X-11190Y169378D01*
Y169366D01*
X-12653Y169618D01*
X-12581Y169870D01*
X-12473Y170085D01*
X-12353Y170277D01*
X-12222Y170445D01*
X-12102Y170565D01*
X-12006Y170661D01*
X-11934Y170709D01*
X-11922Y170733D01*
X-11910D01*
X-11802Y170805D01*
X-11670Y170877D01*
X-11406Y170973D01*
X-11118Y171045D01*
X-10843Y171105D01*
X-10591Y171128D01*
X-10483Y171141D01*
X-10387D01*
X-10315Y171152D01*
X-10207D01*
X-9955Y171141D01*
D02*
G37*
G36*
X-13205Y165157D02*
X-14763D01*
X-15075Y166680D01*
X-13516D01*
X-13205Y165157D01*
D02*
G37*
G36*
X-19499Y171128D02*
X-19164Y171081D01*
X-18864Y170997D01*
X-18612Y170913D01*
X-18492Y170865D01*
X-18384Y170817D01*
X-18300Y170781D01*
X-18228Y170733D01*
X-18169Y170709D01*
X-18121Y170685D01*
X-18097Y170661D01*
X-18085D01*
X-17809Y170457D01*
X-17569Y170241D01*
X-17365Y170025D01*
X-17197Y169810D01*
X-17065Y169618D01*
X-17018Y169534D01*
X-16970Y169462D01*
X-16946Y169402D01*
X-16921Y169354D01*
X-16898Y169330D01*
Y169318D01*
X-16766Y168994D01*
X-16670Y168683D01*
X-16598Y168371D01*
X-16550Y168095D01*
X-16538Y167975D01*
X-16526Y167867D01*
X-16514Y167771D01*
Y167675D01*
X-16502Y167615D01*
Y167568D01*
Y167532D01*
Y167519D01*
X-16514Y167304D01*
X-16526Y167100D01*
X-16562Y166908D01*
X-16598Y166740D01*
X-16658Y166572D01*
X-16706Y166416D01*
X-16766Y166285D01*
X-16826Y166153D01*
X-16886Y166045D01*
X-16946Y165949D01*
X-17006Y165865D01*
X-17053Y165793D01*
X-17089Y165745D01*
X-17125Y165709D01*
X-17137Y165685D01*
X-17149Y165673D01*
X-17281Y165553D01*
X-17413Y165457D01*
X-17557Y165373D01*
X-17713Y165289D01*
X-18001Y165170D01*
X-18288Y165097D01*
X-18420Y165074D01*
X-18540Y165050D01*
X-18660Y165038D01*
X-18744Y165026D01*
X-18828Y165014D01*
X-18936D01*
X-19116Y165026D01*
X-19284Y165038D01*
X-19619Y165097D01*
X-19907Y165182D01*
X-20159Y165277D01*
X-20267Y165325D01*
X-20363Y165373D01*
X-20447Y165421D01*
X-20518Y165457D01*
X-20579Y165493D01*
X-20615Y165517D01*
X-20638Y165541D01*
X-20650D01*
X-20914Y165757D01*
X-21142Y166009D01*
X-21346Y166273D01*
X-21502Y166524D01*
X-21634Y166752D01*
X-21682Y166848D01*
X-21718Y166932D01*
X-21754Y167004D01*
X-21778Y167052D01*
X-21790Y167088D01*
Y167100D01*
X-20255Y167352D01*
X-20171Y167160D01*
X-20087Y166992D01*
X-19991Y166848D01*
X-19895Y166728D01*
X-19811Y166644D01*
X-19751Y166572D01*
X-19703Y166536D01*
X-19691Y166524D01*
X-19559Y166428D01*
X-19427Y166368D01*
X-19308Y166321D01*
X-19200Y166285D01*
X-19104Y166261D01*
X-19020Y166249D01*
X-18960D01*
X-18828Y166261D01*
X-18696Y166297D01*
X-18588Y166332D01*
X-18504Y166393D01*
X-18420Y166440D01*
X-18372Y166476D01*
X-18336Y166512D01*
X-18324Y166524D01*
X-18240Y166644D01*
X-18180Y166776D01*
X-18133Y166908D01*
X-18109Y167040D01*
X-18085Y167148D01*
X-18073Y167244D01*
Y167304D01*
Y167328D01*
X-18085Y167555D01*
X-18109Y167783D01*
X-18133Y167999D01*
X-18180Y168191D01*
X-18216Y168359D01*
X-18240Y168491D01*
X-18252Y168539D01*
X-18264Y168575D01*
X-18276Y168599D01*
Y168611D01*
X-18360Y168850D01*
X-18468Y169066D01*
X-18564Y169234D01*
X-18660Y169378D01*
X-18756Y169498D01*
X-18828Y169582D01*
X-18876Y169630D01*
X-18888Y169642D01*
X-19044Y169762D01*
X-19188Y169846D01*
X-19331Y169905D01*
X-19463Y169941D01*
X-19583Y169977D01*
X-19667Y169990D01*
X-19751D01*
X-19895Y169977D01*
X-20015Y169954D01*
X-20123Y169918D01*
X-20219Y169870D01*
X-20291Y169822D01*
X-20339Y169786D01*
X-20375Y169762D01*
X-20387Y169750D01*
X-20471Y169654D01*
X-20542Y169546D01*
X-20591Y169426D01*
X-20638Y169306D01*
X-20662Y169198D01*
X-20686Y169114D01*
X-20698Y169054D01*
Y169030D01*
X-22197Y169186D01*
X-22173Y169342D01*
X-22137Y169498D01*
X-22053Y169774D01*
X-21933Y170013D01*
X-21813Y170217D01*
X-21694Y170385D01*
X-21586Y170505D01*
X-21550Y170541D01*
X-21514Y170577D01*
X-21502Y170601D01*
X-21490D01*
X-21370Y170697D01*
X-21250Y170781D01*
X-20974Y170925D01*
X-20698Y171021D01*
X-20435Y171081D01*
X-20207Y171128D01*
X-20111Y171141D01*
X-20015D01*
X-19943Y171152D01*
X-19847D01*
X-19499Y171128D01*
D02*
G37*
G36*
X6447D02*
X6795Y171081D01*
X6950Y171045D01*
X7094Y171009D01*
X7226Y170973D01*
X7346Y170937D01*
X7454Y170889D01*
X7550Y170853D01*
X7622Y170817D01*
X7694Y170781D01*
X7742Y170745D01*
X7778Y170733D01*
X7802Y170709D01*
X7814D01*
X8042Y170529D01*
X8234Y170325D01*
X8389Y170121D01*
X8509Y169930D01*
X8605Y169762D01*
X8677Y169618D01*
X8701Y169558D01*
X8713Y169522D01*
X8725Y169498D01*
Y169486D01*
X7178Y169366D01*
X7142Y169474D01*
X7094Y169570D01*
X7034Y169654D01*
X6987Y169726D01*
X6939Y169774D01*
X6891Y169810D01*
X6867Y169834D01*
X6855Y169846D01*
X6759Y169905D01*
X6651Y169954D01*
X6543Y169977D01*
X6435Y170001D01*
X6339Y170013D01*
X6267Y170025D01*
X6195D01*
X6051Y170013D01*
X5931Y170001D01*
X5824Y169966D01*
X5740Y169941D01*
X5668Y169905D01*
X5620Y169870D01*
X5596Y169858D01*
X5584Y169846D01*
X5512Y169786D01*
X5464Y169714D01*
X5428Y169642D01*
X5404Y169570D01*
X5392Y169510D01*
X5380Y169474D01*
Y169438D01*
Y169426D01*
X5392Y169258D01*
X5428Y169090D01*
X5452Y169006D01*
X5476Y168958D01*
X5488Y168910D01*
Y168898D01*
X5560Y168874D01*
X5656Y168850D01*
X5764Y168826D01*
X5883Y168802D01*
X6123Y168766D01*
X6375Y168730D01*
X6615Y168707D01*
X6711Y168694D01*
X6807Y168683D01*
X6879D01*
X6939Y168671D01*
X6987D01*
X7226Y168647D01*
X7454Y168611D01*
X7658Y168575D01*
X7838Y168527D01*
X8018Y168479D01*
X8162Y168431D01*
X8305Y168383D01*
X8413Y168323D01*
X8521Y168275D01*
X8605Y168227D01*
X8689Y168179D01*
X8737Y168143D01*
X8785Y168107D01*
X8821Y168083D01*
X8833Y168071D01*
X8845Y168059D01*
X8941Y167963D01*
X9013Y167855D01*
X9145Y167639D01*
X9229Y167412D01*
X9301Y167196D01*
X9337Y167004D01*
X9349Y166932D01*
Y166860D01*
X9360Y166800D01*
Y166752D01*
Y166728D01*
Y166716D01*
X9337Y166452D01*
X9289Y166201D01*
X9217Y165997D01*
X9121Y165817D01*
X9037Y165673D01*
X8965Y165565D01*
X8917Y165505D01*
X8893Y165481D01*
X8701Y165325D01*
X8497Y165205D01*
X8305Y165134D01*
X8114Y165074D01*
X7946Y165038D01*
X7814Y165026D01*
X7766Y165014D01*
X7694D01*
X7526Y165026D01*
X7358Y165050D01*
X7202Y165074D01*
X7070Y165121D01*
X6950Y165157D01*
X6855Y165182D01*
X6807Y165205D01*
X6783Y165217D01*
X6615Y165301D01*
X6459Y165397D01*
X6327Y165493D01*
X6207Y165589D01*
X6111Y165685D01*
X6039Y165757D01*
X5991Y165805D01*
X5979Y165817D01*
X5955Y165565D01*
X5931Y165457D01*
X5919Y165361D01*
X5895Y165277D01*
X5872Y165217D01*
X5860Y165170D01*
Y165157D01*
X4337D01*
X4373Y165325D01*
X4409Y165481D01*
X4433Y165625D01*
X4445Y165745D01*
Y165841D01*
X4457Y165925D01*
Y165973D01*
Y165985D01*
Y166069D01*
X4445Y166165D01*
X4421Y166393D01*
X4385Y166632D01*
X4337Y166872D01*
X4301Y167100D01*
X4277Y167196D01*
X4265Y167280D01*
X4253Y167352D01*
X4241Y167400D01*
X4229Y167436D01*
Y167448D01*
X4181Y167675D01*
X4133Y167879D01*
X4097Y168059D01*
X4061Y168227D01*
X4037Y168371D01*
X4001Y168503D01*
X3977Y168611D01*
X3965Y168707D01*
X3953Y168790D01*
X3929Y168862D01*
Y168910D01*
X3917Y168946D01*
X3905Y169006D01*
Y169018D01*
X3881Y169234D01*
X3869Y169330D01*
X3857Y169414D01*
Y169486D01*
Y169534D01*
Y169570D01*
Y169582D01*
Y169702D01*
X3881Y169822D01*
X3941Y170037D01*
X4025Y170229D01*
X4121Y170385D01*
X4229Y170517D01*
X4313Y170613D01*
X4373Y170673D01*
X4385Y170697D01*
X4397D01*
X4505Y170781D01*
X4625Y170853D01*
X4888Y170961D01*
X5164Y171045D01*
X5428Y171092D01*
X5680Y171128D01*
X5787Y171141D01*
X5883D01*
X5955Y171152D01*
X6063D01*
X6447Y171128D01*
D02*
G37*
G36*
X-33612Y171141D02*
X-33444Y171116D01*
X-33264Y171069D01*
X-33108Y171021D01*
X-32796Y170889D01*
X-32520Y170733D01*
X-32401Y170649D01*
X-32293Y170565D01*
X-32197Y170493D01*
X-32125Y170433D01*
X-32053Y170385D01*
X-32005Y170337D01*
X-31981Y170313D01*
X-31969Y170301D01*
X-32101Y171009D01*
X-30614D01*
X-29391Y165157D01*
X-30962D01*
X-31525Y167843D01*
X-31585Y168083D01*
X-31621Y168275D01*
X-31669Y168431D01*
X-31693Y168551D01*
X-31717Y168647D01*
X-31741Y168694D01*
X-31753Y168730D01*
Y168743D01*
X-31813Y168898D01*
X-31873Y169030D01*
X-31921Y169150D01*
X-31981Y169246D01*
X-32029Y169330D01*
X-32065Y169390D01*
X-32089Y169426D01*
X-32101Y169438D01*
X-32185Y169534D01*
X-32257Y169618D01*
X-32341Y169702D01*
X-32413Y169762D01*
X-32485Y169810D01*
X-32533Y169846D01*
X-32568Y169858D01*
X-32581Y169870D01*
X-32688Y169918D01*
X-32784Y169966D01*
X-32868Y169990D01*
X-32952Y170001D01*
X-33024Y170013D01*
X-33072Y170025D01*
X-33120D01*
X-33216Y170013D01*
X-33300Y170001D01*
X-33384Y169977D01*
X-33444Y169954D01*
X-33492Y169918D01*
X-33528Y169894D01*
X-33540Y169881D01*
X-33552Y169870D01*
X-33600Y169810D01*
X-33648Y169750D01*
X-33684Y169630D01*
X-33696Y169570D01*
X-33707Y169522D01*
Y169498D01*
Y169486D01*
Y169402D01*
X-33684Y169282D01*
X-33672Y169162D01*
X-33648Y169018D01*
X-33624Y168898D01*
X-33600Y168790D01*
X-33588Y168719D01*
X-33576Y168707D01*
Y168694D01*
X-32844Y165157D01*
X-34415D01*
X-34979Y167807D01*
X-35026Y168011D01*
X-35074Y168203D01*
X-35122Y168371D01*
X-35170Y168539D01*
X-35218Y168683D01*
X-35266Y168814D01*
X-35314Y168922D01*
X-35362Y169030D01*
X-35398Y169114D01*
X-35434Y169186D01*
X-35470Y169258D01*
X-35494Y169306D01*
X-35542Y169366D01*
X-35554Y169390D01*
X-35638Y169498D01*
X-35734Y169606D01*
X-35830Y169690D01*
X-35914Y169762D01*
X-36094Y169870D01*
X-36261Y169941D01*
X-36393Y169990D01*
X-36513Y170013D01*
X-36585Y170025D01*
X-36609D01*
X-36717Y170013D01*
X-36801Y170001D01*
X-36885Y169977D01*
X-36945Y169954D01*
X-36993Y169918D01*
X-37029Y169894D01*
X-37041Y169881D01*
X-37053Y169870D01*
X-37101Y169810D01*
X-37137Y169750D01*
X-37185Y169630D01*
Y169570D01*
X-37197Y169522D01*
Y169498D01*
Y169486D01*
Y169462D01*
Y169426D01*
X-37173Y169330D01*
X-37149Y169198D01*
X-37125Y169066D01*
X-37101Y168934D01*
X-37077Y168826D01*
X-37065Y168779D01*
Y168743D01*
X-37053Y168730D01*
Y168719D01*
X-36297Y165157D01*
X-37868D01*
X-38635Y168719D01*
X-38695Y168982D01*
X-38731Y169198D01*
X-38767Y169378D01*
X-38779Y169522D01*
X-38791Y169630D01*
X-38803Y169702D01*
Y169750D01*
Y169762D01*
X-38791Y169990D01*
X-38743Y170181D01*
X-38683Y170349D01*
X-38612Y170505D01*
X-38528Y170613D01*
X-38468Y170697D01*
X-38420Y170757D01*
X-38408Y170769D01*
X-38252Y170901D01*
X-38072Y170997D01*
X-37892Y171057D01*
X-37724Y171105D01*
X-37556Y171128D01*
X-37436Y171152D01*
X-37317D01*
X-37089Y171141D01*
X-36873Y171105D01*
X-36681Y171057D01*
X-36501Y171009D01*
X-36357Y170949D01*
X-36237Y170901D01*
X-36165Y170865D01*
X-36154Y170853D01*
X-36141D01*
X-35938Y170733D01*
X-35770Y170613D01*
X-35614Y170481D01*
X-35494Y170373D01*
X-35398Y170265D01*
X-35326Y170181D01*
X-35278Y170133D01*
X-35266Y170109D01*
X-35218Y170289D01*
X-35158Y170433D01*
X-35074Y170565D01*
X-35002Y170673D01*
X-34931Y170769D01*
X-34871Y170829D01*
X-34823Y170865D01*
X-34811Y170877D01*
X-34667Y170973D01*
X-34499Y171033D01*
X-34331Y171081D01*
X-34163Y171116D01*
X-34019Y171141D01*
X-33899Y171152D01*
X-33792D01*
X-33612Y171141D01*
D02*
G37*
G36*
X-1035D02*
X-867Y171116D01*
X-687Y171069D01*
X-531Y171021D01*
X-219Y170889D01*
X56Y170733D01*
X176Y170649D01*
X284Y170565D01*
X380Y170493D01*
X452Y170433D01*
X524Y170385D01*
X572Y170337D01*
X596Y170313D01*
X608Y170301D01*
X476Y171009D01*
X1963D01*
X3186Y165157D01*
X1615D01*
X1051Y167843D01*
X991Y168083D01*
X956Y168275D01*
X908Y168431D01*
X884Y168551D01*
X860Y168647D01*
X836Y168694D01*
X824Y168730D01*
Y168743D01*
X764Y168898D01*
X704Y169030D01*
X656Y169150D01*
X596Y169246D01*
X548Y169330D01*
X512Y169390D01*
X488Y169426D01*
X476Y169438D01*
X392Y169534D01*
X320Y169618D01*
X236Y169702D01*
X164Y169762D01*
X92Y169810D01*
X44Y169846D01*
X8Y169858D01*
X-4Y169870D01*
X-112Y169918D01*
X-207Y169966D01*
X-291Y169990D01*
X-375Y170001D01*
X-447Y170013D01*
X-495Y170025D01*
X-543D01*
X-639Y170013D01*
X-723Y170001D01*
X-807Y169977D01*
X-867Y169954D01*
X-915Y169918D01*
X-951Y169894D01*
X-963Y169881D01*
X-975Y169870D01*
X-1023Y169810D01*
X-1071Y169750D01*
X-1107Y169630D01*
X-1119Y169570D01*
X-1131Y169522D01*
Y169498D01*
Y169486D01*
Y169402D01*
X-1107Y169282D01*
X-1095Y169162D01*
X-1071Y169018D01*
X-1047Y168898D01*
X-1023Y168790D01*
X-1011Y168719D01*
X-999Y168707D01*
Y168694D01*
X-267Y165157D01*
X-1838D01*
X-2402Y167807D01*
X-2450Y168011D01*
X-2498Y168203D01*
X-2545Y168371D01*
X-2593Y168539D01*
X-2641Y168683D01*
X-2689Y168814D01*
X-2737Y168922D01*
X-2785Y169030D01*
X-2821Y169114D01*
X-2857Y169186D01*
X-2893Y169258D01*
X-2917Y169306D01*
X-2965Y169366D01*
X-2977Y169390D01*
X-3061Y169498D01*
X-3157Y169606D01*
X-3253Y169690D01*
X-3337Y169762D01*
X-3517Y169870D01*
X-3685Y169941D01*
X-3816Y169990D01*
X-3936Y170013D01*
X-4008Y170025D01*
X-4032D01*
X-4140Y170013D01*
X-4224Y170001D01*
X-4308Y169977D01*
X-4368Y169954D01*
X-4416Y169918D01*
X-4452Y169894D01*
X-4464Y169881D01*
X-4476Y169870D01*
X-4524Y169810D01*
X-4560Y169750D01*
X-4608Y169630D01*
Y169570D01*
X-4620Y169522D01*
Y169498D01*
Y169486D01*
Y169462D01*
Y169426D01*
X-4596Y169330D01*
X-4572Y169198D01*
X-4548Y169066D01*
X-4524Y168934D01*
X-4500Y168826D01*
X-4488Y168779D01*
Y168743D01*
X-4476Y168730D01*
Y168719D01*
X-3721Y165157D01*
X-5291D01*
X-6059Y168719D01*
X-6118Y168982D01*
X-6154Y169198D01*
X-6191Y169378D01*
X-6202Y169522D01*
X-6214Y169630D01*
X-6227Y169702D01*
Y169750D01*
Y169762D01*
X-6214Y169990D01*
X-6166Y170181D01*
X-6107Y170349D01*
X-6035Y170505D01*
X-5951Y170613D01*
X-5891Y170697D01*
X-5843Y170757D01*
X-5831Y170769D01*
X-5675Y170901D01*
X-5495Y170997D01*
X-5315Y171057D01*
X-5147Y171105D01*
X-4980Y171128D01*
X-4860Y171152D01*
X-4740D01*
X-4512Y171141D01*
X-4296Y171105D01*
X-4104Y171057D01*
X-3924Y171009D01*
X-3780Y170949D01*
X-3661Y170901D01*
X-3589Y170865D01*
X-3577Y170853D01*
X-3565D01*
X-3361Y170733D01*
X-3193Y170613D01*
X-3037Y170481D01*
X-2917Y170373D01*
X-2821Y170265D01*
X-2749Y170181D01*
X-2701Y170133D01*
X-2689Y170109D01*
X-2641Y170289D01*
X-2582Y170433D01*
X-2498Y170565D01*
X-2426Y170673D01*
X-2354Y170769D01*
X-2294Y170829D01*
X-2246Y170865D01*
X-2234Y170877D01*
X-2090Y170973D01*
X-1922Y171033D01*
X-1754Y171081D01*
X-1586Y171116D01*
X-1443Y171141D01*
X-1323Y171152D01*
X-1215D01*
X-1035Y171141D01*
D02*
G37*
G36*
X20223Y165157D02*
X18761D01*
X16974Y168874D01*
X16686Y165157D01*
X15212D01*
X12322Y171009D01*
X13893D01*
X15703Y167088D01*
X15883Y171009D01*
X17322D01*
X19144Y167088D01*
X19552Y171009D01*
X20955D01*
X20223Y165157D01*
D02*
G37*
G36*
X28988D02*
X27525D01*
X25739Y168874D01*
X25451Y165157D01*
X23976D01*
X21087Y171009D01*
X22658D01*
X24468Y167088D01*
X24648Y171009D01*
X26087D01*
X27909Y167088D01*
X28317Y171009D01*
X29720D01*
X28988Y165157D01*
D02*
G37*
G36*
X37753D02*
X36290D01*
X34504Y168874D01*
X34216Y165157D01*
X32741D01*
X29851Y171009D01*
X31422D01*
X33233Y167088D01*
X33413Y171009D01*
X34851D01*
X36674Y167088D01*
X37081Y171009D01*
X38484D01*
X37753Y165157D01*
D02*
G37*
%LPC*%
G36*
X-48474Y197131D02*
X-48558D01*
X-48738Y197119D01*
X-48906Y197083D01*
X-49050Y197023D01*
X-49170Y196963D01*
X-49266Y196891D01*
X-49338Y196843D01*
X-49386Y196795D01*
X-49398Y196783D01*
X-49505Y196651D01*
X-49589Y196507D01*
X-49649Y196352D01*
X-49697Y196208D01*
X-49721Y196076D01*
X-49733Y195980D01*
Y195908D01*
Y195896D01*
Y195884D01*
X-49721Y195680D01*
X-49709Y195476D01*
X-49637Y195105D01*
X-49589Y194937D01*
X-49529Y194769D01*
X-49470Y194625D01*
X-49422Y194493D01*
X-49362Y194373D01*
X-49302Y194265D01*
X-49242Y194169D01*
X-49194Y194097D01*
X-49158Y194037D01*
X-49122Y193989D01*
X-49110Y193965D01*
X-49098Y193954D01*
X-49014Y193858D01*
X-48930Y193774D01*
X-48750Y193630D01*
X-48558Y193534D01*
X-48390Y193474D01*
X-48235Y193426D01*
X-48115Y193414D01*
X-48067Y193402D01*
X-48007D01*
X-47827Y193414D01*
X-47659Y193462D01*
X-47515Y193522D01*
X-47383Y193582D01*
X-47287Y193654D01*
X-47215Y193702D01*
X-47168Y193750D01*
X-47155Y193762D01*
X-47048Y193918D01*
X-46964Y194073D01*
X-46904Y194241D01*
X-46868Y194409D01*
X-46844Y194553D01*
X-46820Y194661D01*
Y194709D01*
Y194745D01*
Y194757D01*
Y194769D01*
X-46832Y194961D01*
X-46856Y195152D01*
X-46892Y195344D01*
X-46928Y195512D01*
X-46964Y195656D01*
X-47000Y195776D01*
X-47012Y195812D01*
X-47024Y195848D01*
X-47036Y195860D01*
Y195872D01*
X-47120Y196088D01*
X-47227Y196280D01*
X-47323Y196435D01*
X-47419Y196567D01*
X-47515Y196675D01*
X-47587Y196747D01*
X-47635Y196795D01*
X-47647Y196807D01*
X-47803Y196915D01*
X-47959Y196999D01*
X-48115Y197047D01*
X-48247Y197095D01*
X-48379Y197119D01*
X-48474Y197131D01*
D02*
G37*
G36*
X-26022Y169966D02*
X-26106D01*
X-26286Y169954D01*
X-26454Y169918D01*
X-26597Y169858D01*
X-26717Y169798D01*
X-26813Y169726D01*
X-26885Y169678D01*
X-26933Y169630D01*
X-26945Y169618D01*
X-27053Y169486D01*
X-27137Y169342D01*
X-27197Y169186D01*
X-27245Y169042D01*
X-27269Y168910D01*
X-27281Y168814D01*
Y168743D01*
Y168730D01*
Y168719D01*
X-27269Y168515D01*
X-27257Y168311D01*
X-27185Y167939D01*
X-27137Y167771D01*
X-27077Y167603D01*
X-27017Y167460D01*
X-26969Y167328D01*
X-26909Y167208D01*
X-26849Y167100D01*
X-26789Y167004D01*
X-26741Y166932D01*
X-26705Y166872D01*
X-26669Y166824D01*
X-26657Y166800D01*
X-26645Y166788D01*
X-26561Y166692D01*
X-26478Y166608D01*
X-26298Y166464D01*
X-26106Y166368D01*
X-25938Y166308D01*
X-25782Y166261D01*
X-25662Y166249D01*
X-25614Y166237D01*
X-25554D01*
X-25374Y166249D01*
X-25207Y166297D01*
X-25063Y166357D01*
X-24931Y166416D01*
X-24835Y166488D01*
X-24763Y166536D01*
X-24715Y166584D01*
X-24703Y166596D01*
X-24595Y166752D01*
X-24511Y166908D01*
X-24451Y167076D01*
X-24415Y167244D01*
X-24391Y167388D01*
X-24367Y167496D01*
Y167543D01*
Y167579D01*
Y167592D01*
Y167603D01*
X-24379Y167795D01*
X-24403Y167987D01*
X-24439Y168179D01*
X-24475Y168347D01*
X-24511Y168491D01*
X-24547Y168611D01*
X-24559Y168647D01*
X-24571Y168683D01*
X-24583Y168694D01*
Y168707D01*
X-24667Y168922D01*
X-24775Y169114D01*
X-24871Y169270D01*
X-24967Y169402D01*
X-25063Y169510D01*
X-25135Y169582D01*
X-25183Y169630D01*
X-25195Y169642D01*
X-25350Y169750D01*
X-25506Y169834D01*
X-25662Y169881D01*
X-25794Y169930D01*
X-25926Y169954D01*
X-26022Y169966D01*
D02*
G37*
G36*
X5704Y167891D02*
X5692D01*
X5740Y167675D01*
X5787Y167472D01*
X5835Y167292D01*
X5883Y167148D01*
X5919Y167028D01*
X5955Y166932D01*
X5991Y166860D01*
X6003Y166824D01*
X6015Y166812D01*
X6075Y166716D01*
X6159Y166632D01*
X6231Y166560D01*
X6315Y166488D01*
X6387Y166440D01*
X6447Y166404D01*
X6483Y166381D01*
X6495Y166368D01*
X6615Y166308D01*
X6735Y166273D01*
X6843Y166237D01*
X6939Y166225D01*
X7023Y166213D01*
X7094Y166201D01*
X7154D01*
X7274Y166213D01*
X7370Y166225D01*
X7466Y166261D01*
X7538Y166297D01*
X7598Y166321D01*
X7646Y166357D01*
X7670Y166368D01*
X7682Y166381D01*
X7742Y166452D01*
X7790Y166536D01*
X7826Y166620D01*
X7850Y166692D01*
X7862Y166764D01*
X7874Y166812D01*
Y166848D01*
Y166860D01*
X7862Y166980D01*
X7838Y167088D01*
X7790Y167172D01*
X7742Y167256D01*
X7706Y167304D01*
X7658Y167352D01*
X7634Y167376D01*
X7622Y167388D01*
X7550Y167436D01*
X7454Y167483D01*
X7346Y167532D01*
X7226Y167568D01*
X6974Y167639D01*
X6711Y167699D01*
X6471Y167747D01*
X6363Y167771D01*
X6267Y167783D01*
X6183Y167795D01*
X6123D01*
X6087Y167807D01*
X6075D01*
X5919Y167831D01*
X5787Y167867D01*
X5752Y167879D01*
X5716D01*
X5704Y167891D01*
D02*
G37*
G36*
X-13600Y212632D02*
X-15674D01*
X-15878Y212608D01*
X-16046Y212584D01*
X-16178Y212560D01*
X-16274Y212536D01*
X-16334Y212512D01*
X-16370Y212500D01*
X-16382Y212488D01*
X-16502Y212404D01*
X-16586Y212296D01*
X-16658Y212188D01*
X-16693Y212080D01*
X-16717Y211984D01*
X-16741Y211900D01*
Y211853D01*
Y211829D01*
X-16729Y211697D01*
X-16705Y211565D01*
X-16658Y211433D01*
X-16622Y211325D01*
X-16574Y211241D01*
X-16526Y211169D01*
X-16502Y211121D01*
X-16490Y211109D01*
X-16394Y210989D01*
X-16274Y210893D01*
X-16154Y210809D01*
X-16046Y210737D01*
X-15950Y210689D01*
X-15866Y210653D01*
X-15818Y210630D01*
X-15794Y210618D01*
X-15698Y210594D01*
X-15590Y210570D01*
X-15471Y210546D01*
X-15339Y210534D01*
X-15051Y210498D01*
X-14751Y210486D01*
X-14475Y210474D01*
X-14356Y210462D01*
X-13145D01*
X-13600Y212632D01*
D02*
G37*
G36*
X34033Y159255D02*
X33061D01*
X32965Y159244D01*
X32887Y159233D01*
X32825Y159221D01*
X32780Y159210D01*
X32752Y159199D01*
X32735Y159193D01*
X32729Y159188D01*
X32673Y159148D01*
X32634Y159098D01*
X32600Y159047D01*
X32583Y158997D01*
X32572Y158952D01*
X32561Y158912D01*
Y158890D01*
Y158879D01*
X32566Y158817D01*
X32578Y158755D01*
X32600Y158693D01*
X32617Y158643D01*
X32639Y158603D01*
X32662Y158570D01*
X32673Y158547D01*
X32679Y158541D01*
X32724Y158485D01*
X32780Y158440D01*
X32836Y158401D01*
X32887Y158367D01*
X32932Y158345D01*
X32971Y158328D01*
X32994Y158317D01*
X33005Y158311D01*
X33050Y158300D01*
X33100Y158289D01*
X33156Y158277D01*
X33218Y158272D01*
X33353Y158255D01*
X33494Y158249D01*
X33623Y158244D01*
X33679Y158238D01*
X34247D01*
X34033Y159255D01*
D02*
G37*
G36*
X24985Y159311D02*
X24951D01*
X24895Y159306D01*
X24850Y159289D01*
X24805Y159272D01*
X24766Y159250D01*
X24738Y159221D01*
X24715Y159205D01*
X24704Y159188D01*
X24698Y159182D01*
X24665Y159132D01*
X24642Y159064D01*
X24620Y158997D01*
X24609Y158929D01*
X24603Y158867D01*
X24597Y158817D01*
Y158783D01*
Y158777D01*
Y158772D01*
Y158704D01*
X24603Y158631D01*
X24620Y158474D01*
X24642Y158317D01*
X24665Y158165D01*
X24676Y158098D01*
X24687Y158030D01*
X24698Y157974D01*
X24710Y157923D01*
X24721Y157878D01*
X24726Y157850D01*
X24732Y157828D01*
Y157822D01*
X24766Y157687D01*
X24794Y157564D01*
X24828Y157451D01*
X24861Y157350D01*
X24890Y157255D01*
X24923Y157176D01*
X24951Y157103D01*
X24979Y157035D01*
X25008Y156985D01*
X25030Y156934D01*
X25052Y156900D01*
X25075Y156867D01*
X25086Y156844D01*
X25097Y156827D01*
X25109Y156822D01*
Y156816D01*
X25170Y156754D01*
X25232Y156704D01*
X25294Y156670D01*
X25350Y156648D01*
X25401Y156636D01*
X25440Y156631D01*
X25463Y156625D01*
X25474D01*
X25530Y156631D01*
X25581Y156642D01*
X25626Y156664D01*
X25659Y156687D01*
X25688Y156709D01*
X25710Y156732D01*
X25721Y156743D01*
X25727Y156749D01*
X25761Y156805D01*
X25783Y156867D01*
X25800Y156940D01*
X25811Y157007D01*
X25817Y157075D01*
X25822Y157125D01*
Y157148D01*
Y157165D01*
Y157170D01*
Y157176D01*
X25817Y157327D01*
X25800Y157485D01*
X25777Y157653D01*
X25755Y157805D01*
X25744Y157878D01*
X25732Y157946D01*
X25721Y158002D01*
X25710Y158053D01*
X25699Y158098D01*
X25693Y158126D01*
X25688Y158148D01*
Y158154D01*
X25654Y158277D01*
X25626Y158395D01*
X25592Y158502D01*
X25558Y158598D01*
X25525Y158682D01*
X25491Y158766D01*
X25463Y158834D01*
X25435Y158896D01*
X25407Y158952D01*
X25378Y158997D01*
X25356Y159036D01*
X25339Y159064D01*
X25322Y159092D01*
X25311Y159109D01*
X25300Y159115D01*
Y159120D01*
X25243Y159182D01*
X25182Y159233D01*
X25120Y159266D01*
X25069Y159289D01*
X25019Y159300D01*
X24985Y159311D01*
D02*
G37*
G36*
X14700D02*
X14667D01*
X14611Y159306D01*
X14566Y159289D01*
X14521Y159272D01*
X14481Y159250D01*
X14453Y159221D01*
X14431Y159205D01*
X14419Y159188D01*
X14414Y159182D01*
X14380Y159132D01*
X14358Y159064D01*
X14335Y158997D01*
X14324Y158929D01*
X14318Y158867D01*
X14313Y158817D01*
Y158783D01*
Y158777D01*
Y158772D01*
Y158704D01*
X14318Y158631D01*
X14335Y158474D01*
X14358Y158317D01*
X14380Y158165D01*
X14391Y158098D01*
X14402Y158030D01*
X14414Y157974D01*
X14425Y157923D01*
X14436Y157878D01*
X14442Y157850D01*
X14447Y157828D01*
Y157822D01*
X14481Y157687D01*
X14509Y157564D01*
X14543Y157451D01*
X14577Y157350D01*
X14605Y157255D01*
X14639Y157176D01*
X14667Y157103D01*
X14695Y157035D01*
X14723Y156985D01*
X14745Y156934D01*
X14768Y156900D01*
X14790Y156867D01*
X14802Y156844D01*
X14813Y156827D01*
X14824Y156822D01*
Y156816D01*
X14886Y156754D01*
X14948Y156704D01*
X15010Y156670D01*
X15066Y156648D01*
X15116Y156636D01*
X15156Y156631D01*
X15178Y156625D01*
X15189D01*
X15246Y156631D01*
X15296Y156642D01*
X15341Y156664D01*
X15375Y156687D01*
X15403Y156709D01*
X15425Y156732D01*
X15437Y156743D01*
X15442Y156749D01*
X15476Y156805D01*
X15498Y156867D01*
X15515Y156940D01*
X15527Y157007D01*
X15532Y157075D01*
X15538Y157125D01*
Y157148D01*
Y157165D01*
Y157170D01*
Y157176D01*
X15532Y157327D01*
X15515Y157485D01*
X15493Y157653D01*
X15470Y157805D01*
X15459Y157878D01*
X15448Y157946D01*
X15437Y158002D01*
X15425Y158053D01*
X15414Y158098D01*
X15408Y158126D01*
X15403Y158148D01*
Y158154D01*
X15369Y158277D01*
X15341Y158395D01*
X15307Y158502D01*
X15274Y158598D01*
X15240Y158682D01*
X15206Y158766D01*
X15178Y158834D01*
X15150Y158896D01*
X15122Y158952D01*
X15094Y158997D01*
X15071Y159036D01*
X15055Y159064D01*
X15038Y159092D01*
X15026Y159109D01*
X15015Y159115D01*
Y159120D01*
X14959Y159182D01*
X14897Y159233D01*
X14835Y159266D01*
X14785Y159289D01*
X14734Y159300D01*
X14700Y159311D01*
D02*
G37*
G36*
X-28787Y197191D02*
X-28871D01*
X-29051Y197179D01*
X-29195Y197143D01*
X-29338Y197083D01*
X-29446Y197023D01*
X-29530Y196963D01*
X-29602Y196903D01*
X-29638Y196867D01*
X-29650Y196855D01*
X-29746Y196723D01*
X-29818Y196567D01*
X-29878Y196399D01*
X-29914Y196244D01*
X-29938Y196100D01*
X-29950Y195980D01*
Y195932D01*
Y195896D01*
Y195884D01*
Y195872D01*
Y195824D01*
Y195776D01*
Y195728D01*
Y195716D01*
X-27468D01*
X-27528Y195968D01*
X-27600Y196196D01*
X-27684Y196376D01*
X-27780Y196531D01*
X-27852Y196651D01*
X-27924Y196735D01*
X-27972Y196795D01*
X-27983Y196807D01*
X-28139Y196939D01*
X-28295Y197035D01*
X-28439Y197095D01*
X-28571Y197143D01*
X-28691Y197167D01*
X-28787Y197191D01*
D02*
G37*
G36*
X23118D02*
X23046D01*
X22878Y197179D01*
X22734Y197131D01*
X22590Y197071D01*
X22482Y196999D01*
X22387Y196927D01*
X22315Y196867D01*
X22267Y196819D01*
X22255Y196807D01*
X22135Y196651D01*
X22051Y196483D01*
X21991Y196316D01*
X21955Y196160D01*
X21919Y196016D01*
X21907Y195908D01*
Y195860D01*
Y195824D01*
Y195812D01*
Y195800D01*
X21919Y195596D01*
X21943Y195392D01*
X21979Y195212D01*
X22015Y195033D01*
X22051Y194889D01*
X22087Y194769D01*
X22111Y194697D01*
X22123Y194685D01*
Y194673D01*
X22207Y194469D01*
X22303Y194289D01*
X22399Y194145D01*
X22494Y194013D01*
X22590Y193918D01*
X22662Y193846D01*
X22710Y193798D01*
X22722Y193786D01*
X22866Y193678D01*
X23022Y193606D01*
X23154Y193546D01*
X23274Y193510D01*
X23382Y193486D01*
X23466Y193474D01*
X23538D01*
X23705Y193486D01*
X23849Y193534D01*
X23981Y193582D01*
X24089Y193654D01*
X24173Y193714D01*
X24233Y193774D01*
X24281Y193810D01*
X24293Y193822D01*
X24389Y193965D01*
X24461Y194133D01*
X24509Y194301D01*
X24545Y194457D01*
X24569Y194613D01*
X24581Y194733D01*
Y194781D01*
Y194817D01*
Y194829D01*
Y194841D01*
X24569Y195009D01*
X24557Y195176D01*
X24533Y195332D01*
X24497Y195488D01*
X24461Y195620D01*
X24437Y195716D01*
X24425Y195788D01*
X24413Y195812D01*
X24317Y196052D01*
X24221Y196267D01*
X24125Y196447D01*
X24029Y196591D01*
X23945Y196699D01*
X23885Y196783D01*
X23837Y196831D01*
X23825Y196843D01*
X23693Y196963D01*
X23550Y197047D01*
X23418Y197107D01*
X23298Y197143D01*
X23202Y197179D01*
X23118Y197191D01*
D02*
G37*
G36*
X-11293D02*
X-11365D01*
X-11533Y197179D01*
X-11677Y197131D01*
X-11821Y197071D01*
X-11929Y196999D01*
X-12025Y196927D01*
X-12097Y196867D01*
X-12145Y196819D01*
X-12157Y196807D01*
X-12277Y196651D01*
X-12360Y196483D01*
X-12420Y196316D01*
X-12456Y196160D01*
X-12492Y196016D01*
X-12504Y195908D01*
Y195860D01*
Y195824D01*
Y195812D01*
Y195800D01*
X-12492Y195596D01*
X-12468Y195392D01*
X-12432Y195212D01*
X-12397Y195033D01*
X-12360Y194889D01*
X-12325Y194769D01*
X-12301Y194697D01*
X-12289Y194685D01*
Y194673D01*
X-12205Y194469D01*
X-12109Y194289D01*
X-12013Y194145D01*
X-11917Y194013D01*
X-11821Y193918D01*
X-11749Y193846D01*
X-11701Y193798D01*
X-11689Y193786D01*
X-11545Y193678D01*
X-11389Y193606D01*
X-11257Y193546D01*
X-11137Y193510D01*
X-11030Y193486D01*
X-10946Y193474D01*
X-10874D01*
X-10706Y193486D01*
X-10562Y193534D01*
X-10430Y193582D01*
X-10322Y193654D01*
X-10238Y193714D01*
X-10178Y193774D01*
X-10130Y193810D01*
X-10118Y193822D01*
X-10023Y193965D01*
X-9950Y194133D01*
X-9903Y194301D01*
X-9867Y194457D01*
X-9843Y194613D01*
X-9831Y194733D01*
Y194781D01*
Y194817D01*
Y194829D01*
Y194841D01*
X-9843Y195009D01*
X-9855Y195176D01*
X-9879Y195332D01*
X-9915Y195488D01*
X-9950Y195620D01*
X-9974Y195716D01*
X-9986Y195788D01*
X-9999Y195812D01*
X-10094Y196052D01*
X-10190Y196267D01*
X-10286Y196447D01*
X-10382Y196591D01*
X-10466Y196699D01*
X-10526Y196783D01*
X-10574Y196831D01*
X-10586Y196843D01*
X-10718Y196963D01*
X-10862Y197047D01*
X-10994Y197107D01*
X-11113Y197143D01*
X-11209Y197179D01*
X-11293Y197191D01*
D02*
G37*
G36*
X14900Y212752D02*
X14876D01*
X14744Y212740D01*
X14624Y212704D01*
X14516Y212656D01*
X14421Y212596D01*
X14349Y212536D01*
X14301Y212488D01*
X14265Y212452D01*
X14253Y212440D01*
X14169Y212320D01*
X14109Y212164D01*
X14061Y212008D01*
X14037Y211864D01*
X14013Y211721D01*
X14001Y211613D01*
Y211565D01*
Y211529D01*
Y211517D01*
Y211505D01*
X14013Y211313D01*
X14025Y211133D01*
X14061Y210953D01*
X14085Y210797D01*
X14121Y210678D01*
X14157Y210570D01*
X14169Y210510D01*
X14181Y210486D01*
X14253Y210306D01*
X14325Y210162D01*
X14409Y210030D01*
X14480Y209934D01*
X14552Y209850D01*
X14612Y209802D01*
X14648Y209766D01*
X14660Y209754D01*
X14768Y209682D01*
X14876Y209622D01*
X14984Y209586D01*
X15068Y209550D01*
X15152Y209539D01*
X15212Y209526D01*
X15260D01*
X15392Y209539D01*
X15500Y209574D01*
X15608Y209622D01*
X15691Y209682D01*
X15763Y209730D01*
X15811Y209778D01*
X15847Y209814D01*
X15859Y209826D01*
X15943Y209958D01*
X16003Y210102D01*
X16039Y210246D01*
X16063Y210402D01*
X16087Y210534D01*
X16099Y210653D01*
Y210725D01*
Y210737D01*
Y210750D01*
X16075Y211097D01*
X16027Y211409D01*
X15967Y211685D01*
X15883Y211900D01*
X15847Y211996D01*
X15799Y212080D01*
X15763Y212152D01*
X15739Y212212D01*
X15703Y212260D01*
X15691Y212296D01*
X15667Y212308D01*
Y212320D01*
X15536Y212464D01*
X15404Y212572D01*
X15272Y212644D01*
X15140Y212704D01*
X15032Y212728D01*
X14948Y212740D01*
X14900Y212752D01*
D02*
G37*
G36*
X35631Y212284D02*
X35151Y209035D01*
X37405D01*
X35631Y212284D01*
D02*
G37*
G36*
X-23264D02*
X-23744Y209035D01*
X-21489D01*
X-23264Y212284D01*
D02*
G37*
%LPD*%
D21*
X42126Y96457D02*
G03*
X42126Y96457I-43307J0D01*
G01*
X12661Y45100D02*
G03*
X12661Y45100I-361J0D01*
G01*
D42*
X42126Y42126D02*
G03*
X42126Y42126I-492J0D01*
G01*
D43*
X-25591Y32184D02*
X24409D01*
X-25591Y-1279D02*
Y32184D01*
Y-1279D02*
X24409D01*
Y32184D01*
D45*
X57087Y82284D02*
Y109843D01*
X-57087D02*
X-42520D01*
X-57480Y109449D02*
X-57087Y109843D01*
X-63583Y96850D02*
X-59449D01*
X61024Y94095D02*
Y99016D01*
X58661Y96653D02*
X63583D01*
X-57480Y82677D02*
Y109449D01*
Y82677D02*
X-57087Y82284D01*
X40157Y109843D02*
X57087D01*
X40157Y82284D02*
X57087D01*
X-57087D02*
X-42520D01*
X43307Y42028D02*
Y42126D01*
X47146D01*
X51279D02*
X55118D01*
Y42028D02*
Y42126D01*
Y53937D02*
Y54035D01*
X51279Y53937D02*
X55118D01*
X43307D02*
X47146D01*
X43307D02*
Y54035D01*
X8268Y44094D02*
X19291D01*
X8268Y38583D02*
X19291D01*
D46*
X17461Y44350D02*
Y56850D01*
X21461D01*
Y44350D02*
Y56850D01*
X17461Y44350D02*
X21461D01*
D47*
X59996Y186313D02*
X60096D01*
Y186413D02*
X60196D01*
Y186513D02*
X60296D01*
X60196Y186613D02*
X60496D01*
X60296Y186713D02*
X60596D01*
X60396Y186813D02*
X60696D01*
X60396Y186913D02*
X60796D01*
X60496Y187013D02*
X60996D01*
X60596Y187113D02*
X61096D01*
X60596Y187213D02*
X61196D01*
X60696Y187313D02*
X61296D01*
X60796Y187413D02*
X61496D01*
X60796Y187513D02*
X61596D01*
X60896Y187613D02*
X61696D01*
X60996Y187713D02*
X61796D01*
X60996Y187813D02*
X61996D01*
X61096Y187913D02*
X62096D01*
X61196Y188013D02*
X62196D01*
X61196Y188113D02*
X62296D01*
X61296Y188213D02*
X62496D01*
X61296Y188313D02*
X62596D01*
X61396Y188413D02*
X62696D01*
X61496Y188513D02*
X62796D01*
X61496Y188613D02*
X62996D01*
X61596Y188713D02*
X63096D01*
X61696Y188813D02*
X63196D01*
X61696Y188913D02*
X63296D01*
X61796Y189013D02*
X63496D01*
X61896Y189113D02*
X63596D01*
X61896Y189213D02*
X63696D01*
X61996Y189313D02*
X63796D01*
X62096Y189413D02*
X63996D01*
X62096Y189513D02*
X64096D01*
X62196Y189613D02*
X64196D01*
X62296Y189713D02*
X64296D01*
X62296Y189813D02*
X64496D01*
X62396Y189913D02*
X64596D01*
X62496Y190013D02*
X64696D01*
X62496Y190113D02*
X64796D01*
X62596Y190213D02*
X64996D01*
X62596Y190313D02*
X65096D01*
X62696Y190413D02*
X65196D01*
X62796Y190513D02*
X65296D01*
X62796Y190613D02*
X65496D01*
X62896Y190713D02*
X65596D01*
X62996Y190813D02*
X65696D01*
X62996Y190913D02*
X65796D01*
X63096Y191013D02*
X65996D01*
X53996D02*
X54096D01*
X63096Y191113D02*
X66096D01*
X54096D02*
X54296D01*
X62896Y191213D02*
X66196D01*
X54196D02*
X54396D01*
X62796Y191313D02*
X66296D01*
X54196D02*
X54496D01*
X62596Y191413D02*
X66496D01*
X54296D02*
X54596D01*
X62396Y191513D02*
X66596D01*
X54396D02*
X54796D01*
X62196Y191613D02*
X66696D01*
X54396D02*
X54896D01*
X61996Y191713D02*
X66796D01*
X54496D02*
X54996D01*
X61796Y191813D02*
X66996D01*
X54596D02*
X55096D01*
X61696Y191913D02*
X67096D01*
X54596D02*
X55296D01*
X61496Y192013D02*
X67196D01*
X54696D02*
X55396D01*
X61296Y192113D02*
X67196D01*
X54796D02*
X55496D01*
X61096Y192213D02*
X66996D01*
X54796D02*
X55596D01*
X60896Y192313D02*
X66696D01*
X54896D02*
X55796D01*
X60696Y192413D02*
X66496D01*
X54996D02*
X55896D01*
X60596Y192513D02*
X66296D01*
X54996D02*
X55996D01*
X60496Y192613D02*
X66096D01*
X55096D02*
X56096D01*
X60596Y192713D02*
X65796D01*
X55096D02*
X56296D01*
X60696Y192813D02*
X65596D01*
X55196D02*
X56396D01*
X60796Y192913D02*
X65396D01*
X55296D02*
X56496D01*
X60896Y193013D02*
X65196D01*
X55296D02*
X56596D01*
X60996Y193113D02*
X64896D01*
X55396D02*
X56796D01*
X61096Y193213D02*
X64696D01*
X55496D02*
X56896D01*
X61196Y193313D02*
X64596D01*
X55496D02*
X56996D01*
X61296Y193413D02*
X64596D01*
X55596D02*
X57096D01*
X61396Y193513D02*
X64696D01*
X55696D02*
X57296D01*
X61496Y193613D02*
X64696D01*
X55696D02*
X57396D01*
X61596Y193713D02*
X64696D01*
X55796D02*
X57496D01*
X61696Y193813D02*
X64796D01*
X55896D02*
X57596D01*
X61796Y193913D02*
X64796D01*
X55896D02*
X57796D01*
X61896Y194013D02*
X64796D01*
X55996D02*
X57896D01*
X61996Y194113D02*
X64896D01*
X56096D02*
X57996D01*
X62096Y194213D02*
X64896D01*
X56096D02*
X58096D01*
X62196Y194313D02*
X64896D01*
X56196D02*
X58296D01*
X62296Y194413D02*
X64996D01*
X56196D02*
X58396D01*
X62396Y194513D02*
X64996D01*
X56296D02*
X58496D01*
X62496Y194613D02*
X64996D01*
X56396D02*
X58596D01*
X62596Y194713D02*
X65096D01*
X56396D02*
X58796D01*
X62696Y194813D02*
X65096D01*
X56496D02*
X58896D01*
X62796Y194913D02*
X65196D01*
X56596D02*
X58996D01*
X62896Y195013D02*
X65196D01*
X56596D02*
X59096D01*
X62996Y195113D02*
X65196D01*
X56696D02*
X59296D01*
X63096Y195213D02*
X65296D01*
X56796D02*
X59396D01*
X63196Y195313D02*
X65296D01*
X56796D02*
X59496D01*
X63296Y195413D02*
X65296D01*
X56896D02*
X59596D01*
X63396Y195513D02*
X65396D01*
X56996D02*
X59796D01*
X63496Y195613D02*
X65396D01*
X56996D02*
X59896D01*
X63596Y195713D02*
X65396D01*
X57096D02*
X59996D01*
X63696Y195813D02*
X65496D01*
X56896D02*
X60096D01*
X63796Y195913D02*
X65496D01*
X56696D02*
X60296D01*
X63896Y196013D02*
X65496D01*
X56496D02*
X60396D01*
X63996Y196113D02*
X65596D01*
X56296D02*
X60496D01*
X63996Y196213D02*
X65596D01*
X56196D02*
X60596D01*
X64096Y196313D02*
X65696D01*
X55996D02*
X60796D01*
X64196Y196413D02*
X65696D01*
X55796D02*
X60896D01*
X64296Y196513D02*
X65696D01*
X55596D02*
X60996D01*
X64396Y196613D02*
X65796D01*
X55396D02*
X61096D01*
X64496Y196713D02*
X65796D01*
X55296D02*
X61196D01*
X64596Y196813D02*
X65796D01*
X55096D02*
X60896D01*
X64696Y196913D02*
X65896D01*
X54896D02*
X60696D01*
X64796Y197013D02*
X65896D01*
X54696D02*
X60496D01*
X64896Y197113D02*
X65896D01*
X54496D02*
X60296D01*
X64996Y197213D02*
X65996D01*
X54496D02*
X59996D01*
X65096Y197313D02*
X65996D01*
X54596D02*
X59796D01*
X65196Y197413D02*
X65996D01*
X54696D02*
X59596D01*
X65296Y197513D02*
X66096D01*
X54796D02*
X59296D01*
X65396Y197613D02*
X66096D01*
X54896D02*
X59096D01*
X65496Y197713D02*
X66196D01*
X54996D02*
X58896D01*
X65596Y197813D02*
X66196D01*
X55096D02*
X58696D01*
X65696Y197913D02*
X66196D01*
X55196D02*
X58496D01*
X65796Y198013D02*
X66296D01*
X55196D02*
X58596D01*
X65896Y198113D02*
X66296D01*
X55296D02*
X58596D01*
X65996Y198213D02*
X66296D01*
X55396D02*
X58596D01*
X66096Y198313D02*
X66396D01*
X55496D02*
X58696D01*
X66196Y198413D02*
X66396D01*
X55596D02*
X58696D01*
X66296Y198513D02*
X66396D01*
X55696D02*
X58696D01*
X66396Y198613D02*
X66496D01*
X55796D02*
X58796D01*
X55896Y198713D02*
X58796D01*
X55996Y198813D02*
X58796D01*
X56096Y198913D02*
X58896D01*
X56196Y199013D02*
X58896D01*
X56296Y199113D02*
X58896D01*
X56396Y199213D02*
X58996D01*
X56496Y199313D02*
X58996D01*
X56596Y199413D02*
X59096D01*
X56696Y199513D02*
X59096D01*
X56796Y199613D02*
X59096D01*
X56896Y199713D02*
X59196D01*
X56996Y199813D02*
X59196D01*
X57096Y199913D02*
X59196D01*
X57196Y200013D02*
X59296D01*
X57296Y200113D02*
X59296D01*
X57396Y200213D02*
X59296D01*
X57496Y200313D02*
X59396D01*
X57596Y200413D02*
X59396D01*
X57696Y200513D02*
X59396D01*
X57796Y200613D02*
X59496D01*
X57896Y200713D02*
X59496D01*
X57996Y200813D02*
X59496D01*
X58096Y200913D02*
X59596D01*
X58196Y201013D02*
X59596D01*
X58296Y201113D02*
X59696D01*
X58396Y201213D02*
X59696D01*
X58496Y201313D02*
X59696D01*
X58596Y201413D02*
X59796D01*
X58696Y201513D02*
X59796D01*
X58796Y201613D02*
X59796D01*
X58896Y201713D02*
X59896D01*
X58896Y201813D02*
X62396D01*
X68696Y201913D02*
X71196D01*
X58996D02*
X63296D01*
X67396Y202013D02*
X71696D01*
X58796D02*
X63996D01*
X66596Y202113D02*
X71996D01*
X58496D02*
X64796D01*
X66096Y202213D02*
X72296D01*
X58296D02*
X65696D01*
X58096Y202313D02*
X72496D01*
X57896Y202413D02*
X72596D01*
X57696Y202513D02*
X72796D01*
X57596Y202613D02*
X72896D01*
X57396Y202713D02*
X72996D01*
X57296Y202813D02*
X73196D01*
X57196Y202913D02*
X73296D01*
X56996Y203013D02*
X73396D01*
X56896Y203113D02*
X73496D01*
X56796Y203213D02*
X73496D01*
X56696Y203313D02*
X73596D01*
X56596Y203413D02*
X73696D01*
X56496Y203513D02*
X73796D01*
X56496Y203613D02*
X73796D01*
X56396Y203713D02*
X73896D01*
X56296Y203813D02*
X73896D01*
X56196Y203913D02*
X73996D01*
X56196Y204013D02*
X73996D01*
X56096Y204113D02*
X74096D01*
X55996Y204213D02*
X74096D01*
X55996Y204313D02*
X74196D01*
X55896Y204413D02*
X74196D01*
X55896Y204513D02*
X74196D01*
X55796Y204613D02*
X74196D01*
X53396D02*
X54696D01*
X55796Y204713D02*
X74296D01*
X52796D02*
X54696D01*
X55796Y204813D02*
X74296D01*
X52396D02*
X54596D01*
X55696Y204913D02*
X74296D01*
X52096D02*
X54596D01*
X55696Y205013D02*
X74296D01*
X51796D02*
X54596D01*
X55596Y205113D02*
X74296D01*
X51596D02*
X54596D01*
X55596Y205213D02*
X74396D01*
X51396D02*
X54496D01*
X55596Y205313D02*
X74396D01*
X51196D02*
X54496D01*
X55596Y205413D02*
X74396D01*
X51096D02*
X54496D01*
X55496Y205513D02*
X74396D01*
X50896D02*
X54496D01*
X55496Y205613D02*
X74396D01*
X50796D02*
X54496D01*
X55496Y205713D02*
X74396D01*
X50696D02*
X54496D01*
X55496Y205813D02*
X74396D01*
X50496D02*
X54396D01*
X55496Y205913D02*
X74396D01*
X50396D02*
X54396D01*
X55496Y206013D02*
X74296D01*
X50296D02*
X54396D01*
X55396Y206113D02*
X74296D01*
X50196D02*
X54396D01*
X55396Y206213D02*
X74296D01*
X50096D02*
X54396D01*
X55396Y206313D02*
X74296D01*
X49996D02*
X54396D01*
X55396Y206413D02*
X74296D01*
X49896D02*
X54396D01*
X55396Y206513D02*
X74296D01*
X49896D02*
X54396D01*
X55396Y206613D02*
X74196D01*
X49796D02*
X54396D01*
X55396Y206713D02*
X74196D01*
X49696D02*
X54396D01*
X55396Y206813D02*
X74196D01*
X49596D02*
X54396D01*
X55396Y206913D02*
X74196D01*
X49596D02*
X54396D01*
X55496Y207013D02*
X74096D01*
X49496D02*
X54396D01*
X55496Y207113D02*
X74096D01*
X49496D02*
X54496D01*
X55496Y207213D02*
X73996D01*
X49396D02*
X54496D01*
X55496Y207313D02*
X73996D01*
X49396D02*
X54496D01*
X55496Y207413D02*
X73896D01*
X49296D02*
X54496D01*
X55496Y207513D02*
X73896D01*
X49296D02*
X54496D01*
X55596Y207613D02*
X73796D01*
X49196D02*
X54596D01*
X55596Y207713D02*
X73796D01*
X49196D02*
X54596D01*
X64496Y207813D02*
X73696D01*
X55596D02*
X64396D01*
X49096D02*
X54596D01*
X64496Y207913D02*
X73596D01*
X55696D02*
X64396D01*
X49096D02*
X54596D01*
X64496Y208013D02*
X73496D01*
X55696D02*
X64296D01*
X49096D02*
X54696D01*
X64396Y208113D02*
X73496D01*
X55796D02*
X64296D01*
X48996D02*
X54696D01*
X64396Y208213D02*
X73396D01*
X55796D02*
X64196D01*
X48996D02*
X54696D01*
X64396Y208313D02*
X73196D01*
X55896D02*
X64196D01*
X48996D02*
X54796D01*
X64396Y208413D02*
X73096D01*
X55896D02*
X64096D01*
X48996D02*
X54796D01*
X64396Y208513D02*
X72996D01*
X55996D02*
X64096D01*
X48996D02*
X54896D01*
X64396Y208613D02*
X72896D01*
X55996D02*
X63996D01*
X48896D02*
X54896D01*
X64296Y208713D02*
X72696D01*
X56096D02*
X63896D01*
X48896D02*
X54996D01*
X64296Y208813D02*
X72496D01*
X56096D02*
X63896D01*
X48896D02*
X54996D01*
X64296Y208913D02*
X72296D01*
X56196D02*
X63796D01*
X48896D02*
X55096D01*
X64196Y209013D02*
X71996D01*
X56296D02*
X63696D01*
X48896D02*
X55096D01*
X64196Y209113D02*
X71696D01*
X56396D02*
X63596D01*
X48896D02*
X55196D01*
X64196Y209213D02*
X71196D01*
X56496D02*
X63496D01*
X48896D02*
X55296D01*
X64096Y209313D02*
X70396D01*
X56496D02*
X63396D01*
X48896D02*
X55296D01*
X64096Y209413D02*
X69896D01*
X56596D02*
X63296D01*
X48896D02*
X55396D01*
X63996Y209513D02*
X69896D01*
X56696D02*
X63196D01*
X48896D02*
X55496D01*
X63996Y209613D02*
X69896D01*
X56796D02*
X63096D01*
X48896D02*
X55496D01*
X63896Y209713D02*
X69996D01*
X56896D02*
X62896D01*
X48896D02*
X55596D01*
X63796Y209813D02*
X69996D01*
X57096D02*
X62796D01*
X48896D02*
X55696D01*
X63796Y209913D02*
X69996D01*
X57196D02*
X62696D01*
X48896D02*
X55796D01*
X63696Y210013D02*
X69996D01*
X57296D02*
X62496D01*
X48896D02*
X55896D01*
X63596Y210113D02*
X69996D01*
X57496D02*
X62296D01*
X48896D02*
X55896D01*
X63596Y210213D02*
X69996D01*
X57596D02*
X62096D01*
X48996D02*
X55996D01*
X63496Y210313D02*
X69996D01*
X57696D02*
X61896D01*
X48996D02*
X56096D01*
X63396Y210413D02*
X69996D01*
X57896D02*
X61696D01*
X48996D02*
X56296D01*
X63296Y210513D02*
X69996D01*
X58096D02*
X61496D01*
X48996D02*
X56396D01*
X63196Y210613D02*
X69996D01*
X58296D02*
X61196D01*
X49096D02*
X56496D01*
X62996Y210713D02*
X69996D01*
X58596D02*
X60896D01*
X49096D02*
X56696D01*
X62896Y210813D02*
X69996D01*
X58896D02*
X60596D01*
X49096D02*
X56796D01*
X62796Y210913D02*
X69996D01*
X59296D02*
X60196D01*
X49196D02*
X56996D01*
X62596Y211013D02*
X69996D01*
X49196D02*
X57196D01*
X62396Y211113D02*
X69996D01*
X49296D02*
X57296D01*
X62296Y211213D02*
X69996D01*
X49296D02*
X57596D01*
X61996Y211313D02*
X69996D01*
X49396D02*
X57496D01*
X61696Y211413D02*
X69996D01*
X57796D02*
X57996D01*
X49396D02*
X57496D01*
X61396Y211513D02*
X69996D01*
X57796D02*
X58296D01*
X49496D02*
X57396D01*
X60996Y211613D02*
X69996D01*
X57796D02*
X58596D01*
X49596D02*
X57296D01*
X60896Y211713D02*
X69996D01*
X57696D02*
X58996D01*
X49596D02*
X57296D01*
X60896Y211813D02*
X69996D01*
X57696D02*
X59496D01*
X49696D02*
X57196D01*
X60896Y211913D02*
X69896D01*
X57696D02*
X59796D01*
X49796D02*
X57096D01*
X60996Y212013D02*
X69896D01*
X57596D02*
X59796D01*
X49896D02*
X56996D01*
X60996Y212113D02*
X69896D01*
X57596D02*
X59896D01*
X49896D02*
X56896D01*
X60996Y212213D02*
X69896D01*
X57496D02*
X59896D01*
X49996D02*
X56796D01*
X60996Y212313D02*
X69796D01*
X57496D02*
X59996D01*
X50096D02*
X56696D01*
X60996Y212413D02*
X69796D01*
X57396D02*
X59996D01*
X50196D02*
X56596D01*
X61096Y212513D02*
X69796D01*
X57396D02*
X60096D01*
X50296D02*
X56396D01*
X61096Y212613D02*
X69696D01*
X57296D02*
X60196D01*
X50496D02*
X56296D01*
X61096Y212713D02*
X69696D01*
X57296D02*
X60196D01*
X50596D02*
X56196D01*
X61196Y212813D02*
X69696D01*
X57196D02*
X60296D01*
X50696D02*
X55996D01*
X61196Y212913D02*
X69596D01*
X57096D02*
X60296D01*
X50796D02*
X55796D01*
X61196Y213013D02*
X69596D01*
X56996D02*
X60396D01*
X50996D02*
X55696D01*
X61296Y213113D02*
X69496D01*
X56996D02*
X60496D01*
X51096D02*
X55496D01*
X61296Y213213D02*
X69496D01*
X56896D02*
X60496D01*
X51296D02*
X55296D01*
X61396Y213313D02*
X69396D01*
X56796D02*
X60596D01*
X51496D02*
X54996D01*
X61396Y213413D02*
X69396D01*
X56696D02*
X60596D01*
X51696D02*
X54796D01*
X61496Y213513D02*
X69296D01*
X56496D02*
X60696D01*
X51896D02*
X54496D01*
X61496Y213613D02*
X69196D01*
X56396D02*
X60796D01*
X52196D02*
X54196D01*
X61596Y213713D02*
X69196D01*
X56296D02*
X60796D01*
X52496D02*
X53896D01*
X61696Y213813D02*
X69096D01*
X56096D02*
X60896D01*
X53096D02*
X53396D01*
X61696Y213913D02*
X68996D01*
X55996D02*
X60996D01*
X61796Y214013D02*
X68896D01*
X55796D02*
X60996D01*
X61896Y214113D02*
X68796D01*
X55596D02*
X61096D01*
X61996Y214213D02*
X68696D01*
X55296D02*
X61196D01*
X62096Y214313D02*
X68596D01*
X54996D02*
X61296D01*
X62196Y214413D02*
X68496D01*
X54596D02*
X61296D01*
X62296Y214513D02*
X68396D01*
X54396D02*
X61396D01*
X62396Y214613D02*
X68296D01*
X54396D02*
X61496D01*
X62496Y214713D02*
X68096D01*
X54396D02*
X61596D01*
X62596Y214813D02*
X67996D01*
X54396D02*
X61696D01*
X62796Y214913D02*
X67796D01*
X54396D02*
X61696D01*
X62896Y215013D02*
X67696D01*
X54396D02*
X61796D01*
X63096Y215113D02*
X67496D01*
X54496D02*
X61896D01*
X63296Y215213D02*
X67296D01*
X54496D02*
X61996D01*
X63496Y215313D02*
X67096D01*
X54496D02*
X62096D01*
X63696Y215413D02*
X66796D01*
X54496D02*
X62196D01*
X63996Y215513D02*
X66496D01*
X54596D02*
X62296D01*
X64396Y215613D02*
X66196D01*
X54596D02*
X62396D01*
X64896Y215713D02*
X65696D01*
X54596D02*
X62496D01*
X54696Y215813D02*
X62596D01*
X54696Y215913D02*
X62696D01*
X54796Y216013D02*
X62896D01*
X54796Y216113D02*
X62896D01*
X54896Y216213D02*
X62796D01*
X54896Y216313D02*
X62796D01*
X54996Y216413D02*
X62696D01*
X54996Y216513D02*
X62596D01*
X55096Y216613D02*
X62496D01*
X55196Y216713D02*
X62496D01*
X55196Y216813D02*
X62396D01*
X55296Y216913D02*
X62296D01*
X55396Y217013D02*
X62196D01*
X55496Y217113D02*
X62096D01*
X55596Y217213D02*
X61996D01*
X55696Y217313D02*
X61896D01*
X55796Y217413D02*
X61796D01*
X55896Y217513D02*
X61596D01*
X55996Y217613D02*
X61496D01*
X56196Y217713D02*
X61296D01*
X56296Y217813D02*
X61196D01*
X56496Y217913D02*
X60996D01*
X56696Y218013D02*
X60796D01*
X56796Y218113D02*
X60596D01*
X57096Y218213D02*
X60396D01*
X57296Y218313D02*
X60096D01*
X57696Y218413D02*
X59796D01*
X58096Y218513D02*
X59296D01*
D48*
X34449Y9843D02*
Y11810D01*
X33465D01*
X33137Y11482D01*
Y10826D01*
X33465Y10498D01*
X34449D01*
X33793D02*
X33137Y9843D01*
X32481Y11810D02*
X31169D01*
Y11482D01*
X32481Y10170D01*
Y9843D01*
X29298Y54790D02*
X29626Y55117D01*
X30282D01*
X30610Y54790D01*
Y53478D01*
X30282Y53150D01*
X29626D01*
X29298Y53478D01*
X28642Y53150D02*
X27986D01*
X28314D01*
Y55117D01*
X28642Y54790D01*
X-6312Y47640D02*
X-5984Y47968D01*
X-5328D01*
X-5000Y47640D01*
Y46328D01*
X-5328Y46000D01*
X-5984D01*
X-6312Y46328D01*
X-8280Y46000D02*
X-6968D01*
X-8280Y47312D01*
Y47640D01*
X-7952Y47968D01*
X-7296D01*
X-6968Y47640D01*
X-6312Y52040D02*
X-5984Y52368D01*
X-5328D01*
X-5000Y52040D01*
Y50728D01*
X-5328Y50400D01*
X-5984D01*
X-6312Y50728D01*
X-6968Y52040D02*
X-7296Y52368D01*
X-7952D01*
X-8280Y52040D01*
Y51712D01*
X-7952Y51384D01*
X-7624D01*
X-7952D01*
X-8280Y51056D01*
Y50728D01*
X-7952Y50400D01*
X-7296D01*
X-6968Y50728D01*
X34515Y39632D02*
X34843Y39960D01*
X35499D01*
X35827Y39632D01*
Y38320D01*
X35499Y37992D01*
X34843D01*
X34515Y38320D01*
X32875Y37992D02*
Y39960D01*
X33859Y38976D01*
X32547D01*
X53216Y35400D02*
X53544Y35728D01*
X54200D01*
X54528Y35400D01*
Y34088D01*
X54200Y33760D01*
X53544D01*
X53216Y34088D01*
X51248Y35728D02*
X51904Y35400D01*
X52560Y34744D01*
Y34088D01*
X52232Y33760D01*
X51576D01*
X51248Y34088D01*
Y34416D01*
X51576Y34744D01*
X52560D01*
X-54068Y26443D02*
X-53740Y26771D01*
X-53084D01*
X-52756Y26443D01*
Y25131D01*
X-53084Y24803D01*
X-53740D01*
X-54068Y25131D01*
X-54724Y26771D02*
X-56036D01*
Y26443D01*
X-54724Y25131D01*
Y24803D01*
X62369Y35301D02*
X62697Y35629D01*
X63353D01*
X63681Y35301D01*
Y33989D01*
X63353Y33661D01*
X62697D01*
X62369Y33989D01*
X61713Y35301D02*
X61385Y35629D01*
X60729D01*
X60401Y35301D01*
Y34973D01*
X60729Y34645D01*
X60401Y34317D01*
Y33989D01*
X60729Y33661D01*
X61385D01*
X61713Y33989D01*
Y34317D01*
X61385Y34645D01*
X61713Y34973D01*
Y35301D01*
X61385Y34645D02*
X60729D01*
X25197Y44488D02*
Y42520D01*
X24213D01*
X23885Y42848D01*
Y44160D01*
X24213Y44488D01*
X25197D01*
X23229Y42520D02*
X22573D01*
X22901D01*
Y44488D01*
X23229Y44160D01*
X-5100Y42768D02*
Y40800D01*
X-6084D01*
X-6412Y41128D01*
Y42440D01*
X-6084Y42768D01*
X-5100D01*
X-8380Y40800D02*
X-7068D01*
X-8380Y42112D01*
Y42440D01*
X-8052Y42768D01*
X-7396D01*
X-7068Y42440D01*
X18200Y37168D02*
Y35200D01*
X17216D01*
X16888Y35528D01*
Y36840D01*
X17216Y37168D01*
X18200D01*
X16232Y36840D02*
X15904Y37168D01*
X15248D01*
X14920Y36840D01*
Y36512D01*
X15248Y36184D01*
X15576D01*
X15248D01*
X14920Y35856D01*
Y35528D01*
X15248Y35200D01*
X15904D01*
X16232Y35528D01*
X-8700Y37268D02*
Y35300D01*
X-9684D01*
X-10012Y35628D01*
Y36940D01*
X-9684Y37268D01*
X-8700D01*
X-11652Y35300D02*
Y37268D01*
X-10668Y36284D01*
X-11980D01*
X10630Y55905D02*
Y57873D01*
X9646D01*
X9318Y57545D01*
Y56889D01*
X9646Y56561D01*
X10630D01*
X9974D02*
X9318Y55905D01*
X8662D02*
X8006D01*
X8334D01*
Y57873D01*
X8662Y57545D01*
X36614Y53150D02*
Y55117D01*
X35630D01*
X35302Y54790D01*
Y54133D01*
X35630Y53806D01*
X36614D01*
X35958D02*
X35302Y53150D01*
X33334D02*
X34646D01*
X33334Y54461D01*
Y54790D01*
X33662Y55117D01*
X34318D01*
X34646Y54790D01*
X68898Y122441D02*
Y124409D01*
X67914D01*
X67586Y124081D01*
Y123425D01*
X67914Y123097D01*
X68898D01*
X68242D02*
X67586Y122441D01*
X65618Y124409D02*
X66930D01*
Y123425D01*
X66274Y123753D01*
X65946D01*
X65618Y123425D01*
Y122769D01*
X65946Y122441D01*
X66602D01*
X66930Y122769D01*
X25492Y58169D02*
Y56529D01*
X25164Y56201D01*
X24508D01*
X24180Y56529D01*
Y58169D01*
X23524Y56201D02*
X22868D01*
X23196D01*
Y58169D01*
X23524Y57841D01*
X14075Y26673D02*
Y25033D01*
X13747Y24705D01*
X13091D01*
X12763Y25033D01*
Y26673D01*
X10795Y24705D02*
X12107D01*
X10795Y26017D01*
Y26345D01*
X11123Y26673D01*
X11779D01*
X12107Y26345D01*
X47638Y98031D02*
Y96391D01*
X47310Y96063D01*
X46654D01*
X46326Y96391D01*
Y98031D01*
X44686Y96063D02*
Y98031D01*
X45670Y97047D01*
X44358D01*
X54429Y56889D02*
Y55249D01*
X54101Y54921D01*
X53445D01*
X53117Y55249D01*
Y56889D01*
X52461Y56561D02*
X52133Y56889D01*
X51477D01*
X51149Y56561D01*
Y56233D01*
X51477Y55905D01*
X51805D01*
X51477D01*
X51149Y55577D01*
Y55249D01*
X51477Y54921D01*
X52133D01*
X52461Y55249D01*
D61*
X6890Y38583D02*
G03*
X6890Y38583I-197J0D01*
G01*
M02*
