%FSLAX25Y25*%
%MOIN*%
G70*
G01*
G75*
%ADD10O,0.01378X0.03347*%
%ADD11O,0.03347X0.01378*%
%ADD12R,0.16535X0.16535*%
%ADD13R,0.03200X0.03800*%
%ADD14R,0.03800X0.03200*%
%ADD15R,0.15354X0.08268*%
%ADD16R,0.12000X0.07873*%
%ADD17O,0.03150X0.01378*%
%ADD18O,0.01378X0.03150*%
%ADD19R,0.09843X0.09843*%
%ADD20C,0.01181*%
%ADD21C,0.01000*%
%ADD22O,0.11417X0.05512*%
%ADD23O,0.04331X0.05512*%
%ADD24C,0.05906*%
%ADD25C,0.13780*%
%ADD26C,0.06299*%
%ADD27R,0.06299X0.06299*%
%ADD28R,0.06000X0.06000*%
%ADD29C,0.06000*%
%ADD30C,0.05512*%
%ADD31C,0.02362*%
%ADD32C,0.02598*%
%ADD33C,0.01969*%
%ADD34O,0.02559X0.00984*%
%ADD35R,0.07087X0.07874*%
%ADD36R,0.01969X0.08858*%
%ADD37R,0.08071X0.13780*%
%ADD38R,0.08071X0.15748*%
%ADD39R,0.04800X0.02000*%
%ADD40R,0.05118X0.03347*%
%ADD41C,0.01969*%
D10*
X36811Y88287D02*
D03*
X34252D02*
D03*
X31693D02*
D03*
X29134D02*
D03*
X26575D02*
D03*
X24016D02*
D03*
X21457D02*
D03*
X21457Y65256D02*
D03*
X24016D02*
D03*
X26575D02*
D03*
X29134D02*
D03*
X31693D02*
D03*
X34252D02*
D03*
X36811D02*
D03*
D11*
X17618Y84449D02*
D03*
Y81890D02*
D03*
Y79331D02*
D03*
Y76772D02*
D03*
Y74213D02*
D03*
Y71654D02*
D03*
Y69094D02*
D03*
X40650D02*
D03*
Y71654D02*
D03*
Y74213D02*
D03*
Y76772D02*
D03*
Y79331D02*
D03*
Y81890D02*
D03*
Y84449D02*
D03*
D12*
X29134Y76772D02*
D03*
D13*
X52505Y80905D02*
D03*
X46905D02*
D03*
X6058Y79331D02*
D03*
X11658D02*
D03*
X26028Y59449D02*
D03*
X20428D02*
D03*
X46905Y75394D02*
D03*
X52505D02*
D03*
X-40802Y60236D02*
D03*
X-46402D02*
D03*
D14*
X17323Y124060D02*
D03*
Y118460D02*
D03*
X6496Y123961D02*
D03*
Y118361D02*
D03*
X-16339Y123961D02*
D03*
Y118361D02*
D03*
X-4921Y123961D02*
D03*
Y118361D02*
D03*
X-22638D02*
D03*
Y123961D02*
D03*
X-28937Y118361D02*
D03*
Y123961D02*
D03*
X-35236Y118361D02*
D03*
Y123961D02*
D03*
X-41535Y118361D02*
D03*
Y123961D02*
D03*
X-47835Y118361D02*
D03*
Y123961D02*
D03*
X-52658Y80458D02*
D03*
Y74857D02*
D03*
X-52756Y65595D02*
D03*
Y59995D02*
D03*
X-59744Y75733D02*
D03*
Y70133D02*
D03*
X-65551Y75733D02*
D03*
Y70133D02*
D03*
X-71161Y75733D02*
D03*
Y70133D02*
D03*
D15*
X-83200Y33028D02*
D03*
Y73972D02*
D03*
D16*
X-53148Y24605D02*
D03*
Y6891D02*
D03*
X-21655Y24605D02*
D03*
Y6891D02*
D03*
D17*
X-48130Y76181D02*
D03*
Y73622D02*
D03*
Y71063D02*
D03*
Y68504D02*
D03*
X-32776D02*
D03*
Y71063D02*
D03*
Y73622D02*
D03*
Y76181D02*
D03*
D18*
X-44291Y64665D02*
D03*
X-41732D02*
D03*
X-39173D02*
D03*
X-36614D02*
D03*
Y80020D02*
D03*
X-39173D02*
D03*
X-41732D02*
D03*
X-44291D02*
D03*
D19*
X-40453Y72342D02*
D03*
D22*
X-68602Y139075D02*
D03*
X67618D02*
D03*
D23*
X46752Y131398D02*
D03*
X-47736D02*
D03*
X-41831D02*
D03*
X-30020D02*
D03*
X-35925D02*
D03*
X-18209D02*
D03*
X-24114D02*
D03*
X11319D02*
D03*
X17224D02*
D03*
X-492D02*
D03*
X5413D02*
D03*
X-6398D02*
D03*
X-12303D02*
D03*
X34941D02*
D03*
X40846D02*
D03*
X29035D02*
D03*
X23130D02*
D03*
D24*
X-53347Y96653D02*
D03*
X52165Y101772D02*
D03*
X51968Y91732D02*
D03*
D25*
X50984Y25295D02*
D03*
X31299D02*
D03*
D26*
X84646Y61654D02*
D03*
Y81653D02*
D03*
Y91654D02*
D03*
Y101654D02*
D03*
Y111653D02*
D03*
Y71653D02*
D03*
X85827Y191575D02*
D03*
Y181575D02*
D03*
Y171575D02*
D03*
Y161575D02*
D03*
Y201575D02*
D03*
D27*
X84646Y121653D02*
D03*
X85827Y151575D02*
D03*
D28*
X-85827Y117717D02*
D03*
D29*
Y107717D02*
D03*
D30*
X87402Y33071D02*
D03*
Y23228D02*
D03*
Y42913D02*
D03*
X74409Y23228D02*
D03*
Y33071D02*
D03*
Y42913D02*
D03*
M02*
